G04 #@! TF.GenerationSoftware,KiCad,Pcbnew,(6.0.0)*
G04 #@! TF.CreationDate,2022-10-09T22:15:00+02:00*
G04 #@! TF.ProjectId,smol-jvs,736d6f6c-2d6a-4767-932e-6b696361645f,rev?*
G04 #@! TF.SameCoordinates,Original*
G04 #@! TF.FileFunction,Legend,Bot*
G04 #@! TF.FilePolarity,Positive*
%FSLAX46Y46*%
G04 Gerber Fmt 4.6, Leading zero omitted, Abs format (unit mm)*
G04 Created by KiCad (PCBNEW (6.0.0)) date 2022-10-09 22:15:00*
%MOMM*%
%LPD*%
G01*
G04 APERTURE LIST*
%ADD10C,0.150000*%
G04 APERTURE END LIST*
D10*
X209847619Y-86602380D02*
X210847619Y-86602380D01*
X209847619Y-86173809D02*
X210371428Y-86173809D01*
X210466666Y-86221428D01*
X210514285Y-86316666D01*
X210514285Y-86459523D01*
X210466666Y-86554761D01*
X210419047Y-86602380D01*
X210514285Y-85840476D02*
X210514285Y-85459523D01*
X210847619Y-85697619D02*
X209990476Y-85697619D01*
X209895238Y-85650000D01*
X209847619Y-85554761D01*
X209847619Y-85459523D01*
X210514285Y-85269047D02*
X210514285Y-84888095D01*
X210847619Y-85126190D02*
X209990476Y-85126190D01*
X209895238Y-85078571D01*
X209847619Y-84983333D01*
X209847619Y-84888095D01*
X210514285Y-84554761D02*
X209514285Y-84554761D01*
X210466666Y-84554761D02*
X210514285Y-84459523D01*
X210514285Y-84269047D01*
X210466666Y-84173809D01*
X210419047Y-84126190D01*
X210323809Y-84078571D01*
X210038095Y-84078571D01*
X209942857Y-84126190D01*
X209895238Y-84173809D01*
X209847619Y-84269047D01*
X209847619Y-84459523D01*
X209895238Y-84554761D01*
X209895238Y-83697619D02*
X209847619Y-83602380D01*
X209847619Y-83411904D01*
X209895238Y-83316666D01*
X209990476Y-83269047D01*
X210038095Y-83269047D01*
X210133333Y-83316666D01*
X210180952Y-83411904D01*
X210180952Y-83554761D01*
X210228571Y-83650000D01*
X210323809Y-83697619D01*
X210371428Y-83697619D01*
X210466666Y-83650000D01*
X210514285Y-83554761D01*
X210514285Y-83411904D01*
X210466666Y-83316666D01*
X209942857Y-82840476D02*
X209895238Y-82792857D01*
X209847619Y-82840476D01*
X209895238Y-82888095D01*
X209942857Y-82840476D01*
X209847619Y-82840476D01*
X210466666Y-82840476D02*
X210419047Y-82792857D01*
X210371428Y-82840476D01*
X210419047Y-82888095D01*
X210466666Y-82840476D01*
X210371428Y-82840476D01*
X210895238Y-81650000D02*
X209609523Y-82507142D01*
X210895238Y-80602380D02*
X209609523Y-81459523D01*
X210514285Y-79840476D02*
X209704761Y-79840476D01*
X209609523Y-79888095D01*
X209561904Y-79935714D01*
X209514285Y-80030952D01*
X209514285Y-80173809D01*
X209561904Y-80269047D01*
X209895238Y-79840476D02*
X209847619Y-79935714D01*
X209847619Y-80126190D01*
X209895238Y-80221428D01*
X209942857Y-80269047D01*
X210038095Y-80316666D01*
X210323809Y-80316666D01*
X210419047Y-80269047D01*
X210466666Y-80221428D01*
X210514285Y-80126190D01*
X210514285Y-79935714D01*
X210466666Y-79840476D01*
X209847619Y-79364285D02*
X210514285Y-79364285D01*
X210847619Y-79364285D02*
X210800000Y-79411904D01*
X210752380Y-79364285D01*
X210800000Y-79316666D01*
X210847619Y-79364285D01*
X210752380Y-79364285D01*
X210514285Y-79030952D02*
X210514285Y-78650000D01*
X210847619Y-78888095D02*
X209990476Y-78888095D01*
X209895238Y-78840476D01*
X209847619Y-78745238D01*
X209847619Y-78650000D01*
X209847619Y-78316666D02*
X210847619Y-78316666D01*
X209847619Y-77888095D02*
X210371428Y-77888095D01*
X210466666Y-77935714D01*
X210514285Y-78030952D01*
X210514285Y-78173809D01*
X210466666Y-78269047D01*
X210419047Y-78316666D01*
X210514285Y-76983333D02*
X209847619Y-76983333D01*
X210514285Y-77411904D02*
X209990476Y-77411904D01*
X209895238Y-77364285D01*
X209847619Y-77269047D01*
X209847619Y-77126190D01*
X209895238Y-77030952D01*
X209942857Y-76983333D01*
X209847619Y-76507142D02*
X210847619Y-76507142D01*
X210466666Y-76507142D02*
X210514285Y-76411904D01*
X210514285Y-76221428D01*
X210466666Y-76126190D01*
X210419047Y-76078571D01*
X210323809Y-76030952D01*
X210038095Y-76030952D01*
X209942857Y-76078571D01*
X209895238Y-76126190D01*
X209847619Y-76221428D01*
X209847619Y-76411904D01*
X209895238Y-76507142D01*
X209942857Y-75602380D02*
X209895238Y-75554761D01*
X209847619Y-75602380D01*
X209895238Y-75650000D01*
X209942857Y-75602380D01*
X209847619Y-75602380D01*
X209895238Y-74697619D02*
X209847619Y-74792857D01*
X209847619Y-74983333D01*
X209895238Y-75078571D01*
X209942857Y-75126190D01*
X210038095Y-75173809D01*
X210323809Y-75173809D01*
X210419047Y-75126190D01*
X210466666Y-75078571D01*
X210514285Y-74983333D01*
X210514285Y-74792857D01*
X210466666Y-74697619D01*
X209847619Y-74126190D02*
X209895238Y-74221428D01*
X209942857Y-74269047D01*
X210038095Y-74316666D01*
X210323809Y-74316666D01*
X210419047Y-74269047D01*
X210466666Y-74221428D01*
X210514285Y-74126190D01*
X210514285Y-73983333D01*
X210466666Y-73888095D01*
X210419047Y-73840476D01*
X210323809Y-73792857D01*
X210038095Y-73792857D01*
X209942857Y-73840476D01*
X209895238Y-73888095D01*
X209847619Y-73983333D01*
X209847619Y-74126190D01*
X209847619Y-73364285D02*
X210514285Y-73364285D01*
X210419047Y-73364285D02*
X210466666Y-73316666D01*
X210514285Y-73221428D01*
X210514285Y-73078571D01*
X210466666Y-72983333D01*
X210371428Y-72935714D01*
X209847619Y-72935714D01*
X210371428Y-72935714D02*
X210466666Y-72888095D01*
X210514285Y-72792857D01*
X210514285Y-72650000D01*
X210466666Y-72554761D01*
X210371428Y-72507142D01*
X209847619Y-72507142D01*
X210895238Y-71316666D02*
X209609523Y-72173809D01*
X209847619Y-70983333D02*
X210847619Y-70983333D01*
X210466666Y-70983333D02*
X210514285Y-70888095D01*
X210514285Y-70697619D01*
X210466666Y-70602380D01*
X210419047Y-70554761D01*
X210323809Y-70507142D01*
X210038095Y-70507142D01*
X209942857Y-70554761D01*
X209895238Y-70602380D01*
X209847619Y-70697619D01*
X209847619Y-70888095D01*
X209895238Y-70983333D01*
X210514285Y-69650000D02*
X209847619Y-69650000D01*
X210514285Y-70078571D02*
X209990476Y-70078571D01*
X209895238Y-70030952D01*
X209847619Y-69935714D01*
X209847619Y-69792857D01*
X209895238Y-69697619D01*
X209942857Y-69650000D01*
X210514285Y-69316666D02*
X210514285Y-68935714D01*
X209847619Y-69173809D02*
X210704761Y-69173809D01*
X210800000Y-69126190D01*
X210847619Y-69030952D01*
X210847619Y-68935714D01*
X210514285Y-68745238D02*
X210514285Y-68364285D01*
X209847619Y-68602380D02*
X210704761Y-68602380D01*
X210800000Y-68554761D01*
X210847619Y-68459523D01*
X210847619Y-68364285D01*
X209847619Y-68030952D02*
X210514285Y-68030952D01*
X210847619Y-68030952D02*
X210800000Y-68078571D01*
X210752380Y-68030952D01*
X210800000Y-67983333D01*
X210847619Y-68030952D01*
X210752380Y-68030952D01*
X209895238Y-67602380D02*
X209847619Y-67507142D01*
X209847619Y-67316666D01*
X209895238Y-67221428D01*
X209990476Y-67173809D01*
X210038095Y-67173809D01*
X210133333Y-67221428D01*
X210180952Y-67316666D01*
X210180952Y-67459523D01*
X210228571Y-67554761D01*
X210323809Y-67602380D01*
X210371428Y-67602380D01*
X210466666Y-67554761D01*
X210514285Y-67459523D01*
X210514285Y-67316666D01*
X210466666Y-67221428D01*
X210895238Y-66030952D02*
X209609523Y-66888095D01*
X209895238Y-65745238D02*
X209847619Y-65650000D01*
X209847619Y-65459523D01*
X209895238Y-65364285D01*
X209990476Y-65316666D01*
X210038095Y-65316666D01*
X210133333Y-65364285D01*
X210180952Y-65459523D01*
X210180952Y-65602380D01*
X210228571Y-65697619D01*
X210323809Y-65745238D01*
X210371428Y-65745238D01*
X210466666Y-65697619D01*
X210514285Y-65602380D01*
X210514285Y-65459523D01*
X210466666Y-65364285D01*
X209847619Y-64888095D02*
X210514285Y-64888095D01*
X210419047Y-64888095D02*
X210466666Y-64840476D01*
X210514285Y-64745238D01*
X210514285Y-64602380D01*
X210466666Y-64507142D01*
X210371428Y-64459523D01*
X209847619Y-64459523D01*
X210371428Y-64459523D02*
X210466666Y-64411904D01*
X210514285Y-64316666D01*
X210514285Y-64173809D01*
X210466666Y-64078571D01*
X210371428Y-64030952D01*
X209847619Y-64030952D01*
X209847619Y-63411904D02*
X209895238Y-63507142D01*
X209942857Y-63554761D01*
X210038095Y-63602380D01*
X210323809Y-63602380D01*
X210419047Y-63554761D01*
X210466666Y-63507142D01*
X210514285Y-63411904D01*
X210514285Y-63269047D01*
X210466666Y-63173809D01*
X210419047Y-63126190D01*
X210323809Y-63078571D01*
X210038095Y-63078571D01*
X209942857Y-63126190D01*
X209895238Y-63173809D01*
X209847619Y-63269047D01*
X209847619Y-63411904D01*
X209847619Y-62507142D02*
X209895238Y-62602380D01*
X209990476Y-62650000D01*
X210847619Y-62650000D01*
X210228571Y-62126190D02*
X210228571Y-61364285D01*
X210514285Y-60888095D02*
X209657142Y-60888095D01*
X209561904Y-60935714D01*
X209514285Y-61030952D01*
X209514285Y-61078571D01*
X210847619Y-60888095D02*
X210800000Y-60935714D01*
X210752380Y-60888095D01*
X210800000Y-60840476D01*
X210847619Y-60888095D01*
X210752380Y-60888095D01*
X210514285Y-60507142D02*
X209847619Y-60269047D01*
X210514285Y-60030952D01*
X209895238Y-59697619D02*
X209847619Y-59602380D01*
X209847619Y-59411904D01*
X209895238Y-59316666D01*
X209990476Y-59269047D01*
X210038095Y-59269047D01*
X210133333Y-59316666D01*
X210180952Y-59411904D01*
X210180952Y-59554761D01*
X210228571Y-59650000D01*
X210323809Y-59697619D01*
X210371428Y-59697619D01*
X210466666Y-59650000D01*
X210514285Y-59554761D01*
X210514285Y-59411904D01*
X210466666Y-59316666D01*
X210228571Y-58840476D02*
X210228571Y-58078571D01*
X209847619Y-57602380D02*
X210514285Y-57602380D01*
X210847619Y-57602380D02*
X210800000Y-57650000D01*
X210752380Y-57602380D01*
X210800000Y-57554761D01*
X210847619Y-57602380D01*
X210752380Y-57602380D01*
X209847619Y-56983333D02*
X209895238Y-57078571D01*
X209942857Y-57126190D01*
X210038095Y-57173809D01*
X210323809Y-57173809D01*
X210419047Y-57126190D01*
X210466666Y-57078571D01*
X210514285Y-56983333D01*
X210514285Y-56840476D01*
X210466666Y-56745238D01*
X210419047Y-56697619D01*
X210323809Y-56650000D01*
X210038095Y-56650000D01*
X209942857Y-56697619D01*
X209895238Y-56745238D01*
X209847619Y-56840476D01*
X209847619Y-56983333D01*
M02*
