G04 #@! TF.GenerationSoftware,KiCad,Pcbnew,(6.0.0)*
G04 #@! TF.CreationDate,2022-10-09T22:15:00+02:00*
G04 #@! TF.ProjectId,smol-jvs,736d6f6c-2d6a-4767-932e-6b696361645f,rev?*
G04 #@! TF.SameCoordinates,Original*
G04 #@! TF.FileFunction,Soldermask,Bot*
G04 #@! TF.FilePolarity,Negative*
%FSLAX46Y46*%
G04 Gerber Fmt 4.6, Leading zero omitted, Abs format (unit mm)*
G04 Created by KiCad (PCBNEW (6.0.0)) date 2022-10-09 22:15:00*
%MOMM*%
%LPD*%
G01*
G04 APERTURE LIST*
G04 Aperture macros list*
%AMRoundRect*
0 Rectangle with rounded corners*
0 $1 Rounding radius*
0 $2 $3 $4 $5 $6 $7 $8 $9 X,Y pos of 4 corners*
0 Add a 4 corners polygon primitive as box body*
4,1,4,$2,$3,$4,$5,$6,$7,$8,$9,$2,$3,0*
0 Add four circle primitives for the rounded corners*
1,1,$1+$1,$2,$3*
1,1,$1+$1,$4,$5*
1,1,$1+$1,$6,$7*
1,1,$1+$1,$8,$9*
0 Add four rect primitives between the rounded corners*
20,1,$1+$1,$2,$3,$4,$5,0*
20,1,$1+$1,$4,$5,$6,$7,0*
20,1,$1+$1,$6,$7,$8,$9,0*
20,1,$1+$1,$8,$9,$2,$3,0*%
G04 Aperture macros list end*
%ADD10R,1.700000X1.700000*%
%ADD11C,1.700000*%
%ADD12C,3.500000*%
%ADD13O,1.500000X1.500000*%
%ADD14O,1.800000X1.800000*%
%ADD15O,1.700000X1.700000*%
%ADD16C,1.200000*%
%ADD17RoundRect,0.250000X-0.750000X0.600000X-0.750000X-0.600000X0.750000X-0.600000X0.750000X0.600000X0*%
%ADD18O,2.000000X1.700000*%
%ADD19C,5.000000*%
%ADD20RoundRect,0.250000X-0.625000X0.350000X-0.625000X-0.350000X0.625000X-0.350000X0.625000X0.350000X0*%
%ADD21O,1.750000X1.200000*%
G04 APERTURE END LIST*
D10*
G04 #@! TO.C,J1*
X186750000Y-60077500D03*
D11*
X189250000Y-60077500D03*
X189250000Y-58077500D03*
X186750000Y-58077500D03*
D12*
X181980000Y-55367500D03*
X194020000Y-55367500D03*
G04 #@! TD*
D13*
G04 #@! TO.C,U2*
X207475000Y-49630000D03*
D14*
X207175000Y-46600000D03*
D13*
X212325000Y-49630000D03*
D14*
X212625000Y-46600000D03*
D15*
X201010000Y-46470000D03*
X201010000Y-49010000D03*
D10*
X201010000Y-51550000D03*
D15*
X201010000Y-54090000D03*
X201010000Y-56630000D03*
X201010000Y-59170000D03*
X201010000Y-61710000D03*
D10*
X201010000Y-64250000D03*
D15*
X201010000Y-66790000D03*
X201010000Y-69330000D03*
X201010000Y-71870000D03*
X201010000Y-74410000D03*
D10*
X201010000Y-76950000D03*
D15*
X201010000Y-79490000D03*
X201010000Y-82030000D03*
X201010000Y-84570000D03*
X201010000Y-87110000D03*
D10*
X201010000Y-89650000D03*
D15*
X201010000Y-92190000D03*
X201010000Y-94730000D03*
X218790000Y-94730000D03*
X218790000Y-92190000D03*
D10*
X218790000Y-89650000D03*
D15*
X218790000Y-87110000D03*
X218790000Y-84570000D03*
X218790000Y-82030000D03*
X218790000Y-79490000D03*
D10*
X218790000Y-76950000D03*
D15*
X218790000Y-74410000D03*
X218790000Y-71870000D03*
X218790000Y-69330000D03*
X218790000Y-66790000D03*
D10*
X218790000Y-64250000D03*
D15*
X218790000Y-61710000D03*
X218790000Y-59170000D03*
X218790000Y-56630000D03*
X218790000Y-54090000D03*
D10*
X218790000Y-51550000D03*
D15*
X218790000Y-49010000D03*
X218790000Y-46470000D03*
X207360000Y-94500000D03*
D10*
X209900000Y-94500000D03*
D15*
X212440000Y-94500000D03*
G04 #@! TD*
D16*
G04 #@! TO.C,J5*
X233000000Y-53400000D03*
D17*
X235000000Y-55000000D03*
D18*
X235000000Y-57500000D03*
G04 #@! TD*
D10*
G04 #@! TO.C,J6*
X233725000Y-65575000D03*
D15*
X236265000Y-65575000D03*
X233725000Y-68115000D03*
X236265000Y-68115000D03*
X233725000Y-70655000D03*
X236265000Y-70655000D03*
X233725000Y-73195000D03*
X236265000Y-73195000D03*
X233725000Y-75735000D03*
X236265000Y-75735000D03*
X233725000Y-78275000D03*
X236265000Y-78275000D03*
X233725000Y-80815000D03*
X236265000Y-80815000D03*
X233725000Y-83355000D03*
X236265000Y-83355000D03*
X233725000Y-85895000D03*
X236265000Y-85895000D03*
X233725000Y-88435000D03*
X236265000Y-88435000D03*
G04 #@! TD*
D19*
G04 #@! TO.C,H4*
X237000000Y-96000000D03*
G04 #@! TD*
D20*
G04 #@! TO.C,J3*
X176300000Y-81250000D03*
D21*
X176300000Y-83250000D03*
X176300000Y-85250000D03*
X176300000Y-87250000D03*
G04 #@! TD*
D19*
G04 #@! TO.C,H3*
X175000000Y-96000000D03*
G04 #@! TD*
D20*
G04 #@! TO.C,J2*
X176300000Y-65750000D03*
D21*
X176300000Y-67750000D03*
X176300000Y-69750000D03*
X176300000Y-71750000D03*
G04 #@! TD*
D19*
G04 #@! TO.C,H2*
X237000000Y-47000000D03*
G04 #@! TD*
G04 #@! TO.C,H1*
X175000000Y-47000000D03*
G04 #@! TD*
M02*
