M48
; DRILL file {KiCad (6.0.0)} date Sun Oct  9 22:15:02 2022
; FORMAT={-:-/ absolute / metric / decimal}
; #@! TF.CreationDate,2022-10-09T22:15:02+02:00
; #@! TF.GenerationSoftware,Kicad,Pcbnew,(6.0.0)
; #@! TF.FileFunction,Plated,1,2,PTH
FMAT,2
METRIC
; #@! TA.AperFunction,Plated,PTH,ComponentDrill
T1C0.750
; #@! TA.AperFunction,Plated,PTH,ComponentDrill
T2C0.920
; #@! TA.AperFunction,Plated,PTH,ComponentDrill
T3C1.000
; #@! TA.AperFunction,Plated,PTH,ComponentDrill
T4C1.020
; #@! TA.AperFunction,Plated,PTH,ComponentDrill
T5C2.330
; #@! TA.AperFunction,Plated,PTH,ComponentDrill
T6C2.500
%
G90
G05
T1
X176.3Y-65.75
X176.3Y-67.75
X176.3Y-69.75
X176.3Y-71.75
X176.3Y-81.25
X176.3Y-83.25
X176.3Y-85.25
X176.3Y-87.25
T2
X186.75Y-58.078
X186.75Y-60.078
X189.25Y-58.078
X189.25Y-60.078
T3
X233.725Y-65.575
X233.725Y-68.115
X233.725Y-70.655
X233.725Y-73.195
X233.725Y-75.735
X233.725Y-78.275
X233.725Y-80.815
X233.725Y-83.355
X233.725Y-85.895
X233.725Y-88.435
X235.0Y-55.0
X235.0Y-57.5
X236.265Y-65.575
X236.265Y-68.115
X236.265Y-70.655
X236.265Y-73.195
X236.265Y-75.735
X236.265Y-78.275
X236.265Y-80.815
X236.265Y-83.355
X236.265Y-85.895
X236.265Y-88.435
T4
X201.01Y-46.47
X201.01Y-49.01
X201.01Y-51.55
X201.01Y-54.09
X201.01Y-56.63
X201.01Y-59.17
X201.01Y-61.71
X201.01Y-64.25
X201.01Y-66.79
X201.01Y-69.33
X201.01Y-71.87
X201.01Y-74.41
X201.01Y-76.95
X201.01Y-79.49
X201.01Y-82.03
X201.01Y-84.57
X201.01Y-87.11
X201.01Y-89.65
X201.01Y-92.19
X201.01Y-94.73
X207.36Y-94.5
X209.9Y-94.5
X212.44Y-94.5
X218.79Y-46.47
X218.79Y-49.01
X218.79Y-51.55
X218.79Y-54.09
X218.79Y-56.63
X218.79Y-59.17
X218.79Y-61.71
X218.79Y-64.25
X218.79Y-66.79
X218.79Y-69.33
X218.79Y-71.87
X218.79Y-74.41
X218.79Y-76.95
X218.79Y-79.49
X218.79Y-82.03
X218.79Y-84.57
X218.79Y-87.11
X218.79Y-89.65
X218.79Y-92.19
X218.79Y-94.73
T5
X181.98Y-55.367
X194.02Y-55.367
T6
X175.0Y-47.0
X175.0Y-96.0
X237.0Y-47.0
X237.0Y-96.0
T0
M30
