G04 #@! TF.GenerationSoftware,KiCad,Pcbnew,(6.0.0)*
G04 #@! TF.CreationDate,2022-10-09T22:15:00+02:00*
G04 #@! TF.ProjectId,smol-jvs,736d6f6c-2d6a-4767-932e-6b696361645f,rev?*
G04 #@! TF.SameCoordinates,Original*
G04 #@! TF.FileFunction,Legend,Top*
G04 #@! TF.FilePolarity,Positive*
%FSLAX46Y46*%
G04 Gerber Fmt 4.6, Leading zero omitted, Abs format (unit mm)*
G04 Created by KiCad (PCBNEW (6.0.0)) date 2022-10-09 22:15:00*
%MOMM*%
%LPD*%
G01*
G04 APERTURE LIST*
%ADD10C,0.120000*%
%ADD11C,0.150000*%
%ADD12C,0.100000*%
%ADD13C,0.200000*%
G04 APERTURE END LIST*
D10*
X224790000Y-79605000D02*
X224790000Y-77065000D01*
X224790000Y-74525000D02*
X224790000Y-71985000D01*
X224790000Y-77065000D02*
X229870000Y-77065000D01*
X224790000Y-69445000D02*
X224790000Y-66905000D01*
X224790000Y-64365000D02*
X229870000Y-64365000D01*
X229870000Y-69445000D02*
X224790000Y-69445000D01*
X224790000Y-84685000D02*
X224790000Y-82145000D01*
X229870000Y-66905000D02*
X229870000Y-64365000D01*
X224790000Y-87225000D02*
X229870000Y-87225000D01*
X224790000Y-64365000D02*
X224790000Y-89765000D01*
X229870000Y-84685000D02*
X224790000Y-84685000D01*
X224790000Y-66905000D02*
X229870000Y-66905000D01*
X229870000Y-82145000D02*
X229870000Y-79605000D01*
X229870000Y-79605000D02*
X224790000Y-79605000D01*
X229870000Y-89765000D02*
X229870000Y-64365000D01*
X227330000Y-64365000D02*
X227330000Y-89765000D01*
X224790000Y-71985000D02*
X229870000Y-71985000D01*
X224790000Y-82145000D02*
X229870000Y-82145000D01*
X229870000Y-89765000D02*
X224790000Y-89765000D01*
X229870000Y-71985000D02*
X229870000Y-69445000D01*
X229870000Y-74525000D02*
X224790000Y-74525000D01*
X229870000Y-87225000D02*
X229870000Y-84685000D01*
D11*
X179707023Y-71350000D02*
X179630833Y-71311904D01*
X179516547Y-71311904D01*
X179402261Y-71350000D01*
X179326071Y-71426190D01*
X179287976Y-71502380D01*
X179249880Y-71654761D01*
X179249880Y-71769047D01*
X179287976Y-71921428D01*
X179326071Y-71997619D01*
X179402261Y-72073809D01*
X179516547Y-72111904D01*
X179592738Y-72111904D01*
X179707023Y-72073809D01*
X179745119Y-72035714D01*
X179745119Y-71769047D01*
X179592738Y-71769047D01*
X180087976Y-72111904D02*
X180087976Y-71311904D01*
X180545119Y-72111904D01*
X180545119Y-71311904D01*
X180926071Y-72111904D02*
X180926071Y-71311904D01*
X181116547Y-71311904D01*
X181230833Y-71350000D01*
X181307023Y-71426190D01*
X181345119Y-71502380D01*
X181383214Y-71654761D01*
X181383214Y-71769047D01*
X181345119Y-71921428D01*
X181307023Y-71997619D01*
X181230833Y-72073809D01*
X181116547Y-72111904D01*
X180926071Y-72111904D01*
D12*
X189127850Y-96633960D02*
X188562165Y-96068274D01*
X188777664Y-96283773D02*
X188804601Y-96202961D01*
X188912351Y-96095211D01*
X188993163Y-96068274D01*
X189047038Y-96068274D01*
X189127850Y-96095211D01*
X189289475Y-96256836D01*
X189316412Y-96337648D01*
X189316412Y-96391523D01*
X189289475Y-96472335D01*
X189181725Y-96580085D01*
X189100913Y-96607022D01*
X189504974Y-95502589D02*
X189882097Y-95879712D01*
X189262537Y-95745025D02*
X189558849Y-96041337D01*
X189639661Y-96068274D01*
X189720473Y-96041337D01*
X189801285Y-95960524D01*
X189828223Y-95879712D01*
X189828223Y-95825837D01*
X189693536Y-95314027D02*
X189909035Y-95098528D01*
X190151471Y-95610338D02*
X189666598Y-95125465D01*
X189639661Y-95044653D01*
X189666598Y-94963841D01*
X189720473Y-94909966D01*
X190016784Y-94990778D02*
X190232284Y-94775279D01*
X190474720Y-95287089D02*
X189989847Y-94802216D01*
X189962910Y-94721404D01*
X189989847Y-94640592D01*
X190043722Y-94586717D01*
X190797969Y-94963841D02*
X190420845Y-94586717D01*
X190232284Y-94398155D02*
X190232284Y-94452030D01*
X190286158Y-94452030D01*
X190286158Y-94398155D01*
X190232284Y-94398155D01*
X190286158Y-94452030D01*
X190959593Y-93778595D02*
X190959593Y-93724720D01*
X190986531Y-93643908D01*
X191121218Y-93509221D01*
X191202030Y-93482284D01*
X191255905Y-93482284D01*
X191336717Y-93509221D01*
X191390592Y-93563096D01*
X191444467Y-93670845D01*
X191444467Y-94317343D01*
X191794653Y-93967157D01*
X191579154Y-93051285D02*
X191633028Y-92997410D01*
X191713841Y-92970473D01*
X191767715Y-92970473D01*
X191848528Y-92997410D01*
X191983215Y-93078223D01*
X192117902Y-93212910D01*
X192198714Y-93347597D01*
X192225651Y-93428409D01*
X192225651Y-93482284D01*
X192198714Y-93563096D01*
X192144839Y-93616971D01*
X192064027Y-93643908D01*
X192010152Y-93643908D01*
X191929340Y-93616971D01*
X191794653Y-93536158D01*
X191659966Y-93401471D01*
X191579154Y-93266784D01*
X191552216Y-93185972D01*
X191552216Y-93132097D01*
X191579154Y-93051285D01*
X192037089Y-92701099D02*
X192037089Y-92647224D01*
X192064027Y-92566412D01*
X192198714Y-92431725D01*
X192279526Y-92404788D01*
X192333401Y-92404788D01*
X192414213Y-92431725D01*
X192468088Y-92485600D01*
X192521963Y-92593349D01*
X192521963Y-93239847D01*
X192872149Y-92889661D01*
X192575837Y-92162351D02*
X192575837Y-92108476D01*
X192602775Y-92027664D01*
X192737462Y-91892977D01*
X192818274Y-91866039D01*
X192872149Y-91866039D01*
X192952961Y-91892977D01*
X193006836Y-91946852D01*
X193060711Y-92054601D01*
X193060711Y-92701099D01*
X193410897Y-92350913D01*
D11*
X225806190Y-73659761D02*
X225949047Y-73707380D01*
X226187142Y-73707380D01*
X226282380Y-73659761D01*
X226330000Y-73612142D01*
X226377619Y-73516904D01*
X226377619Y-73421666D01*
X226330000Y-73326428D01*
X226282380Y-73278809D01*
X226187142Y-73231190D01*
X225996666Y-73183571D01*
X225901428Y-73135952D01*
X225853809Y-73088333D01*
X225806190Y-72993095D01*
X225806190Y-72897857D01*
X225853809Y-72802619D01*
X225901428Y-72755000D01*
X225996666Y-72707380D01*
X226234761Y-72707380D01*
X226377619Y-72755000D01*
X228853809Y-73707380D02*
X228282380Y-73707380D01*
X228568095Y-73707380D02*
X228568095Y-72707380D01*
X228472857Y-72850238D01*
X228377619Y-72945476D01*
X228282380Y-72993095D01*
X233978571Y-63361904D02*
X233521428Y-63361904D01*
X233750000Y-63361904D02*
X233750000Y-62561904D01*
X233673809Y-62676190D01*
X233597619Y-62752380D01*
X233521428Y-62790476D01*
X179287976Y-81611904D02*
X179287976Y-80811904D01*
X179478452Y-80811904D01*
X179592738Y-80850000D01*
X179668928Y-80926190D01*
X179707023Y-81002380D01*
X179745119Y-81154761D01*
X179745119Y-81269047D01*
X179707023Y-81421428D01*
X179668928Y-81497619D01*
X179592738Y-81573809D01*
X179478452Y-81611904D01*
X179287976Y-81611904D01*
X180087976Y-81611904D02*
X180087976Y-80811904D01*
X180468928Y-81611904D02*
X180468928Y-80811904D01*
X180773690Y-80811904D01*
X180849880Y-80850000D01*
X180887976Y-80888095D01*
X180926071Y-80964285D01*
X180926071Y-81078571D01*
X180887976Y-81154761D01*
X180849880Y-81192857D01*
X180773690Y-81230952D01*
X180468928Y-81230952D01*
X181687976Y-81611904D02*
X181230833Y-81611904D01*
X181459404Y-81611904D02*
X181459404Y-80811904D01*
X181383214Y-80926190D01*
X181307023Y-81002380D01*
X181230833Y-81040476D01*
X179287976Y-85611904D02*
X179287976Y-84811904D01*
X179478452Y-84811904D01*
X179592738Y-84850000D01*
X179668928Y-84926190D01*
X179707023Y-85002380D01*
X179745119Y-85154761D01*
X179745119Y-85269047D01*
X179707023Y-85421428D01*
X179668928Y-85497619D01*
X179592738Y-85573809D01*
X179478452Y-85611904D01*
X179287976Y-85611904D01*
X180087976Y-85611904D02*
X180087976Y-84811904D01*
X180468928Y-85611904D02*
X180468928Y-84811904D01*
X180773690Y-84811904D01*
X180849880Y-84850000D01*
X180887976Y-84888095D01*
X180926071Y-84964285D01*
X180926071Y-85078571D01*
X180887976Y-85154761D01*
X180849880Y-85192857D01*
X180773690Y-85230952D01*
X180468928Y-85230952D01*
X181192738Y-84811904D02*
X181687976Y-84811904D01*
X181421309Y-85116666D01*
X181535595Y-85116666D01*
X181611785Y-85154761D01*
X181649880Y-85192857D01*
X181687976Y-85269047D01*
X181687976Y-85459523D01*
X181649880Y-85535714D01*
X181611785Y-85573809D01*
X181535595Y-85611904D01*
X181307023Y-85611904D01*
X181230833Y-85573809D01*
X181192738Y-85535714D01*
X226282380Y-80660714D02*
X226282380Y-81327380D01*
X226044285Y-80279761D02*
X225806190Y-80994047D01*
X226425238Y-80994047D01*
X228806190Y-80327380D02*
X228330000Y-80327380D01*
X228282380Y-80803571D01*
X228330000Y-80755952D01*
X228425238Y-80708333D01*
X228663333Y-80708333D01*
X228758571Y-80755952D01*
X228806190Y-80803571D01*
X228853809Y-80898809D01*
X228853809Y-81136904D01*
X228806190Y-81232142D01*
X228758571Y-81279761D01*
X228663333Y-81327380D01*
X228425238Y-81327380D01*
X228330000Y-81279761D01*
X228282380Y-81232142D01*
X225782380Y-65087380D02*
X225782380Y-65896904D01*
X225830000Y-65992142D01*
X225877619Y-66039761D01*
X225972857Y-66087380D01*
X226163333Y-66087380D01*
X226258571Y-66039761D01*
X226306190Y-65992142D01*
X226353809Y-65896904D01*
X226353809Y-65087380D01*
X228353809Y-66087380D02*
X228353809Y-65087380D01*
X228591904Y-65087380D01*
X228734761Y-65135000D01*
X228830000Y-65230238D01*
X228877619Y-65325476D01*
X228925238Y-65515952D01*
X228925238Y-65658809D01*
X228877619Y-65849285D01*
X228830000Y-65944523D01*
X228734761Y-66039761D01*
X228591904Y-66087380D01*
X228353809Y-66087380D01*
X226330000Y-85455000D02*
X226234761Y-85407380D01*
X226091904Y-85407380D01*
X225949047Y-85455000D01*
X225853809Y-85550238D01*
X225806190Y-85645476D01*
X225758571Y-85835952D01*
X225758571Y-85978809D01*
X225806190Y-86169285D01*
X225853809Y-86264523D01*
X225949047Y-86359761D01*
X226091904Y-86407380D01*
X226187142Y-86407380D01*
X226330000Y-86359761D01*
X226377619Y-86312142D01*
X226377619Y-85978809D01*
X226187142Y-85978809D01*
X228853809Y-85455000D02*
X228758571Y-85407380D01*
X228615714Y-85407380D01*
X228472857Y-85455000D01*
X228377619Y-85550238D01*
X228330000Y-85645476D01*
X228282380Y-85835952D01*
X228282380Y-85978809D01*
X228330000Y-86169285D01*
X228377619Y-86264523D01*
X228472857Y-86359761D01*
X228615714Y-86407380D01*
X228710952Y-86407380D01*
X228853809Y-86359761D01*
X228901428Y-86312142D01*
X228901428Y-85978809D01*
X228710952Y-85978809D01*
X225734761Y-77787380D02*
X226401428Y-78787380D01*
X226401428Y-77787380D02*
X225734761Y-78787380D01*
X228830000Y-77835000D02*
X228734761Y-77787380D01*
X228591904Y-77787380D01*
X228449047Y-77835000D01*
X228353809Y-77930238D01*
X228306190Y-78025476D01*
X228258571Y-78215952D01*
X228258571Y-78358809D01*
X228306190Y-78549285D01*
X228353809Y-78644523D01*
X228449047Y-78739761D01*
X228591904Y-78787380D01*
X228687142Y-78787380D01*
X228830000Y-78739761D01*
X228877619Y-78692142D01*
X228877619Y-78358809D01*
X228687142Y-78358809D01*
X235640476Y-90888095D02*
X235678571Y-90850000D01*
X235754761Y-90811904D01*
X235945238Y-90811904D01*
X236021428Y-90850000D01*
X236059523Y-90888095D01*
X236097619Y-90964285D01*
X236097619Y-91040476D01*
X236059523Y-91154761D01*
X235602380Y-91611904D01*
X236097619Y-91611904D01*
X236592857Y-90811904D02*
X236669047Y-90811904D01*
X236745238Y-90850000D01*
X236783333Y-90888095D01*
X236821428Y-90964285D01*
X236859523Y-91116666D01*
X236859523Y-91307142D01*
X236821428Y-91459523D01*
X236783333Y-91535714D01*
X236745238Y-91573809D01*
X236669047Y-91611904D01*
X236592857Y-91611904D01*
X236516666Y-91573809D01*
X236478571Y-91535714D01*
X236440476Y-91459523D01*
X236402380Y-91307142D01*
X236402380Y-91116666D01*
X236440476Y-90964285D01*
X236478571Y-90888095D01*
X236516666Y-90850000D01*
X236592857Y-90811904D01*
X225949047Y-88566428D02*
X226710952Y-88566428D01*
X226330000Y-88947380D02*
X226330000Y-88185476D01*
X227949047Y-88566428D02*
X228710952Y-88566428D01*
X228330000Y-88947380D02*
X228330000Y-88185476D01*
X226330000Y-82867380D02*
X226139523Y-82867380D01*
X226044285Y-82915000D01*
X225996666Y-82962619D01*
X225901428Y-83105476D01*
X225853809Y-83295952D01*
X225853809Y-83676904D01*
X225901428Y-83772142D01*
X225949047Y-83819761D01*
X226044285Y-83867380D01*
X226234761Y-83867380D01*
X226330000Y-83819761D01*
X226377619Y-83772142D01*
X226425238Y-83676904D01*
X226425238Y-83438809D01*
X226377619Y-83343571D01*
X226330000Y-83295952D01*
X226234761Y-83248333D01*
X226044285Y-83248333D01*
X225949047Y-83295952D01*
X225901428Y-83343571D01*
X225853809Y-83438809D01*
X228568095Y-83391190D02*
X228568095Y-83867380D01*
X228234761Y-82867380D02*
X228568095Y-83391190D01*
X228901428Y-82867380D01*
X236021428Y-62638095D02*
X236059523Y-62600000D01*
X236135714Y-62561904D01*
X236326190Y-62561904D01*
X236402380Y-62600000D01*
X236440476Y-62638095D01*
X236478571Y-62714285D01*
X236478571Y-62790476D01*
X236440476Y-62904761D01*
X235983333Y-63361904D01*
X236478571Y-63361904D01*
X226496666Y-71072142D02*
X226449047Y-71119761D01*
X226306190Y-71167380D01*
X226210952Y-71167380D01*
X226068095Y-71119761D01*
X225972857Y-71024523D01*
X225925238Y-70929285D01*
X225877619Y-70738809D01*
X225877619Y-70595952D01*
X225925238Y-70405476D01*
X225972857Y-70310238D01*
X226068095Y-70215000D01*
X226210952Y-70167380D01*
X226306190Y-70167380D01*
X226449047Y-70215000D01*
X226496666Y-70262619D01*
X228306190Y-70167380D02*
X228877619Y-70167380D01*
X228591904Y-71167380D02*
X228591904Y-70167380D01*
X179619047Y-66135714D02*
X179580952Y-66173809D01*
X179466666Y-66211904D01*
X179390476Y-66211904D01*
X179276190Y-66173809D01*
X179200000Y-66097619D01*
X179161904Y-66021428D01*
X179123809Y-65869047D01*
X179123809Y-65754761D01*
X179161904Y-65602380D01*
X179200000Y-65526190D01*
X179276190Y-65450000D01*
X179390476Y-65411904D01*
X179466666Y-65411904D01*
X179580952Y-65450000D01*
X179619047Y-65488095D01*
X180114285Y-65411904D02*
X180266666Y-65411904D01*
X180342857Y-65450000D01*
X180419047Y-65526190D01*
X180457142Y-65678571D01*
X180457142Y-65945238D01*
X180419047Y-66097619D01*
X180342857Y-66173809D01*
X180266666Y-66211904D01*
X180114285Y-66211904D01*
X180038095Y-66173809D01*
X179961904Y-66097619D01*
X179923809Y-65945238D01*
X179923809Y-65678571D01*
X179961904Y-65526190D01*
X180038095Y-65450000D01*
X180114285Y-65411904D01*
X180800000Y-66211904D02*
X180800000Y-65411904D01*
X181180952Y-66211904D02*
X181180952Y-65411904D01*
X181638095Y-66211904D01*
X181638095Y-65411904D01*
X226472857Y-68627380D02*
X226139523Y-68151190D01*
X225901428Y-68627380D02*
X225901428Y-67627380D01*
X226282380Y-67627380D01*
X226377619Y-67675000D01*
X226425238Y-67722619D01*
X226472857Y-67817857D01*
X226472857Y-67960714D01*
X226425238Y-68055952D01*
X226377619Y-68103571D01*
X226282380Y-68151190D01*
X225901428Y-68151190D01*
X228901428Y-68627380D02*
X228425238Y-68627380D01*
X228425238Y-67627380D01*
X225806190Y-75342619D02*
X225853809Y-75295000D01*
X225949047Y-75247380D01*
X226187142Y-75247380D01*
X226282380Y-75295000D01*
X226330000Y-75342619D01*
X226377619Y-75437857D01*
X226377619Y-75533095D01*
X226330000Y-75675952D01*
X225758571Y-76247380D01*
X226377619Y-76247380D01*
X228234761Y-75247380D02*
X228853809Y-75247380D01*
X228520476Y-75628333D01*
X228663333Y-75628333D01*
X228758571Y-75675952D01*
X228806190Y-75723571D01*
X228853809Y-75818809D01*
X228853809Y-76056904D01*
X228806190Y-76152142D01*
X228758571Y-76199761D01*
X228663333Y-76247380D01*
X228377619Y-76247380D01*
X228282380Y-76199761D01*
X228234761Y-76152142D01*
X179287976Y-83611904D02*
X179287976Y-82811904D01*
X179478452Y-82811904D01*
X179592738Y-82850000D01*
X179668928Y-82926190D01*
X179707023Y-83002380D01*
X179745119Y-83154761D01*
X179745119Y-83269047D01*
X179707023Y-83421428D01*
X179668928Y-83497619D01*
X179592738Y-83573809D01*
X179478452Y-83611904D01*
X179287976Y-83611904D01*
X180087976Y-83611904D02*
X180087976Y-82811904D01*
X180468928Y-83611904D02*
X180468928Y-82811904D01*
X180773690Y-82811904D01*
X180849880Y-82850000D01*
X180887976Y-82888095D01*
X180926071Y-82964285D01*
X180926071Y-83078571D01*
X180887976Y-83154761D01*
X180849880Y-83192857D01*
X180773690Y-83230952D01*
X180468928Y-83230952D01*
X181230833Y-82888095D02*
X181268928Y-82850000D01*
X181345119Y-82811904D01*
X181535595Y-82811904D01*
X181611785Y-82850000D01*
X181649880Y-82888095D01*
X181687976Y-82964285D01*
X181687976Y-83040476D01*
X181649880Y-83154761D01*
X181192738Y-83611904D01*
X181687976Y-83611904D01*
D13*
X185338197Y-97627327D02*
X185464466Y-97585238D01*
X185632824Y-97416879D01*
X185674914Y-97290610D01*
X185632824Y-97164341D01*
X185590735Y-97122251D01*
X185464466Y-97080161D01*
X185338197Y-97122251D01*
X185211927Y-97248520D01*
X185085658Y-97290610D01*
X184959389Y-97248520D01*
X184917300Y-97206430D01*
X184875210Y-97080161D01*
X184917300Y-96953892D01*
X185043569Y-96827623D01*
X185169838Y-96785533D01*
X186137901Y-96911802D02*
X185548645Y-96322547D01*
X185632824Y-96406726D02*
X185632824Y-96322547D01*
X185674914Y-96196278D01*
X185801183Y-96070009D01*
X185927452Y-96027919D01*
X186053721Y-96070009D01*
X186516708Y-96532995D01*
X186053721Y-96070009D02*
X186011632Y-95943740D01*
X186053721Y-95817471D01*
X186179990Y-95691201D01*
X186306259Y-95649112D01*
X186432528Y-95691201D01*
X186895515Y-96154188D01*
X187442681Y-95607022D02*
X187316412Y-95649112D01*
X187232233Y-95649112D01*
X187105963Y-95607022D01*
X186853425Y-95354484D01*
X186811336Y-95228215D01*
X186811336Y-95144036D01*
X186853425Y-95017766D01*
X186979694Y-94891497D01*
X187105963Y-94849408D01*
X187190143Y-94849408D01*
X187316412Y-94891497D01*
X187568950Y-95144036D01*
X187611040Y-95270305D01*
X187611040Y-95354484D01*
X187568950Y-95480753D01*
X187442681Y-95607022D01*
X188242385Y-94807318D02*
X188116116Y-94849408D01*
X187989847Y-94807318D01*
X187232233Y-94049704D01*
X188242385Y-94133883D02*
X188915820Y-93460448D01*
X189084179Y-92787013D02*
X189841793Y-93544627D01*
X189883883Y-93670896D01*
X189841793Y-93797165D01*
X189799704Y-93839255D01*
X188789551Y-92492385D02*
X188789551Y-92576564D01*
X188873730Y-92576564D01*
X188873730Y-92492385D01*
X188789551Y-92492385D01*
X188873730Y-92576564D01*
X189420896Y-92450295D02*
X190220600Y-92829103D01*
X189841793Y-92029399D01*
X190683587Y-92281937D02*
X190809856Y-92239847D01*
X190978215Y-92071488D01*
X191020305Y-91945219D01*
X190978215Y-91818950D01*
X190936125Y-91776860D01*
X190809856Y-91734771D01*
X190683587Y-91776860D01*
X190557318Y-91903129D01*
X190431049Y-91945219D01*
X190304780Y-91903129D01*
X190262690Y-91861040D01*
X190220600Y-91734771D01*
X190262690Y-91608502D01*
X190388959Y-91482233D01*
X190515228Y-91440143D01*
X191146574Y-91229694D02*
X191820009Y-90556259D01*
X192577623Y-90472080D02*
X191988367Y-89882824D01*
X191693740Y-89588197D02*
X191693740Y-89672376D01*
X191777919Y-89672376D01*
X191777919Y-89588197D01*
X191693740Y-89588197D01*
X191777919Y-89672376D01*
X193124789Y-89924914D02*
X192998520Y-89967004D01*
X192914341Y-89967004D01*
X192788072Y-89924914D01*
X192535533Y-89672376D01*
X192493444Y-89546107D01*
X192493444Y-89461927D01*
X192535533Y-89335658D01*
X192661802Y-89209389D01*
X192788072Y-89167300D01*
X192872251Y-89167300D01*
X192998520Y-89209389D01*
X193251058Y-89461927D01*
X193293148Y-89588197D01*
X193293148Y-89672376D01*
X193251058Y-89798645D01*
X193124789Y-89924914D01*
X228409523Y-54452380D02*
X227933333Y-54452380D01*
X227885714Y-54928571D01*
X227933333Y-54880952D01*
X228028571Y-54833333D01*
X228266666Y-54833333D01*
X228361904Y-54880952D01*
X228409523Y-54928571D01*
X228457142Y-55023809D01*
X228457142Y-55261904D01*
X228409523Y-55357142D01*
X228361904Y-55404761D01*
X228266666Y-55452380D01*
X228028571Y-55452380D01*
X227933333Y-55404761D01*
X227885714Y-55357142D01*
X228742857Y-54452380D02*
X229076190Y-55452380D01*
X229409523Y-54452380D01*
D11*
X179249880Y-70073809D02*
X179364166Y-70111904D01*
X179554642Y-70111904D01*
X179630833Y-70073809D01*
X179668928Y-70035714D01*
X179707023Y-69959523D01*
X179707023Y-69883333D01*
X179668928Y-69807142D01*
X179630833Y-69769047D01*
X179554642Y-69730952D01*
X179402261Y-69692857D01*
X179326071Y-69654761D01*
X179287976Y-69616666D01*
X179249880Y-69540476D01*
X179249880Y-69464285D01*
X179287976Y-69388095D01*
X179326071Y-69350000D01*
X179402261Y-69311904D01*
X179592738Y-69311904D01*
X179707023Y-69350000D01*
X180049880Y-69692857D02*
X180316547Y-69692857D01*
X180430833Y-70111904D02*
X180049880Y-70111904D01*
X180049880Y-69311904D01*
X180430833Y-69311904D01*
X181230833Y-70111904D02*
X180964166Y-69730952D01*
X180773690Y-70111904D02*
X180773690Y-69311904D01*
X181078452Y-69311904D01*
X181154642Y-69350000D01*
X181192738Y-69388095D01*
X181230833Y-69464285D01*
X181230833Y-69578571D01*
X181192738Y-69654761D01*
X181154642Y-69692857D01*
X181078452Y-69730952D01*
X180773690Y-69730952D01*
X181459404Y-69311904D02*
X181726071Y-70111904D01*
X181992738Y-69311904D01*
X182259404Y-70111904D02*
X182259404Y-69311904D01*
X183097500Y-70035714D02*
X183059404Y-70073809D01*
X182945119Y-70111904D01*
X182868928Y-70111904D01*
X182754642Y-70073809D01*
X182678452Y-69997619D01*
X182640357Y-69921428D01*
X182602261Y-69769047D01*
X182602261Y-69654761D01*
X182640357Y-69502380D01*
X182678452Y-69426190D01*
X182754642Y-69350000D01*
X182868928Y-69311904D01*
X182945119Y-69311904D01*
X183059404Y-69350000D01*
X183097500Y-69388095D01*
X183440357Y-69692857D02*
X183707023Y-69692857D01*
X183821309Y-70111904D02*
X183440357Y-70111904D01*
X183440357Y-69311904D01*
X183821309Y-69311904D01*
X179123809Y-67311904D02*
X179580952Y-67311904D01*
X179352380Y-68111904D02*
X179352380Y-67311904D01*
X179847619Y-67692857D02*
X180114285Y-67692857D01*
X180228571Y-68111904D02*
X179847619Y-68111904D01*
X179847619Y-67311904D01*
X180228571Y-67311904D01*
X180533333Y-68073809D02*
X180647619Y-68111904D01*
X180838095Y-68111904D01*
X180914285Y-68073809D01*
X180952380Y-68035714D01*
X180990476Y-67959523D01*
X180990476Y-67883333D01*
X180952380Y-67807142D01*
X180914285Y-67769047D01*
X180838095Y-67730952D01*
X180685714Y-67692857D01*
X180609523Y-67654761D01*
X180571428Y-67616666D01*
X180533333Y-67540476D01*
X180533333Y-67464285D01*
X180571428Y-67388095D01*
X180609523Y-67350000D01*
X180685714Y-67311904D01*
X180876190Y-67311904D01*
X180990476Y-67350000D01*
X181219047Y-67311904D02*
X181676190Y-67311904D01*
X181447619Y-68111904D02*
X181447619Y-67311904D01*
D13*
X183819047Y-62788095D02*
X183819047Y-63716666D01*
X183757142Y-63902380D01*
X183633333Y-64026190D01*
X183447619Y-64088095D01*
X183323809Y-64088095D01*
X184252380Y-62788095D02*
X184685714Y-64088095D01*
X185119047Y-62788095D01*
X185490476Y-64026190D02*
X185676190Y-64088095D01*
X185985714Y-64088095D01*
X186109523Y-64026190D01*
X186171428Y-63964285D01*
X186233333Y-63840476D01*
X186233333Y-63716666D01*
X186171428Y-63592857D01*
X186109523Y-63530952D01*
X185985714Y-63469047D01*
X185738095Y-63407142D01*
X185614285Y-63345238D01*
X185552380Y-63283333D01*
X185490476Y-63159523D01*
X185490476Y-63035714D01*
X185552380Y-62911904D01*
X185614285Y-62850000D01*
X185738095Y-62788095D01*
X186047619Y-62788095D01*
X186233333Y-62850000D01*
X188028571Y-62788095D02*
X188276190Y-62788095D01*
X188400000Y-62850000D01*
X188523809Y-62973809D01*
X188585714Y-63221428D01*
X188585714Y-63654761D01*
X188523809Y-63902380D01*
X188400000Y-64026190D01*
X188276190Y-64088095D01*
X188028571Y-64088095D01*
X187904761Y-64026190D01*
X187780952Y-63902380D01*
X187719047Y-63654761D01*
X187719047Y-63221428D01*
X187780952Y-62973809D01*
X187904761Y-62850000D01*
X188028571Y-62788095D01*
X189142857Y-64088095D02*
X189142857Y-62788095D01*
X189885714Y-64088095D01*
X189885714Y-62788095D01*
X191123809Y-64088095D02*
X190504761Y-64088095D01*
X190504761Y-62788095D01*
X191804761Y-63469047D02*
X191804761Y-64088095D01*
X191371428Y-62788095D02*
X191804761Y-63469047D01*
X192238095Y-62788095D01*
D11*
X233597619Y-91611904D02*
X233140476Y-91611904D01*
X233369047Y-91611904D02*
X233369047Y-90811904D01*
X233292857Y-90926190D01*
X233216666Y-91002380D01*
X233140476Y-91040476D01*
X233978571Y-91611904D02*
X234130952Y-91611904D01*
X234207142Y-91573809D01*
X234245238Y-91535714D01*
X234321428Y-91421428D01*
X234359523Y-91269047D01*
X234359523Y-90964285D01*
X234321428Y-90888095D01*
X234283333Y-90850000D01*
X234207142Y-90811904D01*
X234054761Y-90811904D01*
X233978571Y-90850000D01*
X233940476Y-90888095D01*
X233902380Y-90964285D01*
X233902380Y-91154761D01*
X233940476Y-91230952D01*
X233978571Y-91269047D01*
X234054761Y-91307142D01*
X234207142Y-91307142D01*
X234283333Y-91269047D01*
X234321428Y-91230952D01*
X234359523Y-91154761D01*
D13*
X227738095Y-57000000D02*
X227642857Y-56952380D01*
X227500000Y-56952380D01*
X227357142Y-57000000D01*
X227261904Y-57095238D01*
X227214285Y-57190476D01*
X227166666Y-57380952D01*
X227166666Y-57523809D01*
X227214285Y-57714285D01*
X227261904Y-57809523D01*
X227357142Y-57904761D01*
X227500000Y-57952380D01*
X227595238Y-57952380D01*
X227738095Y-57904761D01*
X227785714Y-57857142D01*
X227785714Y-57523809D01*
X227595238Y-57523809D01*
X228214285Y-57952380D02*
X228214285Y-56952380D01*
X228785714Y-57952380D01*
X228785714Y-56952380D01*
X229261904Y-57952380D02*
X229261904Y-56952380D01*
X229500000Y-56952380D01*
X229642857Y-57000000D01*
X229738095Y-57095238D01*
X229785714Y-57190476D01*
X229833333Y-57380952D01*
X229833333Y-57523809D01*
X229785714Y-57714285D01*
X229738095Y-57809523D01*
X229642857Y-57904761D01*
X229500000Y-57952380D01*
X229261904Y-57952380D01*
D11*
X179707023Y-86850000D02*
X179630833Y-86811904D01*
X179516547Y-86811904D01*
X179402261Y-86850000D01*
X179326071Y-86926190D01*
X179287976Y-87002380D01*
X179249880Y-87154761D01*
X179249880Y-87269047D01*
X179287976Y-87421428D01*
X179326071Y-87497619D01*
X179402261Y-87573809D01*
X179516547Y-87611904D01*
X179592738Y-87611904D01*
X179707023Y-87573809D01*
X179745119Y-87535714D01*
X179745119Y-87269047D01*
X179592738Y-87269047D01*
X180087976Y-87611904D02*
X180087976Y-86811904D01*
X180545119Y-87611904D01*
X180545119Y-86811904D01*
X180926071Y-87611904D02*
X180926071Y-86811904D01*
X181116547Y-86811904D01*
X181230833Y-86850000D01*
X181307023Y-86926190D01*
X181345119Y-87002380D01*
X181383214Y-87154761D01*
X181383214Y-87269047D01*
X181345119Y-87421428D01*
X181307023Y-87497619D01*
X181230833Y-87573809D01*
X181116547Y-87611904D01*
X180926071Y-87611904D01*
G04 #@! TO.C,R1*
X187583333Y-67177380D02*
X187250000Y-66701190D01*
X187011904Y-67177380D02*
X187011904Y-66177380D01*
X187392857Y-66177380D01*
X187488095Y-66225000D01*
X187535714Y-66272619D01*
X187583333Y-66367857D01*
X187583333Y-66510714D01*
X187535714Y-66605952D01*
X187488095Y-66653571D01*
X187392857Y-66701190D01*
X187011904Y-66701190D01*
X188535714Y-67177380D02*
X187964285Y-67177380D01*
X188250000Y-67177380D02*
X188250000Y-66177380D01*
X188154761Y-66320238D01*
X188059523Y-66415476D01*
X187964285Y-66463095D01*
X193583333Y-67202380D02*
X193011904Y-67202380D01*
X193297619Y-67202380D02*
X193297619Y-66202380D01*
X193202380Y-66345238D01*
X193107142Y-66440476D01*
X193011904Y-66488095D01*
X193964285Y-66297619D02*
X194011904Y-66250000D01*
X194107142Y-66202380D01*
X194345238Y-66202380D01*
X194440476Y-66250000D01*
X194488095Y-66297619D01*
X194535714Y-66392857D01*
X194535714Y-66488095D01*
X194488095Y-66630952D01*
X193916666Y-67202380D01*
X194535714Y-67202380D01*
X195154761Y-66202380D02*
X195250000Y-66202380D01*
X195345238Y-66250000D01*
X195392857Y-66297619D01*
X195440476Y-66392857D01*
X195488095Y-66583333D01*
X195488095Y-66821428D01*
X195440476Y-67011904D01*
X195392857Y-67107142D01*
X195345238Y-67154761D01*
X195250000Y-67202380D01*
X195154761Y-67202380D01*
X195059523Y-67154761D01*
X195011904Y-67107142D01*
X194964285Y-67011904D01*
X194916666Y-66821428D01*
X194916666Y-66583333D01*
X194964285Y-66392857D01*
X195011904Y-66297619D01*
X195059523Y-66250000D01*
X195154761Y-66202380D01*
G04 #@! TO.C,R3*
X187333333Y-87452380D02*
X187000000Y-86976190D01*
X186761904Y-87452380D02*
X186761904Y-86452380D01*
X187142857Y-86452380D01*
X187238095Y-86500000D01*
X187285714Y-86547619D01*
X187333333Y-86642857D01*
X187333333Y-86785714D01*
X187285714Y-86880952D01*
X187238095Y-86928571D01*
X187142857Y-86976190D01*
X186761904Y-86976190D01*
X187666666Y-86452380D02*
X188285714Y-86452380D01*
X187952380Y-86833333D01*
X188095238Y-86833333D01*
X188190476Y-86880952D01*
X188238095Y-86928571D01*
X188285714Y-87023809D01*
X188285714Y-87261904D01*
X188238095Y-87357142D01*
X188190476Y-87404761D01*
X188095238Y-87452380D01*
X187809523Y-87452380D01*
X187714285Y-87404761D01*
X187666666Y-87357142D01*
X193630952Y-87452380D02*
X193059523Y-87452380D01*
X193345238Y-87452380D02*
X193345238Y-86452380D01*
X193250000Y-86595238D01*
X193154761Y-86690476D01*
X193059523Y-86738095D01*
X194059523Y-87452380D02*
X194059523Y-86452380D01*
X194154761Y-87071428D02*
X194440476Y-87452380D01*
X194440476Y-86785714D02*
X194059523Y-87166666D01*
G04 #@! TO.C,R2*
X187333333Y-85152380D02*
X187000000Y-84676190D01*
X186761904Y-85152380D02*
X186761904Y-84152380D01*
X187142857Y-84152380D01*
X187238095Y-84200000D01*
X187285714Y-84247619D01*
X187333333Y-84342857D01*
X187333333Y-84485714D01*
X187285714Y-84580952D01*
X187238095Y-84628571D01*
X187142857Y-84676190D01*
X186761904Y-84676190D01*
X187714285Y-84247619D02*
X187761904Y-84200000D01*
X187857142Y-84152380D01*
X188095238Y-84152380D01*
X188190476Y-84200000D01*
X188238095Y-84247619D01*
X188285714Y-84342857D01*
X188285714Y-84438095D01*
X188238095Y-84580952D01*
X187666666Y-85152380D01*
X188285714Y-85152380D01*
X193630952Y-85052380D02*
X193059523Y-85052380D01*
X193345238Y-85052380D02*
X193345238Y-84052380D01*
X193250000Y-84195238D01*
X193154761Y-84290476D01*
X193059523Y-84338095D01*
X194059523Y-85052380D02*
X194059523Y-84052380D01*
X194154761Y-84671428D02*
X194440476Y-85052380D01*
X194440476Y-84385714D02*
X194059523Y-84766666D01*
G04 #@! TO.C,U1*
X190238095Y-68702380D02*
X190238095Y-69511904D01*
X190285714Y-69607142D01*
X190333333Y-69654761D01*
X190428571Y-69702380D01*
X190619047Y-69702380D01*
X190714285Y-69654761D01*
X190761904Y-69607142D01*
X190809523Y-69511904D01*
X190809523Y-68702380D01*
X191809523Y-69702380D02*
X191238095Y-69702380D01*
X191523809Y-69702380D02*
X191523809Y-68702380D01*
X191428571Y-68845238D01*
X191333333Y-68940476D01*
X191238095Y-68988095D01*
G04 #@! TO.C,J1*
X187366666Y-51852380D02*
X187366666Y-52566666D01*
X187319047Y-52709523D01*
X187223809Y-52804761D01*
X187080952Y-52852380D01*
X186985714Y-52852380D01*
X188366666Y-52852380D02*
X187795238Y-52852380D01*
X188080952Y-52852380D02*
X188080952Y-51852380D01*
X187985714Y-51995238D01*
X187890476Y-52090476D01*
X187795238Y-52138095D01*
G04 #@! TO.C,U2*
X209138095Y-70052380D02*
X209138095Y-70861904D01*
X209185714Y-70957142D01*
X209233333Y-71004761D01*
X209328571Y-71052380D01*
X209519047Y-71052380D01*
X209614285Y-71004761D01*
X209661904Y-70957142D01*
X209709523Y-70861904D01*
X209709523Y-70052380D01*
X210138095Y-70147619D02*
X210185714Y-70100000D01*
X210280952Y-70052380D01*
X210519047Y-70052380D01*
X210614285Y-70100000D01*
X210661904Y-70147619D01*
X210709523Y-70242857D01*
X210709523Y-70338095D01*
X210661904Y-70480952D01*
X210090476Y-71052380D01*
X210709523Y-71052380D01*
X208519047Y-73211380D02*
X208519047Y-72211380D01*
X208900000Y-72211380D01*
X208995238Y-72259000D01*
X209042857Y-72306619D01*
X209090476Y-72401857D01*
X209090476Y-72544714D01*
X209042857Y-72639952D01*
X208995238Y-72687571D01*
X208900000Y-72735190D01*
X208519047Y-72735190D01*
X209519047Y-73211380D02*
X209519047Y-72544714D01*
X209519047Y-72211380D02*
X209471428Y-72259000D01*
X209519047Y-72306619D01*
X209566666Y-72259000D01*
X209519047Y-72211380D01*
X209519047Y-72306619D01*
X210423809Y-73163761D02*
X210328571Y-73211380D01*
X210138095Y-73211380D01*
X210042857Y-73163761D01*
X209995238Y-73116142D01*
X209947619Y-73020904D01*
X209947619Y-72735190D01*
X209995238Y-72639952D01*
X210042857Y-72592333D01*
X210138095Y-72544714D01*
X210328571Y-72544714D01*
X210423809Y-72592333D01*
X210995238Y-73211380D02*
X210900000Y-73163761D01*
X210852380Y-73116142D01*
X210804761Y-73020904D01*
X210804761Y-72735190D01*
X210852380Y-72639952D01*
X210900000Y-72592333D01*
X210995238Y-72544714D01*
X211138095Y-72544714D01*
X211233333Y-72592333D01*
X211280952Y-72639952D01*
X211328571Y-72735190D01*
X211328571Y-73020904D01*
X211280952Y-73116142D01*
X211233333Y-73163761D01*
X211138095Y-73211380D01*
X210995238Y-73211380D01*
X205723809Y-95609523D02*
X205761904Y-95495238D01*
X205761904Y-95304761D01*
X205723809Y-95228571D01*
X205685714Y-95190476D01*
X205609523Y-95152380D01*
X205533333Y-95152380D01*
X205457142Y-95190476D01*
X205419047Y-95228571D01*
X205380952Y-95304761D01*
X205342857Y-95457142D01*
X205304761Y-95533333D01*
X205266666Y-95571428D01*
X205190476Y-95609523D01*
X205114285Y-95609523D01*
X205038095Y-95571428D01*
X205000000Y-95533333D01*
X204961904Y-95457142D01*
X204961904Y-95266666D01*
X205000000Y-95152380D01*
X204961904Y-94885714D02*
X205761904Y-94695238D01*
X205190476Y-94542857D01*
X205761904Y-94390476D01*
X204961904Y-94200000D01*
X205685714Y-93438095D02*
X205723809Y-93476190D01*
X205761904Y-93590476D01*
X205761904Y-93666666D01*
X205723809Y-93780952D01*
X205647619Y-93857142D01*
X205571428Y-93895238D01*
X205419047Y-93933333D01*
X205304761Y-93933333D01*
X205152380Y-93895238D01*
X205076190Y-93857142D01*
X205000000Y-93780952D01*
X204961904Y-93666666D01*
X204961904Y-93590476D01*
X205000000Y-93476190D01*
X205038095Y-93438095D01*
X205761904Y-92714285D02*
X205761904Y-93095238D01*
X204961904Y-93095238D01*
X205761904Y-92447619D02*
X204961904Y-92447619D01*
X205761904Y-91990476D02*
X205304761Y-92333333D01*
X204961904Y-91990476D02*
X205419047Y-92447619D01*
X214723809Y-95695238D02*
X214761904Y-95580952D01*
X214761904Y-95390476D01*
X214723809Y-95314285D01*
X214685714Y-95276190D01*
X214609523Y-95238095D01*
X214533333Y-95238095D01*
X214457142Y-95276190D01*
X214419047Y-95314285D01*
X214380952Y-95390476D01*
X214342857Y-95542857D01*
X214304761Y-95619047D01*
X214266666Y-95657142D01*
X214190476Y-95695238D01*
X214114285Y-95695238D01*
X214038095Y-95657142D01*
X214000000Y-95619047D01*
X213961904Y-95542857D01*
X213961904Y-95352380D01*
X214000000Y-95238095D01*
X213961904Y-94971428D02*
X214761904Y-94780952D01*
X214190476Y-94628571D01*
X214761904Y-94476190D01*
X213961904Y-94285714D01*
X214761904Y-93980952D02*
X213961904Y-93980952D01*
X213961904Y-93790476D01*
X214000000Y-93676190D01*
X214076190Y-93600000D01*
X214152380Y-93561904D01*
X214304761Y-93523809D01*
X214419047Y-93523809D01*
X214571428Y-93561904D01*
X214647619Y-93600000D01*
X214723809Y-93676190D01*
X214761904Y-93790476D01*
X214761904Y-93980952D01*
X214761904Y-93180952D02*
X213961904Y-93180952D01*
X213961904Y-92647619D02*
X213961904Y-92495238D01*
X214000000Y-92419047D01*
X214076190Y-92342857D01*
X214228571Y-92304761D01*
X214495238Y-92304761D01*
X214647619Y-92342857D01*
X214723809Y-92419047D01*
X214761904Y-92495238D01*
X214761904Y-92647619D01*
X214723809Y-92723809D01*
X214647619Y-92800000D01*
X214495238Y-92838095D01*
X214228571Y-92838095D01*
X214076190Y-92800000D01*
X214000000Y-92723809D01*
X213961904Y-92647619D01*
G04 #@! TO.C,Q1*
X190998809Y-78688095D02*
X190922619Y-78650000D01*
X190846428Y-78573809D01*
X190732142Y-78459523D01*
X190655952Y-78421428D01*
X190579761Y-78421428D01*
X190617857Y-78611904D02*
X190541666Y-78573809D01*
X190465476Y-78497619D01*
X190427380Y-78345238D01*
X190427380Y-78078571D01*
X190465476Y-77926190D01*
X190541666Y-77850000D01*
X190617857Y-77811904D01*
X190770238Y-77811904D01*
X190846428Y-77850000D01*
X190922619Y-77926190D01*
X190960714Y-78078571D01*
X190960714Y-78345238D01*
X190922619Y-78497619D01*
X190846428Y-78573809D01*
X190770238Y-78611904D01*
X190617857Y-78611904D01*
X191722619Y-78611904D02*
X191265476Y-78611904D01*
X191494047Y-78611904D02*
X191494047Y-77811904D01*
X191417857Y-77926190D01*
X191341666Y-78002380D01*
X191265476Y-78040476D01*
D10*
G04 #@! TO.C,R1*
X191027064Y-67385000D02*
X190572936Y-67385000D01*
X191027064Y-65915000D02*
X190572936Y-65915000D01*
G04 #@! TO.C,R3*
X190977064Y-87835000D02*
X190522936Y-87835000D01*
X190977064Y-86365000D02*
X190522936Y-86365000D01*
G04 #@! TO.C,R2*
X190522936Y-85385000D02*
X190977064Y-85385000D01*
X190522936Y-83915000D02*
X190977064Y-83915000D01*
G04 #@! TO.C,U1*
X191100000Y-70090000D02*
X193050000Y-70090000D01*
X191100000Y-75210000D02*
X189150000Y-75210000D01*
X191100000Y-70090000D02*
X187650000Y-70090000D01*
X191100000Y-75210000D02*
X193050000Y-75210000D01*
G04 #@! TO.C,J1*
X194160000Y-44957500D02*
X194160000Y-53317500D01*
X187250000Y-62397500D02*
X186750000Y-61897500D01*
X181840000Y-53317500D02*
X181840000Y-44957500D01*
X181840000Y-61677500D02*
X194160000Y-61677500D01*
X181840000Y-57417500D02*
X181840000Y-61677500D01*
X186750000Y-61897500D02*
X186250000Y-62397500D01*
X186250000Y-62397500D02*
X187250000Y-62397500D01*
X181840000Y-44957500D02*
X194160000Y-44957500D01*
X194160000Y-61677500D02*
X194160000Y-57417500D01*
G04 #@! TO.C,U2*
X220400000Y-78000000D02*
X220400000Y-78400000D01*
X199400000Y-62800000D02*
X199400000Y-63200000D01*
X199400000Y-60200000D02*
X199400000Y-60600000D01*
X220400000Y-67900000D02*
X220400000Y-68300000D01*
X220400000Y-70400000D02*
X220400000Y-70800000D01*
X220400000Y-80600000D02*
X220400000Y-81000000D01*
X208400000Y-96100000D02*
X208800000Y-96100000D01*
X220400000Y-65300000D02*
X220400000Y-65700000D01*
X199400000Y-78000000D02*
X199400000Y-78400000D01*
X199400000Y-88200000D02*
X199400000Y-88600000D01*
X220400000Y-50100000D02*
X220400000Y-50500000D01*
X202407000Y-47767000D02*
X202407000Y-45100000D01*
X199400000Y-45100000D02*
X199400000Y-45400000D01*
X199400000Y-47500000D02*
X199400000Y-47900000D01*
X206200000Y-96100000D02*
X199400000Y-96100000D01*
X220400000Y-75500000D02*
X220400000Y-75900000D01*
X199400000Y-70400000D02*
X199400000Y-70800000D01*
X220400000Y-55200000D02*
X220400000Y-55600000D01*
X220400000Y-85700000D02*
X220400000Y-86100000D01*
X199400000Y-67900000D02*
X199400000Y-68300000D01*
X220400000Y-93300000D02*
X220400000Y-93700000D01*
X199400000Y-65300000D02*
X199400000Y-65700000D01*
X220400000Y-72900000D02*
X220400000Y-73300000D01*
X199400000Y-72900000D02*
X199400000Y-73300000D01*
X220400000Y-83100000D02*
X220400000Y-83500000D01*
X199400000Y-83100000D02*
X199400000Y-83500000D01*
X199400000Y-57700000D02*
X199400000Y-58100000D01*
X199400000Y-50100000D02*
X199400000Y-50500000D01*
X199400000Y-93300000D02*
X199400000Y-93700000D01*
X220400000Y-52600000D02*
X220400000Y-53000000D01*
X199400000Y-45100000D02*
X220400000Y-45100000D01*
X220400000Y-57700000D02*
X220400000Y-58100000D01*
X220400000Y-47500000D02*
X220400000Y-47900000D01*
X220400000Y-62800000D02*
X220400000Y-63200000D01*
X199400000Y-80600000D02*
X199400000Y-81000000D01*
X199400000Y-47767000D02*
X202407000Y-47767000D01*
X211000000Y-96100000D02*
X211400000Y-96100000D01*
X220400000Y-90700000D02*
X220400000Y-91100000D01*
X220400000Y-96100000D02*
X213600000Y-96100000D01*
X220400000Y-60200000D02*
X220400000Y-60600000D01*
X199400000Y-90700000D02*
X199400000Y-91100000D01*
X199400000Y-52600000D02*
X199400000Y-53000000D01*
X199400000Y-75500000D02*
X199400000Y-75900000D01*
X199400000Y-85700000D02*
X199400000Y-86100000D01*
X199400000Y-55200000D02*
X199400000Y-55600000D01*
X220400000Y-88200000D02*
X220400000Y-88600000D01*
X220400000Y-45100000D02*
X220400000Y-45400000D01*
G04 #@! TO.C,J5*
X237450000Y-54250000D02*
X237450000Y-52450000D01*
X237450000Y-56750000D02*
X237450000Y-55750000D01*
X236700000Y-60050000D02*
X237450000Y-60050000D01*
X236700000Y-55750000D02*
X236700000Y-56750000D01*
X231490000Y-60060000D02*
X237460000Y-60060000D01*
X237450000Y-58250000D02*
X236700000Y-58250000D01*
X236700000Y-56750000D02*
X237450000Y-56750000D01*
X237460000Y-60060000D02*
X237460000Y-52440000D01*
X237460000Y-52440000D02*
X231490000Y-52440000D01*
X237450000Y-60050000D02*
X237450000Y-58250000D01*
X235200000Y-60050000D02*
X235200000Y-59300000D01*
X235200000Y-53200000D02*
X233860000Y-53200000D01*
X237750000Y-53400000D02*
X237750000Y-52150000D01*
X237750000Y-52150000D02*
X236500000Y-52150000D01*
X235200000Y-52450000D02*
X235200000Y-53200000D01*
X236700000Y-58250000D02*
X236700000Y-60050000D01*
X231490000Y-52440000D02*
X231490000Y-60060000D01*
X237450000Y-52450000D02*
X236700000Y-52450000D01*
X237450000Y-55750000D02*
X236700000Y-55750000D01*
X235200000Y-59300000D02*
X232250000Y-59300000D01*
X232250000Y-56250000D02*
X232250000Y-54260000D01*
X232250000Y-59300000D02*
X232250000Y-56250000D01*
X236700000Y-52450000D02*
X236700000Y-54250000D01*
X236700000Y-54250000D02*
X237450000Y-54250000D01*
G04 #@! TO.C,J6*
X232395000Y-66845000D02*
X234995000Y-66845000D01*
X232395000Y-65575000D02*
X232395000Y-64245000D01*
X234995000Y-66845000D02*
X234995000Y-64245000D01*
X234995000Y-64245000D02*
X237595000Y-64245000D01*
X232395000Y-66845000D02*
X232395000Y-89765000D01*
X232395000Y-89765000D02*
X237595000Y-89765000D01*
X237595000Y-64245000D02*
X237595000Y-89765000D01*
X232395000Y-64245000D02*
X233725000Y-64245000D01*
G04 #@! TO.C,Q1*
X190750000Y-82360000D02*
X192425000Y-82360000D01*
X190750000Y-79240000D02*
X190100000Y-79240000D01*
X190750000Y-82360000D02*
X190100000Y-82360000D01*
X190750000Y-79240000D02*
X191400000Y-79240000D01*
G04 #@! TO.C,J3*
X173390000Y-89310000D02*
X178110000Y-89310000D01*
X173390000Y-79190000D02*
X173390000Y-89310000D01*
X174000000Y-82250000D02*
X174500000Y-82250000D01*
X174500000Y-84350000D02*
X174000000Y-84350000D01*
X174500000Y-84150000D02*
X174500000Y-84350000D01*
X174000000Y-86150000D02*
X174500000Y-86150000D01*
X174500000Y-82150000D02*
X174500000Y-82350000D01*
X178310000Y-80650000D02*
X178110000Y-80650000D01*
X174500000Y-86350000D02*
X174000000Y-86350000D01*
X174000000Y-86250000D02*
X174500000Y-86250000D01*
X174000000Y-84150000D02*
X174500000Y-84150000D01*
X174000000Y-82150000D02*
X174500000Y-82150000D01*
X174000000Y-88700000D02*
X177500000Y-88700000D01*
X176800000Y-79190000D02*
X176800000Y-79800000D01*
X177500000Y-81750000D02*
X177500000Y-79800000D01*
X175500000Y-89310000D02*
X175500000Y-88700000D01*
X177500000Y-86750000D02*
X178110000Y-86750000D01*
X178210000Y-80950000D02*
X178210000Y-80650000D01*
X178410000Y-80140000D02*
X178410000Y-78890000D01*
X176800000Y-89310000D02*
X176800000Y-88700000D01*
X174000000Y-79800000D02*
X174000000Y-88700000D01*
X174500000Y-82350000D02*
X174000000Y-82350000D01*
X178110000Y-81750000D02*
X177500000Y-81750000D01*
X177500000Y-79800000D02*
X174000000Y-79800000D01*
X178410000Y-78890000D02*
X177160000Y-78890000D01*
X174500000Y-86150000D02*
X174500000Y-86350000D01*
X177500000Y-88700000D02*
X177500000Y-86750000D01*
X178110000Y-79190000D02*
X173390000Y-79190000D01*
X178310000Y-80950000D02*
X178310000Y-80650000D01*
X178110000Y-80950000D02*
X178310000Y-80950000D01*
X174000000Y-84250000D02*
X174500000Y-84250000D01*
X175500000Y-79190000D02*
X175500000Y-79800000D01*
X178110000Y-89310000D02*
X178110000Y-79190000D01*
G04 #@! TO.C,J2*
X178110000Y-66250000D02*
X177500000Y-66250000D01*
X174500000Y-68650000D02*
X174500000Y-68850000D01*
X178310000Y-65450000D02*
X178310000Y-65150000D01*
X173390000Y-73810000D02*
X178110000Y-73810000D01*
X176800000Y-63690000D02*
X176800000Y-64300000D01*
X178110000Y-65450000D02*
X178310000Y-65450000D01*
X174500000Y-66850000D02*
X174000000Y-66850000D01*
X176800000Y-73810000D02*
X176800000Y-73200000D01*
X174000000Y-70650000D02*
X174500000Y-70650000D01*
X178410000Y-64640000D02*
X178410000Y-63390000D01*
X174000000Y-66650000D02*
X174500000Y-66650000D01*
X177500000Y-71250000D02*
X178110000Y-71250000D01*
X178310000Y-65150000D02*
X178110000Y-65150000D01*
X178110000Y-73810000D02*
X178110000Y-63690000D01*
X178210000Y-65450000D02*
X178210000Y-65150000D01*
X175500000Y-73810000D02*
X175500000Y-73200000D01*
X173390000Y-63690000D02*
X173390000Y-73810000D01*
X174000000Y-73200000D02*
X177500000Y-73200000D01*
X174000000Y-70750000D02*
X174500000Y-70750000D01*
X175500000Y-63690000D02*
X175500000Y-64300000D01*
X177500000Y-64300000D02*
X174000000Y-64300000D01*
X174500000Y-68850000D02*
X174000000Y-68850000D01*
X174000000Y-68750000D02*
X174500000Y-68750000D01*
X174000000Y-66750000D02*
X174500000Y-66750000D01*
X174500000Y-66650000D02*
X174500000Y-66850000D01*
X174500000Y-70650000D02*
X174500000Y-70850000D01*
X174000000Y-64300000D02*
X174000000Y-73200000D01*
X178110000Y-63690000D02*
X173390000Y-63690000D01*
X174000000Y-68650000D02*
X174500000Y-68650000D01*
X177500000Y-66250000D02*
X177500000Y-64300000D01*
X174500000Y-70850000D02*
X174000000Y-70850000D01*
X178410000Y-63390000D02*
X177160000Y-63390000D01*
X177500000Y-73200000D02*
X177500000Y-71250000D01*
G04 #@! TD*
M02*
