G04 #@! TF.GenerationSoftware,KiCad,Pcbnew,(6.0.0)*
G04 #@! TF.CreationDate,2022-10-11T17:00:54+02:00*
G04 #@! TF.ProjectId,smol-jvs,736d6f6c-2d6a-4767-932e-6b696361645f,rev?*
G04 #@! TF.SameCoordinates,Original*
G04 #@! TF.FileFunction,Copper,L2,Bot*
G04 #@! TF.FilePolarity,Positive*
%FSLAX46Y46*%
G04 Gerber Fmt 4.6, Leading zero omitted, Abs format (unit mm)*
G04 Created by KiCad (PCBNEW (6.0.0)) date 2022-10-11 17:00:54*
%MOMM*%
%LPD*%
G01*
G04 APERTURE LIST*
G04 Aperture macros list*
%AMRoundRect*
0 Rectangle with rounded corners*
0 $1 Rounding radius*
0 $2 $3 $4 $5 $6 $7 $8 $9 X,Y pos of 4 corners*
0 Add a 4 corners polygon primitive as box body*
4,1,4,$2,$3,$4,$5,$6,$7,$8,$9,$2,$3,0*
0 Add four circle primitives for the rounded corners*
1,1,$1+$1,$2,$3*
1,1,$1+$1,$4,$5*
1,1,$1+$1,$6,$7*
1,1,$1+$1,$8,$9*
0 Add four rect primitives between the rounded corners*
20,1,$1+$1,$2,$3,$4,$5,0*
20,1,$1+$1,$4,$5,$6,$7,0*
20,1,$1+$1,$6,$7,$8,$9,0*
20,1,$1+$1,$8,$9,$2,$3,0*%
G04 Aperture macros list end*
G04 #@! TA.AperFunction,ComponentPad*
%ADD10R,1.700000X1.700000*%
G04 #@! TD*
G04 #@! TA.AperFunction,ComponentPad*
%ADD11C,1.700000*%
G04 #@! TD*
G04 #@! TA.AperFunction,ComponentPad*
%ADD12C,3.500000*%
G04 #@! TD*
G04 #@! TA.AperFunction,ComponentPad*
%ADD13O,1.700000X1.700000*%
G04 #@! TD*
G04 #@! TA.AperFunction,ComponentPad*
%ADD14RoundRect,0.250000X-0.750000X0.600000X-0.750000X-0.600000X0.750000X-0.600000X0.750000X0.600000X0*%
G04 #@! TD*
G04 #@! TA.AperFunction,ComponentPad*
%ADD15O,2.000000X1.700000*%
G04 #@! TD*
G04 #@! TA.AperFunction,ComponentPad*
%ADD16C,5.000000*%
G04 #@! TD*
G04 #@! TA.AperFunction,ComponentPad*
%ADD17RoundRect,0.250000X-0.625000X0.350000X-0.625000X-0.350000X0.625000X-0.350000X0.625000X0.350000X0*%
G04 #@! TD*
G04 #@! TA.AperFunction,ComponentPad*
%ADD18O,1.750000X1.200000*%
G04 #@! TD*
G04 #@! TA.AperFunction,Conductor*
%ADD19C,0.250000*%
G04 #@! TD*
G04 APERTURE END LIST*
D10*
G04 #@! TO.P,J1,1,VBUS*
G04 #@! TO.N,/jvs_sense*
X186750000Y-60077500D03*
D11*
G04 #@! TO.P,J1,2,D-*
G04 #@! TO.N,Net-(J1-Pad2)*
X189250000Y-60077500D03*
G04 #@! TO.P,J1,3,D+*
G04 #@! TO.N,Net-(J1-Pad3)*
X189250000Y-58077500D03*
G04 #@! TO.P,J1,4,GND*
G04 #@! TO.N,GND*
X186750000Y-58077500D03*
D12*
G04 #@! TO.P,J1,5,Shield*
X181980000Y-55367500D03*
X194020000Y-55367500D03*
G04 #@! TD*
D13*
G04 #@! TO.P,U2,1,GPIO0*
G04 #@! TO.N,/jvs_tx*
X201010000Y-46470000D03*
G04 #@! TO.P,U2,2,GPIO1*
G04 #@! TO.N,/jvs_rx*
X201010000Y-49010000D03*
D10*
G04 #@! TO.P,U2,3,GND*
G04 #@! TO.N,GND*
X201010000Y-51550000D03*
D13*
G04 #@! TO.P,U2,4,GPIO2*
G04 #@! TO.N,/jvs_re*
X201010000Y-54090000D03*
G04 #@! TO.P,U2,5,GPIO3*
G04 #@! TO.N,/jvs_de*
X201010000Y-56630000D03*
G04 #@! TO.P,U2,6,GPIO4*
G04 #@! TO.N,unconnected-(U2-Pad6)*
X201010000Y-59170000D03*
G04 #@! TO.P,U2,7,GPIO5*
G04 #@! TO.N,/dip1*
X201010000Y-61710000D03*
D10*
G04 #@! TO.P,U2,8,GND*
G04 #@! TO.N,GND*
X201010000Y-64250000D03*
D13*
G04 #@! TO.P,U2,9,GPIO6*
G04 #@! TO.N,/b_up*
X201010000Y-66790000D03*
G04 #@! TO.P,U2,10,GPIO7*
G04 #@! TO.N,/b_down*
X201010000Y-69330000D03*
G04 #@! TO.P,U2,11,GPIO8*
G04 #@! TO.N,/b_left*
X201010000Y-71870000D03*
G04 #@! TO.P,U2,12,GPIO9*
G04 #@! TO.N,/b_right*
X201010000Y-74410000D03*
D10*
G04 #@! TO.P,U2,13,GND*
G04 #@! TO.N,GND*
X201010000Y-76950000D03*
D13*
G04 #@! TO.P,U2,14,GPIO10*
G04 #@! TO.N,/b_test*
X201010000Y-79490000D03*
G04 #@! TO.P,U2,15,GPIO11*
G04 #@! TO.N,/dip2*
X201010000Y-82030000D03*
G04 #@! TO.P,U2,16,GPIO12*
G04 #@! TO.N,/dip3*
X201010000Y-84570000D03*
G04 #@! TO.P,U2,17,GPIO13*
G04 #@! TO.N,/sense_0v*
X201010000Y-87110000D03*
D10*
G04 #@! TO.P,U2,18,GND*
G04 #@! TO.N,GND*
X201010000Y-89650000D03*
D13*
G04 #@! TO.P,U2,19,GPIO14*
G04 #@! TO.N,/b_service*
X201010000Y-92190000D03*
G04 #@! TO.P,U2,20,GPIO15*
G04 #@! TO.N,unconnected-(U2-Pad20)*
X201010000Y-94730000D03*
G04 #@! TO.P,U2,21,GPIO16*
G04 #@! TO.N,unconnected-(U2-Pad21)*
X218790000Y-94730000D03*
G04 #@! TO.P,U2,22,GPIO17*
G04 #@! TO.N,/b_1*
X218790000Y-92190000D03*
D10*
G04 #@! TO.P,U2,23,GND*
G04 #@! TO.N,GND*
X218790000Y-89650000D03*
D13*
G04 #@! TO.P,U2,24,GPIO18*
G04 #@! TO.N,/b_2*
X218790000Y-87110000D03*
G04 #@! TO.P,U2,25,GPIO19*
G04 #@! TO.N,/b_3*
X218790000Y-84570000D03*
G04 #@! TO.P,U2,26,GPIO20*
G04 #@! TO.N,/b_4*
X218790000Y-82030000D03*
G04 #@! TO.P,U2,27,GPIO21*
G04 #@! TO.N,/b_5*
X218790000Y-79490000D03*
D10*
G04 #@! TO.P,U2,28,GND*
G04 #@! TO.N,GND*
X218790000Y-76950000D03*
D13*
G04 #@! TO.P,U2,29,GPIO22*
G04 #@! TO.N,/b_6*
X218790000Y-74410000D03*
G04 #@! TO.P,U2,30,RUN*
G04 #@! TO.N,unconnected-(U2-Pad30)*
X218790000Y-71870000D03*
G04 #@! TO.P,U2,31,GPIO26_ADC0*
G04 #@! TO.N,unconnected-(U2-Pad31)*
X218790000Y-69330000D03*
G04 #@! TO.P,U2,32,GPIO27_ADC1*
G04 #@! TO.N,/b_coin*
X218790000Y-66790000D03*
D10*
G04 #@! TO.P,U2,33,AGND*
G04 #@! TO.N,unconnected-(U2-Pad33)*
X218790000Y-64250000D03*
D13*
G04 #@! TO.P,U2,34,GPIO28_ADC2*
G04 #@! TO.N,/b_start*
X218790000Y-61710000D03*
G04 #@! TO.P,U2,35,ADC_VREF*
G04 #@! TO.N,unconnected-(U2-Pad35)*
X218790000Y-59170000D03*
G04 #@! TO.P,U2,36,3V3*
G04 #@! TO.N,+3V3*
X218790000Y-56630000D03*
G04 #@! TO.P,U2,37,3V3_EN*
G04 #@! TO.N,unconnected-(U2-Pad37)*
X218790000Y-54090000D03*
D10*
G04 #@! TO.P,U2,38,GND*
G04 #@! TO.N,GND*
X218790000Y-51550000D03*
D13*
G04 #@! TO.P,U2,39,VSYS*
G04 #@! TO.N,+5V*
X218790000Y-49010000D03*
G04 #@! TO.P,U2,40,VBUS*
G04 #@! TO.N,unconnected-(U2-Pad40)*
X218790000Y-46470000D03*
G04 #@! TO.P,U2,41,SWCLK*
G04 #@! TO.N,unconnected-(U2-Pad41)*
X207360000Y-94500000D03*
D10*
G04 #@! TO.P,U2,42,GND*
G04 #@! TO.N,GND*
X209900000Y-94500000D03*
D13*
G04 #@! TO.P,U2,43,SWDIO*
G04 #@! TO.N,unconnected-(U2-Pad43)*
X212440000Y-94500000D03*
G04 #@! TD*
D14*
G04 #@! TO.P,J5,1,Pin_1*
G04 #@! TO.N,+5V*
X235000000Y-55000000D03*
D15*
G04 #@! TO.P,J5,2,Pin_2*
G04 #@! TO.N,GND*
X235000000Y-57500000D03*
G04 #@! TD*
D10*
G04 #@! TO.P,J6,1,Pin_1*
G04 #@! TO.N,/b_up*
X233725000Y-65575000D03*
D13*
G04 #@! TO.P,J6,2,Pin_2*
G04 #@! TO.N,/b_down*
X236265000Y-65575000D03*
G04 #@! TO.P,J6,3,Pin_3*
G04 #@! TO.N,/b_right*
X233725000Y-68115000D03*
G04 #@! TO.P,J6,4,Pin_4*
G04 #@! TO.N,/b_left*
X236265000Y-68115000D03*
G04 #@! TO.P,J6,5,Pin_5*
G04 #@! TO.N,/b_coin*
X233725000Y-70655000D03*
G04 #@! TO.P,J6,6,Pin_6*
G04 #@! TO.N,/b_test*
X236265000Y-70655000D03*
G04 #@! TO.P,J6,7,Pin_7*
G04 #@! TO.N,/b_start*
X233725000Y-73195000D03*
G04 #@! TO.P,J6,8,Pin_8*
G04 #@! TO.N,/b_1*
X236265000Y-73195000D03*
G04 #@! TO.P,J6,9,Pin_9*
G04 #@! TO.N,/b_2*
X233725000Y-75735000D03*
G04 #@! TO.P,J6,10,Pin_10*
G04 #@! TO.N,/b_3*
X236265000Y-75735000D03*
G04 #@! TO.P,J6,11,Pin_11*
G04 #@! TO.N,/dip2*
X233725000Y-78275000D03*
G04 #@! TO.P,J6,12,Pin_12*
G04 #@! TO.N,GND*
X236265000Y-78275000D03*
G04 #@! TO.P,J6,13,Pin_13*
G04 #@! TO.N,/b_4*
X233725000Y-80815000D03*
G04 #@! TO.P,J6,14,Pin_14*
G04 #@! TO.N,/b_5*
X236265000Y-80815000D03*
G04 #@! TO.P,J6,15,Pin_15*
G04 #@! TO.N,/b_6*
X233725000Y-83355000D03*
G04 #@! TO.P,J6,16,Pin_16*
G04 #@! TO.N,/dip3*
X236265000Y-83355000D03*
G04 #@! TO.P,J6,17,Pin_17*
G04 #@! TO.N,GND*
X233725000Y-85895000D03*
G04 #@! TO.P,J6,18,Pin_18*
X236265000Y-85895000D03*
G04 #@! TO.P,J6,19,Pin_19*
G04 #@! TO.N,+3V3*
X233725000Y-88435000D03*
G04 #@! TO.P,J6,20,Pin_20*
X236265000Y-88435000D03*
G04 #@! TD*
D16*
G04 #@! TO.P,H4,1,1*
G04 #@! TO.N,unconnected-(H4-Pad1)*
X237000000Y-96000000D03*
G04 #@! TD*
D17*
G04 #@! TO.P,J3,1,Pin_1*
G04 #@! TO.N,/dip1*
X176300000Y-81250000D03*
D18*
G04 #@! TO.P,J3,2,Pin_2*
G04 #@! TO.N,/dip2*
X176300000Y-83250000D03*
G04 #@! TO.P,J3,3,Pin_3*
G04 #@! TO.N,/dip3*
X176300000Y-85250000D03*
G04 #@! TO.P,J3,4,Pin_4*
G04 #@! TO.N,GND*
X176300000Y-87250000D03*
G04 #@! TD*
D16*
G04 #@! TO.P,H3,1,1*
G04 #@! TO.N,unconnected-(H3-Pad1)*
X175000000Y-96000000D03*
G04 #@! TD*
D17*
G04 #@! TO.P,J2,1,Pin_1*
G04 #@! TO.N,/b_coin*
X176300000Y-65750000D03*
D18*
G04 #@! TO.P,J2,2,Pin_2*
G04 #@! TO.N,/b_test*
X176300000Y-67750000D03*
G04 #@! TO.P,J2,3,Pin_3*
G04 #@! TO.N,/b_service*
X176300000Y-69750000D03*
G04 #@! TO.P,J2,4,Pin_4*
G04 #@! TO.N,GND*
X176300000Y-71750000D03*
G04 #@! TD*
D16*
G04 #@! TO.P,H2,1,1*
G04 #@! TO.N,unconnected-(H2-Pad1)*
X237000000Y-47000000D03*
G04 #@! TD*
G04 #@! TO.P,H1,1,1*
G04 #@! TO.N,unconnected-(H1-Pad1)*
X175000000Y-47000000D03*
G04 #@! TD*
D19*
G04 #@! TO.N,/b_left*
X221715489Y-65615489D02*
X209784511Y-65615489D01*
X203530000Y-71870000D02*
X201010000Y-71870000D01*
X225389511Y-69289511D02*
X221715489Y-65615489D01*
X209784511Y-65615489D02*
X203530000Y-71870000D01*
X236265000Y-68115000D02*
X235090489Y-69289511D01*
X235090489Y-69289511D02*
X225389511Y-69289511D01*
G04 #@! TO.N,/b_coin*
X197250000Y-73250000D02*
X194500000Y-73250000D01*
X187000000Y-65750000D02*
X176300000Y-65750000D01*
X197264511Y-73235489D02*
X197250000Y-73250000D01*
X224955000Y-70655000D02*
X221090000Y-66790000D01*
X194500000Y-73250000D02*
X187000000Y-65750000D01*
X233725000Y-70655000D02*
X224955000Y-70655000D01*
X209514511Y-73235489D02*
X197264511Y-73235489D01*
X218790000Y-66790000D02*
X215960000Y-66790000D01*
X221090000Y-66790000D02*
X218790000Y-66790000D01*
X215960000Y-66790000D02*
X209514511Y-73235489D01*
G04 #@! TO.N,/b_test*
X184500000Y-67750000D02*
X196240000Y-79490000D01*
X196240000Y-79490000D02*
X201010000Y-79490000D01*
X176300000Y-67750000D02*
X184500000Y-67750000D01*
G04 #@! TO.N,/b_start*
X238100000Y-65748990D02*
X234061010Y-61710000D01*
X233725000Y-73195000D02*
X234899511Y-72020489D01*
X238100000Y-70481010D02*
X238100000Y-65748990D01*
X234899511Y-72020489D02*
X236560521Y-72020489D01*
X234061010Y-61710000D02*
X218790000Y-61710000D01*
X236560521Y-72020489D02*
X238100000Y-70481010D01*
G04 #@! TO.N,/b_1*
X238000000Y-74930000D02*
X238000000Y-89700000D01*
X235510000Y-92190000D02*
X218790000Y-92190000D01*
X236265000Y-73195000D02*
X238000000Y-74930000D01*
X238000000Y-89700000D02*
X235510000Y-92190000D01*
G04 #@! TO.N,/b_4*
X227485000Y-80815000D02*
X226270000Y-82030000D01*
X233725000Y-80815000D02*
X227485000Y-80815000D01*
X226270000Y-82030000D02*
X218790000Y-82030000D01*
G04 #@! TO.N,/b_5*
X234940000Y-79490000D02*
X236265000Y-80815000D01*
X218790000Y-79490000D02*
X234940000Y-79490000D01*
G04 #@! TO.N,/b_service*
X175500000Y-82250000D02*
X174500000Y-83250000D01*
X179000000Y-81000000D02*
X177750000Y-82250000D01*
X174500000Y-90000000D02*
X176690000Y-92190000D01*
X176690000Y-92190000D02*
X201010000Y-92190000D01*
X174500000Y-83250000D02*
X174500000Y-90000000D01*
X179000000Y-71500000D02*
X179000000Y-81000000D01*
X176300000Y-69750000D02*
X177250000Y-69750000D01*
X177750000Y-82250000D02*
X175500000Y-82250000D01*
X177250000Y-69750000D02*
X179000000Y-71500000D01*
G04 #@! TO.N,/dip1*
X201010000Y-61710000D02*
X175790000Y-61710000D01*
X174000000Y-80250000D02*
X175000000Y-81250000D01*
X175790000Y-61710000D02*
X174000000Y-63500000D01*
X175000000Y-81250000D02*
X176300000Y-81250000D01*
X174000000Y-63500000D02*
X174000000Y-80250000D01*
G04 #@! TO.N,/dip2*
X210470000Y-82030000D02*
X201010000Y-82030000D01*
X233725000Y-78275000D02*
X214225000Y-78275000D01*
X192970000Y-82030000D02*
X201010000Y-82030000D01*
X176300000Y-83250000D02*
X191750000Y-83250000D01*
X191750000Y-83250000D02*
X192970000Y-82030000D01*
X214225000Y-78275000D02*
X210470000Y-82030000D01*
G04 #@! TO.N,/dip3*
X208204511Y-83395489D02*
X207030000Y-84570000D01*
X225540229Y-83395489D02*
X208204511Y-83395489D01*
X193680000Y-84570000D02*
X201010000Y-84570000D01*
X226755229Y-82180489D02*
X225540229Y-83395489D01*
X235090489Y-82180489D02*
X226755229Y-82180489D01*
X207030000Y-84570000D02*
X201010000Y-84570000D01*
X236265000Y-83355000D02*
X235090489Y-82180489D01*
X193000000Y-85250000D02*
X193680000Y-84570000D01*
X176300000Y-85250000D02*
X193000000Y-85250000D01*
G04 #@! TD*
G04 #@! TA.AperFunction,Conductor*
G04 #@! TO.N,GND*
G36*
X236523170Y-44120002D02*
G01*
X236569663Y-44173658D01*
X236579767Y-44243932D01*
X236550273Y-44308512D01*
X236490547Y-44346896D01*
X236477037Y-44350067D01*
X236368429Y-44369315D01*
X236364804Y-44370420D01*
X236364799Y-44370421D01*
X236163196Y-44431866D01*
X236056961Y-44464244D01*
X236053497Y-44465775D01*
X236053490Y-44465778D01*
X235869938Y-44546926D01*
X235759153Y-44595903D01*
X235755899Y-44597839D01*
X235755893Y-44597842D01*
X235733780Y-44610998D01*
X235479319Y-44762386D01*
X235221513Y-44961282D01*
X235218812Y-44963941D01*
X235218805Y-44963947D01*
X234992177Y-45187044D01*
X234989469Y-45189710D01*
X234987105Y-45192677D01*
X234987102Y-45192680D01*
X234794124Y-45434853D01*
X234786548Y-45444360D01*
X234615690Y-45721544D01*
X234479369Y-46017247D01*
X234478210Y-46020848D01*
X234478207Y-46020854D01*
X234395559Y-46277503D01*
X234379560Y-46327185D01*
X234378841Y-46330901D01*
X234378839Y-46330909D01*
X234318428Y-46643151D01*
X234318427Y-46643160D01*
X234317709Y-46646870D01*
X234317442Y-46650646D01*
X234317441Y-46650651D01*
X234297413Y-46933524D01*
X234294712Y-46971669D01*
X234310902Y-47296879D01*
X234311543Y-47300610D01*
X234311544Y-47300618D01*
X234360878Y-47587719D01*
X234366045Y-47617789D01*
X234367133Y-47621428D01*
X234367134Y-47621431D01*
X234405655Y-47750234D01*
X234459341Y-47929749D01*
X234460854Y-47933220D01*
X234460856Y-47933226D01*
X234492356Y-48005498D01*
X234589439Y-48228242D01*
X234591362Y-48231514D01*
X234591364Y-48231517D01*
X234611753Y-48266200D01*
X234754455Y-48508944D01*
X234756756Y-48511959D01*
X234949698Y-48764775D01*
X234949703Y-48764781D01*
X234951998Y-48767788D01*
X235179208Y-49001025D01*
X235432792Y-49205276D01*
X235561644Y-49285635D01*
X235703184Y-49373907D01*
X235709078Y-49377583D01*
X236004063Y-49515451D01*
X236007672Y-49516634D01*
X236301983Y-49613114D01*
X236313474Y-49616881D01*
X236632830Y-49680405D01*
X236636602Y-49680692D01*
X236636610Y-49680693D01*
X236953728Y-49704815D01*
X236953733Y-49704815D01*
X236957505Y-49705102D01*
X237282795Y-49690615D01*
X237603989Y-49637154D01*
X237916434Y-49545493D01*
X238215604Y-49416959D01*
X238218882Y-49415055D01*
X238218888Y-49415052D01*
X238452334Y-49279455D01*
X238497165Y-49253415D01*
X238757040Y-49057230D01*
X238886609Y-48932325D01*
X238988730Y-48833881D01*
X238988733Y-48833877D01*
X238991464Y-48831245D01*
X239010096Y-48808359D01*
X239194643Y-48581678D01*
X239194647Y-48581672D01*
X239197040Y-48578733D01*
X239370792Y-48303354D01*
X239498338Y-48034137D01*
X239508577Y-48012525D01*
X239510202Y-48009095D01*
X239554476Y-47876389D01*
X239595009Y-47818100D01*
X239660621Y-47790977D01*
X239730480Y-47803633D01*
X239782408Y-47852048D01*
X239800000Y-47916265D01*
X239800000Y-95080030D01*
X239779998Y-95148151D01*
X239726342Y-95194644D01*
X239656068Y-95204748D01*
X239591488Y-95175254D01*
X239553668Y-95117394D01*
X239531911Y-95047327D01*
X239530784Y-95043696D01*
X239397567Y-94746582D01*
X239229621Y-94467624D01*
X239227294Y-94464640D01*
X239227289Y-94464633D01*
X239031713Y-94213858D01*
X239031711Y-94213856D01*
X239029377Y-94210863D01*
X238799738Y-93980018D01*
X238709696Y-93909034D01*
X238547010Y-93780783D01*
X238544029Y-93778433D01*
X238265954Y-93609029D01*
X238130954Y-93547648D01*
X237972994Y-93475827D01*
X237972986Y-93475824D01*
X237969542Y-93474258D01*
X237659085Y-93376073D01*
X237517071Y-93349368D01*
X237342805Y-93316597D01*
X237342800Y-93316596D01*
X237339081Y-93315897D01*
X237014166Y-93294601D01*
X237010386Y-93294809D01*
X237010385Y-93294809D01*
X236913156Y-93300160D01*
X236689045Y-93312494D01*
X236685318Y-93313155D01*
X236685314Y-93313155D01*
X236426625Y-93359001D01*
X236368429Y-93369315D01*
X236364804Y-93370420D01*
X236364799Y-93370421D01*
X236279722Y-93396351D01*
X236056961Y-93464244D01*
X236053497Y-93465775D01*
X236053490Y-93465778D01*
X235869938Y-93546926D01*
X235759153Y-93595903D01*
X235755899Y-93597839D01*
X235755893Y-93597842D01*
X235496321Y-93752271D01*
X235479319Y-93762386D01*
X235221513Y-93961282D01*
X235218812Y-93963941D01*
X235218805Y-93963947D01*
X235040948Y-94139033D01*
X234989469Y-94189710D01*
X234987105Y-94192677D01*
X234987102Y-94192680D01*
X234890298Y-94314162D01*
X234786548Y-94444360D01*
X234615690Y-94721544D01*
X234479369Y-95017247D01*
X234478210Y-95020848D01*
X234478207Y-95020854D01*
X234387729Y-95301818D01*
X234379560Y-95327185D01*
X234378841Y-95330901D01*
X234378839Y-95330909D01*
X234318428Y-95643151D01*
X234318427Y-95643160D01*
X234317709Y-95646870D01*
X234317442Y-95650646D01*
X234317441Y-95650651D01*
X234302786Y-95857629D01*
X234294712Y-95971669D01*
X234310902Y-96296879D01*
X234311543Y-96300610D01*
X234311544Y-96300618D01*
X234353847Y-96546799D01*
X234366045Y-96617789D01*
X234367133Y-96621428D01*
X234367134Y-96621431D01*
X234390697Y-96700218D01*
X234459341Y-96929749D01*
X234589439Y-97228242D01*
X234754455Y-97508944D01*
X234756756Y-97511959D01*
X234949698Y-97764775D01*
X234949703Y-97764781D01*
X234951998Y-97767788D01*
X235179208Y-98001025D01*
X235432792Y-98205276D01*
X235709078Y-98377583D01*
X236004063Y-98515451D01*
X236313474Y-98616881D01*
X236478517Y-98649710D01*
X236482091Y-98650421D01*
X236545001Y-98683328D01*
X236580133Y-98745023D01*
X236576333Y-98815918D01*
X236534807Y-98873504D01*
X236468741Y-98899499D01*
X236457510Y-98900000D01*
X175549239Y-98900000D01*
X175481118Y-98879998D01*
X175434625Y-98826342D01*
X175424521Y-98756068D01*
X175454015Y-98691488D01*
X175513741Y-98653104D01*
X175528552Y-98649710D01*
X175603989Y-98637154D01*
X175916434Y-98545493D01*
X176215604Y-98416959D01*
X176218882Y-98415055D01*
X176218888Y-98415052D01*
X176382708Y-98319897D01*
X176497165Y-98253415D01*
X176757040Y-98057230D01*
X176991464Y-97831245D01*
X176993862Y-97828300D01*
X177194643Y-97581678D01*
X177194647Y-97581672D01*
X177197040Y-97578733D01*
X177370792Y-97303354D01*
X177510202Y-97009095D01*
X177613251Y-96700218D01*
X177678446Y-96381199D01*
X177704843Y-96056658D01*
X177705436Y-96000000D01*
X177696775Y-95856328D01*
X177686069Y-95678755D01*
X177686069Y-95678751D01*
X177685841Y-95674977D01*
X177681399Y-95650651D01*
X177629557Y-95366791D01*
X177627342Y-95354663D01*
X177530784Y-95043696D01*
X177397567Y-94746582D01*
X177378711Y-94715262D01*
X199954520Y-94715262D01*
X199955036Y-94721406D01*
X199970418Y-94904578D01*
X199971759Y-94920553D01*
X199973458Y-94926478D01*
X200015134Y-95071818D01*
X200028544Y-95118586D01*
X200031359Y-95124063D01*
X200031360Y-95124066D01*
X200052247Y-95164707D01*
X200122712Y-95301818D01*
X200250677Y-95463270D01*
X200407564Y-95596791D01*
X200587398Y-95697297D01*
X200682238Y-95728113D01*
X200777471Y-95759056D01*
X200777475Y-95759057D01*
X200783329Y-95760959D01*
X200987894Y-95785351D01*
X200994029Y-95784879D01*
X200994031Y-95784879D01*
X201050039Y-95780569D01*
X201193300Y-95769546D01*
X201199230Y-95767890D01*
X201199232Y-95767890D01*
X201385797Y-95715800D01*
X201385796Y-95715800D01*
X201391725Y-95714145D01*
X201397214Y-95711372D01*
X201397220Y-95711370D01*
X201570116Y-95624033D01*
X201575610Y-95621258D01*
X201618110Y-95588054D01*
X201733101Y-95498213D01*
X201737951Y-95494424D01*
X201761100Y-95467606D01*
X201868540Y-95343134D01*
X201868540Y-95343133D01*
X201872564Y-95338472D01*
X201876861Y-95330909D01*
X201932327Y-95233270D01*
X201974323Y-95159344D01*
X202039351Y-94963863D01*
X202065171Y-94759474D01*
X202065583Y-94730000D01*
X202045480Y-94524970D01*
X202033491Y-94485262D01*
X206304520Y-94485262D01*
X206321759Y-94690553D01*
X206323458Y-94696478D01*
X206342527Y-94762978D01*
X206378544Y-94888586D01*
X206381359Y-94894063D01*
X206381360Y-94894066D01*
X206442896Y-95013803D01*
X206472712Y-95071818D01*
X206600677Y-95233270D01*
X206605370Y-95237264D01*
X206605371Y-95237265D01*
X206743314Y-95354663D01*
X206757564Y-95366791D01*
X206937398Y-95467297D01*
X207020886Y-95494424D01*
X207127471Y-95529056D01*
X207127475Y-95529057D01*
X207133329Y-95530959D01*
X207337894Y-95555351D01*
X207344029Y-95554879D01*
X207344031Y-95554879D01*
X207400039Y-95550569D01*
X207543300Y-95539546D01*
X207549230Y-95537890D01*
X207549232Y-95537890D01*
X207691339Y-95498213D01*
X207741725Y-95484145D01*
X207747214Y-95481372D01*
X207747220Y-95481370D01*
X207920116Y-95394033D01*
X207925610Y-95391258D01*
X207967662Y-95358404D01*
X208033909Y-95306646D01*
X208087951Y-95264424D01*
X208139462Y-95204748D01*
X208218540Y-95113134D01*
X208218540Y-95113133D01*
X208222564Y-95108472D01*
X208238722Y-95080030D01*
X208306445Y-94960815D01*
X208357484Y-94911464D01*
X208427102Y-94897542D01*
X208493196Y-94923468D01*
X208534781Y-94981011D01*
X208542001Y-95023052D01*
X208542001Y-95394669D01*
X208542371Y-95401490D01*
X208547895Y-95452352D01*
X208551521Y-95467604D01*
X208596676Y-95588054D01*
X208605214Y-95603649D01*
X208681715Y-95705724D01*
X208694276Y-95718285D01*
X208796351Y-95794786D01*
X208811946Y-95803324D01*
X208932394Y-95848478D01*
X208947649Y-95852105D01*
X208998514Y-95857631D01*
X209005328Y-95858000D01*
X209627885Y-95858000D01*
X209643124Y-95853525D01*
X209644329Y-95852135D01*
X209646000Y-95844452D01*
X209646000Y-95839884D01*
X210154000Y-95839884D01*
X210158475Y-95855123D01*
X210159865Y-95856328D01*
X210167548Y-95857999D01*
X210794669Y-95857999D01*
X210801490Y-95857629D01*
X210852352Y-95852105D01*
X210867604Y-95848479D01*
X210988054Y-95803324D01*
X211003649Y-95794786D01*
X211105724Y-95718285D01*
X211118285Y-95705724D01*
X211194786Y-95603649D01*
X211203324Y-95588054D01*
X211248478Y-95467606D01*
X211252105Y-95452351D01*
X211257631Y-95401486D01*
X211258000Y-95394672D01*
X211258000Y-95019192D01*
X211278002Y-94951071D01*
X211331658Y-94904578D01*
X211401932Y-94894474D01*
X211466512Y-94923968D01*
X211496067Y-94961598D01*
X211552712Y-95071818D01*
X211680677Y-95233270D01*
X211685370Y-95237264D01*
X211685371Y-95237265D01*
X211823314Y-95354663D01*
X211837564Y-95366791D01*
X212017398Y-95467297D01*
X212100886Y-95494424D01*
X212207471Y-95529056D01*
X212207475Y-95529057D01*
X212213329Y-95530959D01*
X212417894Y-95555351D01*
X212424029Y-95554879D01*
X212424031Y-95554879D01*
X212480039Y-95550569D01*
X212623300Y-95539546D01*
X212629230Y-95537890D01*
X212629232Y-95537890D01*
X212771339Y-95498213D01*
X212821725Y-95484145D01*
X212827214Y-95481372D01*
X212827220Y-95481370D01*
X213000116Y-95394033D01*
X213005610Y-95391258D01*
X213047662Y-95358404D01*
X213113909Y-95306646D01*
X213167951Y-95264424D01*
X213219462Y-95204748D01*
X213298540Y-95113134D01*
X213298540Y-95113133D01*
X213302564Y-95108472D01*
X213323387Y-95071818D01*
X213354387Y-95017247D01*
X213404323Y-94929344D01*
X213469351Y-94733863D01*
X213471701Y-94715262D01*
X217734520Y-94715262D01*
X217735036Y-94721406D01*
X217750418Y-94904578D01*
X217751759Y-94920553D01*
X217753458Y-94926478D01*
X217795134Y-95071818D01*
X217808544Y-95118586D01*
X217811359Y-95124063D01*
X217811360Y-95124066D01*
X217832247Y-95164707D01*
X217902712Y-95301818D01*
X218030677Y-95463270D01*
X218187564Y-95596791D01*
X218367398Y-95697297D01*
X218462238Y-95728113D01*
X218557471Y-95759056D01*
X218557475Y-95759057D01*
X218563329Y-95760959D01*
X218767894Y-95785351D01*
X218774029Y-95784879D01*
X218774031Y-95784879D01*
X218830039Y-95780569D01*
X218973300Y-95769546D01*
X218979230Y-95767890D01*
X218979232Y-95767890D01*
X219165797Y-95715800D01*
X219165796Y-95715800D01*
X219171725Y-95714145D01*
X219177214Y-95711372D01*
X219177220Y-95711370D01*
X219350116Y-95624033D01*
X219355610Y-95621258D01*
X219398110Y-95588054D01*
X219513101Y-95498213D01*
X219517951Y-95494424D01*
X219541100Y-95467606D01*
X219648540Y-95343134D01*
X219648540Y-95343133D01*
X219652564Y-95338472D01*
X219656861Y-95330909D01*
X219712327Y-95233270D01*
X219754323Y-95159344D01*
X219819351Y-94963863D01*
X219845171Y-94759474D01*
X219845583Y-94730000D01*
X219825480Y-94524970D01*
X219765935Y-94327749D01*
X219669218Y-94145849D01*
X219582151Y-94039095D01*
X219542906Y-93990975D01*
X219542903Y-93990972D01*
X219539011Y-93986200D01*
X219532173Y-93980543D01*
X219385025Y-93858811D01*
X219385021Y-93858809D01*
X219380275Y-93854882D01*
X219199055Y-93756897D01*
X219002254Y-93695977D01*
X218996129Y-93695333D01*
X218996128Y-93695333D01*
X218803498Y-93675087D01*
X218803496Y-93675087D01*
X218797369Y-93674443D01*
X218710529Y-93682346D01*
X218598342Y-93692555D01*
X218598339Y-93692556D01*
X218592203Y-93693114D01*
X218394572Y-93751280D01*
X218212002Y-93846726D01*
X218207201Y-93850586D01*
X218207198Y-93850588D01*
X218072410Y-93958960D01*
X218051447Y-93975815D01*
X217919024Y-94133630D01*
X217916056Y-94139028D01*
X217916053Y-94139033D01*
X217830327Y-94294970D01*
X217819776Y-94314162D01*
X217757484Y-94510532D01*
X217756798Y-94516649D01*
X217756797Y-94516653D01*
X217736627Y-94696478D01*
X217734520Y-94715262D01*
X213471701Y-94715262D01*
X213495171Y-94529474D01*
X213495583Y-94500000D01*
X213494741Y-94491406D01*
X213478694Y-94327749D01*
X213475480Y-94294970D01*
X213415935Y-94097749D01*
X213319218Y-93915849D01*
X213245859Y-93825902D01*
X213192906Y-93760975D01*
X213192903Y-93760972D01*
X213189011Y-93756200D01*
X213182173Y-93750543D01*
X213035025Y-93628811D01*
X213035021Y-93628809D01*
X213030275Y-93624882D01*
X212849055Y-93526897D01*
X212652254Y-93465977D01*
X212646129Y-93465333D01*
X212646128Y-93465333D01*
X212453498Y-93445087D01*
X212453496Y-93445087D01*
X212447369Y-93444443D01*
X212360529Y-93452346D01*
X212248342Y-93462555D01*
X212248339Y-93462556D01*
X212242203Y-93463114D01*
X212044572Y-93521280D01*
X211862002Y-93616726D01*
X211857201Y-93620586D01*
X211857198Y-93620588D01*
X211846971Y-93628811D01*
X211701447Y-93745815D01*
X211569024Y-93903630D01*
X211566054Y-93909033D01*
X211566053Y-93909034D01*
X211494414Y-94039345D01*
X211444068Y-94089404D01*
X211374651Y-94104297D01*
X211308202Y-94079296D01*
X211265818Y-94022339D01*
X211257999Y-93978644D01*
X211257999Y-93605331D01*
X211257629Y-93598510D01*
X211252105Y-93547648D01*
X211248479Y-93532396D01*
X211203324Y-93411946D01*
X211194786Y-93396351D01*
X211118285Y-93294276D01*
X211105724Y-93281715D01*
X211003649Y-93205214D01*
X210988054Y-93196676D01*
X210867606Y-93151522D01*
X210852351Y-93147895D01*
X210801486Y-93142369D01*
X210794672Y-93142000D01*
X210172115Y-93142000D01*
X210156876Y-93146475D01*
X210155671Y-93147865D01*
X210154000Y-93155548D01*
X210154000Y-95839884D01*
X209646000Y-95839884D01*
X209646000Y-93160116D01*
X209641525Y-93144877D01*
X209640135Y-93143672D01*
X209632452Y-93142001D01*
X209005331Y-93142001D01*
X208998510Y-93142371D01*
X208947648Y-93147895D01*
X208932396Y-93151521D01*
X208811946Y-93196676D01*
X208796351Y-93205214D01*
X208694276Y-93281715D01*
X208681715Y-93294276D01*
X208605214Y-93396351D01*
X208596676Y-93411946D01*
X208551522Y-93532394D01*
X208547895Y-93547649D01*
X208542369Y-93598514D01*
X208542000Y-93605328D01*
X208542000Y-93979942D01*
X208521998Y-94048063D01*
X208468342Y-94094556D01*
X208398068Y-94104660D01*
X208333488Y-94075166D01*
X208304748Y-94039095D01*
X208273297Y-93979942D01*
X208239218Y-93915849D01*
X208165859Y-93825902D01*
X208112906Y-93760975D01*
X208112903Y-93760972D01*
X208109011Y-93756200D01*
X208102173Y-93750543D01*
X207955025Y-93628811D01*
X207955021Y-93628809D01*
X207950275Y-93624882D01*
X207769055Y-93526897D01*
X207572254Y-93465977D01*
X207566129Y-93465333D01*
X207566128Y-93465333D01*
X207373498Y-93445087D01*
X207373496Y-93445087D01*
X207367369Y-93444443D01*
X207280529Y-93452346D01*
X207168342Y-93462555D01*
X207168339Y-93462556D01*
X207162203Y-93463114D01*
X206964572Y-93521280D01*
X206782002Y-93616726D01*
X206777201Y-93620586D01*
X206777198Y-93620588D01*
X206766971Y-93628811D01*
X206621447Y-93745815D01*
X206489024Y-93903630D01*
X206486056Y-93909028D01*
X206486053Y-93909033D01*
X206394722Y-94075166D01*
X206389776Y-94084162D01*
X206327484Y-94280532D01*
X206326798Y-94286649D01*
X206326797Y-94286653D01*
X206305207Y-94479137D01*
X206304520Y-94485262D01*
X202033491Y-94485262D01*
X201985935Y-94327749D01*
X201889218Y-94145849D01*
X201802151Y-94039095D01*
X201762906Y-93990975D01*
X201762903Y-93990972D01*
X201759011Y-93986200D01*
X201752173Y-93980543D01*
X201605025Y-93858811D01*
X201605021Y-93858809D01*
X201600275Y-93854882D01*
X201419055Y-93756897D01*
X201222254Y-93695977D01*
X201216129Y-93695333D01*
X201216128Y-93695333D01*
X201023498Y-93675087D01*
X201023496Y-93675087D01*
X201017369Y-93674443D01*
X200930529Y-93682346D01*
X200818342Y-93692555D01*
X200818339Y-93692556D01*
X200812203Y-93693114D01*
X200614572Y-93751280D01*
X200432002Y-93846726D01*
X200427201Y-93850586D01*
X200427198Y-93850588D01*
X200292410Y-93958960D01*
X200271447Y-93975815D01*
X200139024Y-94133630D01*
X200136056Y-94139028D01*
X200136053Y-94139033D01*
X200050327Y-94294970D01*
X200039776Y-94314162D01*
X199977484Y-94510532D01*
X199976798Y-94516649D01*
X199976797Y-94516653D01*
X199956627Y-94696478D01*
X199954520Y-94715262D01*
X177378711Y-94715262D01*
X177229621Y-94467624D01*
X177227294Y-94464640D01*
X177227289Y-94464633D01*
X177031713Y-94213858D01*
X177031711Y-94213856D01*
X177029377Y-94210863D01*
X176799738Y-93980018D01*
X176709696Y-93909034D01*
X176547010Y-93780783D01*
X176544029Y-93778433D01*
X176265954Y-93609029D01*
X176130954Y-93547648D01*
X175972994Y-93475827D01*
X175972986Y-93475824D01*
X175969542Y-93474258D01*
X175659085Y-93376073D01*
X175517071Y-93349368D01*
X175342805Y-93316597D01*
X175342800Y-93316596D01*
X175339081Y-93315897D01*
X175014166Y-93294601D01*
X175010386Y-93294809D01*
X175010385Y-93294809D01*
X174913156Y-93300160D01*
X174689045Y-93312494D01*
X174685318Y-93313155D01*
X174685314Y-93313155D01*
X174426625Y-93359001D01*
X174368429Y-93369315D01*
X174364804Y-93370420D01*
X174364799Y-93370421D01*
X174279722Y-93396351D01*
X174056961Y-93464244D01*
X174053497Y-93465775D01*
X174053490Y-93465778D01*
X173869938Y-93546926D01*
X173759153Y-93595903D01*
X173755899Y-93597839D01*
X173755893Y-93597842D01*
X173496321Y-93752271D01*
X173479319Y-93762386D01*
X173221513Y-93961282D01*
X173218812Y-93963941D01*
X173218805Y-93963947D01*
X173040948Y-94139033D01*
X172989469Y-94189710D01*
X172987105Y-94192677D01*
X172987102Y-94192680D01*
X172890298Y-94314162D01*
X172786548Y-94444360D01*
X172615690Y-94721544D01*
X172479369Y-95017247D01*
X172478210Y-95020848D01*
X172478207Y-95020854D01*
X172387729Y-95301818D01*
X172379560Y-95327185D01*
X172378841Y-95330901D01*
X172378839Y-95330909D01*
X172349706Y-95481489D01*
X172317128Y-95544570D01*
X172255618Y-95580024D01*
X172184704Y-95576596D01*
X172126902Y-95535372D01*
X172100562Y-95469442D01*
X172100000Y-95457555D01*
X172100000Y-80278807D01*
X173670736Y-80278807D01*
X173673590Y-80289456D01*
X173680491Y-80315210D01*
X173682870Y-80325942D01*
X173689412Y-80363045D01*
X173694923Y-80372590D01*
X173696115Y-80375866D01*
X173697592Y-80379034D01*
X173700446Y-80389684D01*
X173706770Y-80398715D01*
X173722055Y-80420544D01*
X173727961Y-80429815D01*
X173739488Y-80449779D01*
X173746806Y-80462455D01*
X173762710Y-80475800D01*
X173775682Y-80486685D01*
X173783785Y-80494111D01*
X174755889Y-81466215D01*
X174763316Y-81474319D01*
X174787545Y-81503194D01*
X174797094Y-81508707D01*
X174820185Y-81522039D01*
X174829456Y-81527945D01*
X174860316Y-81549554D01*
X174870966Y-81552408D01*
X174874134Y-81553885D01*
X174877410Y-81555077D01*
X174886955Y-81560588D01*
X174920699Y-81566538D01*
X174924058Y-81567130D01*
X174934785Y-81569508D01*
X174971193Y-81579264D01*
X174982169Y-81578304D01*
X174982172Y-81578304D01*
X175008743Y-81575979D01*
X175019724Y-81575500D01*
X175102978Y-81575500D01*
X175171099Y-81595502D01*
X175217592Y-81649158D01*
X175226051Y-81674500D01*
X175226758Y-81677722D01*
X175227481Y-81685369D01*
X175230023Y-81692608D01*
X175230024Y-81692612D01*
X175250899Y-81752055D01*
X175272366Y-81813184D01*
X175277959Y-81820756D01*
X175292686Y-81840695D01*
X175317068Y-81907374D01*
X175301531Y-81976649D01*
X175285987Y-81995499D01*
X175287545Y-81996806D01*
X175263315Y-82025682D01*
X175255889Y-82033785D01*
X174283785Y-83005889D01*
X174275681Y-83013316D01*
X174246806Y-83037545D01*
X174241293Y-83047094D01*
X174227961Y-83070185D01*
X174222055Y-83079456D01*
X174200446Y-83110316D01*
X174197592Y-83120966D01*
X174196115Y-83124134D01*
X174194923Y-83127410D01*
X174189412Y-83136955D01*
X174186036Y-83156103D01*
X174182870Y-83174058D01*
X174180492Y-83184785D01*
X174170736Y-83221193D01*
X174171697Y-83232178D01*
X174171697Y-83232180D01*
X174174020Y-83258728D01*
X174174500Y-83269710D01*
X174174500Y-89980290D01*
X174174020Y-89991272D01*
X174170736Y-90028807D01*
X174173590Y-90039456D01*
X174180491Y-90065210D01*
X174182870Y-90075942D01*
X174189412Y-90113045D01*
X174194923Y-90122590D01*
X174196115Y-90125866D01*
X174197592Y-90129034D01*
X174200446Y-90139684D01*
X174206770Y-90148715D01*
X174222055Y-90170544D01*
X174227961Y-90179815D01*
X174241293Y-90202906D01*
X174246806Y-90212455D01*
X174255251Y-90219541D01*
X174275682Y-90236685D01*
X174283785Y-90244111D01*
X176445889Y-92406215D01*
X176453315Y-92414318D01*
X176477545Y-92443194D01*
X176487094Y-92448707D01*
X176510185Y-92462039D01*
X176519456Y-92467945D01*
X176550316Y-92489554D01*
X176560966Y-92492408D01*
X176564134Y-92493885D01*
X176567410Y-92495077D01*
X176576955Y-92500588D01*
X176610699Y-92506538D01*
X176614058Y-92507130D01*
X176624785Y-92509508D01*
X176661193Y-92519264D01*
X176672169Y-92518304D01*
X176672172Y-92518304D01*
X176698743Y-92515979D01*
X176709724Y-92515500D01*
X199919211Y-92515500D01*
X199987332Y-92535502D01*
X200031278Y-92583906D01*
X200122712Y-92761818D01*
X200250677Y-92923270D01*
X200407564Y-93056791D01*
X200587398Y-93157297D01*
X200682238Y-93188113D01*
X200777471Y-93219056D01*
X200777475Y-93219057D01*
X200783329Y-93220959D01*
X200987894Y-93245351D01*
X200994029Y-93244879D01*
X200994031Y-93244879D01*
X201050039Y-93240569D01*
X201193300Y-93229546D01*
X201199230Y-93227890D01*
X201199232Y-93227890D01*
X201385797Y-93175800D01*
X201385796Y-93175800D01*
X201391725Y-93174145D01*
X201397214Y-93171372D01*
X201397220Y-93171370D01*
X201570116Y-93084033D01*
X201575610Y-93081258D01*
X201737951Y-92954424D01*
X201872564Y-92798472D01*
X201893387Y-92761818D01*
X201971276Y-92624707D01*
X201974323Y-92619344D01*
X202039351Y-92423863D01*
X202065171Y-92219474D01*
X202065583Y-92190000D01*
X202045480Y-91984970D01*
X201985935Y-91787749D01*
X201889218Y-91605849D01*
X201815859Y-91515902D01*
X201762906Y-91450975D01*
X201762903Y-91450972D01*
X201759011Y-91446200D01*
X201741786Y-91431950D01*
X201605025Y-91318811D01*
X201605021Y-91318809D01*
X201600275Y-91314882D01*
X201472255Y-91245662D01*
X201470726Y-91244835D01*
X201420317Y-91194840D01*
X201404940Y-91125529D01*
X201429476Y-91058907D01*
X201486136Y-91016126D01*
X201530655Y-91007999D01*
X201904669Y-91007999D01*
X201911490Y-91007629D01*
X201962352Y-91002105D01*
X201977604Y-90998479D01*
X202098054Y-90953324D01*
X202113649Y-90944786D01*
X202215724Y-90868285D01*
X202228285Y-90855724D01*
X202304786Y-90753649D01*
X202313324Y-90738054D01*
X202358478Y-90617606D01*
X202362105Y-90602351D01*
X202367631Y-90551486D01*
X202368000Y-90544672D01*
X202368000Y-89922115D01*
X202363525Y-89906876D01*
X202362135Y-89905671D01*
X202354452Y-89904000D01*
X199670116Y-89904000D01*
X199654877Y-89908475D01*
X199653672Y-89909865D01*
X199652001Y-89917548D01*
X199652001Y-90544669D01*
X199652371Y-90551490D01*
X199657895Y-90602352D01*
X199661521Y-90617604D01*
X199706676Y-90738054D01*
X199715214Y-90753649D01*
X199791715Y-90855724D01*
X199804276Y-90868285D01*
X199906351Y-90944786D01*
X199921946Y-90953324D01*
X200042394Y-90998478D01*
X200057649Y-91002105D01*
X200108514Y-91007631D01*
X200115328Y-91008000D01*
X200490432Y-91008000D01*
X200558553Y-91028002D01*
X200605046Y-91081658D01*
X200615150Y-91151932D01*
X200585656Y-91216512D01*
X200548812Y-91245659D01*
X200432002Y-91306726D01*
X200427201Y-91310586D01*
X200427198Y-91310588D01*
X200416971Y-91318811D01*
X200271447Y-91435815D01*
X200139024Y-91593630D01*
X200136056Y-91599028D01*
X200136053Y-91599033D01*
X200129315Y-91611290D01*
X200039776Y-91774162D01*
X200037914Y-91780031D01*
X200035485Y-91785699D01*
X200033458Y-91784830D01*
X199999342Y-91835481D01*
X199934140Y-91863575D01*
X199918901Y-91864500D01*
X176877016Y-91864500D01*
X176808895Y-91844498D01*
X176787921Y-91827595D01*
X174862405Y-89902079D01*
X174828379Y-89839767D01*
X174825500Y-89812984D01*
X174825500Y-89377885D01*
X199652000Y-89377885D01*
X199656475Y-89393124D01*
X199657865Y-89394329D01*
X199665548Y-89396000D01*
X202349884Y-89396000D01*
X202365123Y-89391525D01*
X202366328Y-89390135D01*
X202367999Y-89382452D01*
X202367999Y-89377885D01*
X217432000Y-89377885D01*
X217436475Y-89393124D01*
X217437865Y-89394329D01*
X217445548Y-89396000D01*
X220129884Y-89396000D01*
X220145123Y-89391525D01*
X220146328Y-89390135D01*
X220147999Y-89382452D01*
X220147999Y-88755331D01*
X220147629Y-88748510D01*
X220142105Y-88697648D01*
X220138479Y-88682396D01*
X220093324Y-88561946D01*
X220084786Y-88546351D01*
X220008285Y-88444276D01*
X219995724Y-88431715D01*
X219893649Y-88355214D01*
X219878054Y-88346676D01*
X219757606Y-88301522D01*
X219742351Y-88297895D01*
X219691486Y-88292369D01*
X219684672Y-88292000D01*
X219308932Y-88292000D01*
X219240811Y-88271998D01*
X219194318Y-88218342D01*
X219184214Y-88148068D01*
X219213708Y-88083488D01*
X219252121Y-88053534D01*
X219304036Y-88027310D01*
X219355610Y-88001258D01*
X219517951Y-87874424D01*
X219538301Y-87850849D01*
X219648540Y-87723134D01*
X219648540Y-87723133D01*
X219652564Y-87718472D01*
X219673387Y-87681818D01*
X219691056Y-87650714D01*
X219754323Y-87539344D01*
X219819351Y-87343863D01*
X219845171Y-87139474D01*
X219845583Y-87110000D01*
X219825480Y-86904970D01*
X219765935Y-86707749D01*
X219669218Y-86525849D01*
X219544771Y-86373262D01*
X219542906Y-86370975D01*
X219542903Y-86370972D01*
X219539011Y-86366200D01*
X219479622Y-86317069D01*
X219385025Y-86238811D01*
X219385021Y-86238809D01*
X219380275Y-86234882D01*
X219199055Y-86136897D01*
X219002254Y-86075977D01*
X218996129Y-86075333D01*
X218996128Y-86075333D01*
X218803498Y-86055087D01*
X218803496Y-86055087D01*
X218797369Y-86054443D01*
X218710529Y-86062346D01*
X218598342Y-86072555D01*
X218598339Y-86072556D01*
X218592203Y-86073114D01*
X218394572Y-86131280D01*
X218389107Y-86134137D01*
X218343397Y-86158034D01*
X218212002Y-86226726D01*
X218207201Y-86230586D01*
X218207198Y-86230588D01*
X218056254Y-86351950D01*
X218051447Y-86355815D01*
X217919024Y-86513630D01*
X217916056Y-86519028D01*
X217916053Y-86519033D01*
X217866678Y-86608847D01*
X217819776Y-86694162D01*
X217757484Y-86890532D01*
X217756798Y-86896649D01*
X217756797Y-86896653D01*
X217745654Y-86996000D01*
X217734520Y-87095262D01*
X217751759Y-87300553D01*
X217753458Y-87306478D01*
X217798024Y-87461897D01*
X217808544Y-87498586D01*
X217811359Y-87504063D01*
X217811360Y-87504066D01*
X217842065Y-87563811D01*
X217902712Y-87681818D01*
X218030677Y-87843270D01*
X218035370Y-87847264D01*
X218035371Y-87847265D01*
X218059244Y-87867582D01*
X218187564Y-87976791D01*
X218277957Y-88027310D01*
X218329315Y-88056013D01*
X218379020Y-88106707D01*
X218393428Y-88176226D01*
X218367964Y-88242499D01*
X218310713Y-88284484D01*
X218267844Y-88292001D01*
X217895331Y-88292001D01*
X217888510Y-88292371D01*
X217837648Y-88297895D01*
X217822396Y-88301521D01*
X217701946Y-88346676D01*
X217686351Y-88355214D01*
X217584276Y-88431715D01*
X217571715Y-88444276D01*
X217495214Y-88546351D01*
X217486676Y-88561946D01*
X217441522Y-88682394D01*
X217437895Y-88697649D01*
X217432369Y-88748514D01*
X217432000Y-88755328D01*
X217432000Y-89377885D01*
X202367999Y-89377885D01*
X202367999Y-88755331D01*
X202367629Y-88748510D01*
X202362105Y-88697648D01*
X202358479Y-88682396D01*
X202313324Y-88561946D01*
X202304786Y-88546351D01*
X202228285Y-88444276D01*
X202215724Y-88431715D01*
X202113649Y-88355214D01*
X202098054Y-88346676D01*
X201977606Y-88301522D01*
X201962351Y-88297895D01*
X201911486Y-88292369D01*
X201904672Y-88292000D01*
X201528932Y-88292000D01*
X201460811Y-88271998D01*
X201414318Y-88218342D01*
X201404214Y-88148068D01*
X201433708Y-88083488D01*
X201472121Y-88053534D01*
X201524036Y-88027310D01*
X201575610Y-88001258D01*
X201737951Y-87874424D01*
X201758301Y-87850849D01*
X201868540Y-87723134D01*
X201868540Y-87723133D01*
X201872564Y-87718472D01*
X201893387Y-87681818D01*
X201911056Y-87650714D01*
X201974323Y-87539344D01*
X202039351Y-87343863D01*
X202065171Y-87139474D01*
X202065583Y-87110000D01*
X202045480Y-86904970D01*
X201985935Y-86707749D01*
X201889218Y-86525849D01*
X201764771Y-86373262D01*
X201762906Y-86370975D01*
X201762903Y-86370972D01*
X201759011Y-86366200D01*
X201699622Y-86317069D01*
X201605025Y-86238811D01*
X201605021Y-86238809D01*
X201600275Y-86234882D01*
X201419055Y-86136897D01*
X201222254Y-86075977D01*
X201216129Y-86075333D01*
X201216128Y-86075333D01*
X201023498Y-86055087D01*
X201023496Y-86055087D01*
X201017369Y-86054443D01*
X200930529Y-86062346D01*
X200818342Y-86072555D01*
X200818339Y-86072556D01*
X200812203Y-86073114D01*
X200614572Y-86131280D01*
X200609107Y-86134137D01*
X200563397Y-86158034D01*
X200432002Y-86226726D01*
X200427201Y-86230586D01*
X200427198Y-86230588D01*
X200276254Y-86351950D01*
X200271447Y-86355815D01*
X200139024Y-86513630D01*
X200136056Y-86519028D01*
X200136053Y-86519033D01*
X200086678Y-86608847D01*
X200039776Y-86694162D01*
X199977484Y-86890532D01*
X199976798Y-86896649D01*
X199976797Y-86896653D01*
X199965654Y-86996000D01*
X199954520Y-87095262D01*
X199971759Y-87300553D01*
X199973458Y-87306478D01*
X200018024Y-87461897D01*
X200028544Y-87498586D01*
X200031359Y-87504063D01*
X200031360Y-87504066D01*
X200062065Y-87563811D01*
X200122712Y-87681818D01*
X200250677Y-87843270D01*
X200255370Y-87847264D01*
X200255371Y-87847265D01*
X200279244Y-87867582D01*
X200407564Y-87976791D01*
X200497957Y-88027310D01*
X200549315Y-88056013D01*
X200599020Y-88106707D01*
X200613428Y-88176226D01*
X200587964Y-88242499D01*
X200530713Y-88284484D01*
X200487844Y-88292001D01*
X200115331Y-88292001D01*
X200108510Y-88292371D01*
X200057648Y-88297895D01*
X200042396Y-88301521D01*
X199921946Y-88346676D01*
X199906351Y-88355214D01*
X199804276Y-88431715D01*
X199791715Y-88444276D01*
X199715214Y-88546351D01*
X199706676Y-88561946D01*
X199661522Y-88682394D01*
X199657895Y-88697649D01*
X199652369Y-88748514D01*
X199652000Y-88755328D01*
X199652000Y-89377885D01*
X174825500Y-89377885D01*
X174825500Y-87867582D01*
X174845502Y-87799461D01*
X174899158Y-87752968D01*
X174969432Y-87742864D01*
X175034012Y-87772358D01*
X175060731Y-87804776D01*
X175063578Y-87809727D01*
X175178968Y-87972397D01*
X175186761Y-87981425D01*
X175330831Y-88119342D01*
X175340196Y-88126738D01*
X175507741Y-88234921D01*
X175518345Y-88240417D01*
X175703312Y-88314961D01*
X175714770Y-88318355D01*
X175911928Y-88356857D01*
X175920791Y-88357934D01*
X175923500Y-88358000D01*
X176027885Y-88358000D01*
X176043124Y-88353525D01*
X176044329Y-88352135D01*
X176046000Y-88344452D01*
X176046000Y-88339885D01*
X176554000Y-88339885D01*
X176558475Y-88355124D01*
X176559865Y-88356329D01*
X176567548Y-88358000D01*
X176624832Y-88358000D01*
X176630808Y-88357715D01*
X176779494Y-88343529D01*
X176791228Y-88341270D01*
X176982599Y-88285128D01*
X176993675Y-88280698D01*
X177170978Y-88189381D01*
X177181024Y-88182931D01*
X177337857Y-88059738D01*
X177346506Y-88051501D01*
X177477212Y-87900877D01*
X177484147Y-87891153D01*
X177584010Y-87718533D01*
X177588984Y-87707669D01*
X177654407Y-87519273D01*
X177654648Y-87518284D01*
X177653180Y-87507992D01*
X177639615Y-87504000D01*
X176572115Y-87504000D01*
X176556876Y-87508475D01*
X176555671Y-87509865D01*
X176554000Y-87517548D01*
X176554000Y-88339885D01*
X176046000Y-88339885D01*
X176046000Y-87122000D01*
X176066002Y-87053879D01*
X176119658Y-87007386D01*
X176172000Y-86996000D01*
X177635402Y-86996000D01*
X177648933Y-86992027D01*
X177650288Y-86982601D01*
X177628806Y-86893463D01*
X177624917Y-86882168D01*
X177542371Y-86700618D01*
X177536424Y-86690276D01*
X177421032Y-86527603D01*
X177413239Y-86518575D01*
X177269169Y-86380658D01*
X177259804Y-86373262D01*
X177092259Y-86265079D01*
X177081658Y-86259585D01*
X176938895Y-86202049D01*
X176883189Y-86158034D01*
X176860123Y-86090889D01*
X176877020Y-86021932D01*
X176924222Y-85978324D01*
X176923073Y-85976485D01*
X177069401Y-85885049D01*
X177075375Y-85881316D01*
X177139365Y-85817771D01*
X177197810Y-85759733D01*
X177197813Y-85759729D01*
X177202807Y-85754770D01*
X177279459Y-85633986D01*
X177332848Y-85587187D01*
X177385844Y-85575500D01*
X192980290Y-85575500D01*
X192991272Y-85575980D01*
X193017820Y-85578303D01*
X193017822Y-85578303D01*
X193028807Y-85579264D01*
X193065215Y-85569508D01*
X193075942Y-85567130D01*
X193079301Y-85566538D01*
X193113045Y-85560588D01*
X193122590Y-85555077D01*
X193125866Y-85553885D01*
X193129034Y-85552408D01*
X193139684Y-85549554D01*
X193170544Y-85527945D01*
X193179815Y-85522039D01*
X193202906Y-85508707D01*
X193212455Y-85503194D01*
X193236679Y-85474325D01*
X193244106Y-85466220D01*
X193777923Y-84932404D01*
X193840235Y-84898379D01*
X193867018Y-84895500D01*
X199919211Y-84895500D01*
X199987332Y-84915502D01*
X200031278Y-84963906D01*
X200087365Y-85073039D01*
X200122712Y-85141818D01*
X200250677Y-85303270D01*
X200255370Y-85307264D01*
X200255371Y-85307265D01*
X200391340Y-85422983D01*
X200407564Y-85436791D01*
X200587398Y-85537297D01*
X200659080Y-85560588D01*
X200777471Y-85599056D01*
X200777475Y-85599057D01*
X200783329Y-85600959D01*
X200987894Y-85625351D01*
X200994029Y-85624879D01*
X200994031Y-85624879D01*
X201050039Y-85620569D01*
X201193300Y-85609546D01*
X201199230Y-85607890D01*
X201199232Y-85607890D01*
X201361797Y-85562501D01*
X201391725Y-85554145D01*
X201397214Y-85551372D01*
X201397220Y-85551370D01*
X201570116Y-85464033D01*
X201575610Y-85461258D01*
X201616062Y-85429654D01*
X201733101Y-85338213D01*
X201737951Y-85334424D01*
X201792277Y-85271487D01*
X201868540Y-85183134D01*
X201868540Y-85183133D01*
X201872564Y-85178472D01*
X201893387Y-85141818D01*
X201936429Y-85066049D01*
X201974323Y-84999344D01*
X201980184Y-84981726D01*
X202020666Y-84923403D01*
X202086254Y-84896224D01*
X202099741Y-84895500D01*
X207010290Y-84895500D01*
X207021272Y-84895980D01*
X207047820Y-84898303D01*
X207047822Y-84898303D01*
X207058807Y-84899264D01*
X207095215Y-84889508D01*
X207105942Y-84887130D01*
X207109301Y-84886538D01*
X207143045Y-84880588D01*
X207152590Y-84875077D01*
X207155866Y-84873885D01*
X207159034Y-84872408D01*
X207169684Y-84869554D01*
X207200544Y-84847945D01*
X207209815Y-84842039D01*
X207232910Y-84828705D01*
X207232911Y-84828704D01*
X207242455Y-84823194D01*
X207266685Y-84794319D01*
X207274110Y-84786217D01*
X208302433Y-83757894D01*
X208364745Y-83723868D01*
X208391528Y-83720989D01*
X217860808Y-83720989D01*
X217928929Y-83740991D01*
X217975422Y-83794647D01*
X217985526Y-83864921D01*
X217957329Y-83927980D01*
X217919024Y-83973630D01*
X217916056Y-83979028D01*
X217916053Y-83979033D01*
X217876764Y-84050500D01*
X217819776Y-84154162D01*
X217817913Y-84160035D01*
X217767395Y-84319290D01*
X217757484Y-84350532D01*
X217756798Y-84356649D01*
X217756797Y-84356653D01*
X217736131Y-84540899D01*
X217734520Y-84555262D01*
X217735036Y-84561406D01*
X217751213Y-84754045D01*
X217751759Y-84760553D01*
X217753458Y-84766478D01*
X217793035Y-84904498D01*
X217808544Y-84958586D01*
X217811359Y-84964063D01*
X217811360Y-84964066D01*
X217899897Y-85136341D01*
X217902712Y-85141818D01*
X218030677Y-85303270D01*
X218035370Y-85307264D01*
X218035371Y-85307265D01*
X218171340Y-85422983D01*
X218187564Y-85436791D01*
X218367398Y-85537297D01*
X218439080Y-85560588D01*
X218557471Y-85599056D01*
X218557475Y-85599057D01*
X218563329Y-85600959D01*
X218767894Y-85625351D01*
X218774029Y-85624879D01*
X218774031Y-85624879D01*
X218830039Y-85620569D01*
X218973300Y-85609546D01*
X218979230Y-85607890D01*
X218979232Y-85607890D01*
X219141797Y-85562501D01*
X219171725Y-85554145D01*
X219177214Y-85551372D01*
X219177220Y-85551370D01*
X219350116Y-85464033D01*
X219355610Y-85461258D01*
X219396062Y-85429654D01*
X219513101Y-85338213D01*
X219517951Y-85334424D01*
X219572277Y-85271487D01*
X219648540Y-85183134D01*
X219648540Y-85183133D01*
X219652564Y-85178472D01*
X219673387Y-85141818D01*
X219716429Y-85066049D01*
X219754323Y-84999344D01*
X219819351Y-84803863D01*
X219845171Y-84599474D01*
X219845583Y-84570000D01*
X219825480Y-84364970D01*
X219765935Y-84167749D01*
X219669218Y-83985849D01*
X219620916Y-83926625D01*
X219593362Y-83861193D01*
X219605557Y-83791252D01*
X219653630Y-83739007D01*
X219718559Y-83720989D01*
X225520519Y-83720989D01*
X225531501Y-83721469D01*
X225558049Y-83723792D01*
X225558051Y-83723792D01*
X225569036Y-83724753D01*
X225605444Y-83714997D01*
X225616171Y-83712619D01*
X225619530Y-83712027D01*
X225653274Y-83706077D01*
X225662819Y-83700566D01*
X225666095Y-83699374D01*
X225669263Y-83697897D01*
X225679913Y-83695043D01*
X225710773Y-83673434D01*
X225720044Y-83667528D01*
X225743139Y-83654194D01*
X225743140Y-83654193D01*
X225752684Y-83648683D01*
X225776914Y-83619808D01*
X225784339Y-83611706D01*
X226853151Y-82542894D01*
X226915463Y-82508868D01*
X226942246Y-82505989D01*
X232795808Y-82505989D01*
X232863929Y-82525991D01*
X232910422Y-82579647D01*
X232920526Y-82649921D01*
X232892329Y-82712980D01*
X232854024Y-82758630D01*
X232851056Y-82764028D01*
X232851053Y-82764033D01*
X232757743Y-82933765D01*
X232754776Y-82939162D01*
X232692484Y-83135532D01*
X232691798Y-83141649D01*
X232691797Y-83141653D01*
X232670207Y-83334137D01*
X232669520Y-83340262D01*
X232670036Y-83346406D01*
X232685668Y-83532555D01*
X232686759Y-83545553D01*
X232688458Y-83551478D01*
X232738144Y-83724753D01*
X232743544Y-83743586D01*
X232746359Y-83749063D01*
X232746360Y-83749066D01*
X232803985Y-83861193D01*
X232837712Y-83926818D01*
X232965677Y-84088270D01*
X232970370Y-84092264D01*
X232970371Y-84092265D01*
X233105884Y-84207595D01*
X233122564Y-84221791D01*
X233127942Y-84224797D01*
X233127944Y-84224798D01*
X233202887Y-84266682D01*
X233302398Y-84322297D01*
X233367437Y-84343429D01*
X233426042Y-84383502D01*
X233453680Y-84448898D01*
X233441574Y-84518855D01*
X233393568Y-84571162D01*
X233367646Y-84583027D01*
X233201868Y-84637212D01*
X233192359Y-84641209D01*
X233003463Y-84739542D01*
X232994738Y-84745036D01*
X232824433Y-84872905D01*
X232816726Y-84879748D01*
X232669590Y-85033717D01*
X232663104Y-85041727D01*
X232543098Y-85217649D01*
X232538000Y-85226623D01*
X232448338Y-85419783D01*
X232444775Y-85429470D01*
X232389389Y-85629183D01*
X232390912Y-85637607D01*
X232403292Y-85641000D01*
X236393000Y-85641000D01*
X236461121Y-85661002D01*
X236507614Y-85714658D01*
X236519000Y-85767000D01*
X236519000Y-86023000D01*
X236498998Y-86091121D01*
X236445342Y-86137614D01*
X236393000Y-86149000D01*
X232408225Y-86149000D01*
X232394694Y-86152973D01*
X232393257Y-86162966D01*
X232423565Y-86297446D01*
X232426645Y-86307275D01*
X232506770Y-86504603D01*
X232511413Y-86513794D01*
X232622694Y-86695388D01*
X232628777Y-86703699D01*
X232768213Y-86864667D01*
X232775580Y-86871883D01*
X232939434Y-87007916D01*
X232947881Y-87013831D01*
X233131756Y-87121279D01*
X233141042Y-87125729D01*
X233340001Y-87201703D01*
X233354866Y-87206022D01*
X233354289Y-87208008D01*
X233409260Y-87237082D01*
X233444110Y-87298936D01*
X233439988Y-87369813D01*
X233398201Y-87427209D01*
X233356930Y-87448228D01*
X233335489Y-87454538D01*
X233335484Y-87454540D01*
X233329572Y-87456280D01*
X233147002Y-87551726D01*
X233142201Y-87555586D01*
X233142198Y-87555588D01*
X232991254Y-87676950D01*
X232986447Y-87680815D01*
X232854024Y-87838630D01*
X232851056Y-87844028D01*
X232851053Y-87844033D01*
X232776418Y-87979795D01*
X232754776Y-88019162D01*
X232692484Y-88215532D01*
X232691798Y-88221649D01*
X232691797Y-88221653D01*
X232677006Y-88353525D01*
X232669520Y-88420262D01*
X232686759Y-88625553D01*
X232743544Y-88823586D01*
X232746359Y-88829063D01*
X232746360Y-88829066D01*
X232767247Y-88869707D01*
X232837712Y-89006818D01*
X232965677Y-89168270D01*
X233122564Y-89301791D01*
X233302398Y-89402297D01*
X233397238Y-89433113D01*
X233492471Y-89464056D01*
X233492475Y-89464057D01*
X233498329Y-89465959D01*
X233702894Y-89490351D01*
X233709029Y-89489879D01*
X233709031Y-89489879D01*
X233765039Y-89485569D01*
X233908300Y-89474546D01*
X233914230Y-89472890D01*
X233914232Y-89472890D01*
X234100797Y-89420800D01*
X234100796Y-89420800D01*
X234106725Y-89419145D01*
X234112214Y-89416372D01*
X234112220Y-89416370D01*
X234285116Y-89329033D01*
X234290610Y-89326258D01*
X234452951Y-89199424D01*
X234587564Y-89043472D01*
X234608387Y-89006818D01*
X234686276Y-88869707D01*
X234689323Y-88864344D01*
X234754351Y-88668863D01*
X234780171Y-88464474D01*
X234780583Y-88435000D01*
X234760480Y-88229970D01*
X234700935Y-88032749D01*
X234604218Y-87850849D01*
X234500056Y-87723134D01*
X234477906Y-87695975D01*
X234477903Y-87695972D01*
X234474011Y-87691200D01*
X234469262Y-87687271D01*
X234320025Y-87563811D01*
X234320021Y-87563809D01*
X234315275Y-87559882D01*
X234134055Y-87461897D01*
X234083183Y-87446150D01*
X234024025Y-87406899D01*
X233995477Y-87341895D01*
X234006605Y-87271776D01*
X234053876Y-87218804D01*
X234084235Y-87205099D01*
X234217255Y-87165191D01*
X234226842Y-87161433D01*
X234418095Y-87067739D01*
X234426945Y-87062464D01*
X234600328Y-86938792D01*
X234608200Y-86932139D01*
X234759052Y-86781812D01*
X234765730Y-86773965D01*
X234893022Y-86596819D01*
X234894147Y-86597627D01*
X234941669Y-86553876D01*
X235011607Y-86541661D01*
X235077046Y-86569197D01*
X235104870Y-86601028D01*
X235162690Y-86695383D01*
X235168777Y-86703699D01*
X235308213Y-86864667D01*
X235315580Y-86871883D01*
X235479434Y-87007916D01*
X235487881Y-87013831D01*
X235671756Y-87121279D01*
X235681042Y-87125729D01*
X235880001Y-87201703D01*
X235894866Y-87206022D01*
X235894289Y-87208008D01*
X235949260Y-87237082D01*
X235984110Y-87298936D01*
X235979988Y-87369813D01*
X235938201Y-87427209D01*
X235896930Y-87448228D01*
X235875489Y-87454538D01*
X235875484Y-87454540D01*
X235869572Y-87456280D01*
X235687002Y-87551726D01*
X235682201Y-87555586D01*
X235682198Y-87555588D01*
X235531254Y-87676950D01*
X235526447Y-87680815D01*
X235394024Y-87838630D01*
X235391056Y-87844028D01*
X235391053Y-87844033D01*
X235316418Y-87979795D01*
X235294776Y-88019162D01*
X235232484Y-88215532D01*
X235231798Y-88221649D01*
X235231797Y-88221653D01*
X235217006Y-88353525D01*
X235209520Y-88420262D01*
X235226759Y-88625553D01*
X235283544Y-88823586D01*
X235286359Y-88829063D01*
X235286360Y-88829066D01*
X235307247Y-88869707D01*
X235377712Y-89006818D01*
X235505677Y-89168270D01*
X235662564Y-89301791D01*
X235842398Y-89402297D01*
X235937238Y-89433113D01*
X236032471Y-89464056D01*
X236032475Y-89464057D01*
X236038329Y-89465959D01*
X236242894Y-89490351D01*
X236249029Y-89489879D01*
X236249031Y-89489879D01*
X236305039Y-89485569D01*
X236448300Y-89474546D01*
X236454230Y-89472890D01*
X236454232Y-89472890D01*
X236640797Y-89420800D01*
X236640796Y-89420800D01*
X236646725Y-89419145D01*
X236652214Y-89416372D01*
X236652220Y-89416370D01*
X236825116Y-89329033D01*
X236830610Y-89326258D01*
X236992951Y-89199424D01*
X237127564Y-89043472D01*
X237148387Y-89006818D01*
X237226276Y-88869707D01*
X237229323Y-88864344D01*
X237294351Y-88668863D01*
X237320171Y-88464474D01*
X237320583Y-88435000D01*
X237300480Y-88229970D01*
X237240935Y-88032749D01*
X237144218Y-87850849D01*
X237040056Y-87723134D01*
X237017906Y-87695975D01*
X237017903Y-87695972D01*
X237014011Y-87691200D01*
X237009262Y-87687271D01*
X236860025Y-87563811D01*
X236860021Y-87563809D01*
X236855275Y-87559882D01*
X236674055Y-87461897D01*
X236623183Y-87446150D01*
X236564025Y-87406899D01*
X236535477Y-87341895D01*
X236546605Y-87271776D01*
X236593876Y-87218804D01*
X236624235Y-87205099D01*
X236757255Y-87165191D01*
X236766842Y-87161433D01*
X236958095Y-87067739D01*
X236966945Y-87062464D01*
X237140328Y-86938792D01*
X237148200Y-86932139D01*
X237299052Y-86781812D01*
X237305730Y-86773965D01*
X237430003Y-86601020D01*
X237435310Y-86592189D01*
X237435542Y-86591719D01*
X237435686Y-86591563D01*
X237437977Y-86587750D01*
X237438764Y-86588223D01*
X237483655Y-86539512D01*
X237552356Y-86521604D01*
X237619833Y-86543682D01*
X237664662Y-86598735D01*
X237674500Y-86647545D01*
X237674500Y-89512984D01*
X237654498Y-89581105D01*
X237637595Y-89602079D01*
X235412079Y-91827595D01*
X235349767Y-91861621D01*
X235322984Y-91864500D01*
X219881269Y-91864500D01*
X219813148Y-91844498D01*
X219766008Y-91787991D01*
X219765935Y-91787749D01*
X219669218Y-91605849D01*
X219595859Y-91515902D01*
X219542906Y-91450975D01*
X219542903Y-91450972D01*
X219539011Y-91446200D01*
X219521786Y-91431950D01*
X219385025Y-91318811D01*
X219385021Y-91318809D01*
X219380275Y-91314882D01*
X219252255Y-91245662D01*
X219250726Y-91244835D01*
X219200317Y-91194840D01*
X219184940Y-91125529D01*
X219209476Y-91058907D01*
X219266136Y-91016126D01*
X219310655Y-91007999D01*
X219684669Y-91007999D01*
X219691490Y-91007629D01*
X219742352Y-91002105D01*
X219757604Y-90998479D01*
X219878054Y-90953324D01*
X219893649Y-90944786D01*
X219995724Y-90868285D01*
X220008285Y-90855724D01*
X220084786Y-90753649D01*
X220093324Y-90738054D01*
X220138478Y-90617606D01*
X220142105Y-90602351D01*
X220147631Y-90551486D01*
X220148000Y-90544672D01*
X220148000Y-89922115D01*
X220143525Y-89906876D01*
X220142135Y-89905671D01*
X220134452Y-89904000D01*
X217450116Y-89904000D01*
X217434877Y-89908475D01*
X217433672Y-89909865D01*
X217432001Y-89917548D01*
X217432001Y-90544669D01*
X217432371Y-90551490D01*
X217437895Y-90602352D01*
X217441521Y-90617604D01*
X217486676Y-90738054D01*
X217495214Y-90753649D01*
X217571715Y-90855724D01*
X217584276Y-90868285D01*
X217686351Y-90944786D01*
X217701946Y-90953324D01*
X217822394Y-90998478D01*
X217837649Y-91002105D01*
X217888514Y-91007631D01*
X217895328Y-91008000D01*
X218270432Y-91008000D01*
X218338553Y-91028002D01*
X218385046Y-91081658D01*
X218395150Y-91151932D01*
X218365656Y-91216512D01*
X218328812Y-91245659D01*
X218212002Y-91306726D01*
X218207201Y-91310586D01*
X218207198Y-91310588D01*
X218196971Y-91318811D01*
X218051447Y-91435815D01*
X217919024Y-91593630D01*
X217916056Y-91599028D01*
X217916053Y-91599033D01*
X217909315Y-91611290D01*
X217819776Y-91774162D01*
X217757484Y-91970532D01*
X217756798Y-91976649D01*
X217756797Y-91976653D01*
X217735207Y-92169137D01*
X217734520Y-92175262D01*
X217751759Y-92380553D01*
X217753458Y-92386478D01*
X217791534Y-92519264D01*
X217808544Y-92578586D01*
X217811359Y-92584063D01*
X217811360Y-92584066D01*
X217832247Y-92624707D01*
X217902712Y-92761818D01*
X218030677Y-92923270D01*
X218187564Y-93056791D01*
X218367398Y-93157297D01*
X218462238Y-93188113D01*
X218557471Y-93219056D01*
X218557475Y-93219057D01*
X218563329Y-93220959D01*
X218767894Y-93245351D01*
X218774029Y-93244879D01*
X218774031Y-93244879D01*
X218830039Y-93240569D01*
X218973300Y-93229546D01*
X218979230Y-93227890D01*
X218979232Y-93227890D01*
X219165797Y-93175800D01*
X219165796Y-93175800D01*
X219171725Y-93174145D01*
X219177214Y-93171372D01*
X219177220Y-93171370D01*
X219350116Y-93084033D01*
X219355610Y-93081258D01*
X219517951Y-92954424D01*
X219652564Y-92798472D01*
X219673387Y-92761818D01*
X219751275Y-92624709D01*
X219751276Y-92624707D01*
X219754323Y-92619344D01*
X219760184Y-92601726D01*
X219800666Y-92543403D01*
X219866254Y-92516224D01*
X219879741Y-92515500D01*
X235490290Y-92515500D01*
X235501272Y-92515980D01*
X235527820Y-92518303D01*
X235527822Y-92518303D01*
X235538807Y-92519264D01*
X235575215Y-92509508D01*
X235585942Y-92507130D01*
X235589301Y-92506538D01*
X235623045Y-92500588D01*
X235632590Y-92495077D01*
X235635866Y-92493885D01*
X235639034Y-92492408D01*
X235649684Y-92489554D01*
X235680544Y-92467945D01*
X235689815Y-92462039D01*
X235712906Y-92448707D01*
X235722455Y-92443194D01*
X235746685Y-92414317D01*
X235754111Y-92406215D01*
X238216215Y-89944111D01*
X238224319Y-89936684D01*
X238230805Y-89931241D01*
X238253194Y-89912455D01*
X238259184Y-89902079D01*
X238272039Y-89879815D01*
X238277945Y-89870544D01*
X238293230Y-89848715D01*
X238299554Y-89839684D01*
X238302408Y-89829034D01*
X238303885Y-89825866D01*
X238305077Y-89822590D01*
X238310588Y-89813045D01*
X238317130Y-89775942D01*
X238319509Y-89765210D01*
X238329264Y-89728807D01*
X238325979Y-89691257D01*
X238325500Y-89680276D01*
X238325500Y-74949711D01*
X238325980Y-74938729D01*
X238328303Y-74912176D01*
X238329264Y-74901194D01*
X238326410Y-74890542D01*
X238319511Y-74864792D01*
X238317133Y-74854065D01*
X238312504Y-74827815D01*
X238312502Y-74827810D01*
X238310588Y-74816955D01*
X238305075Y-74807407D01*
X238303883Y-74804131D01*
X238302409Y-74800969D01*
X238299554Y-74790316D01*
X238277945Y-74759456D01*
X238272039Y-74750185D01*
X238258707Y-74727094D01*
X238253194Y-74717545D01*
X238224317Y-74693315D01*
X238216215Y-74685889D01*
X237265715Y-73735389D01*
X237231689Y-73673077D01*
X237235252Y-73606522D01*
X237280629Y-73470112D01*
X237294351Y-73428863D01*
X237320171Y-73224474D01*
X237320583Y-73195000D01*
X237300480Y-72989970D01*
X237240935Y-72792749D01*
X237144218Y-72610849D01*
X237031299Y-72472397D01*
X237017906Y-72455975D01*
X237017903Y-72455972D01*
X237014011Y-72451200D01*
X237008507Y-72446646D01*
X236888734Y-72347562D01*
X236848995Y-72288728D01*
X236847373Y-72217750D01*
X236879954Y-72161382D01*
X238316215Y-70725121D01*
X238324319Y-70717694D01*
X238344749Y-70700551D01*
X238353194Y-70693465D01*
X238360420Y-70680949D01*
X238372039Y-70660825D01*
X238377945Y-70651554D01*
X238393230Y-70629725D01*
X238399554Y-70620694D01*
X238402408Y-70610044D01*
X238403885Y-70606876D01*
X238405077Y-70603600D01*
X238410588Y-70594055D01*
X238417130Y-70556952D01*
X238419509Y-70546220D01*
X238429264Y-70509817D01*
X238425980Y-70472282D01*
X238425500Y-70461300D01*
X238425500Y-65768688D01*
X238425980Y-65757706D01*
X238428302Y-65731170D01*
X238428302Y-65731168D01*
X238429263Y-65720183D01*
X238419512Y-65683793D01*
X238417132Y-65673059D01*
X238412502Y-65646802D01*
X238410588Y-65635945D01*
X238405076Y-65626397D01*
X238403883Y-65623120D01*
X238402406Y-65619952D01*
X238399553Y-65609306D01*
X238377942Y-65578442D01*
X238372038Y-65569174D01*
X238370440Y-65566406D01*
X238353194Y-65536535D01*
X238324331Y-65512316D01*
X238316227Y-65504890D01*
X234305120Y-61493784D01*
X234297693Y-61485680D01*
X234280551Y-61465251D01*
X234280550Y-61465250D01*
X234273465Y-61456806D01*
X234263916Y-61451293D01*
X234240825Y-61437961D01*
X234231554Y-61432055D01*
X234209725Y-61416770D01*
X234200694Y-61410446D01*
X234190044Y-61407592D01*
X234186876Y-61406115D01*
X234183600Y-61404923D01*
X234174055Y-61399412D01*
X234140311Y-61393462D01*
X234136952Y-61392870D01*
X234126225Y-61390492D01*
X234089817Y-61380736D01*
X234078832Y-61381697D01*
X234078830Y-61381697D01*
X234052282Y-61384020D01*
X234041300Y-61384500D01*
X219881269Y-61384500D01*
X219813148Y-61364498D01*
X219766008Y-61307991D01*
X219765935Y-61307749D01*
X219669218Y-61125849D01*
X219595859Y-61035902D01*
X219542906Y-60970975D01*
X219542903Y-60970972D01*
X219539011Y-60966200D01*
X219521786Y-60951950D01*
X219385025Y-60838811D01*
X219385021Y-60838809D01*
X219380275Y-60834882D01*
X219199055Y-60736897D01*
X219002254Y-60675977D01*
X218996129Y-60675333D01*
X218996128Y-60675333D01*
X218803498Y-60655087D01*
X218803496Y-60655087D01*
X218797369Y-60654443D01*
X218710529Y-60662346D01*
X218598342Y-60672555D01*
X218598339Y-60672556D01*
X218592203Y-60673114D01*
X218394572Y-60731280D01*
X218212002Y-60826726D01*
X218207201Y-60830586D01*
X218207198Y-60830588D01*
X218070746Y-60940298D01*
X218051447Y-60955815D01*
X217919024Y-61113630D01*
X217916056Y-61119028D01*
X217916053Y-61119033D01*
X217908457Y-61132851D01*
X217819776Y-61294162D01*
X217757484Y-61490532D01*
X217756798Y-61496649D01*
X217756797Y-61496653D01*
X217735207Y-61689137D01*
X217734520Y-61695262D01*
X217751759Y-61900553D01*
X217753458Y-61906478D01*
X217801037Y-62072405D01*
X217808544Y-62098586D01*
X217811359Y-62104063D01*
X217811360Y-62104066D01*
X217832247Y-62144707D01*
X217902712Y-62281818D01*
X218030677Y-62443270D01*
X218187564Y-62576791D01*
X218367398Y-62677297D01*
X218462238Y-62708113D01*
X218557471Y-62739056D01*
X218557475Y-62739057D01*
X218563329Y-62740959D01*
X218767894Y-62765351D01*
X218774029Y-62764879D01*
X218774031Y-62764879D01*
X218830039Y-62760569D01*
X218973300Y-62749546D01*
X218979230Y-62747890D01*
X218979232Y-62747890D01*
X219165797Y-62695800D01*
X219165796Y-62695800D01*
X219171725Y-62694145D01*
X219177214Y-62691372D01*
X219177220Y-62691370D01*
X219350116Y-62604033D01*
X219355610Y-62601258D01*
X219517951Y-62474424D01*
X219652564Y-62318472D01*
X219673387Y-62281818D01*
X219751275Y-62144709D01*
X219751276Y-62144707D01*
X219754323Y-62139344D01*
X219760184Y-62121726D01*
X219800666Y-62063403D01*
X219866254Y-62036224D01*
X219879741Y-62035500D01*
X233873994Y-62035500D01*
X233942115Y-62055502D01*
X233963089Y-62072405D01*
X236208438Y-64317754D01*
X236242464Y-64380066D01*
X236237399Y-64450881D01*
X236194852Y-64507717D01*
X236130762Y-64532330D01*
X236115828Y-64533689D01*
X236073341Y-64537555D01*
X236073337Y-64537556D01*
X236067203Y-64538114D01*
X235869572Y-64596280D01*
X235687002Y-64691726D01*
X235682201Y-64695586D01*
X235682198Y-64695588D01*
X235531254Y-64816950D01*
X235526447Y-64820815D01*
X235394024Y-64978630D01*
X235391056Y-64984028D01*
X235391053Y-64984033D01*
X235335315Y-65085421D01*
X235294776Y-65159162D01*
X235232484Y-65355532D01*
X235231798Y-65361649D01*
X235231797Y-65361653D01*
X235214898Y-65512316D01*
X235209520Y-65560262D01*
X235210036Y-65566406D01*
X235224147Y-65734443D01*
X235226759Y-65765553D01*
X235228458Y-65771478D01*
X235267240Y-65906726D01*
X235283544Y-65963586D01*
X235286359Y-65969063D01*
X235286360Y-65969066D01*
X235342515Y-66078332D01*
X235377712Y-66146818D01*
X235505677Y-66308270D01*
X235510370Y-66312264D01*
X235510371Y-66312265D01*
X235597614Y-66386514D01*
X235662564Y-66441791D01*
X235667942Y-66444797D01*
X235667944Y-66444798D01*
X235716464Y-66471915D01*
X235842398Y-66542297D01*
X235926280Y-66569552D01*
X236032471Y-66604056D01*
X236032475Y-66604057D01*
X236038329Y-66605959D01*
X236242894Y-66630351D01*
X236249029Y-66629879D01*
X236249031Y-66629879D01*
X236321625Y-66624293D01*
X236448300Y-66614546D01*
X236454230Y-66612890D01*
X236454232Y-66612890D01*
X236605941Y-66570532D01*
X236646725Y-66559145D01*
X236652214Y-66556372D01*
X236652220Y-66556370D01*
X236791300Y-66486115D01*
X236830610Y-66466258D01*
X236896757Y-66414579D01*
X236934834Y-66384830D01*
X236992951Y-66339424D01*
X237127564Y-66183472D01*
X237130831Y-66177722D01*
X237211445Y-66035815D01*
X237229323Y-66004344D01*
X237294351Y-65808863D01*
X237307563Y-65704280D01*
X237335943Y-65639207D01*
X237395003Y-65599805D01*
X237465989Y-65598588D01*
X237521663Y-65630980D01*
X237737595Y-65846912D01*
X237771621Y-65909224D01*
X237774500Y-65936007D01*
X237774500Y-70293994D01*
X237754498Y-70362115D01*
X237737595Y-70383089D01*
X237522023Y-70598661D01*
X237459711Y-70632687D01*
X237388896Y-70627622D01*
X237332060Y-70585075D01*
X237307529Y-70521861D01*
X237303080Y-70476485D01*
X237300480Y-70449970D01*
X237240935Y-70252749D01*
X237144218Y-70070849D01*
X237029062Y-69929654D01*
X237017906Y-69915975D01*
X237017903Y-69915972D01*
X237014011Y-69911200D01*
X237009262Y-69907271D01*
X236860025Y-69783811D01*
X236860021Y-69783809D01*
X236855275Y-69779882D01*
X236674055Y-69681897D01*
X236477254Y-69620977D01*
X236471129Y-69620333D01*
X236471128Y-69620333D01*
X236278498Y-69600087D01*
X236278496Y-69600087D01*
X236272369Y-69599443D01*
X236193274Y-69606641D01*
X236073342Y-69617555D01*
X236073339Y-69617556D01*
X236067203Y-69618114D01*
X235869572Y-69676280D01*
X235687002Y-69771726D01*
X235682201Y-69775586D01*
X235682198Y-69775588D01*
X235531254Y-69896950D01*
X235526447Y-69900815D01*
X235394024Y-70058630D01*
X235391056Y-70064028D01*
X235391053Y-70064033D01*
X235316416Y-70199798D01*
X235294776Y-70239162D01*
X235232484Y-70435532D01*
X235231798Y-70441649D01*
X235231797Y-70441653D01*
X235213265Y-70606876D01*
X235209520Y-70640262D01*
X235210036Y-70646406D01*
X235225668Y-70832555D01*
X235226759Y-70845553D01*
X235228458Y-70851478D01*
X235267240Y-70986726D01*
X235283544Y-71043586D01*
X235286359Y-71049063D01*
X235286360Y-71049066D01*
X235358932Y-71190276D01*
X235377712Y-71226818D01*
X235505677Y-71388270D01*
X235603112Y-71471193D01*
X235605276Y-71473035D01*
X235644189Y-71532418D01*
X235644820Y-71603411D01*
X235606968Y-71663476D01*
X235542652Y-71693542D01*
X235523613Y-71694989D01*
X234919221Y-71694989D01*
X234908239Y-71694509D01*
X234881688Y-71692186D01*
X234881682Y-71692187D01*
X234870704Y-71691226D01*
X234860057Y-71694079D01*
X234834315Y-71700977D01*
X234823580Y-71703357D01*
X234816019Y-71704690D01*
X234786466Y-71709901D01*
X234776918Y-71715413D01*
X234773641Y-71716606D01*
X234770473Y-71718083D01*
X234759827Y-71720936D01*
X234750798Y-71727258D01*
X234728964Y-71742546D01*
X234719696Y-71748450D01*
X234687056Y-71767295D01*
X234679973Y-71775736D01*
X234679972Y-71775737D01*
X234662831Y-71796165D01*
X234655405Y-71804268D01*
X234266490Y-72193183D01*
X234204178Y-72227209D01*
X234134400Y-72220781D01*
X234134055Y-72221897D01*
X234128776Y-72220263D01*
X234128777Y-72220263D01*
X233937254Y-72160977D01*
X233931129Y-72160333D01*
X233931128Y-72160333D01*
X233738498Y-72140087D01*
X233738496Y-72140087D01*
X233732369Y-72139443D01*
X233673647Y-72144787D01*
X233533342Y-72157555D01*
X233533339Y-72157556D01*
X233527203Y-72158114D01*
X233329572Y-72216280D01*
X233147002Y-72311726D01*
X233142201Y-72315586D01*
X233142198Y-72315588D01*
X232991254Y-72436950D01*
X232986447Y-72440815D01*
X232854024Y-72598630D01*
X232851056Y-72604028D01*
X232851053Y-72604033D01*
X232757743Y-72773765D01*
X232754776Y-72779162D01*
X232692484Y-72975532D01*
X232691798Y-72981649D01*
X232691797Y-72981653D01*
X232670207Y-73174137D01*
X232669520Y-73180262D01*
X232670036Y-73186406D01*
X232685668Y-73372555D01*
X232686759Y-73385553D01*
X232688458Y-73391478D01*
X232741487Y-73576411D01*
X232743544Y-73583586D01*
X232746359Y-73589063D01*
X232746360Y-73589066D01*
X232789536Y-73673077D01*
X232837712Y-73766818D01*
X232965677Y-73928270D01*
X232970370Y-73932264D01*
X232970371Y-73932265D01*
X233036759Y-73988765D01*
X233122564Y-74061791D01*
X233302398Y-74162297D01*
X233371221Y-74184659D01*
X233492471Y-74224056D01*
X233492475Y-74224057D01*
X233498329Y-74225959D01*
X233702894Y-74250351D01*
X233709029Y-74249879D01*
X233709031Y-74249879D01*
X233765039Y-74245569D01*
X233908300Y-74234546D01*
X233914230Y-74232890D01*
X233914232Y-74232890D01*
X234100797Y-74180800D01*
X234100796Y-74180800D01*
X234106725Y-74179145D01*
X234112214Y-74176372D01*
X234112220Y-74176370D01*
X234285116Y-74089033D01*
X234290610Y-74086258D01*
X234452951Y-73959424D01*
X234587564Y-73803472D01*
X234608387Y-73766818D01*
X234671445Y-73655815D01*
X234689323Y-73624344D01*
X234754351Y-73428863D01*
X234780171Y-73224474D01*
X234780583Y-73195000D01*
X234760480Y-72989970D01*
X234720550Y-72857715D01*
X234702717Y-72798651D01*
X234702716Y-72798649D01*
X234700935Y-72792749D01*
X234699312Y-72789697D01*
X234691944Y-72720028D01*
X234726808Y-72653519D01*
X234997433Y-72382894D01*
X235059745Y-72348868D01*
X235086528Y-72345989D01*
X235335808Y-72345989D01*
X235403929Y-72365991D01*
X235450422Y-72419647D01*
X235460526Y-72489921D01*
X235432329Y-72552980D01*
X235394024Y-72598630D01*
X235391056Y-72604028D01*
X235391053Y-72604033D01*
X235297743Y-72773765D01*
X235294776Y-72779162D01*
X235232484Y-72975532D01*
X235231798Y-72981649D01*
X235231797Y-72981653D01*
X235210207Y-73174137D01*
X235209520Y-73180262D01*
X235210036Y-73186406D01*
X235225668Y-73372555D01*
X235226759Y-73385553D01*
X235228458Y-73391478D01*
X235281487Y-73576411D01*
X235283544Y-73583586D01*
X235286359Y-73589063D01*
X235286360Y-73589066D01*
X235329536Y-73673077D01*
X235377712Y-73766818D01*
X235505677Y-73928270D01*
X235510370Y-73932264D01*
X235510371Y-73932265D01*
X235576759Y-73988765D01*
X235662564Y-74061791D01*
X235842398Y-74162297D01*
X235911221Y-74184659D01*
X236032471Y-74224056D01*
X236032475Y-74224057D01*
X236038329Y-74225959D01*
X236242894Y-74250351D01*
X236249029Y-74249879D01*
X236249031Y-74249879D01*
X236305039Y-74245569D01*
X236448300Y-74234546D01*
X236454230Y-74232890D01*
X236454232Y-74232890D01*
X236640797Y-74180800D01*
X236640796Y-74180800D01*
X236646725Y-74179145D01*
X236652221Y-74176369D01*
X236659722Y-74172580D01*
X236729544Y-74159721D01*
X236795235Y-74186651D01*
X236805626Y-74195952D01*
X237637595Y-75027921D01*
X237671621Y-75090233D01*
X237674500Y-75117016D01*
X237674500Y-77526769D01*
X237654498Y-77594890D01*
X237600842Y-77641383D01*
X237530568Y-77651487D01*
X237465988Y-77621993D01*
X237442708Y-77595209D01*
X237347426Y-77447926D01*
X237341136Y-77439757D01*
X237197806Y-77282240D01*
X237190273Y-77275215D01*
X237023139Y-77143222D01*
X237014552Y-77137517D01*
X236828117Y-77034599D01*
X236818705Y-77030369D01*
X236627031Y-76962493D01*
X236569495Y-76920899D01*
X236543579Y-76854801D01*
X236557513Y-76785185D01*
X236606872Y-76734154D01*
X236635206Y-76722362D01*
X236640790Y-76720803D01*
X236640799Y-76720800D01*
X236646725Y-76719145D01*
X236652214Y-76716372D01*
X236652220Y-76716370D01*
X236825116Y-76629033D01*
X236830610Y-76626258D01*
X236992951Y-76499424D01*
X237127564Y-76343472D01*
X237148387Y-76306818D01*
X237226276Y-76169707D01*
X237229323Y-76164344D01*
X237294351Y-75968863D01*
X237320171Y-75764474D01*
X237320583Y-75735000D01*
X237300480Y-75529970D01*
X237240935Y-75332749D01*
X237144218Y-75150849D01*
X237031884Y-75013114D01*
X237017906Y-74995975D01*
X237017903Y-74995972D01*
X237014011Y-74991200D01*
X237009262Y-74987271D01*
X236860025Y-74863811D01*
X236860021Y-74863809D01*
X236855275Y-74859882D01*
X236674055Y-74761897D01*
X236477254Y-74700977D01*
X236471129Y-74700333D01*
X236471128Y-74700333D01*
X236278498Y-74680087D01*
X236278496Y-74680087D01*
X236272369Y-74679443D01*
X236185529Y-74687346D01*
X236073342Y-74697555D01*
X236073339Y-74697556D01*
X236067203Y-74698114D01*
X235869572Y-74756280D01*
X235687002Y-74851726D01*
X235682201Y-74855586D01*
X235682198Y-74855588D01*
X235531254Y-74976950D01*
X235526447Y-74980815D01*
X235394024Y-75138630D01*
X235391056Y-75144028D01*
X235391053Y-75144033D01*
X235316418Y-75279795D01*
X235294776Y-75319162D01*
X235232484Y-75515532D01*
X235231798Y-75521649D01*
X235231797Y-75521653D01*
X235217774Y-75646676D01*
X235209520Y-75720262D01*
X235226759Y-75925553D01*
X235283544Y-76123586D01*
X235286359Y-76129063D01*
X235286360Y-76129066D01*
X235307247Y-76169707D01*
X235377712Y-76306818D01*
X235505677Y-76468270D01*
X235662564Y-76601791D01*
X235842398Y-76702297D01*
X235907437Y-76723429D01*
X235966042Y-76763502D01*
X235993680Y-76828898D01*
X235981574Y-76898855D01*
X235933568Y-76951162D01*
X235907646Y-76963027D01*
X235741868Y-77017212D01*
X235732359Y-77021209D01*
X235543463Y-77119542D01*
X235534738Y-77125036D01*
X235364433Y-77252905D01*
X235356726Y-77259748D01*
X235209590Y-77413717D01*
X235203104Y-77421727D01*
X235083098Y-77597649D01*
X235078000Y-77606623D01*
X234988338Y-77799783D01*
X234984775Y-77809470D01*
X234956012Y-77913185D01*
X234918533Y-77973483D01*
X234854405Y-78003946D01*
X234783986Y-77994903D01*
X234729636Y-77949224D01*
X234713973Y-77915933D01*
X234713143Y-77913185D01*
X234700935Y-77872749D01*
X234604218Y-77690849D01*
X234526216Y-77595209D01*
X234477906Y-77535975D01*
X234477903Y-77535972D01*
X234474011Y-77531200D01*
X234456786Y-77516950D01*
X234320025Y-77403811D01*
X234320021Y-77403809D01*
X234315275Y-77399882D01*
X234134055Y-77301897D01*
X233937254Y-77240977D01*
X233931129Y-77240333D01*
X233931128Y-77240333D01*
X233738498Y-77220087D01*
X233738496Y-77220087D01*
X233732369Y-77219443D01*
X233645529Y-77227346D01*
X233533342Y-77237555D01*
X233533339Y-77237556D01*
X233527203Y-77238114D01*
X233329572Y-77296280D01*
X233147002Y-77391726D01*
X233142201Y-77395586D01*
X233142198Y-77395588D01*
X233109688Y-77421727D01*
X232986447Y-77520815D01*
X232854024Y-77678630D01*
X232851056Y-77684028D01*
X232851053Y-77684033D01*
X232844315Y-77696290D01*
X232754776Y-77859162D01*
X232752914Y-77865031D01*
X232750485Y-77870699D01*
X232748458Y-77869830D01*
X232714342Y-77920481D01*
X232649140Y-77948575D01*
X232633901Y-77949500D01*
X220274000Y-77949500D01*
X220205879Y-77929498D01*
X220159386Y-77875842D01*
X220148000Y-77823500D01*
X220148000Y-77222115D01*
X220143525Y-77206876D01*
X220142135Y-77205671D01*
X220134452Y-77204000D01*
X217450116Y-77204000D01*
X217434877Y-77208475D01*
X217433672Y-77209865D01*
X217432001Y-77217548D01*
X217432001Y-77823500D01*
X217411999Y-77891621D01*
X217358343Y-77938114D01*
X217306001Y-77949500D01*
X214244710Y-77949500D01*
X214233728Y-77949020D01*
X214207180Y-77946697D01*
X214207178Y-77946697D01*
X214196193Y-77945736D01*
X214159785Y-77955492D01*
X214149058Y-77957870D01*
X214145699Y-77958462D01*
X214111955Y-77964412D01*
X214102410Y-77969923D01*
X214099134Y-77971115D01*
X214095966Y-77972592D01*
X214085316Y-77975446D01*
X214076285Y-77981770D01*
X214054456Y-77997055D01*
X214045185Y-78002961D01*
X214022094Y-78016293D01*
X214012545Y-78021806D01*
X214005459Y-78030251D01*
X213988315Y-78050682D01*
X213980889Y-78058785D01*
X210372079Y-81667595D01*
X210309767Y-81701621D01*
X210282984Y-81704500D01*
X202101269Y-81704500D01*
X202033148Y-81684498D01*
X201986008Y-81627991D01*
X201985935Y-81627749D01*
X201889218Y-81445849D01*
X201815859Y-81355902D01*
X201762906Y-81290975D01*
X201762903Y-81290972D01*
X201759011Y-81286200D01*
X201708416Y-81244344D01*
X201605025Y-81158811D01*
X201605021Y-81158809D01*
X201600275Y-81154882D01*
X201419055Y-81056897D01*
X201222254Y-80995977D01*
X201216129Y-80995333D01*
X201216128Y-80995333D01*
X201023498Y-80975087D01*
X201023496Y-80975087D01*
X201017369Y-80974443D01*
X200930529Y-80982346D01*
X200818342Y-80992555D01*
X200818339Y-80992556D01*
X200812203Y-80993114D01*
X200614572Y-81051280D01*
X200609107Y-81054137D01*
X200577760Y-81070525D01*
X200432002Y-81146726D01*
X200427201Y-81150586D01*
X200427198Y-81150588D01*
X200361282Y-81203586D01*
X200271447Y-81275815D01*
X200139024Y-81433630D01*
X200136056Y-81439028D01*
X200136053Y-81439033D01*
X200060767Y-81575979D01*
X200039776Y-81614162D01*
X200037914Y-81620031D01*
X200035485Y-81625699D01*
X200033458Y-81624830D01*
X199999342Y-81675481D01*
X199934140Y-81703575D01*
X199918901Y-81704500D01*
X192989710Y-81704500D01*
X192978728Y-81704020D01*
X192952180Y-81701697D01*
X192952178Y-81701697D01*
X192941193Y-81700736D01*
X192904785Y-81710492D01*
X192894058Y-81712870D01*
X192890699Y-81713462D01*
X192856955Y-81719412D01*
X192847410Y-81724923D01*
X192844134Y-81726115D01*
X192840966Y-81727592D01*
X192830316Y-81730446D01*
X192821285Y-81736770D01*
X192799456Y-81752055D01*
X192790185Y-81757961D01*
X192780746Y-81763411D01*
X192757545Y-81776806D01*
X192734474Y-81804301D01*
X192733315Y-81805682D01*
X192725889Y-81813785D01*
X191652079Y-82887595D01*
X191589767Y-82921621D01*
X191562984Y-82924500D01*
X177385078Y-82924500D01*
X177316957Y-82904498D01*
X177277761Y-82864522D01*
X177218086Y-82767522D01*
X177199427Y-82699021D01*
X177220766Y-82631307D01*
X177275325Y-82585879D01*
X177325403Y-82575500D01*
X177730290Y-82575500D01*
X177741272Y-82575980D01*
X177767820Y-82578303D01*
X177767822Y-82578303D01*
X177778807Y-82579264D01*
X177815215Y-82569508D01*
X177825942Y-82567130D01*
X177829301Y-82566538D01*
X177863045Y-82560588D01*
X177872590Y-82555077D01*
X177875866Y-82553885D01*
X177879034Y-82552408D01*
X177889684Y-82549554D01*
X177920544Y-82527945D01*
X177929815Y-82522039D01*
X177952906Y-82508707D01*
X177962455Y-82503194D01*
X177986685Y-82474317D01*
X177994111Y-82466215D01*
X179216215Y-81244111D01*
X179224319Y-81236684D01*
X179244749Y-81219541D01*
X179253194Y-81212455D01*
X179261735Y-81197662D01*
X179272039Y-81179815D01*
X179277945Y-81170544D01*
X179290964Y-81151951D01*
X179299554Y-81139684D01*
X179302408Y-81129034D01*
X179303885Y-81125866D01*
X179305077Y-81122590D01*
X179310588Y-81113045D01*
X179317130Y-81075942D01*
X179319509Y-81065210D01*
X179329264Y-81028807D01*
X179327230Y-81005553D01*
X179325980Y-80991272D01*
X179325500Y-80980290D01*
X179325500Y-71519710D01*
X179325980Y-71508728D01*
X179328303Y-71482180D01*
X179328303Y-71482178D01*
X179329264Y-71471193D01*
X179319508Y-71434785D01*
X179317130Y-71424058D01*
X179316313Y-71419424D01*
X179310588Y-71386955D01*
X179305077Y-71377410D01*
X179303885Y-71374134D01*
X179302408Y-71370966D01*
X179299554Y-71360316D01*
X179277945Y-71329456D01*
X179272039Y-71320185D01*
X179258707Y-71297094D01*
X179253194Y-71287545D01*
X179224317Y-71263315D01*
X179216215Y-71255889D01*
X177494111Y-69533785D01*
X177486684Y-69525681D01*
X177469541Y-69505251D01*
X177469542Y-69505251D01*
X177462455Y-69496806D01*
X177452906Y-69491293D01*
X177429815Y-69477961D01*
X177420544Y-69472055D01*
X177398715Y-69456770D01*
X177389684Y-69450446D01*
X177379031Y-69447591D01*
X177375873Y-69446119D01*
X177372595Y-69444926D01*
X177363045Y-69439412D01*
X177354300Y-69437870D01*
X177298194Y-69396559D01*
X177291144Y-69386276D01*
X177213487Y-69260047D01*
X177213484Y-69260044D01*
X177209794Y-69254045D01*
X177204868Y-69249014D01*
X177204865Y-69249011D01*
X177112820Y-69155018D01*
X177084141Y-69125732D01*
X177070054Y-69116653D01*
X176939109Y-69032265D01*
X176933183Y-69028446D01*
X176926563Y-69026037D01*
X176926560Y-69026035D01*
X176771039Y-68969430D01*
X176771036Y-68969429D01*
X176764422Y-68967022D01*
X176707692Y-68959856D01*
X176629645Y-68949996D01*
X176629642Y-68949996D01*
X176625717Y-68949500D01*
X175979845Y-68949500D01*
X175846528Y-68964454D01*
X175839875Y-68966771D01*
X175839874Y-68966771D01*
X175771549Y-68990564D01*
X175676927Y-69023515D01*
X175670953Y-69027248D01*
X175670951Y-69027249D01*
X175583045Y-69082179D01*
X175524625Y-69118684D01*
X175473072Y-69169879D01*
X175402190Y-69240267D01*
X175402187Y-69240271D01*
X175397193Y-69245230D01*
X175300963Y-69396864D01*
X175298598Y-69403506D01*
X175243081Y-69559414D01*
X175243080Y-69559419D01*
X175240719Y-69566049D01*
X175239886Y-69573035D01*
X175239885Y-69573039D01*
X175230983Y-69647696D01*
X175219455Y-69744376D01*
X175220191Y-69751379D01*
X175220191Y-69751380D01*
X175236989Y-69911200D01*
X175238227Y-69922983D01*
X175240498Y-69929654D01*
X175288565Y-70070849D01*
X175296103Y-70092993D01*
X175390206Y-70245955D01*
X175395132Y-70250986D01*
X175395135Y-70250989D01*
X175440767Y-70297586D01*
X175515859Y-70374268D01*
X175521784Y-70378087D01*
X175521786Y-70378088D01*
X175533056Y-70385351D01*
X175666817Y-70471554D01*
X175670281Y-70472815D01*
X175721427Y-70520119D01*
X175739213Y-70588852D01*
X175717015Y-70656289D01*
X175661882Y-70701020D01*
X175648747Y-70705676D01*
X175617403Y-70714871D01*
X175606325Y-70719302D01*
X175429022Y-70810619D01*
X175418976Y-70817069D01*
X175262143Y-70940262D01*
X175253494Y-70948499D01*
X175122788Y-71099123D01*
X175115853Y-71108847D01*
X175015990Y-71281467D01*
X175011016Y-71292331D01*
X174945593Y-71480727D01*
X174945352Y-71481716D01*
X174946820Y-71492008D01*
X174960385Y-71496000D01*
X177635402Y-71496000D01*
X177648933Y-71492027D01*
X177650288Y-71482601D01*
X177628805Y-71393461D01*
X177624917Y-71382168D01*
X177542371Y-71200618D01*
X177536424Y-71190276D01*
X177421032Y-71027603D01*
X177413239Y-71018575D01*
X177269169Y-70880658D01*
X177259804Y-70873262D01*
X177092259Y-70765079D01*
X177081658Y-70759585D01*
X176938895Y-70702049D01*
X176883189Y-70658034D01*
X176860123Y-70590889D01*
X176877020Y-70521932D01*
X176924222Y-70478324D01*
X176923073Y-70476485D01*
X177069401Y-70385049D01*
X177075375Y-70381316D01*
X177080374Y-70376352D01*
X177159692Y-70297586D01*
X177222123Y-70263779D01*
X177292921Y-70269091D01*
X177337571Y-70297897D01*
X178637595Y-71597921D01*
X178671621Y-71660233D01*
X178674500Y-71687016D01*
X178674500Y-80812984D01*
X178654498Y-80881105D01*
X178637595Y-80902079D01*
X177652079Y-81887595D01*
X177589767Y-81921621D01*
X177562984Y-81924500D01*
X177466334Y-81924500D01*
X177398213Y-81904498D01*
X177351720Y-81850842D01*
X177341616Y-81780568D01*
X177347452Y-81756751D01*
X177369973Y-81692620D01*
X177369975Y-81692612D01*
X177372519Y-81685369D01*
X177373547Y-81674500D01*
X177375221Y-81656782D01*
X177375500Y-81653834D01*
X177375500Y-80846166D01*
X177372519Y-80814631D01*
X177327634Y-80686816D01*
X177322042Y-80679246D01*
X177322041Y-80679243D01*
X177252742Y-80585421D01*
X177247150Y-80577850D01*
X177171223Y-80521769D01*
X177145757Y-80502959D01*
X177145754Y-80502958D01*
X177138184Y-80497366D01*
X177010369Y-80452481D01*
X177002723Y-80451758D01*
X177002722Y-80451758D01*
X176996752Y-80451194D01*
X176978834Y-80449500D01*
X175621166Y-80449500D01*
X175603248Y-80451194D01*
X175597278Y-80451758D01*
X175597277Y-80451758D01*
X175589631Y-80452481D01*
X175461816Y-80497366D01*
X175454246Y-80502958D01*
X175454243Y-80502959D01*
X175428777Y-80521769D01*
X175352850Y-80577850D01*
X175347258Y-80585421D01*
X175277959Y-80679243D01*
X175277958Y-80679246D01*
X175272366Y-80686816D01*
X175269247Y-80695699D01*
X175241204Y-80775553D01*
X175199761Y-80833199D01*
X175133731Y-80859287D01*
X175064079Y-80845536D01*
X175033226Y-80822900D01*
X174362405Y-80152079D01*
X174328379Y-80089767D01*
X174325500Y-80062984D01*
X174325500Y-72017399D01*
X174949712Y-72017399D01*
X174971194Y-72106537D01*
X174975083Y-72117832D01*
X175057629Y-72299382D01*
X175063576Y-72309724D01*
X175178968Y-72472397D01*
X175186761Y-72481425D01*
X175330831Y-72619342D01*
X175340196Y-72626738D01*
X175507741Y-72734921D01*
X175518345Y-72740417D01*
X175703312Y-72814961D01*
X175714770Y-72818355D01*
X175911928Y-72856857D01*
X175920791Y-72857934D01*
X175923500Y-72858000D01*
X176027885Y-72858000D01*
X176043124Y-72853525D01*
X176044329Y-72852135D01*
X176046000Y-72844452D01*
X176046000Y-72839885D01*
X176554000Y-72839885D01*
X176558475Y-72855124D01*
X176559865Y-72856329D01*
X176567548Y-72858000D01*
X176624832Y-72858000D01*
X176630808Y-72857715D01*
X176779494Y-72843529D01*
X176791228Y-72841270D01*
X176982599Y-72785128D01*
X176993675Y-72780698D01*
X177170978Y-72689381D01*
X177181024Y-72682931D01*
X177337857Y-72559738D01*
X177346506Y-72551501D01*
X177477212Y-72400877D01*
X177484147Y-72391153D01*
X177584010Y-72218533D01*
X177588984Y-72207669D01*
X177654407Y-72019273D01*
X177654648Y-72018284D01*
X177653180Y-72007992D01*
X177639615Y-72004000D01*
X176572115Y-72004000D01*
X176556876Y-72008475D01*
X176555671Y-72009865D01*
X176554000Y-72017548D01*
X176554000Y-72839885D01*
X176046000Y-72839885D01*
X176046000Y-72022115D01*
X176041525Y-72006876D01*
X176040135Y-72005671D01*
X176032452Y-72004000D01*
X174964598Y-72004000D01*
X174951067Y-72007973D01*
X174949712Y-72017399D01*
X174325500Y-72017399D01*
X174325500Y-67744376D01*
X175219455Y-67744376D01*
X175220191Y-67751379D01*
X175220191Y-67751380D01*
X175235342Y-67895532D01*
X175238227Y-67922983D01*
X175296103Y-68092993D01*
X175299793Y-68098991D01*
X175299794Y-68098993D01*
X175321322Y-68133986D01*
X175390206Y-68245955D01*
X175395132Y-68250986D01*
X175395135Y-68250989D01*
X175454371Y-68311478D01*
X175515859Y-68374268D01*
X175521784Y-68378087D01*
X175521786Y-68378088D01*
X175634284Y-68450588D01*
X175666817Y-68471554D01*
X175673437Y-68473963D01*
X175673440Y-68473965D01*
X175828961Y-68530570D01*
X175828964Y-68530571D01*
X175835578Y-68532978D01*
X175862121Y-68536331D01*
X175970355Y-68550004D01*
X175970358Y-68550004D01*
X175974283Y-68550500D01*
X176620155Y-68550500D01*
X176753472Y-68535546D01*
X176760847Y-68532978D01*
X176845249Y-68503586D01*
X176923073Y-68476485D01*
X176930965Y-68471554D01*
X177069401Y-68385049D01*
X177075375Y-68381316D01*
X177145702Y-68311478D01*
X177197810Y-68259733D01*
X177197813Y-68259729D01*
X177202807Y-68254770D01*
X177279459Y-68133986D01*
X177332848Y-68087187D01*
X177385844Y-68075500D01*
X184312984Y-68075500D01*
X184381105Y-68095502D01*
X184402079Y-68112405D01*
X195995895Y-79706222D01*
X196003322Y-79714326D01*
X196027545Y-79743194D01*
X196037088Y-79748704D01*
X196037092Y-79748707D01*
X196060179Y-79762036D01*
X196069449Y-79767941D01*
X196088067Y-79780977D01*
X196100316Y-79789554D01*
X196110964Y-79792407D01*
X196114135Y-79793886D01*
X196117411Y-79795078D01*
X196126955Y-79800588D01*
X196164076Y-79807134D01*
X196174783Y-79809508D01*
X196211193Y-79819263D01*
X196222168Y-79818303D01*
X196222170Y-79818303D01*
X196248731Y-79815979D01*
X196259712Y-79815500D01*
X199919211Y-79815500D01*
X199987332Y-79835502D01*
X200031278Y-79883906D01*
X200122712Y-80061818D01*
X200250677Y-80223270D01*
X200407564Y-80356791D01*
X200412942Y-80359797D01*
X200412944Y-80359798D01*
X200444563Y-80377469D01*
X200587398Y-80457297D01*
X200674927Y-80485737D01*
X200777471Y-80519056D01*
X200777475Y-80519057D01*
X200783329Y-80520959D01*
X200987894Y-80545351D01*
X200994029Y-80544879D01*
X200994031Y-80544879D01*
X201054682Y-80540212D01*
X201193300Y-80529546D01*
X201199230Y-80527890D01*
X201199232Y-80527890D01*
X201346765Y-80486698D01*
X201391725Y-80474145D01*
X201397214Y-80471372D01*
X201397220Y-80471370D01*
X201570116Y-80384033D01*
X201575610Y-80381258D01*
X201582512Y-80375866D01*
X201733101Y-80258213D01*
X201737951Y-80254424D01*
X201749304Y-80241272D01*
X201868540Y-80103134D01*
X201868540Y-80103133D01*
X201872564Y-80098472D01*
X201893387Y-80061818D01*
X201951550Y-79959432D01*
X201974323Y-79919344D01*
X202039351Y-79723863D01*
X202065171Y-79519474D01*
X202065583Y-79490000D01*
X202045480Y-79284970D01*
X201985935Y-79087749D01*
X201889218Y-78905849D01*
X201807894Y-78806136D01*
X201762906Y-78750975D01*
X201762903Y-78750972D01*
X201759011Y-78746200D01*
X201754262Y-78742271D01*
X201605025Y-78618811D01*
X201605021Y-78618809D01*
X201600275Y-78614882D01*
X201562252Y-78594323D01*
X201470726Y-78544835D01*
X201420317Y-78494840D01*
X201404940Y-78425529D01*
X201429476Y-78358907D01*
X201486136Y-78316126D01*
X201530655Y-78307999D01*
X201904669Y-78307999D01*
X201911490Y-78307629D01*
X201962352Y-78302105D01*
X201977604Y-78298479D01*
X202098054Y-78253324D01*
X202113649Y-78244786D01*
X202215724Y-78168285D01*
X202228285Y-78155724D01*
X202304786Y-78053649D01*
X202313324Y-78038054D01*
X202358478Y-77917606D01*
X202362105Y-77902351D01*
X202367631Y-77851486D01*
X202368000Y-77844672D01*
X202368000Y-77222115D01*
X202363525Y-77206876D01*
X202362135Y-77205671D01*
X202354452Y-77204000D01*
X199670116Y-77204000D01*
X199654877Y-77208475D01*
X199653672Y-77209865D01*
X199652001Y-77217548D01*
X199652001Y-77844669D01*
X199652371Y-77851490D01*
X199657895Y-77902352D01*
X199661521Y-77917604D01*
X199706676Y-78038054D01*
X199715214Y-78053649D01*
X199791715Y-78155724D01*
X199804276Y-78168285D01*
X199906351Y-78244786D01*
X199921946Y-78253324D01*
X200042394Y-78298478D01*
X200057649Y-78302105D01*
X200108514Y-78307631D01*
X200115328Y-78308000D01*
X200490432Y-78308000D01*
X200558553Y-78328002D01*
X200605046Y-78381658D01*
X200615150Y-78451932D01*
X200585656Y-78516512D01*
X200548812Y-78545659D01*
X200432002Y-78606726D01*
X200427201Y-78610586D01*
X200427198Y-78610588D01*
X200348133Y-78674158D01*
X200271447Y-78735815D01*
X200139024Y-78893630D01*
X200136056Y-78899028D01*
X200136053Y-78899033D01*
X200052810Y-79050454D01*
X200039776Y-79074162D01*
X200037914Y-79080031D01*
X200035485Y-79085699D01*
X200033458Y-79084830D01*
X199999342Y-79135481D01*
X199934140Y-79163575D01*
X199918901Y-79164500D01*
X196427017Y-79164500D01*
X196358896Y-79144498D01*
X196337922Y-79127595D01*
X184744110Y-67533784D01*
X184736683Y-67525680D01*
X184719541Y-67505251D01*
X184719542Y-67505251D01*
X184712455Y-67496806D01*
X184702906Y-67491293D01*
X184679815Y-67477961D01*
X184670544Y-67472055D01*
X184648715Y-67456770D01*
X184639684Y-67450446D01*
X184629034Y-67447592D01*
X184625866Y-67446115D01*
X184622590Y-67444923D01*
X184613045Y-67439412D01*
X184579301Y-67433462D01*
X184575942Y-67432870D01*
X184565215Y-67430492D01*
X184528807Y-67420736D01*
X184517822Y-67421697D01*
X184517820Y-67421697D01*
X184491272Y-67424020D01*
X184480290Y-67424500D01*
X177385078Y-67424500D01*
X177316957Y-67404498D01*
X177277760Y-67364522D01*
X177213485Y-67260045D01*
X177209794Y-67254045D01*
X177204868Y-67249014D01*
X177204865Y-67249011D01*
X177102840Y-67144827D01*
X177084141Y-67125732D01*
X177072732Y-67118379D01*
X176939109Y-67032265D01*
X176933183Y-67028446D01*
X176926563Y-67026037D01*
X176926560Y-67026035D01*
X176771039Y-66969430D01*
X176771036Y-66969429D01*
X176764422Y-66967022D01*
X176707692Y-66959856D01*
X176629645Y-66949996D01*
X176629642Y-66949996D01*
X176625717Y-66949500D01*
X175979845Y-66949500D01*
X175846528Y-66964454D01*
X175839875Y-66966771D01*
X175839874Y-66966771D01*
X175817935Y-66974411D01*
X175676927Y-67023515D01*
X175670953Y-67027248D01*
X175670951Y-67027249D01*
X175590445Y-67077555D01*
X175524625Y-67118684D01*
X175499733Y-67143403D01*
X175402190Y-67240267D01*
X175402187Y-67240271D01*
X175397193Y-67245230D01*
X175300963Y-67396864D01*
X175298598Y-67403506D01*
X175243081Y-67559414D01*
X175243080Y-67559419D01*
X175240719Y-67566049D01*
X175239886Y-67573035D01*
X175239885Y-67573039D01*
X175230375Y-67652798D01*
X175219455Y-67744376D01*
X174325500Y-67744376D01*
X174325500Y-66153834D01*
X175224500Y-66153834D01*
X175224779Y-66156782D01*
X175226454Y-66174500D01*
X175227481Y-66185369D01*
X175272366Y-66313184D01*
X175277958Y-66320754D01*
X175277959Y-66320757D01*
X175323425Y-66382312D01*
X175352850Y-66422150D01*
X175360421Y-66427742D01*
X175454243Y-66497041D01*
X175454246Y-66497042D01*
X175461816Y-66502634D01*
X175589631Y-66547519D01*
X175597277Y-66548242D01*
X175597278Y-66548242D01*
X175603248Y-66548806D01*
X175621166Y-66550500D01*
X176978834Y-66550500D01*
X176996752Y-66548806D01*
X177002722Y-66548242D01*
X177002723Y-66548242D01*
X177010369Y-66547519D01*
X177138184Y-66502634D01*
X177145754Y-66497042D01*
X177145757Y-66497041D01*
X177239579Y-66427742D01*
X177247150Y-66422150D01*
X177276575Y-66382312D01*
X177322041Y-66320757D01*
X177322042Y-66320754D01*
X177327634Y-66313184D01*
X177348814Y-66252872D01*
X177369976Y-66192612D01*
X177369977Y-66192608D01*
X177372519Y-66185369D01*
X177373242Y-66177722D01*
X177373949Y-66174500D01*
X177408084Y-66112247D01*
X177470456Y-66078332D01*
X177497022Y-66075500D01*
X186812984Y-66075500D01*
X186881105Y-66095502D01*
X186902079Y-66112405D01*
X194255889Y-73466215D01*
X194263316Y-73474319D01*
X194287545Y-73503194D01*
X194297094Y-73508707D01*
X194320185Y-73522039D01*
X194329456Y-73527945D01*
X194360316Y-73549554D01*
X194370966Y-73552408D01*
X194374134Y-73553885D01*
X194377410Y-73555077D01*
X194386955Y-73560588D01*
X194420699Y-73566538D01*
X194424058Y-73567130D01*
X194434785Y-73569508D01*
X194471193Y-73579264D01*
X194482169Y-73578304D01*
X194482172Y-73578304D01*
X194508743Y-73575979D01*
X194519724Y-73575500D01*
X197230290Y-73575500D01*
X197241272Y-73575980D01*
X197267820Y-73578303D01*
X197267822Y-73578303D01*
X197278807Y-73579264D01*
X197315215Y-73569508D01*
X197325941Y-73567130D01*
X197349919Y-73562902D01*
X197371793Y-73560989D01*
X200080808Y-73560989D01*
X200148929Y-73580991D01*
X200195422Y-73634647D01*
X200205526Y-73704921D01*
X200177329Y-73767980D01*
X200139024Y-73813630D01*
X200136056Y-73819028D01*
X200136053Y-73819033D01*
X200129315Y-73831290D01*
X200039776Y-73994162D01*
X200037913Y-74000035D01*
X199987395Y-74159290D01*
X199977484Y-74190532D01*
X199976798Y-74196649D01*
X199976797Y-74196653D01*
X199972547Y-74234546D01*
X199954520Y-74395262D01*
X199971759Y-74600553D01*
X199973458Y-74606478D01*
X200026173Y-74790316D01*
X200028544Y-74798586D01*
X200031359Y-74804063D01*
X200031360Y-74804066D01*
X200081277Y-74901194D01*
X200122712Y-74981818D01*
X200250677Y-75143270D01*
X200407564Y-75276791D01*
X200497957Y-75327310D01*
X200549315Y-75356013D01*
X200599020Y-75406707D01*
X200613428Y-75476226D01*
X200587964Y-75542499D01*
X200530713Y-75584484D01*
X200487844Y-75592001D01*
X200115331Y-75592001D01*
X200108510Y-75592371D01*
X200057648Y-75597895D01*
X200042396Y-75601521D01*
X199921946Y-75646676D01*
X199906351Y-75655214D01*
X199804276Y-75731715D01*
X199791715Y-75744276D01*
X199715214Y-75846351D01*
X199706676Y-75861946D01*
X199661522Y-75982394D01*
X199657895Y-75997649D01*
X199652369Y-76048514D01*
X199652000Y-76055328D01*
X199652000Y-76677885D01*
X199656475Y-76693124D01*
X199657865Y-76694329D01*
X199665548Y-76696000D01*
X202349884Y-76696000D01*
X202365123Y-76691525D01*
X202366328Y-76690135D01*
X202367999Y-76682452D01*
X202367999Y-76677885D01*
X217432000Y-76677885D01*
X217436475Y-76693124D01*
X217437865Y-76694329D01*
X217445548Y-76696000D01*
X220129884Y-76696000D01*
X220145123Y-76691525D01*
X220146328Y-76690135D01*
X220147999Y-76682452D01*
X220147999Y-76055331D01*
X220147629Y-76048510D01*
X220142105Y-75997648D01*
X220138479Y-75982396D01*
X220093324Y-75861946D01*
X220084786Y-75846351D01*
X220008285Y-75744276D01*
X219995724Y-75731715D01*
X219980442Y-75720262D01*
X232669520Y-75720262D01*
X232686759Y-75925553D01*
X232743544Y-76123586D01*
X232746359Y-76129063D01*
X232746360Y-76129066D01*
X232767247Y-76169707D01*
X232837712Y-76306818D01*
X232965677Y-76468270D01*
X233122564Y-76601791D01*
X233302398Y-76702297D01*
X233397238Y-76733113D01*
X233492471Y-76764056D01*
X233492475Y-76764057D01*
X233498329Y-76765959D01*
X233702894Y-76790351D01*
X233709029Y-76789879D01*
X233709031Y-76789879D01*
X233765039Y-76785569D01*
X233908300Y-76774546D01*
X233914230Y-76772890D01*
X233914232Y-76772890D01*
X234038104Y-76738304D01*
X234106725Y-76719145D01*
X234112214Y-76716372D01*
X234112220Y-76716370D01*
X234285116Y-76629033D01*
X234290610Y-76626258D01*
X234452951Y-76499424D01*
X234587564Y-76343472D01*
X234608387Y-76306818D01*
X234686276Y-76169707D01*
X234689323Y-76164344D01*
X234754351Y-75968863D01*
X234780171Y-75764474D01*
X234780583Y-75735000D01*
X234760480Y-75529970D01*
X234700935Y-75332749D01*
X234604218Y-75150849D01*
X234491884Y-75013114D01*
X234477906Y-74995975D01*
X234477903Y-74995972D01*
X234474011Y-74991200D01*
X234469262Y-74987271D01*
X234320025Y-74863811D01*
X234320021Y-74863809D01*
X234315275Y-74859882D01*
X234134055Y-74761897D01*
X233937254Y-74700977D01*
X233931129Y-74700333D01*
X233931128Y-74700333D01*
X233738498Y-74680087D01*
X233738496Y-74680087D01*
X233732369Y-74679443D01*
X233645529Y-74687346D01*
X233533342Y-74697555D01*
X233533339Y-74697556D01*
X233527203Y-74698114D01*
X233329572Y-74756280D01*
X233147002Y-74851726D01*
X233142201Y-74855586D01*
X233142198Y-74855588D01*
X232991254Y-74976950D01*
X232986447Y-74980815D01*
X232854024Y-75138630D01*
X232851056Y-75144028D01*
X232851053Y-75144033D01*
X232776418Y-75279795D01*
X232754776Y-75319162D01*
X232692484Y-75515532D01*
X232691798Y-75521649D01*
X232691797Y-75521653D01*
X232677774Y-75646676D01*
X232669520Y-75720262D01*
X219980442Y-75720262D01*
X219893649Y-75655214D01*
X219878054Y-75646676D01*
X219757606Y-75601522D01*
X219742351Y-75597895D01*
X219691486Y-75592369D01*
X219684672Y-75592000D01*
X219308932Y-75592000D01*
X219240811Y-75571998D01*
X219194318Y-75518342D01*
X219184214Y-75448068D01*
X219213708Y-75383488D01*
X219252121Y-75353534D01*
X219304036Y-75327310D01*
X219355610Y-75301258D01*
X219517951Y-75174424D01*
X219538301Y-75150849D01*
X219648540Y-75023134D01*
X219648540Y-75023133D01*
X219652564Y-75018472D01*
X219673387Y-74981818D01*
X219697864Y-74938729D01*
X219754323Y-74839344D01*
X219819351Y-74643863D01*
X219845171Y-74439474D01*
X219845583Y-74410000D01*
X219825480Y-74204970D01*
X219765935Y-74007749D01*
X219669218Y-73825849D01*
X219544620Y-73673077D01*
X219542906Y-73670975D01*
X219542903Y-73670972D01*
X219539011Y-73666200D01*
X219500870Y-73634647D01*
X219385025Y-73538811D01*
X219385021Y-73538809D01*
X219380275Y-73534882D01*
X219199055Y-73436897D01*
X219002254Y-73375977D01*
X218996129Y-73375333D01*
X218996128Y-73375333D01*
X218803498Y-73355087D01*
X218803496Y-73355087D01*
X218797369Y-73354443D01*
X218710529Y-73362346D01*
X218598342Y-73372555D01*
X218598339Y-73372556D01*
X218592203Y-73373114D01*
X218394572Y-73431280D01*
X218212002Y-73526726D01*
X218207201Y-73530586D01*
X218207198Y-73530588D01*
X218141282Y-73583586D01*
X218051447Y-73655815D01*
X217919024Y-73813630D01*
X217916056Y-73819028D01*
X217916053Y-73819033D01*
X217909315Y-73831290D01*
X217819776Y-73994162D01*
X217817913Y-74000035D01*
X217767395Y-74159290D01*
X217757484Y-74190532D01*
X217756798Y-74196649D01*
X217756797Y-74196653D01*
X217752547Y-74234546D01*
X217734520Y-74395262D01*
X217751759Y-74600553D01*
X217753458Y-74606478D01*
X217806173Y-74790316D01*
X217808544Y-74798586D01*
X217811359Y-74804063D01*
X217811360Y-74804066D01*
X217861277Y-74901194D01*
X217902712Y-74981818D01*
X218030677Y-75143270D01*
X218187564Y-75276791D01*
X218277957Y-75327310D01*
X218329315Y-75356013D01*
X218379020Y-75406707D01*
X218393428Y-75476226D01*
X218367964Y-75542499D01*
X218310713Y-75584484D01*
X218267844Y-75592001D01*
X217895331Y-75592001D01*
X217888510Y-75592371D01*
X217837648Y-75597895D01*
X217822396Y-75601521D01*
X217701946Y-75646676D01*
X217686351Y-75655214D01*
X217584276Y-75731715D01*
X217571715Y-75744276D01*
X217495214Y-75846351D01*
X217486676Y-75861946D01*
X217441522Y-75982394D01*
X217437895Y-75997649D01*
X217432369Y-76048514D01*
X217432000Y-76055328D01*
X217432000Y-76677885D01*
X202367999Y-76677885D01*
X202367999Y-76055331D01*
X202367629Y-76048510D01*
X202362105Y-75997648D01*
X202358479Y-75982396D01*
X202313324Y-75861946D01*
X202304786Y-75846351D01*
X202228285Y-75744276D01*
X202215724Y-75731715D01*
X202113649Y-75655214D01*
X202098054Y-75646676D01*
X201977606Y-75601522D01*
X201962351Y-75597895D01*
X201911486Y-75592369D01*
X201904672Y-75592000D01*
X201528932Y-75592000D01*
X201460811Y-75571998D01*
X201414318Y-75518342D01*
X201404214Y-75448068D01*
X201433708Y-75383488D01*
X201472121Y-75353534D01*
X201524036Y-75327310D01*
X201575610Y-75301258D01*
X201737951Y-75174424D01*
X201758301Y-75150849D01*
X201868540Y-75023134D01*
X201868540Y-75023133D01*
X201872564Y-75018472D01*
X201893387Y-74981818D01*
X201917864Y-74938729D01*
X201974323Y-74839344D01*
X202039351Y-74643863D01*
X202065171Y-74439474D01*
X202065583Y-74410000D01*
X202045480Y-74204970D01*
X201985935Y-74007749D01*
X201889218Y-73825849D01*
X201840916Y-73766625D01*
X201813362Y-73701193D01*
X201825557Y-73631252D01*
X201873630Y-73579007D01*
X201938559Y-73560989D01*
X209494801Y-73560989D01*
X209505783Y-73561469D01*
X209532331Y-73563792D01*
X209532333Y-73563792D01*
X209543318Y-73564753D01*
X209579726Y-73554997D01*
X209590453Y-73552619D01*
X209593812Y-73552027D01*
X209627556Y-73546077D01*
X209637101Y-73540566D01*
X209640377Y-73539374D01*
X209643545Y-73537897D01*
X209654195Y-73535043D01*
X209685055Y-73513434D01*
X209694326Y-73507528D01*
X209717417Y-73494196D01*
X209726966Y-73488683D01*
X209751196Y-73459806D01*
X209758622Y-73451704D01*
X211355064Y-71855262D01*
X217734520Y-71855262D01*
X217735036Y-71861406D01*
X217748293Y-72019273D01*
X217751759Y-72060553D01*
X217753458Y-72066478D01*
X217798024Y-72221897D01*
X217808544Y-72258586D01*
X217811359Y-72264063D01*
X217811360Y-72264066D01*
X217899897Y-72436341D01*
X217902712Y-72441818D01*
X218030677Y-72603270D01*
X218035370Y-72607264D01*
X218035371Y-72607265D01*
X218124279Y-72682931D01*
X218187564Y-72736791D01*
X218192942Y-72739797D01*
X218192944Y-72739798D01*
X218224563Y-72757469D01*
X218367398Y-72837297D01*
X218462238Y-72868113D01*
X218557471Y-72899056D01*
X218557475Y-72899057D01*
X218563329Y-72900959D01*
X218767894Y-72925351D01*
X218774029Y-72924879D01*
X218774031Y-72924879D01*
X218830039Y-72920569D01*
X218973300Y-72909546D01*
X218979230Y-72907890D01*
X218979232Y-72907890D01*
X219158154Y-72857934D01*
X219171725Y-72854145D01*
X219177214Y-72851372D01*
X219177220Y-72851370D01*
X219330850Y-72773765D01*
X219355610Y-72761258D01*
X219373325Y-72747418D01*
X219453600Y-72684700D01*
X219517951Y-72634424D01*
X219524586Y-72626738D01*
X219648540Y-72483134D01*
X219648540Y-72483133D01*
X219652564Y-72478472D01*
X219673387Y-72441818D01*
X219727825Y-72345989D01*
X219754323Y-72299344D01*
X219819351Y-72103863D01*
X219845171Y-71899474D01*
X219845583Y-71870000D01*
X219825480Y-71664970D01*
X219765935Y-71467749D01*
X219669218Y-71285849D01*
X219591270Y-71190276D01*
X219542906Y-71130975D01*
X219542903Y-71130972D01*
X219539011Y-71126200D01*
X219481341Y-71078491D01*
X219385025Y-70998811D01*
X219385021Y-70998809D01*
X219380275Y-70994882D01*
X219199055Y-70896897D01*
X219002254Y-70835977D01*
X218996129Y-70835333D01*
X218996128Y-70835333D01*
X218803498Y-70815087D01*
X218803496Y-70815087D01*
X218797369Y-70814443D01*
X218710529Y-70822346D01*
X218598342Y-70832555D01*
X218598339Y-70832556D01*
X218592203Y-70833114D01*
X218394572Y-70891280D01*
X218212002Y-70986726D01*
X218207201Y-70990586D01*
X218207198Y-70990588D01*
X218161161Y-71027603D01*
X218051447Y-71115815D01*
X217919024Y-71273630D01*
X217916056Y-71279028D01*
X217916053Y-71279033D01*
X217850756Y-71397809D01*
X217819776Y-71454162D01*
X217817913Y-71460035D01*
X217767395Y-71619290D01*
X217757484Y-71650532D01*
X217756798Y-71656649D01*
X217756797Y-71656653D01*
X217745005Y-71761785D01*
X217734520Y-71855262D01*
X211355064Y-71855262D01*
X213895064Y-69315262D01*
X217734520Y-69315262D01*
X217735036Y-69321406D01*
X217747952Y-69475213D01*
X217751759Y-69520553D01*
X217753458Y-69526478D01*
X217798024Y-69681897D01*
X217808544Y-69718586D01*
X217811359Y-69724063D01*
X217811360Y-69724066D01*
X217842065Y-69783811D01*
X217902712Y-69901818D01*
X218030677Y-70063270D01*
X218187564Y-70196791D01*
X218367398Y-70297297D01*
X218462238Y-70328113D01*
X218557471Y-70359056D01*
X218557475Y-70359057D01*
X218563329Y-70360959D01*
X218767894Y-70385351D01*
X218774029Y-70384879D01*
X218774031Y-70384879D01*
X218830039Y-70380569D01*
X218973300Y-70369546D01*
X218979230Y-70367890D01*
X218979232Y-70367890D01*
X219165797Y-70315800D01*
X219165796Y-70315800D01*
X219171725Y-70314145D01*
X219177214Y-70311372D01*
X219177220Y-70311370D01*
X219350116Y-70224033D01*
X219355610Y-70221258D01*
X219517951Y-70094424D01*
X219538301Y-70070849D01*
X219648540Y-69943134D01*
X219648540Y-69943133D01*
X219652564Y-69938472D01*
X219657574Y-69929654D01*
X219717864Y-69823523D01*
X219754323Y-69759344D01*
X219819351Y-69563863D01*
X219845171Y-69359474D01*
X219845583Y-69330000D01*
X219825480Y-69124970D01*
X219765935Y-68927749D01*
X219669218Y-68745849D01*
X219543036Y-68591135D01*
X219542906Y-68590975D01*
X219542903Y-68590972D01*
X219539011Y-68586200D01*
X219521786Y-68571950D01*
X219385025Y-68458811D01*
X219385021Y-68458809D01*
X219380275Y-68454882D01*
X219199055Y-68356897D01*
X219002254Y-68295977D01*
X218996129Y-68295333D01*
X218996128Y-68295333D01*
X218803498Y-68275087D01*
X218803496Y-68275087D01*
X218797369Y-68274443D01*
X218710529Y-68282346D01*
X218598342Y-68292555D01*
X218598339Y-68292556D01*
X218592203Y-68293114D01*
X218394572Y-68351280D01*
X218212002Y-68446726D01*
X218207201Y-68450586D01*
X218207198Y-68450588D01*
X218056254Y-68571950D01*
X218051447Y-68575815D01*
X217919024Y-68733630D01*
X217916056Y-68739028D01*
X217916053Y-68739033D01*
X217871498Y-68820079D01*
X217819776Y-68914162D01*
X217757484Y-69110532D01*
X217756798Y-69116649D01*
X217756797Y-69116653D01*
X217740713Y-69260047D01*
X217734520Y-69315262D01*
X213895064Y-69315262D01*
X216057921Y-67152405D01*
X216120233Y-67118379D01*
X216147016Y-67115500D01*
X217699211Y-67115500D01*
X217767332Y-67135502D01*
X217811278Y-67183906D01*
X217840244Y-67240267D01*
X217902712Y-67361818D01*
X218030677Y-67523270D01*
X218035370Y-67527264D01*
X218035371Y-67527265D01*
X218089156Y-67573039D01*
X218187564Y-67656791D01*
X218367398Y-67757297D01*
X218462238Y-67788113D01*
X218557471Y-67819056D01*
X218557475Y-67819057D01*
X218563329Y-67820959D01*
X218767894Y-67845351D01*
X218774029Y-67844879D01*
X218774031Y-67844879D01*
X218830039Y-67840569D01*
X218973300Y-67829546D01*
X218979230Y-67827890D01*
X218979232Y-67827890D01*
X219165797Y-67775800D01*
X219165796Y-67775800D01*
X219171725Y-67774145D01*
X219177214Y-67771372D01*
X219177220Y-67771370D01*
X219350116Y-67684033D01*
X219355610Y-67681258D01*
X219517951Y-67554424D01*
X219538301Y-67530849D01*
X219648540Y-67403134D01*
X219648540Y-67403133D01*
X219652564Y-67398472D01*
X219673387Y-67361818D01*
X219701107Y-67313022D01*
X219754323Y-67219344D01*
X219760184Y-67201726D01*
X219800666Y-67143403D01*
X219866254Y-67116224D01*
X219879741Y-67115500D01*
X220902984Y-67115500D01*
X220971105Y-67135502D01*
X220992079Y-67152405D01*
X222860870Y-69021197D01*
X224710895Y-70871222D01*
X224718321Y-70879325D01*
X224742545Y-70908194D01*
X224775184Y-70927038D01*
X224784452Y-70932942D01*
X224815316Y-70954553D01*
X224825962Y-70957406D01*
X224829130Y-70958883D01*
X224832407Y-70960076D01*
X224841955Y-70965588D01*
X224871508Y-70970799D01*
X224879069Y-70972132D01*
X224889803Y-70974512D01*
X224926193Y-70984263D01*
X224937169Y-70983303D01*
X224937172Y-70983303D01*
X224963731Y-70980979D01*
X224974712Y-70980500D01*
X232634211Y-70980500D01*
X232702332Y-71000502D01*
X232746278Y-71048906D01*
X232788456Y-71130975D01*
X232837712Y-71226818D01*
X232965677Y-71388270D01*
X232970370Y-71392264D01*
X232970371Y-71392265D01*
X233105884Y-71507595D01*
X233122564Y-71521791D01*
X233127942Y-71524797D01*
X233127944Y-71524798D01*
X233159563Y-71542469D01*
X233302398Y-71622297D01*
X233371221Y-71644659D01*
X233492471Y-71684056D01*
X233492475Y-71684057D01*
X233498329Y-71685959D01*
X233702894Y-71710351D01*
X233709029Y-71709879D01*
X233709031Y-71709879D01*
X233765039Y-71705569D01*
X233908300Y-71694546D01*
X233914230Y-71692890D01*
X233914232Y-71692890D01*
X234100797Y-71640800D01*
X234100796Y-71640800D01*
X234106725Y-71639145D01*
X234112214Y-71636372D01*
X234112220Y-71636370D01*
X234285116Y-71549033D01*
X234290610Y-71546258D01*
X234308325Y-71532418D01*
X234392678Y-71466514D01*
X234452951Y-71419424D01*
X234471609Y-71397809D01*
X234583540Y-71268134D01*
X234583540Y-71268133D01*
X234587564Y-71263472D01*
X234608387Y-71226818D01*
X234671445Y-71115815D01*
X234689323Y-71084344D01*
X234754351Y-70888863D01*
X234780171Y-70684474D01*
X234780583Y-70655000D01*
X234760480Y-70449970D01*
X234700935Y-70252749D01*
X234604218Y-70070849D01*
X234489062Y-69929654D01*
X234477906Y-69915975D01*
X234477903Y-69915972D01*
X234474011Y-69911200D01*
X234469262Y-69907271D01*
X234469261Y-69907270D01*
X234385643Y-69838095D01*
X234345905Y-69779262D01*
X234344284Y-69708284D01*
X234381293Y-69647696D01*
X234445183Y-69616736D01*
X234465959Y-69615011D01*
X235070779Y-69615011D01*
X235081761Y-69615491D01*
X235108309Y-69617814D01*
X235108311Y-69617814D01*
X235119296Y-69618775D01*
X235155704Y-69609019D01*
X235166431Y-69606641D01*
X235169790Y-69606049D01*
X235203534Y-69600099D01*
X235213079Y-69594588D01*
X235216355Y-69593396D01*
X235219523Y-69591919D01*
X235230173Y-69589065D01*
X235261033Y-69567456D01*
X235270304Y-69561550D01*
X235293399Y-69548216D01*
X235293400Y-69548215D01*
X235302944Y-69542705D01*
X235310028Y-69534263D01*
X235327174Y-69513830D01*
X235334599Y-69505728D01*
X235724122Y-69116205D01*
X235786434Y-69082179D01*
X235852153Y-69085467D01*
X236032471Y-69144056D01*
X236032475Y-69144057D01*
X236038329Y-69145959D01*
X236242894Y-69170351D01*
X236249029Y-69169879D01*
X236249031Y-69169879D01*
X236305039Y-69165569D01*
X236448300Y-69154546D01*
X236454230Y-69152890D01*
X236454232Y-69152890D01*
X236640797Y-69100800D01*
X236640796Y-69100800D01*
X236646725Y-69099145D01*
X236652214Y-69096372D01*
X236652220Y-69096370D01*
X236825116Y-69009033D01*
X236830610Y-69006258D01*
X236902623Y-68949996D01*
X236955396Y-68908765D01*
X236992951Y-68879424D01*
X237096254Y-68759746D01*
X237123540Y-68728134D01*
X237123540Y-68728133D01*
X237127564Y-68723472D01*
X237148387Y-68686818D01*
X237211445Y-68575815D01*
X237229323Y-68544344D01*
X237294351Y-68348863D01*
X237320171Y-68144474D01*
X237320583Y-68115000D01*
X237300480Y-67909970D01*
X237240935Y-67712749D01*
X237144218Y-67530849D01*
X237057090Y-67424020D01*
X237017906Y-67375975D01*
X237017903Y-67375972D01*
X237014011Y-67371200D01*
X237009262Y-67367271D01*
X236860025Y-67243811D01*
X236860021Y-67243809D01*
X236855275Y-67239882D01*
X236674055Y-67141897D01*
X236477254Y-67080977D01*
X236471129Y-67080333D01*
X236471128Y-67080333D01*
X236278498Y-67060087D01*
X236278496Y-67060087D01*
X236272369Y-67059443D01*
X236185529Y-67067346D01*
X236073342Y-67077555D01*
X236073339Y-67077556D01*
X236067203Y-67078114D01*
X235869572Y-67136280D01*
X235687002Y-67231726D01*
X235682201Y-67235586D01*
X235682198Y-67235588D01*
X235531254Y-67356950D01*
X235526447Y-67360815D01*
X235394024Y-67518630D01*
X235391056Y-67524028D01*
X235391053Y-67524033D01*
X235316416Y-67659798D01*
X235294776Y-67699162D01*
X235232484Y-67895532D01*
X235231798Y-67901649D01*
X235231797Y-67901653D01*
X235212297Y-68075500D01*
X235209520Y-68100262D01*
X235210036Y-68106406D01*
X235225668Y-68292555D01*
X235226759Y-68305553D01*
X235228458Y-68311478D01*
X235276438Y-68478803D01*
X235283544Y-68503586D01*
X235286361Y-68509067D01*
X235286537Y-68509410D01*
X235286575Y-68509608D01*
X235288630Y-68514799D01*
X235287644Y-68515190D01*
X235299888Y-68579140D01*
X235273420Y-68645019D01*
X235263569Y-68656104D01*
X234992568Y-68927106D01*
X234930255Y-68961131D01*
X234903472Y-68964011D01*
X234655145Y-68964011D01*
X234587024Y-68944009D01*
X234540531Y-68890353D01*
X234530427Y-68820079D01*
X234559763Y-68755680D01*
X234583540Y-68728134D01*
X234583540Y-68728133D01*
X234587564Y-68723472D01*
X234608387Y-68686818D01*
X234671445Y-68575815D01*
X234689323Y-68544344D01*
X234754351Y-68348863D01*
X234780171Y-68144474D01*
X234780583Y-68115000D01*
X234760480Y-67909970D01*
X234700935Y-67712749D01*
X234604218Y-67530849D01*
X234517090Y-67424020D01*
X234477906Y-67375975D01*
X234477903Y-67375972D01*
X234474011Y-67371200D01*
X234469262Y-67367271D01*
X234320025Y-67243811D01*
X234320021Y-67243809D01*
X234315275Y-67239882D01*
X234134055Y-67141897D01*
X233937254Y-67080977D01*
X233931129Y-67080333D01*
X233931128Y-67080333D01*
X233738498Y-67060087D01*
X233738496Y-67060087D01*
X233732369Y-67059443D01*
X233645529Y-67067346D01*
X233533342Y-67077555D01*
X233533339Y-67077556D01*
X233527203Y-67078114D01*
X233329572Y-67136280D01*
X233147002Y-67231726D01*
X233142201Y-67235586D01*
X233142198Y-67235588D01*
X232991254Y-67356950D01*
X232986447Y-67360815D01*
X232854024Y-67518630D01*
X232851056Y-67524028D01*
X232851053Y-67524033D01*
X232776416Y-67659798D01*
X232754776Y-67699162D01*
X232692484Y-67895532D01*
X232691798Y-67901649D01*
X232691797Y-67901653D01*
X232672297Y-68075500D01*
X232669520Y-68100262D01*
X232670036Y-68106406D01*
X232685668Y-68292555D01*
X232686759Y-68305553D01*
X232688458Y-68311478D01*
X232736438Y-68478803D01*
X232743544Y-68503586D01*
X232746359Y-68509063D01*
X232746360Y-68509066D01*
X232788538Y-68591135D01*
X232837712Y-68686818D01*
X232841539Y-68691646D01*
X232895514Y-68759746D01*
X232922152Y-68825556D01*
X232908981Y-68895321D01*
X232860184Y-68946890D01*
X232796769Y-68964011D01*
X225576527Y-68964011D01*
X225508406Y-68944009D01*
X225487432Y-68927106D01*
X223005074Y-66444748D01*
X232674500Y-66444748D01*
X232675707Y-66450816D01*
X232681015Y-66477499D01*
X232686133Y-66503231D01*
X232730448Y-66569552D01*
X232796769Y-66613867D01*
X232808938Y-66616288D01*
X232808939Y-66616288D01*
X232849184Y-66624293D01*
X232855252Y-66625500D01*
X234594748Y-66625500D01*
X234600816Y-66624293D01*
X234641061Y-66616288D01*
X234641062Y-66616288D01*
X234653231Y-66613867D01*
X234719552Y-66569552D01*
X234763867Y-66503231D01*
X234768986Y-66477499D01*
X234774293Y-66450816D01*
X234775500Y-66444748D01*
X234775500Y-64705252D01*
X234763867Y-64646769D01*
X234719552Y-64580448D01*
X234653231Y-64536133D01*
X234641062Y-64533712D01*
X234641061Y-64533712D01*
X234600816Y-64525707D01*
X234594748Y-64524500D01*
X232855252Y-64524500D01*
X232849184Y-64525707D01*
X232808939Y-64533712D01*
X232808938Y-64533712D01*
X232796769Y-64536133D01*
X232730448Y-64580448D01*
X232686133Y-64646769D01*
X232674500Y-64705252D01*
X232674500Y-66444748D01*
X223005074Y-66444748D01*
X221959600Y-65399274D01*
X221952173Y-65391170D01*
X221935030Y-65370740D01*
X221935031Y-65370740D01*
X221927944Y-65362295D01*
X221916230Y-65355532D01*
X221895304Y-65343450D01*
X221886033Y-65337544D01*
X221868833Y-65325500D01*
X221855173Y-65315935D01*
X221844523Y-65313081D01*
X221841355Y-65311604D01*
X221838079Y-65310412D01*
X221828534Y-65304901D01*
X221794790Y-65298951D01*
X221791431Y-65298359D01*
X221780704Y-65295981D01*
X221744296Y-65286225D01*
X221733311Y-65287186D01*
X221733309Y-65287186D01*
X221706761Y-65289509D01*
X221695779Y-65289989D01*
X219960168Y-65289989D01*
X219892047Y-65269987D01*
X219845554Y-65216331D01*
X219836590Y-65139405D01*
X219839293Y-65125819D01*
X219839294Y-65125813D01*
X219840500Y-65119748D01*
X219840500Y-63380252D01*
X219839283Y-63374134D01*
X219831288Y-63333939D01*
X219831288Y-63333938D01*
X219828867Y-63321769D01*
X219784552Y-63255448D01*
X219718231Y-63211133D01*
X219706062Y-63208712D01*
X219706061Y-63208712D01*
X219665816Y-63200707D01*
X219659748Y-63199500D01*
X217920252Y-63199500D01*
X217914184Y-63200707D01*
X217873939Y-63208712D01*
X217873938Y-63208712D01*
X217861769Y-63211133D01*
X217795448Y-63255448D01*
X217751133Y-63321769D01*
X217748712Y-63333938D01*
X217748712Y-63333939D01*
X217740717Y-63374134D01*
X217739500Y-63380252D01*
X217739500Y-65119748D01*
X217740706Y-65125813D01*
X217740707Y-65125819D01*
X217743410Y-65139405D01*
X217737084Y-65210119D01*
X217693530Y-65266188D01*
X217619832Y-65289989D01*
X209804224Y-65289989D01*
X209793243Y-65289510D01*
X209766681Y-65287186D01*
X209766679Y-65287186D01*
X209755704Y-65286226D01*
X209719294Y-65295981D01*
X209708587Y-65298355D01*
X209671466Y-65304901D01*
X209661922Y-65310411D01*
X209658646Y-65311603D01*
X209655475Y-65313082D01*
X209644827Y-65315935D01*
X209635798Y-65322257D01*
X209613960Y-65337548D01*
X209604690Y-65343453D01*
X209581607Y-65356780D01*
X209581604Y-65356782D01*
X209572056Y-65362295D01*
X209564968Y-65370742D01*
X209564967Y-65370743D01*
X209547837Y-65391158D01*
X209540411Y-65399262D01*
X206471939Y-68467735D01*
X203432079Y-71507595D01*
X203369767Y-71541621D01*
X203342984Y-71544500D01*
X202101269Y-71544500D01*
X202033148Y-71524498D01*
X201986008Y-71467991D01*
X201985935Y-71467749D01*
X201889218Y-71285849D01*
X201811270Y-71190276D01*
X201762906Y-71130975D01*
X201762903Y-71130972D01*
X201759011Y-71126200D01*
X201701341Y-71078491D01*
X201605025Y-70998811D01*
X201605021Y-70998809D01*
X201600275Y-70994882D01*
X201419055Y-70896897D01*
X201222254Y-70835977D01*
X201216129Y-70835333D01*
X201216128Y-70835333D01*
X201023498Y-70815087D01*
X201023496Y-70815087D01*
X201017369Y-70814443D01*
X200930529Y-70822346D01*
X200818342Y-70832555D01*
X200818339Y-70832556D01*
X200812203Y-70833114D01*
X200614572Y-70891280D01*
X200432002Y-70986726D01*
X200427201Y-70990586D01*
X200427198Y-70990588D01*
X200381161Y-71027603D01*
X200271447Y-71115815D01*
X200139024Y-71273630D01*
X200136056Y-71279028D01*
X200136053Y-71279033D01*
X200070756Y-71397809D01*
X200039776Y-71454162D01*
X200037913Y-71460035D01*
X199987395Y-71619290D01*
X199977484Y-71650532D01*
X199976798Y-71656649D01*
X199976797Y-71656653D01*
X199965005Y-71761785D01*
X199954520Y-71855262D01*
X199955036Y-71861406D01*
X199968293Y-72019273D01*
X199971759Y-72060553D01*
X199973458Y-72066478D01*
X200018024Y-72221897D01*
X200028544Y-72258586D01*
X200031359Y-72264063D01*
X200031360Y-72264066D01*
X200119897Y-72436341D01*
X200122712Y-72441818D01*
X200250677Y-72603270D01*
X200255370Y-72607264D01*
X200255371Y-72607265D01*
X200350276Y-72688035D01*
X200389189Y-72747418D01*
X200389820Y-72818411D01*
X200351968Y-72878476D01*
X200287652Y-72908542D01*
X200268613Y-72909989D01*
X197284221Y-72909989D01*
X197273239Y-72909509D01*
X197246691Y-72907186D01*
X197246689Y-72907186D01*
X197235704Y-72906225D01*
X197199296Y-72915981D01*
X197188572Y-72918359D01*
X197164592Y-72922587D01*
X197142718Y-72924500D01*
X194687016Y-72924500D01*
X194618895Y-72904498D01*
X194597921Y-72887595D01*
X191025588Y-69315262D01*
X199954520Y-69315262D01*
X199955036Y-69321406D01*
X199967952Y-69475213D01*
X199971759Y-69520553D01*
X199973458Y-69526478D01*
X200018024Y-69681897D01*
X200028544Y-69718586D01*
X200031359Y-69724063D01*
X200031360Y-69724066D01*
X200062065Y-69783811D01*
X200122712Y-69901818D01*
X200250677Y-70063270D01*
X200407564Y-70196791D01*
X200587398Y-70297297D01*
X200682238Y-70328113D01*
X200777471Y-70359056D01*
X200777475Y-70359057D01*
X200783329Y-70360959D01*
X200987894Y-70385351D01*
X200994029Y-70384879D01*
X200994031Y-70384879D01*
X201050039Y-70380569D01*
X201193300Y-70369546D01*
X201199230Y-70367890D01*
X201199232Y-70367890D01*
X201385797Y-70315800D01*
X201385796Y-70315800D01*
X201391725Y-70314145D01*
X201397214Y-70311372D01*
X201397220Y-70311370D01*
X201570116Y-70224033D01*
X201575610Y-70221258D01*
X201737951Y-70094424D01*
X201758301Y-70070849D01*
X201868540Y-69943134D01*
X201868540Y-69943133D01*
X201872564Y-69938472D01*
X201877574Y-69929654D01*
X201937864Y-69823523D01*
X201974323Y-69759344D01*
X202039351Y-69563863D01*
X202065171Y-69359474D01*
X202065583Y-69330000D01*
X202045480Y-69124970D01*
X201985935Y-68927749D01*
X201889218Y-68745849D01*
X201763036Y-68591135D01*
X201762906Y-68590975D01*
X201762903Y-68590972D01*
X201759011Y-68586200D01*
X201741786Y-68571950D01*
X201605025Y-68458811D01*
X201605021Y-68458809D01*
X201600275Y-68454882D01*
X201419055Y-68356897D01*
X201222254Y-68295977D01*
X201216129Y-68295333D01*
X201216128Y-68295333D01*
X201023498Y-68275087D01*
X201023496Y-68275087D01*
X201017369Y-68274443D01*
X200930529Y-68282346D01*
X200818342Y-68292555D01*
X200818339Y-68292556D01*
X200812203Y-68293114D01*
X200614572Y-68351280D01*
X200432002Y-68446726D01*
X200427201Y-68450586D01*
X200427198Y-68450588D01*
X200276254Y-68571950D01*
X200271447Y-68575815D01*
X200139024Y-68733630D01*
X200136056Y-68739028D01*
X200136053Y-68739033D01*
X200091498Y-68820079D01*
X200039776Y-68914162D01*
X199977484Y-69110532D01*
X199976798Y-69116649D01*
X199976797Y-69116653D01*
X199960713Y-69260047D01*
X199954520Y-69315262D01*
X191025588Y-69315262D01*
X187244111Y-65533785D01*
X187236684Y-65525681D01*
X187219541Y-65505251D01*
X187219542Y-65505251D01*
X187212455Y-65496806D01*
X187202906Y-65491293D01*
X187179815Y-65477961D01*
X187170544Y-65472055D01*
X187148715Y-65456770D01*
X187139684Y-65450446D01*
X187129034Y-65447592D01*
X187125866Y-65446115D01*
X187122590Y-65444923D01*
X187113045Y-65439412D01*
X187079301Y-65433462D01*
X187075942Y-65432870D01*
X187065215Y-65430492D01*
X187028807Y-65420736D01*
X187017822Y-65421697D01*
X187017820Y-65421697D01*
X186991272Y-65424020D01*
X186980290Y-65424500D01*
X177497022Y-65424500D01*
X177428901Y-65404498D01*
X177382408Y-65350842D01*
X177373949Y-65325500D01*
X177373242Y-65322275D01*
X177372519Y-65314631D01*
X177369977Y-65307392D01*
X177369976Y-65307388D01*
X177347909Y-65244552D01*
X177327634Y-65186816D01*
X177322042Y-65179246D01*
X177322041Y-65179243D01*
X177296504Y-65144669D01*
X199652001Y-65144669D01*
X199652371Y-65151490D01*
X199657895Y-65202352D01*
X199661521Y-65217604D01*
X199706676Y-65338054D01*
X199715214Y-65353649D01*
X199791715Y-65455724D01*
X199804276Y-65468285D01*
X199906351Y-65544786D01*
X199921946Y-65553324D01*
X200042394Y-65598478D01*
X200057649Y-65602105D01*
X200108514Y-65607631D01*
X200115328Y-65608000D01*
X200490432Y-65608000D01*
X200558553Y-65628002D01*
X200605046Y-65681658D01*
X200615150Y-65751932D01*
X200585656Y-65816512D01*
X200548812Y-65845659D01*
X200432002Y-65906726D01*
X200427201Y-65910586D01*
X200427198Y-65910588D01*
X200361282Y-65963586D01*
X200271447Y-66035815D01*
X200139024Y-66193630D01*
X200136056Y-66199028D01*
X200136053Y-66199033D01*
X200061434Y-66334766D01*
X200039776Y-66374162D01*
X200037913Y-66380035D01*
X199983839Y-66550500D01*
X199977484Y-66570532D01*
X199976798Y-66576649D01*
X199976797Y-66576653D01*
X199971318Y-66625500D01*
X199954520Y-66775262D01*
X199955036Y-66781406D01*
X199970602Y-66966771D01*
X199971759Y-66980553D01*
X199973458Y-66986478D01*
X200021037Y-67152405D01*
X200028544Y-67178586D01*
X200031359Y-67184063D01*
X200031360Y-67184066D01*
X200062065Y-67243811D01*
X200122712Y-67361818D01*
X200250677Y-67523270D01*
X200255370Y-67527264D01*
X200255371Y-67527265D01*
X200309156Y-67573039D01*
X200407564Y-67656791D01*
X200587398Y-67757297D01*
X200682238Y-67788113D01*
X200777471Y-67819056D01*
X200777475Y-67819057D01*
X200783329Y-67820959D01*
X200987894Y-67845351D01*
X200994029Y-67844879D01*
X200994031Y-67844879D01*
X201050039Y-67840569D01*
X201193300Y-67829546D01*
X201199230Y-67827890D01*
X201199232Y-67827890D01*
X201385797Y-67775800D01*
X201385796Y-67775800D01*
X201391725Y-67774145D01*
X201397214Y-67771372D01*
X201397220Y-67771370D01*
X201570116Y-67684033D01*
X201575610Y-67681258D01*
X201737951Y-67554424D01*
X201758301Y-67530849D01*
X201868540Y-67403134D01*
X201868540Y-67403133D01*
X201872564Y-67398472D01*
X201893387Y-67361818D01*
X201911056Y-67330714D01*
X201974323Y-67219344D01*
X202039351Y-67023863D01*
X202065171Y-66819474D01*
X202065583Y-66790000D01*
X202045480Y-66584970D01*
X201985935Y-66387749D01*
X201889218Y-66205849D01*
X201787551Y-66081193D01*
X201762906Y-66050975D01*
X201762903Y-66050972D01*
X201759011Y-66046200D01*
X201720870Y-66014647D01*
X201605025Y-65918811D01*
X201605021Y-65918809D01*
X201600275Y-65914882D01*
X201472255Y-65845662D01*
X201470726Y-65844835D01*
X201420317Y-65794840D01*
X201404940Y-65725529D01*
X201429476Y-65658907D01*
X201486136Y-65616126D01*
X201530655Y-65607999D01*
X201904669Y-65607999D01*
X201911490Y-65607629D01*
X201962352Y-65602105D01*
X201977604Y-65598479D01*
X202098054Y-65553324D01*
X202113649Y-65544786D01*
X202215724Y-65468285D01*
X202228285Y-65455724D01*
X202304786Y-65353649D01*
X202313324Y-65338054D01*
X202358478Y-65217606D01*
X202362105Y-65202351D01*
X202367631Y-65151486D01*
X202368000Y-65144672D01*
X202368000Y-64522115D01*
X202363525Y-64506876D01*
X202362135Y-64505671D01*
X202354452Y-64504000D01*
X199670116Y-64504000D01*
X199654877Y-64508475D01*
X199653672Y-64509865D01*
X199652001Y-64517548D01*
X199652001Y-65144669D01*
X177296504Y-65144669D01*
X177252742Y-65085421D01*
X177247150Y-65077850D01*
X177230206Y-65065335D01*
X177145757Y-65002959D01*
X177145754Y-65002958D01*
X177138184Y-64997366D01*
X177010369Y-64952481D01*
X177002723Y-64951758D01*
X177002722Y-64951758D01*
X176996752Y-64951194D01*
X176978834Y-64949500D01*
X175621166Y-64949500D01*
X175603248Y-64951194D01*
X175597278Y-64951758D01*
X175597277Y-64951758D01*
X175589631Y-64952481D01*
X175461816Y-64997366D01*
X175454246Y-65002958D01*
X175454243Y-65002959D01*
X175369794Y-65065335D01*
X175352850Y-65077850D01*
X175347258Y-65085421D01*
X175277959Y-65179243D01*
X175277958Y-65179246D01*
X175272366Y-65186816D01*
X175227481Y-65314631D01*
X175226758Y-65322277D01*
X175226758Y-65322278D01*
X175226194Y-65328248D01*
X175224500Y-65346166D01*
X175224500Y-66153834D01*
X174325500Y-66153834D01*
X174325500Y-63687016D01*
X174345502Y-63618895D01*
X174362405Y-63597921D01*
X175887922Y-62072405D01*
X175950234Y-62038379D01*
X175977017Y-62035500D01*
X199919211Y-62035500D01*
X199987332Y-62055502D01*
X200031278Y-62103906D01*
X200122712Y-62281818D01*
X200250677Y-62443270D01*
X200407564Y-62576791D01*
X200456308Y-62604033D01*
X200549315Y-62656013D01*
X200599020Y-62706707D01*
X200613428Y-62776226D01*
X200587964Y-62842499D01*
X200530713Y-62884484D01*
X200487844Y-62892001D01*
X200115331Y-62892001D01*
X200108510Y-62892371D01*
X200057648Y-62897895D01*
X200042396Y-62901521D01*
X199921946Y-62946676D01*
X199906351Y-62955214D01*
X199804276Y-63031715D01*
X199791715Y-63044276D01*
X199715214Y-63146351D01*
X199706676Y-63161946D01*
X199661522Y-63282394D01*
X199657895Y-63297649D01*
X199652369Y-63348514D01*
X199652000Y-63355328D01*
X199652000Y-63977885D01*
X199656475Y-63993124D01*
X199657865Y-63994329D01*
X199665548Y-63996000D01*
X202349884Y-63996000D01*
X202365123Y-63991525D01*
X202366328Y-63990135D01*
X202367999Y-63982452D01*
X202367999Y-63355331D01*
X202367629Y-63348510D01*
X202362105Y-63297648D01*
X202358479Y-63282396D01*
X202313324Y-63161946D01*
X202304786Y-63146351D01*
X202228285Y-63044276D01*
X202215724Y-63031715D01*
X202113649Y-62955214D01*
X202098054Y-62946676D01*
X201977606Y-62901522D01*
X201962351Y-62897895D01*
X201911486Y-62892369D01*
X201904672Y-62892000D01*
X201528932Y-62892000D01*
X201460811Y-62871998D01*
X201414318Y-62818342D01*
X201404214Y-62748068D01*
X201433708Y-62683488D01*
X201472121Y-62653534D01*
X201570116Y-62604033D01*
X201575610Y-62601258D01*
X201737951Y-62474424D01*
X201872564Y-62318472D01*
X201893387Y-62281818D01*
X201971276Y-62144707D01*
X201974323Y-62139344D01*
X202039351Y-61943863D01*
X202065171Y-61739474D01*
X202065583Y-61710000D01*
X202045480Y-61504970D01*
X201985935Y-61307749D01*
X201889218Y-61125849D01*
X201815859Y-61035902D01*
X201762906Y-60970975D01*
X201762903Y-60970972D01*
X201759011Y-60966200D01*
X201741786Y-60951950D01*
X201605025Y-60838811D01*
X201605021Y-60838809D01*
X201600275Y-60834882D01*
X201419055Y-60736897D01*
X201222254Y-60675977D01*
X201216129Y-60675333D01*
X201216128Y-60675333D01*
X201023498Y-60655087D01*
X201023496Y-60655087D01*
X201017369Y-60654443D01*
X200930529Y-60662346D01*
X200818342Y-60672555D01*
X200818339Y-60672556D01*
X200812203Y-60673114D01*
X200614572Y-60731280D01*
X200432002Y-60826726D01*
X200427201Y-60830586D01*
X200427198Y-60830588D01*
X200290746Y-60940298D01*
X200271447Y-60955815D01*
X200139024Y-61113630D01*
X200136056Y-61119028D01*
X200136053Y-61119033D01*
X200128457Y-61132851D01*
X200039776Y-61294162D01*
X200037914Y-61300031D01*
X200035485Y-61305699D01*
X200033458Y-61304830D01*
X199999342Y-61355481D01*
X199934140Y-61383575D01*
X199918901Y-61384500D01*
X175809713Y-61384500D01*
X175798732Y-61384021D01*
X175772170Y-61381697D01*
X175772168Y-61381697D01*
X175761193Y-61380737D01*
X175724783Y-61390492D01*
X175714076Y-61392866D01*
X175676955Y-61399412D01*
X175667411Y-61404922D01*
X175664135Y-61406114D01*
X175660964Y-61407593D01*
X175650316Y-61410446D01*
X175641287Y-61416768D01*
X175619449Y-61432059D01*
X175610179Y-61437964D01*
X175587092Y-61451293D01*
X175587088Y-61451296D01*
X175577545Y-61456806D01*
X175570460Y-61465250D01*
X175553320Y-61485676D01*
X175545894Y-61493779D01*
X173783784Y-63255890D01*
X173775681Y-63263316D01*
X173746806Y-63287545D01*
X173741293Y-63297094D01*
X173727961Y-63320185D01*
X173722055Y-63329456D01*
X173700446Y-63360316D01*
X173697592Y-63370966D01*
X173696115Y-63374134D01*
X173694923Y-63377410D01*
X173689412Y-63386955D01*
X173683462Y-63420699D01*
X173682870Y-63424058D01*
X173680492Y-63434785D01*
X173670736Y-63471193D01*
X173671697Y-63482178D01*
X173671697Y-63482180D01*
X173674020Y-63508728D01*
X173674500Y-63519710D01*
X173674500Y-80230290D01*
X173674020Y-80241272D01*
X173670736Y-80278807D01*
X172100000Y-80278807D01*
X172100000Y-58049363D01*
X185388050Y-58049363D01*
X185400309Y-58261977D01*
X185401745Y-58272197D01*
X185448565Y-58479946D01*
X185451645Y-58489775D01*
X185531770Y-58687103D01*
X185536413Y-58696294D01*
X185647694Y-58877888D01*
X185653772Y-58886191D01*
X185722487Y-58965519D01*
X185751969Y-59030104D01*
X185741854Y-59100377D01*
X185732014Y-59118018D01*
X185711133Y-59149269D01*
X185699500Y-59207752D01*
X185699500Y-60947248D01*
X185700707Y-60953316D01*
X185704331Y-60971533D01*
X185711133Y-61005731D01*
X185755448Y-61072052D01*
X185765761Y-61078943D01*
X185810599Y-61108903D01*
X185821769Y-61116367D01*
X185833938Y-61118788D01*
X185833939Y-61118788D01*
X185869438Y-61125849D01*
X185880252Y-61128000D01*
X187619748Y-61128000D01*
X187630562Y-61125849D01*
X187666061Y-61118788D01*
X187666062Y-61118788D01*
X187678231Y-61116367D01*
X187689402Y-61108903D01*
X187734239Y-61078943D01*
X187744552Y-61072052D01*
X187788867Y-61005731D01*
X187795670Y-60971533D01*
X187799293Y-60953316D01*
X187800500Y-60947248D01*
X187800500Y-59207752D01*
X187788867Y-59149269D01*
X187781974Y-59138953D01*
X187781973Y-59138950D01*
X187770307Y-59121491D01*
X187749092Y-59053738D01*
X187767875Y-58985271D01*
X187781096Y-58968589D01*
X187780699Y-58968251D01*
X187790730Y-58956465D01*
X187915003Y-58783520D01*
X187920313Y-58774683D01*
X188014670Y-58583767D01*
X188018469Y-58574172D01*
X188041588Y-58498081D01*
X188080529Y-58438717D01*
X188145384Y-58409830D01*
X188215560Y-58420592D01*
X188268777Y-58467585D01*
X188274209Y-58477109D01*
X188362712Y-58649318D01*
X188490677Y-58810770D01*
X188495370Y-58814764D01*
X188495371Y-58814765D01*
X188579297Y-58886191D01*
X188647564Y-58944291D01*
X188687023Y-58966344D01*
X188736727Y-59017037D01*
X188751135Y-59086556D01*
X188725671Y-59152829D01*
X188683929Y-59187991D01*
X188672002Y-59194226D01*
X188667201Y-59198086D01*
X188667198Y-59198088D01*
X188516254Y-59319450D01*
X188511447Y-59323315D01*
X188379024Y-59481130D01*
X188376056Y-59486528D01*
X188376053Y-59486533D01*
X188311087Y-59604707D01*
X188279776Y-59661662D01*
X188217484Y-59858032D01*
X188216798Y-59864149D01*
X188216797Y-59864153D01*
X188209438Y-59929766D01*
X188194520Y-60062762D01*
X188195036Y-60068906D01*
X188208134Y-60224879D01*
X188211759Y-60268053D01*
X188268544Y-60466086D01*
X188271359Y-60471563D01*
X188271360Y-60471566D01*
X188292247Y-60512207D01*
X188362712Y-60649318D01*
X188490677Y-60810770D01*
X188495370Y-60814764D01*
X188495371Y-60814765D01*
X188519009Y-60834882D01*
X188647564Y-60944291D01*
X188652942Y-60947297D01*
X188652944Y-60947298D01*
X188676643Y-60960543D01*
X188827398Y-61044797D01*
X188911280Y-61072052D01*
X189017471Y-61106556D01*
X189017475Y-61106557D01*
X189023329Y-61108459D01*
X189227894Y-61132851D01*
X189234029Y-61132379D01*
X189234031Y-61132379D01*
X189306625Y-61126793D01*
X189433300Y-61117046D01*
X189439230Y-61115390D01*
X189439232Y-61115390D01*
X189625797Y-61063300D01*
X189625796Y-61063300D01*
X189631725Y-61061645D01*
X189637214Y-61058872D01*
X189637220Y-61058870D01*
X189810116Y-60971533D01*
X189815610Y-60968758D01*
X189832177Y-60955815D01*
X189973101Y-60845713D01*
X189977951Y-60841924D01*
X189984030Y-60834882D01*
X190108540Y-60690634D01*
X190108540Y-60690633D01*
X190112564Y-60685972D01*
X190118881Y-60674853D01*
X190211276Y-60512207D01*
X190214323Y-60506844D01*
X190279351Y-60311363D01*
X190305171Y-60106974D01*
X190305583Y-60077500D01*
X190285480Y-59872470D01*
X190225935Y-59675249D01*
X190129218Y-59493349D01*
X190051244Y-59397744D01*
X190002906Y-59338475D01*
X190002903Y-59338472D01*
X189999011Y-59333700D01*
X189981786Y-59319450D01*
X189845025Y-59206311D01*
X189845021Y-59206309D01*
X189840275Y-59202382D01*
X189816491Y-59189522D01*
X189781947Y-59155262D01*
X199954520Y-59155262D01*
X199971759Y-59360553D01*
X199973458Y-59366478D01*
X200009838Y-59493349D01*
X200028544Y-59558586D01*
X200031359Y-59564063D01*
X200031360Y-59564066D01*
X200119897Y-59736341D01*
X200122712Y-59741818D01*
X200250677Y-59903270D01*
X200407564Y-60036791D01*
X200412942Y-60039797D01*
X200412944Y-60039798D01*
X200456308Y-60064033D01*
X200587398Y-60137297D01*
X200682238Y-60168113D01*
X200777471Y-60199056D01*
X200777475Y-60199057D01*
X200783329Y-60200959D01*
X200987894Y-60225351D01*
X200994029Y-60224879D01*
X200994031Y-60224879D01*
X201050039Y-60220569D01*
X201193300Y-60209546D01*
X201199230Y-60207890D01*
X201199232Y-60207890D01*
X201385797Y-60155800D01*
X201385796Y-60155800D01*
X201391725Y-60154145D01*
X201397214Y-60151372D01*
X201397220Y-60151370D01*
X201550397Y-60073994D01*
X201575610Y-60061258D01*
X201737951Y-59934424D01*
X201872564Y-59778472D01*
X201893387Y-59741818D01*
X201971276Y-59604707D01*
X201974323Y-59599344D01*
X202039351Y-59403863D01*
X202065171Y-59199474D01*
X202065583Y-59170000D01*
X202064138Y-59155262D01*
X217734520Y-59155262D01*
X217751759Y-59360553D01*
X217753458Y-59366478D01*
X217789838Y-59493349D01*
X217808544Y-59558586D01*
X217811359Y-59564063D01*
X217811360Y-59564066D01*
X217899897Y-59736341D01*
X217902712Y-59741818D01*
X218030677Y-59903270D01*
X218187564Y-60036791D01*
X218192942Y-60039797D01*
X218192944Y-60039798D01*
X218236308Y-60064033D01*
X218367398Y-60137297D01*
X218462238Y-60168113D01*
X218557471Y-60199056D01*
X218557475Y-60199057D01*
X218563329Y-60200959D01*
X218767894Y-60225351D01*
X218774029Y-60224879D01*
X218774031Y-60224879D01*
X218830039Y-60220569D01*
X218973300Y-60209546D01*
X218979230Y-60207890D01*
X218979232Y-60207890D01*
X219165797Y-60155800D01*
X219165796Y-60155800D01*
X219171725Y-60154145D01*
X219177214Y-60151372D01*
X219177220Y-60151370D01*
X219330397Y-60073994D01*
X219355610Y-60061258D01*
X219517951Y-59934424D01*
X219652564Y-59778472D01*
X219673387Y-59741818D01*
X219751276Y-59604707D01*
X219754323Y-59599344D01*
X219819351Y-59403863D01*
X219845171Y-59199474D01*
X219845583Y-59170000D01*
X219825480Y-58964970D01*
X219765935Y-58767749D01*
X219669218Y-58585849D01*
X219572764Y-58467585D01*
X219542906Y-58430975D01*
X219542903Y-58430972D01*
X219539011Y-58426200D01*
X219505907Y-58398814D01*
X219385025Y-58298811D01*
X219385021Y-58298809D01*
X219380275Y-58294882D01*
X219199055Y-58196897D01*
X219002254Y-58135977D01*
X218996129Y-58135333D01*
X218996128Y-58135333D01*
X218803498Y-58115087D01*
X218803496Y-58115087D01*
X218797369Y-58114443D01*
X218710529Y-58122346D01*
X218598342Y-58132555D01*
X218598339Y-58132556D01*
X218592203Y-58133114D01*
X218394572Y-58191280D01*
X218212002Y-58286726D01*
X218207201Y-58290586D01*
X218207198Y-58290588D01*
X218093951Y-58381641D01*
X218051447Y-58415815D01*
X217919024Y-58573630D01*
X217916056Y-58579028D01*
X217916053Y-58579033D01*
X217853365Y-58693063D01*
X217819776Y-58754162D01*
X217757484Y-58950532D01*
X217756798Y-58956649D01*
X217756797Y-58956653D01*
X217740855Y-59098780D01*
X217734520Y-59155262D01*
X202064138Y-59155262D01*
X202045480Y-58964970D01*
X201985935Y-58767749D01*
X201889218Y-58585849D01*
X201792764Y-58467585D01*
X201762906Y-58430975D01*
X201762903Y-58430972D01*
X201759011Y-58426200D01*
X201725907Y-58398814D01*
X201605025Y-58298811D01*
X201605021Y-58298809D01*
X201600275Y-58294882D01*
X201419055Y-58196897D01*
X201222254Y-58135977D01*
X201216129Y-58135333D01*
X201216128Y-58135333D01*
X201023498Y-58115087D01*
X201023496Y-58115087D01*
X201017369Y-58114443D01*
X200930529Y-58122346D01*
X200818342Y-58132555D01*
X200818339Y-58132556D01*
X200812203Y-58133114D01*
X200614572Y-58191280D01*
X200432002Y-58286726D01*
X200427201Y-58290586D01*
X200427198Y-58290588D01*
X200313951Y-58381641D01*
X200271447Y-58415815D01*
X200139024Y-58573630D01*
X200136056Y-58579028D01*
X200136053Y-58579033D01*
X200073365Y-58693063D01*
X200039776Y-58754162D01*
X199977484Y-58950532D01*
X199976798Y-58956649D01*
X199976797Y-58956653D01*
X199960855Y-59098780D01*
X199954520Y-59155262D01*
X189781947Y-59155262D01*
X189766082Y-59139527D01*
X189750705Y-59070216D01*
X189775241Y-59003594D01*
X189808906Y-58972300D01*
X189810107Y-58971538D01*
X189815610Y-58968758D01*
X189977951Y-58841924D01*
X189983091Y-58835970D01*
X190108540Y-58690634D01*
X190108540Y-58690633D01*
X190112564Y-58685972D01*
X190133387Y-58649318D01*
X190169442Y-58585849D01*
X190214323Y-58506844D01*
X190279351Y-58311363D01*
X190305171Y-58106974D01*
X190305583Y-58077500D01*
X190285480Y-57872470D01*
X190254114Y-57768580D01*
X233518752Y-57768580D01*
X233543477Y-57886421D01*
X233546537Y-57896617D01*
X233627263Y-58101029D01*
X233631994Y-58110561D01*
X233746016Y-58298462D01*
X233752280Y-58307052D01*
X233896327Y-58473052D01*
X233903958Y-58480472D01*
X234073911Y-58619826D01*
X234082678Y-58625850D01*
X234273682Y-58734576D01*
X234283346Y-58739041D01*
X234489941Y-58814031D01*
X234500208Y-58816802D01*
X234717655Y-58856123D01*
X234725884Y-58857056D01*
X234730376Y-58857268D01*
X234743124Y-58853525D01*
X234744329Y-58852135D01*
X234746000Y-58844452D01*
X234746000Y-58835970D01*
X235254000Y-58835970D01*
X235258310Y-58850648D01*
X235270193Y-58852711D01*
X235374325Y-58843876D01*
X235384797Y-58842086D01*
X235597535Y-58786870D01*
X235607575Y-58783335D01*
X235807970Y-58693063D01*
X235817256Y-58687894D01*
X235999575Y-58565150D01*
X236007870Y-58558481D01*
X236166900Y-58406772D01*
X236173941Y-58398814D01*
X236305141Y-58222475D01*
X236310745Y-58213438D01*
X236410357Y-58017516D01*
X236414357Y-58007665D01*
X236479534Y-57797760D01*
X236481817Y-57787376D01*
X236483861Y-57771957D01*
X236481665Y-57757793D01*
X236468478Y-57754000D01*
X235272115Y-57754000D01*
X235256876Y-57758475D01*
X235255671Y-57759865D01*
X235254000Y-57767548D01*
X235254000Y-58835970D01*
X234746000Y-58835970D01*
X234746000Y-57772115D01*
X234741525Y-57756876D01*
X234740135Y-57755671D01*
X234732452Y-57754000D01*
X233533808Y-57754000D01*
X233520277Y-57757973D01*
X233518752Y-57768580D01*
X190254114Y-57768580D01*
X190225935Y-57675249D01*
X190129218Y-57493349D01*
X190051627Y-57398213D01*
X190002906Y-57338475D01*
X190002903Y-57338472D01*
X189999011Y-57333700D01*
X189994262Y-57329771D01*
X189845025Y-57206311D01*
X189845021Y-57206309D01*
X189840275Y-57202382D01*
X189718162Y-57136356D01*
X192616601Y-57136356D01*
X192623059Y-57145716D01*
X192639361Y-57160012D01*
X192645901Y-57165030D01*
X192885144Y-57324887D01*
X192892281Y-57329008D01*
X193150349Y-57456272D01*
X193157953Y-57459422D01*
X193430420Y-57551912D01*
X193438383Y-57554046D01*
X193720600Y-57610183D01*
X193728751Y-57611256D01*
X194015881Y-57630075D01*
X194024119Y-57630075D01*
X194311249Y-57611256D01*
X194319400Y-57610183D01*
X194601617Y-57554046D01*
X194609580Y-57551912D01*
X194882047Y-57459422D01*
X194889651Y-57456272D01*
X195147719Y-57329008D01*
X195154856Y-57324887D01*
X195394099Y-57165030D01*
X195400639Y-57160012D01*
X195415074Y-57147353D01*
X195423472Y-57134114D01*
X195417638Y-57124349D01*
X194032810Y-55739520D01*
X194018869Y-55731908D01*
X194017034Y-55732039D01*
X194010420Y-55736290D01*
X192624116Y-57122595D01*
X192616601Y-57136356D01*
X189718162Y-57136356D01*
X189659055Y-57104397D01*
X189462254Y-57043477D01*
X189456129Y-57042833D01*
X189456128Y-57042833D01*
X189263498Y-57022587D01*
X189263496Y-57022587D01*
X189257369Y-57021943D01*
X189170529Y-57029846D01*
X189058342Y-57040055D01*
X189058339Y-57040056D01*
X189052203Y-57040614D01*
X188854572Y-57098780D01*
X188672002Y-57194226D01*
X188667201Y-57198086D01*
X188667198Y-57198088D01*
X188516254Y-57319450D01*
X188511447Y-57323315D01*
X188379024Y-57481130D01*
X188376056Y-57486528D01*
X188376053Y-57486533D01*
X188340111Y-57551912D01*
X188279776Y-57661662D01*
X188278871Y-57664515D01*
X188234349Y-57718403D01*
X188166717Y-57739999D01*
X188098146Y-57721603D01*
X188050405Y-57669054D01*
X188041553Y-57644724D01*
X188041215Y-57643378D01*
X188037894Y-57633624D01*
X187952972Y-57438314D01*
X187948105Y-57429239D01*
X187883063Y-57328697D01*
X187872377Y-57319495D01*
X187862812Y-57323898D01*
X186839095Y-58347615D01*
X186776783Y-58381641D01*
X186705968Y-58376576D01*
X186660905Y-58347615D01*
X185639849Y-57326559D01*
X185628313Y-57320259D01*
X185616031Y-57329882D01*
X185568089Y-57400162D01*
X185563004Y-57409113D01*
X185473338Y-57602283D01*
X185469775Y-57611970D01*
X185412864Y-57817181D01*
X185410933Y-57827300D01*
X185388302Y-58039074D01*
X185388050Y-58049363D01*
X172100000Y-58049363D01*
X172100000Y-57136356D01*
X180576601Y-57136356D01*
X180583059Y-57145716D01*
X180599361Y-57160012D01*
X180605901Y-57165030D01*
X180845144Y-57324887D01*
X180852281Y-57329008D01*
X181110349Y-57456272D01*
X181117953Y-57459422D01*
X181390420Y-57551912D01*
X181398383Y-57554046D01*
X181680600Y-57610183D01*
X181688751Y-57611256D01*
X181975881Y-57630075D01*
X181984119Y-57630075D01*
X182271249Y-57611256D01*
X182279400Y-57610183D01*
X182561617Y-57554046D01*
X182569580Y-57551912D01*
X182842047Y-57459422D01*
X182849651Y-57456272D01*
X183107719Y-57329008D01*
X183114856Y-57324887D01*
X183354099Y-57165030D01*
X183360639Y-57160012D01*
X183375074Y-57147353D01*
X183383472Y-57134114D01*
X183377638Y-57124349D01*
X183207216Y-56953927D01*
X185991223Y-56953927D01*
X185997968Y-56966258D01*
X186737188Y-57705478D01*
X186751132Y-57713092D01*
X186752965Y-57712961D01*
X186759580Y-57708710D01*
X187503389Y-56964901D01*
X187510410Y-56952044D01*
X187503611Y-56942713D01*
X187499554Y-56940018D01*
X187313117Y-56837099D01*
X187303705Y-56832869D01*
X187102959Y-56761780D01*
X187092989Y-56759146D01*
X186883327Y-56721801D01*
X186873073Y-56720831D01*
X186660116Y-56718228D01*
X186649832Y-56718948D01*
X186439321Y-56751161D01*
X186429293Y-56753550D01*
X186226868Y-56819712D01*
X186217359Y-56823709D01*
X186028466Y-56922040D01*
X186019734Y-56927539D01*
X185999677Y-56942599D01*
X185991223Y-56953927D01*
X183207216Y-56953927D01*
X181992810Y-55739520D01*
X181978869Y-55731908D01*
X181977034Y-55732039D01*
X181970420Y-55736290D01*
X180584116Y-57122595D01*
X180576601Y-57136356D01*
X172100000Y-57136356D01*
X172100000Y-55371619D01*
X179717425Y-55371619D01*
X179736244Y-55658749D01*
X179737317Y-55666900D01*
X179793454Y-55949117D01*
X179795588Y-55957080D01*
X179888078Y-56229547D01*
X179891228Y-56237151D01*
X180018492Y-56495218D01*
X180022613Y-56502355D01*
X180182470Y-56741599D01*
X180187488Y-56748139D01*
X180200147Y-56762574D01*
X180213386Y-56770972D01*
X180223151Y-56765138D01*
X181607980Y-55380310D01*
X181614357Y-55368631D01*
X182344408Y-55368631D01*
X182344539Y-55370466D01*
X182348790Y-55377080D01*
X183735095Y-56763384D01*
X183748856Y-56770899D01*
X183758216Y-56764441D01*
X183772512Y-56748139D01*
X183777530Y-56741599D01*
X183937387Y-56502355D01*
X183941508Y-56495218D01*
X184068772Y-56237151D01*
X184071922Y-56229547D01*
X184164412Y-55957080D01*
X184166546Y-55949117D01*
X184222683Y-55666900D01*
X184223756Y-55658749D01*
X184242575Y-55371619D01*
X191757425Y-55371619D01*
X191776244Y-55658749D01*
X191777317Y-55666900D01*
X191833454Y-55949117D01*
X191835588Y-55957080D01*
X191928078Y-56229547D01*
X191931228Y-56237151D01*
X192058492Y-56495218D01*
X192062613Y-56502355D01*
X192222470Y-56741599D01*
X192227488Y-56748139D01*
X192240147Y-56762574D01*
X192253386Y-56770972D01*
X192263151Y-56765138D01*
X193647980Y-55380310D01*
X193654357Y-55368631D01*
X194384408Y-55368631D01*
X194384539Y-55370466D01*
X194388790Y-55377080D01*
X195775095Y-56763384D01*
X195788856Y-56770899D01*
X195798216Y-56764441D01*
X195812512Y-56748139D01*
X195817530Y-56741599D01*
X195901945Y-56615262D01*
X199954520Y-56615262D01*
X199955036Y-56621406D01*
X199968905Y-56786562D01*
X199971759Y-56820553D01*
X199973458Y-56826478D01*
X200021017Y-56992335D01*
X200028544Y-57018586D01*
X200031359Y-57024063D01*
X200031360Y-57024066D01*
X200117342Y-57191369D01*
X200122712Y-57201818D01*
X200250677Y-57363270D01*
X200255370Y-57367264D01*
X200255371Y-57367265D01*
X200338854Y-57438314D01*
X200407564Y-57496791D01*
X200587398Y-57597297D01*
X200682238Y-57628113D01*
X200777471Y-57659056D01*
X200777475Y-57659057D01*
X200783329Y-57660959D01*
X200987894Y-57685351D01*
X200994029Y-57684879D01*
X200994031Y-57684879D01*
X201050039Y-57680569D01*
X201193300Y-57669546D01*
X201199230Y-57667890D01*
X201199232Y-57667890D01*
X201385797Y-57615800D01*
X201385796Y-57615800D01*
X201391725Y-57614145D01*
X201397214Y-57611372D01*
X201397220Y-57611370D01*
X201570116Y-57524033D01*
X201575610Y-57521258D01*
X201737951Y-57394424D01*
X201786245Y-57338475D01*
X201868540Y-57243134D01*
X201868540Y-57243133D01*
X201872564Y-57238472D01*
X201893387Y-57201818D01*
X201951920Y-57098780D01*
X201974323Y-57059344D01*
X202039351Y-56863863D01*
X202065171Y-56659474D01*
X202065583Y-56630000D01*
X202064138Y-56615262D01*
X217734520Y-56615262D01*
X217735036Y-56621406D01*
X217748905Y-56786562D01*
X217751759Y-56820553D01*
X217753458Y-56826478D01*
X217801017Y-56992335D01*
X217808544Y-57018586D01*
X217811359Y-57024063D01*
X217811360Y-57024066D01*
X217897342Y-57191369D01*
X217902712Y-57201818D01*
X218030677Y-57363270D01*
X218035370Y-57367264D01*
X218035371Y-57367265D01*
X218118854Y-57438314D01*
X218187564Y-57496791D01*
X218367398Y-57597297D01*
X218462238Y-57628113D01*
X218557471Y-57659056D01*
X218557475Y-57659057D01*
X218563329Y-57660959D01*
X218767894Y-57685351D01*
X218774029Y-57684879D01*
X218774031Y-57684879D01*
X218830039Y-57680569D01*
X218973300Y-57669546D01*
X218979230Y-57667890D01*
X218979232Y-57667890D01*
X219165797Y-57615800D01*
X219165796Y-57615800D01*
X219171725Y-57614145D01*
X219177214Y-57611372D01*
X219177220Y-57611370D01*
X219350116Y-57524033D01*
X219355610Y-57521258D01*
X219517951Y-57394424D01*
X219566245Y-57338475D01*
X219648540Y-57243134D01*
X219648540Y-57243133D01*
X219652564Y-57238472D01*
X219658489Y-57228043D01*
X233516139Y-57228043D01*
X233518335Y-57242207D01*
X233531522Y-57246000D01*
X236466192Y-57246000D01*
X236479723Y-57242027D01*
X236481248Y-57231420D01*
X236456523Y-57113579D01*
X236453463Y-57103383D01*
X236372737Y-56898971D01*
X236368006Y-56889439D01*
X236253984Y-56701538D01*
X236247720Y-56692948D01*
X236103673Y-56526948D01*
X236096042Y-56519528D01*
X235926089Y-56380174D01*
X235917322Y-56374150D01*
X235760329Y-56284784D01*
X235711023Y-56233702D01*
X235697161Y-56164072D01*
X235723144Y-56098001D01*
X235780724Y-56056466D01*
X235810803Y-56049841D01*
X235819155Y-56049052D01*
X235827722Y-56048242D01*
X235827723Y-56048242D01*
X235835369Y-56047519D01*
X235963184Y-56002634D01*
X235970754Y-55997042D01*
X235970757Y-55997041D01*
X236064579Y-55927742D01*
X236072150Y-55922150D01*
X236109229Y-55871950D01*
X236147041Y-55820757D01*
X236147042Y-55820754D01*
X236152634Y-55813184D01*
X236197519Y-55685369D01*
X236200500Y-55653834D01*
X236200500Y-54346166D01*
X236197519Y-54314631D01*
X236152634Y-54186816D01*
X236147042Y-54179246D01*
X236147041Y-54179243D01*
X236077742Y-54085421D01*
X236072150Y-54077850D01*
X235998821Y-54023688D01*
X235970757Y-54002959D01*
X235970754Y-54002958D01*
X235963184Y-53997366D01*
X235835369Y-53952481D01*
X235827723Y-53951758D01*
X235827722Y-53951758D01*
X235821752Y-53951194D01*
X235803834Y-53949500D01*
X234196166Y-53949500D01*
X234178248Y-53951194D01*
X234172278Y-53951758D01*
X234172277Y-53951758D01*
X234164631Y-53952481D01*
X234036816Y-53997366D01*
X234029246Y-54002958D01*
X234029243Y-54002959D01*
X234001179Y-54023688D01*
X233927850Y-54077850D01*
X233922258Y-54085421D01*
X233852959Y-54179243D01*
X233852958Y-54179246D01*
X233847366Y-54186816D01*
X233802481Y-54314631D01*
X233799500Y-54346166D01*
X233799500Y-55653834D01*
X233802481Y-55685369D01*
X233847366Y-55813184D01*
X233852958Y-55820754D01*
X233852959Y-55820757D01*
X233890771Y-55871950D01*
X233927850Y-55922150D01*
X233935421Y-55927742D01*
X234029243Y-55997041D01*
X234029246Y-55997042D01*
X234036816Y-56002634D01*
X234164631Y-56047519D01*
X234172275Y-56048242D01*
X234172277Y-56048242D01*
X234189342Y-56049855D01*
X234255278Y-56076180D01*
X234296514Y-56133973D01*
X234299959Y-56204886D01*
X234264519Y-56266404D01*
X234229234Y-56290178D01*
X234192030Y-56306937D01*
X234182744Y-56312106D01*
X234000425Y-56434850D01*
X233992130Y-56441519D01*
X233833100Y-56593228D01*
X233826059Y-56601186D01*
X233694859Y-56777525D01*
X233689255Y-56786562D01*
X233589643Y-56982484D01*
X233585643Y-56992335D01*
X233520466Y-57202240D01*
X233518183Y-57212624D01*
X233516139Y-57228043D01*
X219658489Y-57228043D01*
X219673387Y-57201818D01*
X219731920Y-57098780D01*
X219754323Y-57059344D01*
X219819351Y-56863863D01*
X219845171Y-56659474D01*
X219845583Y-56630000D01*
X219825480Y-56424970D01*
X219765935Y-56227749D01*
X219669218Y-56045849D01*
X219572892Y-55927742D01*
X219542906Y-55890975D01*
X219542903Y-55890972D01*
X219539011Y-55886200D01*
X219521786Y-55871950D01*
X219385025Y-55758811D01*
X219385021Y-55758809D01*
X219380275Y-55754882D01*
X219199055Y-55656897D01*
X219002254Y-55595977D01*
X218996129Y-55595333D01*
X218996128Y-55595333D01*
X218803498Y-55575087D01*
X218803496Y-55575087D01*
X218797369Y-55574443D01*
X218710529Y-55582346D01*
X218598342Y-55592555D01*
X218598339Y-55592556D01*
X218592203Y-55593114D01*
X218394572Y-55651280D01*
X218212002Y-55746726D01*
X218207201Y-55750586D01*
X218207198Y-55750588D01*
X218056254Y-55871950D01*
X218051447Y-55875815D01*
X217919024Y-56033630D01*
X217916056Y-56039028D01*
X217916053Y-56039033D01*
X217822743Y-56208765D01*
X217819776Y-56214162D01*
X217757484Y-56410532D01*
X217756798Y-56416649D01*
X217756797Y-56416653D01*
X217754756Y-56434850D01*
X217734520Y-56615262D01*
X202064138Y-56615262D01*
X202045480Y-56424970D01*
X201985935Y-56227749D01*
X201889218Y-56045849D01*
X201792892Y-55927742D01*
X201762906Y-55890975D01*
X201762903Y-55890972D01*
X201759011Y-55886200D01*
X201741786Y-55871950D01*
X201605025Y-55758811D01*
X201605021Y-55758809D01*
X201600275Y-55754882D01*
X201419055Y-55656897D01*
X201222254Y-55595977D01*
X201216129Y-55595333D01*
X201216128Y-55595333D01*
X201023498Y-55575087D01*
X201023496Y-55575087D01*
X201017369Y-55574443D01*
X200930529Y-55582346D01*
X200818342Y-55592555D01*
X200818339Y-55592556D01*
X200812203Y-55593114D01*
X200614572Y-55651280D01*
X200432002Y-55746726D01*
X200427201Y-55750586D01*
X200427198Y-55750588D01*
X200276254Y-55871950D01*
X200271447Y-55875815D01*
X200139024Y-56033630D01*
X200136056Y-56039028D01*
X200136053Y-56039033D01*
X200042743Y-56208765D01*
X200039776Y-56214162D01*
X199977484Y-56410532D01*
X199976798Y-56416649D01*
X199976797Y-56416653D01*
X199974756Y-56434850D01*
X199954520Y-56615262D01*
X195901945Y-56615262D01*
X195977387Y-56502355D01*
X195981508Y-56495218D01*
X196108772Y-56237151D01*
X196111922Y-56229547D01*
X196204412Y-55957080D01*
X196206546Y-55949117D01*
X196262683Y-55666900D01*
X196263756Y-55658749D01*
X196282575Y-55371619D01*
X196282575Y-55363381D01*
X196263756Y-55076251D01*
X196262683Y-55068100D01*
X196206546Y-54785883D01*
X196204412Y-54777920D01*
X196111922Y-54505453D01*
X196108772Y-54497849D01*
X195981508Y-54239782D01*
X195977387Y-54232645D01*
X195817530Y-53993401D01*
X195812512Y-53986861D01*
X195799853Y-53972426D01*
X195786614Y-53964028D01*
X195776849Y-53969862D01*
X194392020Y-55354690D01*
X194384408Y-55368631D01*
X193654357Y-55368631D01*
X193655592Y-55366369D01*
X193655461Y-55364534D01*
X193651210Y-55357920D01*
X192264905Y-53971616D01*
X192251144Y-53964101D01*
X192241784Y-53970559D01*
X192227488Y-53986861D01*
X192222470Y-53993401D01*
X192062613Y-54232645D01*
X192058492Y-54239782D01*
X191931228Y-54497849D01*
X191928078Y-54505453D01*
X191835588Y-54777920D01*
X191833454Y-54785883D01*
X191777317Y-55068100D01*
X191776244Y-55076251D01*
X191757425Y-55363381D01*
X191757425Y-55371619D01*
X184242575Y-55371619D01*
X184242575Y-55363381D01*
X184223756Y-55076251D01*
X184222683Y-55068100D01*
X184166546Y-54785883D01*
X184164412Y-54777920D01*
X184071922Y-54505453D01*
X184068772Y-54497849D01*
X183941508Y-54239782D01*
X183937387Y-54232645D01*
X183777530Y-53993401D01*
X183772512Y-53986861D01*
X183759853Y-53972426D01*
X183746614Y-53964028D01*
X183736849Y-53969862D01*
X182352020Y-55354690D01*
X182344408Y-55368631D01*
X181614357Y-55368631D01*
X181615592Y-55366369D01*
X181615461Y-55364534D01*
X181611210Y-55357920D01*
X180224905Y-53971616D01*
X180211144Y-53964101D01*
X180201784Y-53970559D01*
X180187488Y-53986861D01*
X180182470Y-53993401D01*
X180022613Y-54232645D01*
X180018492Y-54239782D01*
X179891228Y-54497849D01*
X179888078Y-54505453D01*
X179795588Y-54777920D01*
X179793454Y-54785883D01*
X179737317Y-55068100D01*
X179736244Y-55076251D01*
X179717425Y-55363381D01*
X179717425Y-55371619D01*
X172100000Y-55371619D01*
X172100000Y-53600886D01*
X180576528Y-53600886D01*
X180582362Y-53610651D01*
X181967190Y-54995480D01*
X181981131Y-55003092D01*
X181982966Y-55002961D01*
X181989580Y-54998710D01*
X183375884Y-53612405D01*
X183382175Y-53600886D01*
X192616528Y-53600886D01*
X192622362Y-53610651D01*
X194007190Y-54995480D01*
X194021131Y-55003092D01*
X194022966Y-55002961D01*
X194029580Y-54998710D01*
X195415884Y-53612405D01*
X195423399Y-53598644D01*
X195416941Y-53589284D01*
X195400639Y-53574988D01*
X195394099Y-53569970D01*
X195154856Y-53410113D01*
X195147719Y-53405992D01*
X194889651Y-53278728D01*
X194882047Y-53275578D01*
X194609580Y-53183088D01*
X194601617Y-53180954D01*
X194319400Y-53124817D01*
X194311249Y-53123744D01*
X194024119Y-53104925D01*
X194015881Y-53104925D01*
X193728751Y-53123744D01*
X193720600Y-53124817D01*
X193438383Y-53180954D01*
X193430420Y-53183088D01*
X193157953Y-53275578D01*
X193150349Y-53278728D01*
X192892282Y-53405992D01*
X192885145Y-53410113D01*
X192645901Y-53569970D01*
X192639361Y-53574988D01*
X192624926Y-53587647D01*
X192616528Y-53600886D01*
X183382175Y-53600886D01*
X183383399Y-53598644D01*
X183376941Y-53589284D01*
X183360639Y-53574988D01*
X183354099Y-53569970D01*
X183114856Y-53410113D01*
X183107719Y-53405992D01*
X182849651Y-53278728D01*
X182842047Y-53275578D01*
X182569580Y-53183088D01*
X182561617Y-53180954D01*
X182279400Y-53124817D01*
X182271249Y-53123744D01*
X181984119Y-53104925D01*
X181975881Y-53104925D01*
X181688751Y-53123744D01*
X181680600Y-53124817D01*
X181398383Y-53180954D01*
X181390420Y-53183088D01*
X181117953Y-53275578D01*
X181110349Y-53278728D01*
X180852282Y-53405992D01*
X180845145Y-53410113D01*
X180605901Y-53569970D01*
X180599361Y-53574988D01*
X180584926Y-53587647D01*
X180576528Y-53600886D01*
X172100000Y-53600886D01*
X172100000Y-52444669D01*
X199652001Y-52444669D01*
X199652371Y-52451490D01*
X199657895Y-52502352D01*
X199661521Y-52517604D01*
X199706676Y-52638054D01*
X199715214Y-52653649D01*
X199791715Y-52755724D01*
X199804276Y-52768285D01*
X199906351Y-52844786D01*
X199921946Y-52853324D01*
X200042394Y-52898478D01*
X200057649Y-52902105D01*
X200108514Y-52907631D01*
X200115328Y-52908000D01*
X200490432Y-52908000D01*
X200558553Y-52928002D01*
X200605046Y-52981658D01*
X200615150Y-53051932D01*
X200585656Y-53116512D01*
X200548812Y-53145659D01*
X200432002Y-53206726D01*
X200427201Y-53210586D01*
X200427198Y-53210588D01*
X200353265Y-53270032D01*
X200271447Y-53335815D01*
X200139024Y-53493630D01*
X200136056Y-53499028D01*
X200136053Y-53499033D01*
X200074691Y-53610651D01*
X200039776Y-53674162D01*
X199977484Y-53870532D01*
X199976798Y-53876649D01*
X199976797Y-53876653D01*
X199966055Y-53972426D01*
X199954520Y-54075262D01*
X199955036Y-54081406D01*
X199968043Y-54236295D01*
X199971759Y-54280553D01*
X200028544Y-54478586D01*
X200031359Y-54484063D01*
X200031360Y-54484066D01*
X200052247Y-54524707D01*
X200122712Y-54661818D01*
X200250677Y-54823270D01*
X200407564Y-54956791D01*
X200587398Y-55057297D01*
X200682238Y-55088113D01*
X200777471Y-55119056D01*
X200777475Y-55119057D01*
X200783329Y-55120959D01*
X200987894Y-55145351D01*
X200994029Y-55144879D01*
X200994031Y-55144879D01*
X201050039Y-55140569D01*
X201193300Y-55129546D01*
X201199230Y-55127890D01*
X201199232Y-55127890D01*
X201385797Y-55075800D01*
X201385796Y-55075800D01*
X201391725Y-55074145D01*
X201397214Y-55071372D01*
X201397220Y-55071370D01*
X201570116Y-54984033D01*
X201575610Y-54981258D01*
X201737951Y-54854424D01*
X201797114Y-54785883D01*
X201868540Y-54703134D01*
X201868540Y-54703133D01*
X201872564Y-54698472D01*
X201893387Y-54661818D01*
X201971276Y-54524707D01*
X201974323Y-54519344D01*
X202039351Y-54323863D01*
X202065171Y-54119474D01*
X202065583Y-54090000D01*
X202045480Y-53884970D01*
X201985935Y-53687749D01*
X201889218Y-53505849D01*
X201807776Y-53405992D01*
X201762906Y-53350975D01*
X201762903Y-53350972D01*
X201759011Y-53346200D01*
X201741786Y-53331950D01*
X201605025Y-53218811D01*
X201605021Y-53218809D01*
X201600275Y-53214882D01*
X201472255Y-53145662D01*
X201470726Y-53144835D01*
X201420317Y-53094840D01*
X201404940Y-53025529D01*
X201429476Y-52958907D01*
X201486136Y-52916126D01*
X201530655Y-52907999D01*
X201904669Y-52907999D01*
X201911490Y-52907629D01*
X201962352Y-52902105D01*
X201977604Y-52898479D01*
X202098054Y-52853324D01*
X202113649Y-52844786D01*
X202215724Y-52768285D01*
X202228285Y-52755724D01*
X202304786Y-52653649D01*
X202313324Y-52638054D01*
X202358478Y-52517606D01*
X202362105Y-52502351D01*
X202367631Y-52451486D01*
X202368000Y-52444672D01*
X202368000Y-52444669D01*
X217432001Y-52444669D01*
X217432371Y-52451490D01*
X217437895Y-52502352D01*
X217441521Y-52517604D01*
X217486676Y-52638054D01*
X217495214Y-52653649D01*
X217571715Y-52755724D01*
X217584276Y-52768285D01*
X217686351Y-52844786D01*
X217701946Y-52853324D01*
X217822394Y-52898478D01*
X217837649Y-52902105D01*
X217888514Y-52907631D01*
X217895328Y-52908000D01*
X218270432Y-52908000D01*
X218338553Y-52928002D01*
X218385046Y-52981658D01*
X218395150Y-53051932D01*
X218365656Y-53116512D01*
X218328812Y-53145659D01*
X218212002Y-53206726D01*
X218207201Y-53210586D01*
X218207198Y-53210588D01*
X218133265Y-53270032D01*
X218051447Y-53335815D01*
X217919024Y-53493630D01*
X217916056Y-53499028D01*
X217916053Y-53499033D01*
X217854691Y-53610651D01*
X217819776Y-53674162D01*
X217757484Y-53870532D01*
X217756798Y-53876649D01*
X217756797Y-53876653D01*
X217746055Y-53972426D01*
X217734520Y-54075262D01*
X217735036Y-54081406D01*
X217748043Y-54236295D01*
X217751759Y-54280553D01*
X217808544Y-54478586D01*
X217811359Y-54484063D01*
X217811360Y-54484066D01*
X217832247Y-54524707D01*
X217902712Y-54661818D01*
X218030677Y-54823270D01*
X218187564Y-54956791D01*
X218367398Y-55057297D01*
X218462238Y-55088113D01*
X218557471Y-55119056D01*
X218557475Y-55119057D01*
X218563329Y-55120959D01*
X218767894Y-55145351D01*
X218774029Y-55144879D01*
X218774031Y-55144879D01*
X218830039Y-55140569D01*
X218973300Y-55129546D01*
X218979230Y-55127890D01*
X218979232Y-55127890D01*
X219165797Y-55075800D01*
X219165796Y-55075800D01*
X219171725Y-55074145D01*
X219177214Y-55071372D01*
X219177220Y-55071370D01*
X219350116Y-54984033D01*
X219355610Y-54981258D01*
X219517951Y-54854424D01*
X219577114Y-54785883D01*
X219648540Y-54703134D01*
X219648540Y-54703133D01*
X219652564Y-54698472D01*
X219673387Y-54661818D01*
X219751276Y-54524707D01*
X219754323Y-54519344D01*
X219819351Y-54323863D01*
X219845171Y-54119474D01*
X219845583Y-54090000D01*
X219825480Y-53884970D01*
X219765935Y-53687749D01*
X219669218Y-53505849D01*
X219587776Y-53405992D01*
X219543941Y-53352244D01*
X232145819Y-53352244D01*
X232146176Y-53359061D01*
X232146176Y-53359065D01*
X232152981Y-53488903D01*
X232155490Y-53536781D01*
X232157301Y-53543354D01*
X232157301Y-53543357D01*
X232182930Y-53636402D01*
X232204562Y-53714936D01*
X232290746Y-53878398D01*
X232410020Y-54019540D01*
X232415444Y-54023687D01*
X232415445Y-54023688D01*
X232551399Y-54127633D01*
X232551403Y-54127636D01*
X232556820Y-54131777D01*
X232563000Y-54134659D01*
X232563002Y-54134660D01*
X232718120Y-54206993D01*
X232718123Y-54206994D01*
X232724297Y-54209873D01*
X232730942Y-54211358D01*
X232730947Y-54211360D01*
X232870871Y-54242635D01*
X232904637Y-54250183D01*
X232910307Y-54250500D01*
X233046164Y-54250500D01*
X233183709Y-54235558D01*
X233358848Y-54176617D01*
X233517244Y-54081443D01*
X233522206Y-54076751D01*
X233646549Y-53959165D01*
X233646551Y-53959163D01*
X233651507Y-53954476D01*
X233755375Y-53801640D01*
X233787639Y-53720975D01*
X233821466Y-53636402D01*
X233821467Y-53636397D01*
X233824000Y-53630065D01*
X233844564Y-53505849D01*
X233853066Y-53454494D01*
X233853066Y-53454490D01*
X233854181Y-53447756D01*
X233852209Y-53410113D01*
X233844867Y-53270032D01*
X233844510Y-53263219D01*
X233830389Y-53211951D01*
X233797251Y-53091646D01*
X233795438Y-53085064D01*
X233709254Y-52921602D01*
X233589980Y-52780460D01*
X233557627Y-52755724D01*
X233448601Y-52672367D01*
X233448597Y-52672364D01*
X233443180Y-52668223D01*
X233437000Y-52665341D01*
X233436998Y-52665340D01*
X233281880Y-52593007D01*
X233281877Y-52593006D01*
X233275703Y-52590127D01*
X233269058Y-52588642D01*
X233269053Y-52588640D01*
X233129129Y-52557365D01*
X233095363Y-52549817D01*
X233089693Y-52549500D01*
X232953836Y-52549500D01*
X232816291Y-52564442D01*
X232641152Y-52623383D01*
X232482756Y-52718557D01*
X232477796Y-52723248D01*
X232477794Y-52723249D01*
X232417296Y-52780460D01*
X232348493Y-52845524D01*
X232244625Y-52998360D01*
X232242092Y-53004694D01*
X232242090Y-53004697D01*
X232178534Y-53163598D01*
X232178533Y-53163603D01*
X232176000Y-53169935D01*
X232168559Y-53214882D01*
X232148539Y-53335815D01*
X232145819Y-53352244D01*
X219543941Y-53352244D01*
X219542906Y-53350975D01*
X219542903Y-53350972D01*
X219539011Y-53346200D01*
X219521786Y-53331950D01*
X219385025Y-53218811D01*
X219385021Y-53218809D01*
X219380275Y-53214882D01*
X219252255Y-53145662D01*
X219250726Y-53144835D01*
X219200317Y-53094840D01*
X219184940Y-53025529D01*
X219209476Y-52958907D01*
X219266136Y-52916126D01*
X219310655Y-52907999D01*
X219684669Y-52907999D01*
X219691490Y-52907629D01*
X219742352Y-52902105D01*
X219757604Y-52898479D01*
X219878054Y-52853324D01*
X219893649Y-52844786D01*
X219995724Y-52768285D01*
X220008285Y-52755724D01*
X220084786Y-52653649D01*
X220093324Y-52638054D01*
X220138478Y-52517606D01*
X220142105Y-52502351D01*
X220147631Y-52451486D01*
X220148000Y-52444672D01*
X220148000Y-51822115D01*
X220143525Y-51806876D01*
X220142135Y-51805671D01*
X220134452Y-51804000D01*
X217450116Y-51804000D01*
X217434877Y-51808475D01*
X217433672Y-51809865D01*
X217432001Y-51817548D01*
X217432001Y-52444669D01*
X202368000Y-52444669D01*
X202368000Y-51822115D01*
X202363525Y-51806876D01*
X202362135Y-51805671D01*
X202354452Y-51804000D01*
X199670116Y-51804000D01*
X199654877Y-51808475D01*
X199653672Y-51809865D01*
X199652001Y-51817548D01*
X199652001Y-52444669D01*
X172100000Y-52444669D01*
X172100000Y-51277885D01*
X199652000Y-51277885D01*
X199656475Y-51293124D01*
X199657865Y-51294329D01*
X199665548Y-51296000D01*
X202349884Y-51296000D01*
X202365123Y-51291525D01*
X202366328Y-51290135D01*
X202367999Y-51282452D01*
X202367999Y-51277885D01*
X217432000Y-51277885D01*
X217436475Y-51293124D01*
X217437865Y-51294329D01*
X217445548Y-51296000D01*
X220129884Y-51296000D01*
X220145123Y-51291525D01*
X220146328Y-51290135D01*
X220147999Y-51282452D01*
X220147999Y-50655331D01*
X220147629Y-50648510D01*
X220142105Y-50597648D01*
X220138479Y-50582396D01*
X220093324Y-50461946D01*
X220084786Y-50446351D01*
X220008285Y-50344276D01*
X219995724Y-50331715D01*
X219893649Y-50255214D01*
X219878054Y-50246676D01*
X219757606Y-50201522D01*
X219742351Y-50197895D01*
X219691486Y-50192369D01*
X219684672Y-50192000D01*
X219308932Y-50192000D01*
X219240811Y-50171998D01*
X219194318Y-50118342D01*
X219184214Y-50048068D01*
X219213708Y-49983488D01*
X219252121Y-49953534D01*
X219350116Y-49904033D01*
X219355610Y-49901258D01*
X219375021Y-49886093D01*
X219497971Y-49790034D01*
X219517951Y-49774424D01*
X219578036Y-49704815D01*
X219648540Y-49623134D01*
X219648540Y-49623133D01*
X219652564Y-49618472D01*
X219673387Y-49581818D01*
X219712003Y-49513841D01*
X219754323Y-49439344D01*
X219819351Y-49243863D01*
X219845171Y-49039474D01*
X219845583Y-49010000D01*
X219825480Y-48804970D01*
X219765935Y-48607749D01*
X219669218Y-48425849D01*
X219566516Y-48299924D01*
X219542906Y-48270975D01*
X219542903Y-48270972D01*
X219539011Y-48266200D01*
X219488920Y-48224761D01*
X219385025Y-48138811D01*
X219385021Y-48138809D01*
X219380275Y-48134882D01*
X219199055Y-48036897D01*
X219002254Y-47975977D01*
X218996129Y-47975333D01*
X218996128Y-47975333D01*
X218803498Y-47955087D01*
X218803496Y-47955087D01*
X218797369Y-47954443D01*
X218710529Y-47962346D01*
X218598342Y-47972555D01*
X218598339Y-47972556D01*
X218592203Y-47973114D01*
X218394572Y-48031280D01*
X218212002Y-48126726D01*
X218207201Y-48130586D01*
X218207198Y-48130588D01*
X218085741Y-48228242D01*
X218051447Y-48255815D01*
X217919024Y-48413630D01*
X217916056Y-48419028D01*
X217916053Y-48419033D01*
X217866625Y-48508944D01*
X217819776Y-48594162D01*
X217757484Y-48790532D01*
X217756798Y-48796649D01*
X217756797Y-48796653D01*
X217735207Y-48989137D01*
X217734520Y-48995262D01*
X217736053Y-49013522D01*
X217743551Y-49102802D01*
X217751759Y-49200553D01*
X217753458Y-49206478D01*
X217803187Y-49379903D01*
X217808544Y-49398586D01*
X217811359Y-49404063D01*
X217811360Y-49404066D01*
X217884591Y-49546558D01*
X217902712Y-49581818D01*
X218030677Y-49743270D01*
X218035370Y-49747264D01*
X218035371Y-49747265D01*
X218085625Y-49790034D01*
X218187564Y-49876791D01*
X218236308Y-49904033D01*
X218329315Y-49956013D01*
X218379020Y-50006707D01*
X218393428Y-50076226D01*
X218367964Y-50142499D01*
X218310713Y-50184484D01*
X218267844Y-50192001D01*
X217895331Y-50192001D01*
X217888510Y-50192371D01*
X217837648Y-50197895D01*
X217822396Y-50201521D01*
X217701946Y-50246676D01*
X217686351Y-50255214D01*
X217584276Y-50331715D01*
X217571715Y-50344276D01*
X217495214Y-50446351D01*
X217486676Y-50461946D01*
X217441522Y-50582394D01*
X217437895Y-50597649D01*
X217432369Y-50648514D01*
X217432000Y-50655328D01*
X217432000Y-51277885D01*
X202367999Y-51277885D01*
X202367999Y-50655331D01*
X202367629Y-50648510D01*
X202362105Y-50597648D01*
X202358479Y-50582396D01*
X202313324Y-50461946D01*
X202304786Y-50446351D01*
X202228285Y-50344276D01*
X202215724Y-50331715D01*
X202113649Y-50255214D01*
X202098054Y-50246676D01*
X201977606Y-50201522D01*
X201962351Y-50197895D01*
X201911486Y-50192369D01*
X201904672Y-50192000D01*
X201528932Y-50192000D01*
X201460811Y-50171998D01*
X201414318Y-50118342D01*
X201404214Y-50048068D01*
X201433708Y-49983488D01*
X201472121Y-49953534D01*
X201570116Y-49904033D01*
X201575610Y-49901258D01*
X201595021Y-49886093D01*
X201717971Y-49790034D01*
X201737951Y-49774424D01*
X201798036Y-49704815D01*
X201820210Y-49679126D01*
X206470541Y-49679126D01*
X206500935Y-49880097D01*
X206571119Y-50070852D01*
X206574479Y-50076272D01*
X206574480Y-50076273D01*
X206674863Y-50238176D01*
X206674866Y-50238180D01*
X206678226Y-50243599D01*
X206682612Y-50248237D01*
X206773432Y-50344276D01*
X206817881Y-50391280D01*
X206984379Y-50507863D01*
X207170919Y-50588586D01*
X207214301Y-50597649D01*
X207365144Y-50629162D01*
X207365149Y-50629163D01*
X207369880Y-50630151D01*
X207374762Y-50630407D01*
X207374871Y-50630413D01*
X207374887Y-50630413D01*
X207376539Y-50630500D01*
X207525800Y-50630500D01*
X207573793Y-50625625D01*
X207670868Y-50615765D01*
X207670870Y-50615765D01*
X207677216Y-50615120D01*
X207871172Y-50554338D01*
X208048944Y-50455797D01*
X208203271Y-50323523D01*
X208327848Y-50162919D01*
X208417587Y-49980545D01*
X208444613Y-49876791D01*
X208467212Y-49790034D01*
X208467212Y-49790031D01*
X208468822Y-49783852D01*
X208474310Y-49679126D01*
X211320541Y-49679126D01*
X211350935Y-49880097D01*
X211421119Y-50070852D01*
X211424479Y-50076272D01*
X211424480Y-50076273D01*
X211524863Y-50238176D01*
X211524866Y-50238180D01*
X211528226Y-50243599D01*
X211532612Y-50248237D01*
X211623432Y-50344276D01*
X211667881Y-50391280D01*
X211834379Y-50507863D01*
X212020919Y-50588586D01*
X212064301Y-50597649D01*
X212215144Y-50629162D01*
X212215149Y-50629163D01*
X212219880Y-50630151D01*
X212224762Y-50630407D01*
X212224871Y-50630413D01*
X212224887Y-50630413D01*
X212226539Y-50630500D01*
X212375800Y-50630500D01*
X212423793Y-50625625D01*
X212520868Y-50615765D01*
X212520870Y-50615765D01*
X212527216Y-50615120D01*
X212721172Y-50554338D01*
X212898944Y-50455797D01*
X213053271Y-50323523D01*
X213177848Y-50162919D01*
X213267587Y-49980545D01*
X213294613Y-49876791D01*
X213317212Y-49790034D01*
X213317212Y-49790031D01*
X213318822Y-49783852D01*
X213326566Y-49636086D01*
X213329125Y-49587256D01*
X213329125Y-49587252D01*
X213329459Y-49580874D01*
X213299065Y-49379903D01*
X213228881Y-49189148D01*
X213175345Y-49102802D01*
X213125137Y-49021824D01*
X213125134Y-49021820D01*
X213121774Y-49016401D01*
X212982119Y-48868720D01*
X212815621Y-48752137D01*
X212629081Y-48671414D01*
X212583053Y-48661798D01*
X212434856Y-48630838D01*
X212434851Y-48630837D01*
X212430120Y-48629849D01*
X212425238Y-48629593D01*
X212425129Y-48629587D01*
X212425113Y-48629587D01*
X212423461Y-48629500D01*
X212274200Y-48629500D01*
X212226207Y-48634375D01*
X212129132Y-48644235D01*
X212129130Y-48644235D01*
X212122784Y-48644880D01*
X211928828Y-48705662D01*
X211751056Y-48804203D01*
X211596729Y-48936477D01*
X211592822Y-48941514D01*
X211592820Y-48941516D01*
X211546365Y-49001406D01*
X211472152Y-49097081D01*
X211382413Y-49279455D01*
X211380804Y-49285633D01*
X211380803Y-49285635D01*
X211340765Y-49439344D01*
X211331178Y-49476148D01*
X211327622Y-49543999D01*
X211322741Y-49637154D01*
X211320541Y-49679126D01*
X208474310Y-49679126D01*
X208476566Y-49636086D01*
X208479125Y-49587256D01*
X208479125Y-49587252D01*
X208479459Y-49580874D01*
X208449065Y-49379903D01*
X208378881Y-49189148D01*
X208325345Y-49102802D01*
X208275137Y-49021824D01*
X208275134Y-49021820D01*
X208271774Y-49016401D01*
X208132119Y-48868720D01*
X207965621Y-48752137D01*
X207779081Y-48671414D01*
X207733053Y-48661798D01*
X207584856Y-48630838D01*
X207584851Y-48630837D01*
X207580120Y-48629849D01*
X207575238Y-48629593D01*
X207575129Y-48629587D01*
X207575113Y-48629587D01*
X207573461Y-48629500D01*
X207424200Y-48629500D01*
X207376207Y-48634375D01*
X207279132Y-48644235D01*
X207279130Y-48644235D01*
X207272784Y-48644880D01*
X207078828Y-48705662D01*
X206901056Y-48804203D01*
X206746729Y-48936477D01*
X206742822Y-48941514D01*
X206742820Y-48941516D01*
X206696365Y-49001406D01*
X206622152Y-49097081D01*
X206532413Y-49279455D01*
X206530804Y-49285633D01*
X206530803Y-49285635D01*
X206490765Y-49439344D01*
X206481178Y-49476148D01*
X206477622Y-49543999D01*
X206472741Y-49637154D01*
X206470541Y-49679126D01*
X201820210Y-49679126D01*
X201868540Y-49623134D01*
X201868540Y-49623133D01*
X201872564Y-49618472D01*
X201893387Y-49581818D01*
X201932003Y-49513841D01*
X201974323Y-49439344D01*
X202039351Y-49243863D01*
X202065171Y-49039474D01*
X202065583Y-49010000D01*
X202045480Y-48804970D01*
X201985935Y-48607749D01*
X201889218Y-48425849D01*
X201786516Y-48299924D01*
X201762906Y-48270975D01*
X201762903Y-48270972D01*
X201759011Y-48266200D01*
X201708920Y-48224761D01*
X201605025Y-48138811D01*
X201605021Y-48138809D01*
X201600275Y-48134882D01*
X201419055Y-48036897D01*
X201222254Y-47975977D01*
X201216129Y-47975333D01*
X201216128Y-47975333D01*
X201023498Y-47955087D01*
X201023496Y-47955087D01*
X201017369Y-47954443D01*
X200930529Y-47962346D01*
X200818342Y-47972555D01*
X200818339Y-47972556D01*
X200812203Y-47973114D01*
X200614572Y-48031280D01*
X200432002Y-48126726D01*
X200427201Y-48130586D01*
X200427198Y-48130588D01*
X200305741Y-48228242D01*
X200271447Y-48255815D01*
X200139024Y-48413630D01*
X200136056Y-48419028D01*
X200136053Y-48419033D01*
X200086625Y-48508944D01*
X200039776Y-48594162D01*
X199977484Y-48790532D01*
X199976798Y-48796649D01*
X199976797Y-48796653D01*
X199955207Y-48989137D01*
X199954520Y-48995262D01*
X199956053Y-49013522D01*
X199963551Y-49102802D01*
X199971759Y-49200553D01*
X199973458Y-49206478D01*
X200023187Y-49379903D01*
X200028544Y-49398586D01*
X200031359Y-49404063D01*
X200031360Y-49404066D01*
X200104591Y-49546558D01*
X200122712Y-49581818D01*
X200250677Y-49743270D01*
X200255370Y-49747264D01*
X200255371Y-49747265D01*
X200305625Y-49790034D01*
X200407564Y-49876791D01*
X200456308Y-49904033D01*
X200549315Y-49956013D01*
X200599020Y-50006707D01*
X200613428Y-50076226D01*
X200587964Y-50142499D01*
X200530713Y-50184484D01*
X200487844Y-50192001D01*
X200115331Y-50192001D01*
X200108510Y-50192371D01*
X200057648Y-50197895D01*
X200042396Y-50201521D01*
X199921946Y-50246676D01*
X199906351Y-50255214D01*
X199804276Y-50331715D01*
X199791715Y-50344276D01*
X199715214Y-50446351D01*
X199706676Y-50461946D01*
X199661522Y-50582394D01*
X199657895Y-50597649D01*
X199652369Y-50648514D01*
X199652000Y-50655328D01*
X199652000Y-51277885D01*
X172100000Y-51277885D01*
X172100000Y-47546799D01*
X172120002Y-47478678D01*
X172173658Y-47432185D01*
X172243932Y-47422081D01*
X172308512Y-47451575D01*
X172346896Y-47511301D01*
X172350180Y-47525461D01*
X172357666Y-47569024D01*
X172366045Y-47617789D01*
X172367133Y-47621428D01*
X172367134Y-47621431D01*
X172405655Y-47750234D01*
X172459341Y-47929749D01*
X172460854Y-47933220D01*
X172460856Y-47933226D01*
X172492356Y-48005498D01*
X172589439Y-48228242D01*
X172591362Y-48231514D01*
X172591364Y-48231517D01*
X172611753Y-48266200D01*
X172754455Y-48508944D01*
X172756756Y-48511959D01*
X172949698Y-48764775D01*
X172949703Y-48764781D01*
X172951998Y-48767788D01*
X173179208Y-49001025D01*
X173432792Y-49205276D01*
X173561644Y-49285635D01*
X173703184Y-49373907D01*
X173709078Y-49377583D01*
X174004063Y-49515451D01*
X174007672Y-49516634D01*
X174301983Y-49613114D01*
X174313474Y-49616881D01*
X174632830Y-49680405D01*
X174636602Y-49680692D01*
X174636610Y-49680693D01*
X174953728Y-49704815D01*
X174953733Y-49704815D01*
X174957505Y-49705102D01*
X175282795Y-49690615D01*
X175603989Y-49637154D01*
X175916434Y-49545493D01*
X176215604Y-49416959D01*
X176218882Y-49415055D01*
X176218888Y-49415052D01*
X176452334Y-49279455D01*
X176497165Y-49253415D01*
X176757040Y-49057230D01*
X176886609Y-48932325D01*
X176988730Y-48833881D01*
X176988733Y-48833877D01*
X176991464Y-48831245D01*
X177010096Y-48808359D01*
X177194643Y-48581678D01*
X177194647Y-48581672D01*
X177197040Y-48578733D01*
X177370792Y-48303354D01*
X177498338Y-48034137D01*
X177508577Y-48012525D01*
X177510202Y-48009095D01*
X177613251Y-47700218D01*
X177678446Y-47381199D01*
X177704843Y-47056658D01*
X177705436Y-47000000D01*
X177701429Y-46933524D01*
X177686069Y-46678755D01*
X177686069Y-46678751D01*
X177685841Y-46674977D01*
X177681399Y-46650651D01*
X177645714Y-46455262D01*
X199954520Y-46455262D01*
X199955036Y-46461406D01*
X199970298Y-46643151D01*
X199971759Y-46660553D01*
X200028544Y-46858586D01*
X200031359Y-46864063D01*
X200031360Y-46864066D01*
X200102362Y-47002221D01*
X200122712Y-47041818D01*
X200250677Y-47203270D01*
X200407564Y-47336791D01*
X200587398Y-47437297D01*
X200653119Y-47458651D01*
X200777471Y-47499056D01*
X200777475Y-47499057D01*
X200783329Y-47500959D01*
X200987894Y-47525351D01*
X200994029Y-47524879D01*
X200994031Y-47524879D01*
X201050039Y-47520569D01*
X201193300Y-47509546D01*
X201199230Y-47507890D01*
X201199232Y-47507890D01*
X201385797Y-47455800D01*
X201385796Y-47455800D01*
X201391725Y-47454145D01*
X201397214Y-47451372D01*
X201397220Y-47451370D01*
X201529952Y-47384322D01*
X201575610Y-47361258D01*
X201737951Y-47234424D01*
X201832788Y-47124554D01*
X201868540Y-47083134D01*
X201868540Y-47083133D01*
X201872564Y-47078472D01*
X201883687Y-47058893D01*
X201931082Y-46975461D01*
X201974323Y-46899344D01*
X202039351Y-46703863D01*
X202041020Y-46690654D01*
X206023133Y-46690654D01*
X206058941Y-46899047D01*
X206132127Y-47097425D01*
X206135079Y-47102386D01*
X206135079Y-47102387D01*
X206213633Y-47234424D01*
X206240238Y-47279144D01*
X206379655Y-47438119D01*
X206545708Y-47569024D01*
X206550819Y-47571713D01*
X206550822Y-47571715D01*
X206581241Y-47587719D01*
X206732836Y-47667477D01*
X206934773Y-47730180D01*
X206940510Y-47730859D01*
X207102768Y-47750064D01*
X207102775Y-47750064D01*
X207106455Y-47750500D01*
X207228641Y-47750500D01*
X207385560Y-47736081D01*
X207391122Y-47734512D01*
X207391124Y-47734512D01*
X207447225Y-47718690D01*
X207589069Y-47678686D01*
X207594247Y-47676133D01*
X207594251Y-47676131D01*
X207773531Y-47587719D01*
X207778710Y-47585165D01*
X207948133Y-47458651D01*
X208041665Y-47357469D01*
X208087743Y-47307622D01*
X208087745Y-47307620D01*
X208091663Y-47303381D01*
X208094744Y-47298498D01*
X208201416Y-47129434D01*
X208201416Y-47129433D01*
X208204495Y-47124554D01*
X208282848Y-46928160D01*
X208283973Y-46922503D01*
X208283975Y-46922497D01*
X208322972Y-46726442D01*
X208322972Y-46726440D01*
X208324099Y-46720775D01*
X208324321Y-46703863D01*
X208324494Y-46690654D01*
X211473133Y-46690654D01*
X211508941Y-46899047D01*
X211582127Y-47097425D01*
X211585079Y-47102386D01*
X211585079Y-47102387D01*
X211663633Y-47234424D01*
X211690238Y-47279144D01*
X211829655Y-47438119D01*
X211995708Y-47569024D01*
X212000819Y-47571713D01*
X212000822Y-47571715D01*
X212031241Y-47587719D01*
X212182836Y-47667477D01*
X212384773Y-47730180D01*
X212390510Y-47730859D01*
X212552768Y-47750064D01*
X212552775Y-47750064D01*
X212556455Y-47750500D01*
X212678641Y-47750500D01*
X212835560Y-47736081D01*
X212841122Y-47734512D01*
X212841124Y-47734512D01*
X212897225Y-47718690D01*
X213039069Y-47678686D01*
X213044247Y-47676133D01*
X213044251Y-47676131D01*
X213223531Y-47587719D01*
X213228710Y-47585165D01*
X213398133Y-47458651D01*
X213491665Y-47357469D01*
X213537743Y-47307622D01*
X213537745Y-47307620D01*
X213541663Y-47303381D01*
X213544744Y-47298498D01*
X213651416Y-47129434D01*
X213651416Y-47129433D01*
X213654495Y-47124554D01*
X213732848Y-46928160D01*
X213733973Y-46922503D01*
X213733975Y-46922497D01*
X213772972Y-46726442D01*
X213772972Y-46726440D01*
X213774099Y-46720775D01*
X213774321Y-46703863D01*
X213775942Y-46580024D01*
X213776867Y-46509346D01*
X213767574Y-46455262D01*
X217734520Y-46455262D01*
X217735036Y-46461406D01*
X217750298Y-46643151D01*
X217751759Y-46660553D01*
X217808544Y-46858586D01*
X217811359Y-46864063D01*
X217811360Y-46864066D01*
X217882362Y-47002221D01*
X217902712Y-47041818D01*
X218030677Y-47203270D01*
X218187564Y-47336791D01*
X218367398Y-47437297D01*
X218433119Y-47458651D01*
X218557471Y-47499056D01*
X218557475Y-47499057D01*
X218563329Y-47500959D01*
X218767894Y-47525351D01*
X218774029Y-47524879D01*
X218774031Y-47524879D01*
X218830039Y-47520569D01*
X218973300Y-47509546D01*
X218979230Y-47507890D01*
X218979232Y-47507890D01*
X219165797Y-47455800D01*
X219165796Y-47455800D01*
X219171725Y-47454145D01*
X219177214Y-47451372D01*
X219177220Y-47451370D01*
X219309952Y-47384322D01*
X219355610Y-47361258D01*
X219517951Y-47234424D01*
X219612788Y-47124554D01*
X219648540Y-47083134D01*
X219648540Y-47083133D01*
X219652564Y-47078472D01*
X219663687Y-47058893D01*
X219711082Y-46975461D01*
X219754323Y-46899344D01*
X219819351Y-46703863D01*
X219845171Y-46499474D01*
X219845583Y-46470000D01*
X219825480Y-46264970D01*
X219765935Y-46067749D01*
X219669218Y-45885849D01*
X219568112Y-45761881D01*
X219542906Y-45730975D01*
X219542903Y-45730972D01*
X219539011Y-45726200D01*
X219532173Y-45720543D01*
X219385025Y-45598811D01*
X219385021Y-45598809D01*
X219380275Y-45594882D01*
X219199055Y-45496897D01*
X219002254Y-45435977D01*
X218996129Y-45435333D01*
X218996128Y-45435333D01*
X218803498Y-45415087D01*
X218803496Y-45415087D01*
X218797369Y-45414443D01*
X218710529Y-45422346D01*
X218598342Y-45432555D01*
X218598339Y-45432556D01*
X218592203Y-45433114D01*
X218394572Y-45491280D01*
X218212002Y-45586726D01*
X218207201Y-45590586D01*
X218207198Y-45590588D01*
X218152517Y-45634553D01*
X218051447Y-45715815D01*
X217919024Y-45873630D01*
X217916056Y-45879028D01*
X217916053Y-45879033D01*
X217841963Y-46013803D01*
X217819776Y-46054162D01*
X217757484Y-46250532D01*
X217756798Y-46256649D01*
X217756797Y-46256653D01*
X217751828Y-46300953D01*
X217734520Y-46455262D01*
X213767574Y-46455262D01*
X213746206Y-46330909D01*
X213742038Y-46306650D01*
X213742038Y-46306649D01*
X213741059Y-46300953D01*
X213667873Y-46102575D01*
X213643918Y-46062310D01*
X213562716Y-45925821D01*
X213562715Y-45925820D01*
X213559762Y-45920856D01*
X213420345Y-45761881D01*
X213254292Y-45630976D01*
X213249181Y-45628287D01*
X213249178Y-45628285D01*
X213154362Y-45578400D01*
X213067164Y-45532523D01*
X212865227Y-45469820D01*
X212846673Y-45467624D01*
X212697232Y-45449936D01*
X212697225Y-45449936D01*
X212693545Y-45449500D01*
X212571359Y-45449500D01*
X212414440Y-45463919D01*
X212408878Y-45465488D01*
X212408876Y-45465488D01*
X212352775Y-45481310D01*
X212210931Y-45521314D01*
X212205753Y-45523867D01*
X212205749Y-45523869D01*
X212053783Y-45598811D01*
X212021290Y-45614835D01*
X212016662Y-45618291D01*
X211877416Y-45722271D01*
X211851867Y-45741349D01*
X211828877Y-45766220D01*
X211718293Y-45885849D01*
X211708337Y-45896619D01*
X211705256Y-45901502D01*
X211612340Y-46048765D01*
X211595505Y-46075446D01*
X211517152Y-46271840D01*
X211516027Y-46277497D01*
X211516025Y-46277503D01*
X211481886Y-46449137D01*
X211475901Y-46479225D01*
X211475825Y-46485000D01*
X211475825Y-46485004D01*
X211474626Y-46576596D01*
X211473133Y-46690654D01*
X208324494Y-46690654D01*
X208325942Y-46580024D01*
X208326867Y-46509346D01*
X208296206Y-46330909D01*
X208292038Y-46306650D01*
X208292038Y-46306649D01*
X208291059Y-46300953D01*
X208217873Y-46102575D01*
X208193918Y-46062310D01*
X208112716Y-45925821D01*
X208112715Y-45925820D01*
X208109762Y-45920856D01*
X207970345Y-45761881D01*
X207804292Y-45630976D01*
X207799181Y-45628287D01*
X207799178Y-45628285D01*
X207704362Y-45578400D01*
X207617164Y-45532523D01*
X207415227Y-45469820D01*
X207396673Y-45467624D01*
X207247232Y-45449936D01*
X207247225Y-45449936D01*
X207243545Y-45449500D01*
X207121359Y-45449500D01*
X206964440Y-45463919D01*
X206958878Y-45465488D01*
X206958876Y-45465488D01*
X206902775Y-45481310D01*
X206760931Y-45521314D01*
X206755753Y-45523867D01*
X206755749Y-45523869D01*
X206603783Y-45598811D01*
X206571290Y-45614835D01*
X206566662Y-45618291D01*
X206427416Y-45722271D01*
X206401867Y-45741349D01*
X206378877Y-45766220D01*
X206268293Y-45885849D01*
X206258337Y-45896619D01*
X206255256Y-45901502D01*
X206162340Y-46048765D01*
X206145505Y-46075446D01*
X206067152Y-46271840D01*
X206066027Y-46277497D01*
X206066025Y-46277503D01*
X206031886Y-46449137D01*
X206025901Y-46479225D01*
X206025825Y-46485000D01*
X206025825Y-46485004D01*
X206024626Y-46576596D01*
X206023133Y-46690654D01*
X202041020Y-46690654D01*
X202065171Y-46499474D01*
X202065583Y-46470000D01*
X202045480Y-46264970D01*
X201985935Y-46067749D01*
X201889218Y-45885849D01*
X201788112Y-45761881D01*
X201762906Y-45730975D01*
X201762903Y-45730972D01*
X201759011Y-45726200D01*
X201752173Y-45720543D01*
X201605025Y-45598811D01*
X201605021Y-45598809D01*
X201600275Y-45594882D01*
X201419055Y-45496897D01*
X201222254Y-45435977D01*
X201216129Y-45435333D01*
X201216128Y-45435333D01*
X201023498Y-45415087D01*
X201023496Y-45415087D01*
X201017369Y-45414443D01*
X200930529Y-45422346D01*
X200818342Y-45432555D01*
X200818339Y-45432556D01*
X200812203Y-45433114D01*
X200614572Y-45491280D01*
X200432002Y-45586726D01*
X200427201Y-45590586D01*
X200427198Y-45590588D01*
X200372517Y-45634553D01*
X200271447Y-45715815D01*
X200139024Y-45873630D01*
X200136056Y-45879028D01*
X200136053Y-45879033D01*
X200061963Y-46013803D01*
X200039776Y-46054162D01*
X199977484Y-46250532D01*
X199976798Y-46256649D01*
X199976797Y-46256653D01*
X199971828Y-46300953D01*
X199954520Y-46455262D01*
X177645714Y-46455262D01*
X177628025Y-46358404D01*
X177627342Y-46354663D01*
X177530784Y-46043696D01*
X177397567Y-45746582D01*
X177229621Y-45467624D01*
X177227294Y-45464640D01*
X177227289Y-45464633D01*
X177031713Y-45213858D01*
X177031711Y-45213856D01*
X177029377Y-45210863D01*
X176799738Y-44980018D01*
X176544029Y-44778433D01*
X176265954Y-44609029D01*
X176147453Y-44555150D01*
X175972994Y-44475827D01*
X175972986Y-44475824D01*
X175969542Y-44474258D01*
X175659085Y-44376073D01*
X175519530Y-44349830D01*
X175456279Y-44317583D01*
X175420503Y-44256259D01*
X175423561Y-44185328D01*
X175464481Y-44127311D01*
X175530272Y-44100626D01*
X175542816Y-44100000D01*
X236455049Y-44100000D01*
X236523170Y-44120002D01*
G37*
G04 #@! TD.AperFunction*
G04 #@! TD*
M02*
