G04 #@! TF.GenerationSoftware,KiCad,Pcbnew,(6.0.0)*
G04 #@! TF.CreationDate,2022-09-19T18:58:25+02:00*
G04 #@! TF.ProjectId,td-io,74642d69-6f2e-46b6-9963-61645f706362,rev?*
G04 #@! TF.SameCoordinates,Original*
G04 #@! TF.FileFunction,Soldermask,Top*
G04 #@! TF.FilePolarity,Negative*
%FSLAX46Y46*%
G04 Gerber Fmt 4.6, Leading zero omitted, Abs format (unit mm)*
G04 Created by KiCad (PCBNEW (6.0.0)) date 2022-09-19 18:58:25*
%MOMM*%
%LPD*%
G01*
G04 APERTURE LIST*
G04 Aperture macros list*
%AMRoundRect*
0 Rectangle with rounded corners*
0 $1 Rounding radius*
0 $2 $3 $4 $5 $6 $7 $8 $9 X,Y pos of 4 corners*
0 Add a 4 corners polygon primitive as box body*
4,1,4,$2,$3,$4,$5,$6,$7,$8,$9,$2,$3,0*
0 Add four circle primitives for the rounded corners*
1,1,$1+$1,$2,$3*
1,1,$1+$1,$4,$5*
1,1,$1+$1,$6,$7*
1,1,$1+$1,$8,$9*
0 Add four rect primitives between the rounded corners*
20,1,$1+$1,$2,$3,$4,$5,0*
20,1,$1+$1,$4,$5,$6,$7,0*
20,1,$1+$1,$6,$7,$8,$9,0*
20,1,$1+$1,$8,$9,$2,$3,0*%
G04 Aperture macros list end*
%ADD10RoundRect,0.250000X-0.450000X0.262500X-0.450000X-0.262500X0.450000X-0.262500X0.450000X0.262500X0*%
%ADD11R,0.650000X0.400000*%
%ADD12RoundRect,0.150000X-0.825000X-0.150000X0.825000X-0.150000X0.825000X0.150000X-0.825000X0.150000X0*%
%ADD13R,1.700000X1.700000*%
%ADD14C,1.700000*%
%ADD15C,3.500000*%
%ADD16O,1.700000X1.700000*%
%ADD17O,1.500000X1.500000*%
%ADD18O,1.800000X1.800000*%
%ADD19R,3.500000X1.700000*%
%ADD20R,1.700000X3.500000*%
%ADD21RoundRect,0.150000X-0.587500X-0.150000X0.587500X-0.150000X0.587500X0.150000X-0.587500X0.150000X0*%
%ADD22C,7.000000*%
G04 APERTURE END LIST*
D10*
G04 #@! TO.C,R1*
X180000000Y-68087500D03*
X180000000Y-69912500D03*
G04 #@! TD*
D11*
G04 #@! TO.C,D1*
X184900000Y-89125000D03*
X184900000Y-89775000D03*
X184900000Y-90425000D03*
X186800000Y-90425000D03*
X186800000Y-89775000D03*
X186800000Y-89125000D03*
G04 #@! TD*
D10*
G04 #@! TO.C,R3*
X192000000Y-68087500D03*
X192000000Y-69912500D03*
G04 #@! TD*
G04 #@! TO.C,R2*
X186000000Y-68087500D03*
X186000000Y-69912500D03*
G04 #@! TD*
D12*
G04 #@! TO.C,U1*
X183525000Y-73595000D03*
X183525000Y-74865000D03*
X183525000Y-76135000D03*
X183525000Y-77405000D03*
X188475000Y-77405000D03*
X188475000Y-76135000D03*
X188475000Y-74865000D03*
X188475000Y-73595000D03*
G04 #@! TD*
D13*
G04 #@! TO.C,J1*
X184450000Y-60077500D03*
D14*
X186950000Y-60077500D03*
X186950000Y-58077500D03*
X184450000Y-58077500D03*
D15*
X179680000Y-55367500D03*
X191720000Y-55367500D03*
G04 #@! TD*
D13*
G04 #@! TO.C,J2*
X189925000Y-95700000D03*
D16*
X192465000Y-95700000D03*
G04 #@! TD*
D17*
G04 #@! TO.C,U2*
X207475000Y-49630000D03*
D18*
X207175000Y-46600000D03*
D17*
X212325000Y-49630000D03*
D18*
X212625000Y-46600000D03*
D16*
X201010000Y-46470000D03*
D19*
X200110000Y-46470000D03*
X200110000Y-49010000D03*
D16*
X201010000Y-49010000D03*
D19*
X200110000Y-51550000D03*
D13*
X201010000Y-51550000D03*
D16*
X201010000Y-54090000D03*
D19*
X200110000Y-54090000D03*
X200110000Y-56630000D03*
D16*
X201010000Y-56630000D03*
D19*
X200110000Y-59170000D03*
D16*
X201010000Y-59170000D03*
X201010000Y-61710000D03*
D19*
X200110000Y-61710000D03*
D13*
X201010000Y-64250000D03*
D19*
X200110000Y-64250000D03*
D16*
X201010000Y-66790000D03*
D19*
X200110000Y-66790000D03*
D16*
X201010000Y-69330000D03*
D19*
X200110000Y-69330000D03*
X200110000Y-71870000D03*
D16*
X201010000Y-71870000D03*
D19*
X200110000Y-74410000D03*
D16*
X201010000Y-74410000D03*
D13*
X201010000Y-76950000D03*
D19*
X200110000Y-76950000D03*
X200110000Y-79490000D03*
D16*
X201010000Y-79490000D03*
D19*
X200110000Y-82030000D03*
D16*
X201010000Y-82030000D03*
X201010000Y-84570000D03*
D19*
X200110000Y-84570000D03*
D16*
X201010000Y-87110000D03*
D19*
X200110000Y-87110000D03*
X200110000Y-89650000D03*
D13*
X201010000Y-89650000D03*
D16*
X201010000Y-92190000D03*
D19*
X200110000Y-92190000D03*
D16*
X201010000Y-94730000D03*
D19*
X200110000Y-94730000D03*
X219690000Y-94730000D03*
D16*
X218790000Y-94730000D03*
D19*
X219690000Y-92190000D03*
D16*
X218790000Y-92190000D03*
D13*
X218790000Y-89650000D03*
D19*
X219690000Y-89650000D03*
X219690000Y-87110000D03*
D16*
X218790000Y-87110000D03*
D19*
X219690000Y-84570000D03*
D16*
X218790000Y-84570000D03*
D19*
X219690000Y-82030000D03*
D16*
X218790000Y-82030000D03*
D19*
X219690000Y-79490000D03*
D16*
X218790000Y-79490000D03*
D13*
X218790000Y-76950000D03*
D19*
X219690000Y-76950000D03*
D16*
X218790000Y-74410000D03*
D19*
X219690000Y-74410000D03*
D16*
X218790000Y-71870000D03*
D19*
X219690000Y-71870000D03*
X219690000Y-69330000D03*
D16*
X218790000Y-69330000D03*
X218790000Y-66790000D03*
D19*
X219690000Y-66790000D03*
D13*
X218790000Y-64250000D03*
D19*
X219690000Y-64250000D03*
X219690000Y-61710000D03*
D16*
X218790000Y-61710000D03*
D19*
X219690000Y-59170000D03*
D16*
X218790000Y-59170000D03*
X218790000Y-56630000D03*
D19*
X219690000Y-56630000D03*
D16*
X218790000Y-54090000D03*
D19*
X219690000Y-54090000D03*
D13*
X218790000Y-51550000D03*
D19*
X219690000Y-51550000D03*
D16*
X218790000Y-49010000D03*
D19*
X219690000Y-49010000D03*
X219690000Y-46470000D03*
D16*
X218790000Y-46470000D03*
D20*
X207360000Y-95400000D03*
D16*
X207360000Y-94500000D03*
D13*
X209900000Y-94500000D03*
D20*
X209900000Y-95400000D03*
D16*
X212440000Y-94500000D03*
D20*
X212440000Y-95400000D03*
G04 #@! TD*
D13*
G04 #@! TO.C,J5*
X172500000Y-67225000D03*
D16*
X172500000Y-69765000D03*
G04 #@! TD*
D13*
G04 #@! TO.C,J6*
X227960000Y-59960000D03*
D16*
X230500000Y-59960000D03*
X227960000Y-62500000D03*
X230500000Y-62500000D03*
X227960000Y-65040000D03*
X230500000Y-65040000D03*
X227960000Y-67580000D03*
X230500000Y-67580000D03*
X227960000Y-70120000D03*
X230500000Y-70120000D03*
X227960000Y-72660000D03*
X230500000Y-72660000D03*
X227960000Y-75200000D03*
X230500000Y-75200000D03*
X227960000Y-77740000D03*
X230500000Y-77740000D03*
X227960000Y-80280000D03*
X230500000Y-80280000D03*
X227960000Y-82820000D03*
X230500000Y-82820000D03*
G04 #@! TD*
D13*
G04 #@! TO.C,J3*
X178375000Y-95700000D03*
D16*
X180915000Y-95700000D03*
X183455000Y-95700000D03*
G04 #@! TD*
D21*
G04 #@! TO.C,Q2*
X185062500Y-83550000D03*
X185062500Y-85450000D03*
X186937500Y-84500000D03*
G04 #@! TD*
D22*
G04 #@! TO.C,H4*
X229500000Y-93000000D03*
G04 #@! TD*
D13*
G04 #@! TO.C,J4*
X172500000Y-78475000D03*
D16*
X172500000Y-81015000D03*
X172500000Y-83555000D03*
G04 #@! TD*
D22*
G04 #@! TO.C,H3*
X172000000Y-93000000D03*
G04 #@! TD*
G04 #@! TO.C,H2*
X229500000Y-48500000D03*
G04 #@! TD*
G04 #@! TO.C,H1*
X172000000Y-48500000D03*
G04 #@! TD*
M02*
