G04 #@! TF.GenerationSoftware,KiCad,Pcbnew,(6.0.0)*
G04 #@! TF.CreationDate,2022-09-19T18:58:24+02:00*
G04 #@! TF.ProjectId,td-io,74642d69-6f2e-46b6-9963-61645f706362,rev?*
G04 #@! TF.SameCoordinates,Original*
G04 #@! TF.FileFunction,Legend,Top*
G04 #@! TF.FilePolarity,Positive*
%FSLAX46Y46*%
G04 Gerber Fmt 4.6, Leading zero omitted, Abs format (unit mm)*
G04 Created by KiCad (PCBNEW (6.0.0)) date 2022-09-19 18:58:24*
%MOMM*%
%LPD*%
G01*
G04 APERTURE LIST*
%ADD10C,0.200000*%
%ADD11C,0.150000*%
%ADD12C,0.300000*%
%ADD13C,0.120000*%
G04 APERTURE END LIST*
D10*
X172665476Y-63402380D02*
X171415476Y-63402380D01*
X171891666Y-63402380D02*
X171832142Y-63283333D01*
X171832142Y-63045238D01*
X171891666Y-62926190D01*
X171951190Y-62866666D01*
X172070238Y-62807142D01*
X172427380Y-62807142D01*
X172546428Y-62866666D01*
X172605952Y-62926190D01*
X172665476Y-63045238D01*
X172665476Y-63283333D01*
X172605952Y-63402380D01*
X171832142Y-61735714D02*
X172665476Y-61735714D01*
X171832142Y-62271428D02*
X172486904Y-62271428D01*
X172605952Y-62211904D01*
X172665476Y-62092857D01*
X172665476Y-61914285D01*
X172605952Y-61795238D01*
X172546428Y-61735714D01*
X171832142Y-61319047D02*
X171832142Y-60842857D01*
X172665476Y-61140476D02*
X171594047Y-61140476D01*
X171475000Y-61080952D01*
X171415476Y-60961904D01*
X171415476Y-60842857D01*
X171832142Y-60604761D02*
X171832142Y-60128571D01*
X172665476Y-60426190D02*
X171594047Y-60426190D01*
X171475000Y-60366666D01*
X171415476Y-60247619D01*
X171415476Y-60128571D01*
X172665476Y-59711904D02*
X171832142Y-59711904D01*
X171415476Y-59711904D02*
X171475000Y-59771428D01*
X171534523Y-59711904D01*
X171475000Y-59652380D01*
X171415476Y-59711904D01*
X171534523Y-59711904D01*
X171534523Y-58223809D02*
X171475000Y-58164285D01*
X171415476Y-58045238D01*
X171415476Y-57747619D01*
X171475000Y-57628571D01*
X171534523Y-57569047D01*
X171653571Y-57509523D01*
X171772619Y-57509523D01*
X171951190Y-57569047D01*
X172665476Y-58283333D01*
X172665476Y-57509523D01*
X171415476Y-56735714D02*
X171415476Y-56616666D01*
X171475000Y-56497619D01*
X171534523Y-56438095D01*
X171653571Y-56378571D01*
X171891666Y-56319047D01*
X172189285Y-56319047D01*
X172427380Y-56378571D01*
X172546428Y-56438095D01*
X172605952Y-56497619D01*
X172665476Y-56616666D01*
X172665476Y-56735714D01*
X172605952Y-56854761D01*
X172546428Y-56914285D01*
X172427380Y-56973809D01*
X172189285Y-57033333D01*
X171891666Y-57033333D01*
X171653571Y-56973809D01*
X171534523Y-56914285D01*
X171475000Y-56854761D01*
X171415476Y-56735714D01*
X171534523Y-55842857D02*
X171475000Y-55783333D01*
X171415476Y-55664285D01*
X171415476Y-55366666D01*
X171475000Y-55247619D01*
X171534523Y-55188095D01*
X171653571Y-55128571D01*
X171772619Y-55128571D01*
X171951190Y-55188095D01*
X172665476Y-55902380D01*
X172665476Y-55128571D01*
X171534523Y-54652380D02*
X171475000Y-54592857D01*
X171415476Y-54473809D01*
X171415476Y-54176190D01*
X171475000Y-54057142D01*
X171534523Y-53997619D01*
X171653571Y-53938095D01*
X171772619Y-53938095D01*
X171951190Y-53997619D01*
X172665476Y-54711904D01*
X172665476Y-53938095D01*
D11*
X228228571Y-57761904D02*
X227771428Y-57761904D01*
X228000000Y-57761904D02*
X228000000Y-56961904D01*
X227923809Y-57076190D01*
X227847619Y-57152380D01*
X227771428Y-57190476D01*
D12*
X169807142Y-67321428D02*
X169878571Y-67178571D01*
X169878571Y-66892857D01*
X169807142Y-66750000D01*
X169664285Y-66678571D01*
X169592857Y-66678571D01*
X169450000Y-66750000D01*
X169378571Y-66892857D01*
X169378571Y-67107142D01*
X169307142Y-67250000D01*
X169164285Y-67321428D01*
X169092857Y-67321428D01*
X168950000Y-67250000D01*
X168878571Y-67107142D01*
X168878571Y-66892857D01*
X168950000Y-66750000D01*
X169878571Y-66035714D02*
X168878571Y-66035714D01*
X169021428Y-66035714D02*
X168950000Y-65964285D01*
X168878571Y-65821428D01*
X168878571Y-65607142D01*
X168950000Y-65464285D01*
X169092857Y-65392857D01*
X169878571Y-65392857D01*
X169092857Y-65392857D02*
X168950000Y-65321428D01*
X168878571Y-65178571D01*
X168878571Y-64964285D01*
X168950000Y-64821428D01*
X169092857Y-64750000D01*
X169878571Y-64750000D01*
X169878571Y-63821428D02*
X169807142Y-63964285D01*
X169735714Y-64035714D01*
X169592857Y-64107142D01*
X169164285Y-64107142D01*
X169021428Y-64035714D01*
X168950000Y-63964285D01*
X168878571Y-63821428D01*
X168878571Y-63607142D01*
X168950000Y-63464285D01*
X169021428Y-63392857D01*
X169164285Y-63321428D01*
X169592857Y-63321428D01*
X169735714Y-63392857D01*
X169807142Y-63464285D01*
X169878571Y-63607142D01*
X169878571Y-63821428D01*
X169878571Y-62464285D02*
X169807142Y-62607142D01*
X169664285Y-62678571D01*
X168378571Y-62678571D01*
X169307142Y-61892857D02*
X169307142Y-60750000D01*
X168878571Y-60035714D02*
X170164285Y-60035714D01*
X170307142Y-60107142D01*
X170378571Y-60250000D01*
X170378571Y-60321428D01*
X168378571Y-60035714D02*
X168450000Y-60107142D01*
X168521428Y-60035714D01*
X168450000Y-59964285D01*
X168378571Y-60035714D01*
X168521428Y-60035714D01*
X168878571Y-59464285D02*
X169878571Y-59107142D01*
X168878571Y-58750000D01*
X169807142Y-58250000D02*
X169878571Y-58107142D01*
X169878571Y-57821428D01*
X169807142Y-57678571D01*
X169664285Y-57607142D01*
X169592857Y-57607142D01*
X169450000Y-57678571D01*
X169378571Y-57821428D01*
X169378571Y-58035714D01*
X169307142Y-58178571D01*
X169164285Y-58250000D01*
X169092857Y-58250000D01*
X168950000Y-58178571D01*
X168878571Y-58035714D01*
X168878571Y-57821428D01*
X168950000Y-57678571D01*
X169307142Y-56964285D02*
X169307142Y-55821428D01*
X169878571Y-55107142D02*
X168878571Y-55107142D01*
X168378571Y-55107142D02*
X168450000Y-55178571D01*
X168521428Y-55107142D01*
X168450000Y-55035714D01*
X168378571Y-55107142D01*
X168521428Y-55107142D01*
X169878571Y-54178571D02*
X169807142Y-54321428D01*
X169735714Y-54392857D01*
X169592857Y-54464285D01*
X169164285Y-54464285D01*
X169021428Y-54392857D01*
X168950000Y-54321428D01*
X168878571Y-54178571D01*
X168878571Y-53964285D01*
X168950000Y-53821428D01*
X169021428Y-53750000D01*
X169164285Y-53678571D01*
X169592857Y-53678571D01*
X169735714Y-53750000D01*
X169807142Y-53821428D01*
X169878571Y-53964285D01*
X169878571Y-54178571D01*
D11*
X176007023Y-83100000D02*
X175930833Y-83061904D01*
X175816547Y-83061904D01*
X175702261Y-83100000D01*
X175626071Y-83176190D01*
X175587976Y-83252380D01*
X175549880Y-83404761D01*
X175549880Y-83519047D01*
X175587976Y-83671428D01*
X175626071Y-83747619D01*
X175702261Y-83823809D01*
X175816547Y-83861904D01*
X175892738Y-83861904D01*
X176007023Y-83823809D01*
X176045119Y-83785714D01*
X176045119Y-83519047D01*
X175892738Y-83519047D01*
X176387976Y-83861904D02*
X176387976Y-83061904D01*
X176845119Y-83861904D01*
X176845119Y-83061904D01*
X177226071Y-83861904D02*
X177226071Y-83061904D01*
X177416547Y-83061904D01*
X177530833Y-83100000D01*
X177607023Y-83176190D01*
X177645119Y-83252380D01*
X177683214Y-83404761D01*
X177683214Y-83519047D01*
X177645119Y-83671428D01*
X177607023Y-83747619D01*
X177530833Y-83823809D01*
X177416547Y-83861904D01*
X177226071Y-83861904D01*
X229890476Y-84938095D02*
X229928571Y-84900000D01*
X230004761Y-84861904D01*
X230195238Y-84861904D01*
X230271428Y-84900000D01*
X230309523Y-84938095D01*
X230347619Y-85014285D01*
X230347619Y-85090476D01*
X230309523Y-85204761D01*
X229852380Y-85661904D01*
X230347619Y-85661904D01*
X230842857Y-84861904D02*
X230919047Y-84861904D01*
X230995238Y-84900000D01*
X231033333Y-84938095D01*
X231071428Y-85014285D01*
X231109523Y-85166666D01*
X231109523Y-85357142D01*
X231071428Y-85509523D01*
X231033333Y-85585714D01*
X230995238Y-85623809D01*
X230919047Y-85661904D01*
X230842857Y-85661904D01*
X230766666Y-85623809D01*
X230728571Y-85585714D01*
X230690476Y-85509523D01*
X230652380Y-85357142D01*
X230652380Y-85166666D01*
X230690476Y-85014285D01*
X230728571Y-84938095D01*
X230766666Y-84900000D01*
X230842857Y-84861904D01*
X230271428Y-57038095D02*
X230309523Y-57000000D01*
X230385714Y-56961904D01*
X230576190Y-56961904D01*
X230652380Y-57000000D01*
X230690476Y-57038095D01*
X230728571Y-57114285D01*
X230728571Y-57190476D01*
X230690476Y-57304761D01*
X230233333Y-57761904D01*
X230728571Y-57761904D01*
X175647619Y-66761904D02*
X175266666Y-66761904D01*
X175228571Y-67142857D01*
X175266666Y-67104761D01*
X175342857Y-67066666D01*
X175533333Y-67066666D01*
X175609523Y-67104761D01*
X175647619Y-67142857D01*
X175685714Y-67219047D01*
X175685714Y-67409523D01*
X175647619Y-67485714D01*
X175609523Y-67523809D01*
X175533333Y-67561904D01*
X175342857Y-67561904D01*
X175266666Y-67523809D01*
X175228571Y-67485714D01*
X175914285Y-66761904D02*
X176180952Y-67561904D01*
X176447619Y-66761904D01*
X175549880Y-81323809D02*
X175664166Y-81361904D01*
X175854642Y-81361904D01*
X175930833Y-81323809D01*
X175968928Y-81285714D01*
X176007023Y-81209523D01*
X176007023Y-81133333D01*
X175968928Y-81057142D01*
X175930833Y-81019047D01*
X175854642Y-80980952D01*
X175702261Y-80942857D01*
X175626071Y-80904761D01*
X175587976Y-80866666D01*
X175549880Y-80790476D01*
X175549880Y-80714285D01*
X175587976Y-80638095D01*
X175626071Y-80600000D01*
X175702261Y-80561904D01*
X175892738Y-80561904D01*
X176007023Y-80600000D01*
X176349880Y-80942857D02*
X176616547Y-80942857D01*
X176730833Y-81361904D02*
X176349880Y-81361904D01*
X176349880Y-80561904D01*
X176730833Y-80561904D01*
X177530833Y-81361904D02*
X177264166Y-80980952D01*
X177073690Y-81361904D02*
X177073690Y-80561904D01*
X177378452Y-80561904D01*
X177454642Y-80600000D01*
X177492738Y-80638095D01*
X177530833Y-80714285D01*
X177530833Y-80828571D01*
X177492738Y-80904761D01*
X177454642Y-80942857D01*
X177378452Y-80980952D01*
X177073690Y-80980952D01*
X177759404Y-80561904D02*
X178026071Y-81361904D01*
X178292738Y-80561904D01*
X178559404Y-81361904D02*
X178559404Y-80561904D01*
X179397500Y-81285714D02*
X179359404Y-81323809D01*
X179245119Y-81361904D01*
X179168928Y-81361904D01*
X179054642Y-81323809D01*
X178978452Y-81247619D01*
X178940357Y-81171428D01*
X178902261Y-81019047D01*
X178902261Y-80904761D01*
X178940357Y-80752380D01*
X178978452Y-80676190D01*
X179054642Y-80600000D01*
X179168928Y-80561904D01*
X179245119Y-80561904D01*
X179359404Y-80600000D01*
X179397500Y-80638095D01*
X179740357Y-80942857D02*
X180007023Y-80942857D01*
X180121309Y-81361904D02*
X179740357Y-81361904D01*
X179740357Y-80561904D01*
X180121309Y-80561904D01*
X175423809Y-78061904D02*
X175880952Y-78061904D01*
X175652380Y-78861904D02*
X175652380Y-78061904D01*
X176147619Y-78442857D02*
X176414285Y-78442857D01*
X176528571Y-78861904D02*
X176147619Y-78861904D01*
X176147619Y-78061904D01*
X176528571Y-78061904D01*
X176833333Y-78823809D02*
X176947619Y-78861904D01*
X177138095Y-78861904D01*
X177214285Y-78823809D01*
X177252380Y-78785714D01*
X177290476Y-78709523D01*
X177290476Y-78633333D01*
X177252380Y-78557142D01*
X177214285Y-78519047D01*
X177138095Y-78480952D01*
X176985714Y-78442857D01*
X176909523Y-78404761D01*
X176871428Y-78366666D01*
X176833333Y-78290476D01*
X176833333Y-78214285D01*
X176871428Y-78138095D01*
X176909523Y-78100000D01*
X176985714Y-78061904D01*
X177176190Y-78061904D01*
X177290476Y-78100000D01*
X177519047Y-78061904D02*
X177976190Y-78061904D01*
X177747619Y-78861904D02*
X177747619Y-78061904D01*
D10*
X180889285Y-62553571D02*
X180889285Y-63625000D01*
X180817857Y-63839285D01*
X180675000Y-63982142D01*
X180460714Y-64053571D01*
X180317857Y-64053571D01*
X181389285Y-62553571D02*
X181889285Y-64053571D01*
X182389285Y-62553571D01*
X182817857Y-63982142D02*
X183032142Y-64053571D01*
X183389285Y-64053571D01*
X183532142Y-63982142D01*
X183603571Y-63910714D01*
X183675000Y-63767857D01*
X183675000Y-63625000D01*
X183603571Y-63482142D01*
X183532142Y-63410714D01*
X183389285Y-63339285D01*
X183103571Y-63267857D01*
X182960714Y-63196428D01*
X182889285Y-63125000D01*
X182817857Y-62982142D01*
X182817857Y-62839285D01*
X182889285Y-62696428D01*
X182960714Y-62625000D01*
X183103571Y-62553571D01*
X183460714Y-62553571D01*
X183675000Y-62625000D01*
X185746428Y-62553571D02*
X186032142Y-62553571D01*
X186175000Y-62625000D01*
X186317857Y-62767857D01*
X186389285Y-63053571D01*
X186389285Y-63553571D01*
X186317857Y-63839285D01*
X186175000Y-63982142D01*
X186032142Y-64053571D01*
X185746428Y-64053571D01*
X185603571Y-63982142D01*
X185460714Y-63839285D01*
X185389285Y-63553571D01*
X185389285Y-63053571D01*
X185460714Y-62767857D01*
X185603571Y-62625000D01*
X185746428Y-62553571D01*
X187032142Y-64053571D02*
X187032142Y-62553571D01*
X187889285Y-64053571D01*
X187889285Y-62553571D01*
X189317857Y-64053571D02*
X188603571Y-64053571D01*
X188603571Y-62553571D01*
X190103571Y-63339285D02*
X190103571Y-64053571D01*
X189603571Y-62553571D02*
X190103571Y-63339285D01*
X190603571Y-62553571D01*
D11*
X227847619Y-85661904D02*
X227390476Y-85661904D01*
X227619047Y-85661904D02*
X227619047Y-84861904D01*
X227542857Y-84976190D01*
X227466666Y-85052380D01*
X227390476Y-85090476D01*
X228228571Y-85661904D02*
X228380952Y-85661904D01*
X228457142Y-85623809D01*
X228495238Y-85585714D01*
X228571428Y-85471428D01*
X228609523Y-85319047D01*
X228609523Y-85014285D01*
X228571428Y-84938095D01*
X228533333Y-84900000D01*
X228457142Y-84861904D01*
X228304761Y-84861904D01*
X228228571Y-84900000D01*
X228190476Y-84938095D01*
X228152380Y-85014285D01*
X228152380Y-85204761D01*
X228190476Y-85280952D01*
X228228571Y-85319047D01*
X228304761Y-85357142D01*
X228457142Y-85357142D01*
X228533333Y-85319047D01*
X228571428Y-85280952D01*
X228609523Y-85204761D01*
X175390476Y-69300000D02*
X175314285Y-69261904D01*
X175200000Y-69261904D01*
X175085714Y-69300000D01*
X175009523Y-69376190D01*
X174971428Y-69452380D01*
X174933333Y-69604761D01*
X174933333Y-69719047D01*
X174971428Y-69871428D01*
X175009523Y-69947619D01*
X175085714Y-70023809D01*
X175200000Y-70061904D01*
X175276190Y-70061904D01*
X175390476Y-70023809D01*
X175428571Y-69985714D01*
X175428571Y-69719047D01*
X175276190Y-69719047D01*
X175771428Y-70061904D02*
X175771428Y-69261904D01*
X176228571Y-70061904D01*
X176228571Y-69261904D01*
X176609523Y-70061904D02*
X176609523Y-69261904D01*
X176800000Y-69261904D01*
X176914285Y-69300000D01*
X176990476Y-69376190D01*
X177028571Y-69452380D01*
X177066666Y-69604761D01*
X177066666Y-69719047D01*
X177028571Y-69871428D01*
X176990476Y-69947619D01*
X176914285Y-70023809D01*
X176800000Y-70061904D01*
X176609523Y-70061904D01*
G04 #@! TO.C,R1*
X179808333Y-72027380D02*
X179475000Y-71551190D01*
X179236904Y-72027380D02*
X179236904Y-71027380D01*
X179617857Y-71027380D01*
X179713095Y-71075000D01*
X179760714Y-71122619D01*
X179808333Y-71217857D01*
X179808333Y-71360714D01*
X179760714Y-71455952D01*
X179713095Y-71503571D01*
X179617857Y-71551190D01*
X179236904Y-71551190D01*
X180760714Y-72027380D02*
X180189285Y-72027380D01*
X180475000Y-72027380D02*
X180475000Y-71027380D01*
X180379761Y-71170238D01*
X180284523Y-71265476D01*
X180189285Y-71313095D01*
X179333333Y-66952380D02*
X178761904Y-66952380D01*
X179047619Y-66952380D02*
X179047619Y-65952380D01*
X178952380Y-66095238D01*
X178857142Y-66190476D01*
X178761904Y-66238095D01*
X179714285Y-66047619D02*
X179761904Y-66000000D01*
X179857142Y-65952380D01*
X180095238Y-65952380D01*
X180190476Y-66000000D01*
X180238095Y-66047619D01*
X180285714Y-66142857D01*
X180285714Y-66238095D01*
X180238095Y-66380952D01*
X179666666Y-66952380D01*
X180285714Y-66952380D01*
X180904761Y-65952380D02*
X181000000Y-65952380D01*
X181095238Y-66000000D01*
X181142857Y-66047619D01*
X181190476Y-66142857D01*
X181238095Y-66333333D01*
X181238095Y-66571428D01*
X181190476Y-66761904D01*
X181142857Y-66857142D01*
X181095238Y-66904761D01*
X181000000Y-66952380D01*
X180904761Y-66952380D01*
X180809523Y-66904761D01*
X180761904Y-66857142D01*
X180714285Y-66761904D01*
X180666666Y-66571428D01*
X180666666Y-66333333D01*
X180714285Y-66142857D01*
X180761904Y-66047619D01*
X180809523Y-66000000D01*
X180904761Y-65952380D01*
G04 #@! TO.C,D1*
X187811904Y-90327380D02*
X187811904Y-89327380D01*
X188050000Y-89327380D01*
X188192857Y-89375000D01*
X188288095Y-89470238D01*
X188335714Y-89565476D01*
X188383333Y-89755952D01*
X188383333Y-89898809D01*
X188335714Y-90089285D01*
X188288095Y-90184523D01*
X188192857Y-90279761D01*
X188050000Y-90327380D01*
X187811904Y-90327380D01*
X189335714Y-90327380D02*
X188764285Y-90327380D01*
X189050000Y-90327380D02*
X189050000Y-89327380D01*
X188954761Y-89470238D01*
X188859523Y-89565476D01*
X188764285Y-89613095D01*
G04 #@! TO.C,R3*
X191883333Y-72027380D02*
X191550000Y-71551190D01*
X191311904Y-72027380D02*
X191311904Y-71027380D01*
X191692857Y-71027380D01*
X191788095Y-71075000D01*
X191835714Y-71122619D01*
X191883333Y-71217857D01*
X191883333Y-71360714D01*
X191835714Y-71455952D01*
X191788095Y-71503571D01*
X191692857Y-71551190D01*
X191311904Y-71551190D01*
X192216666Y-71027380D02*
X192835714Y-71027380D01*
X192502380Y-71408333D01*
X192645238Y-71408333D01*
X192740476Y-71455952D01*
X192788095Y-71503571D01*
X192835714Y-71598809D01*
X192835714Y-71836904D01*
X192788095Y-71932142D01*
X192740476Y-71979761D01*
X192645238Y-72027380D01*
X192359523Y-72027380D01*
X192264285Y-71979761D01*
X192216666Y-71932142D01*
X191404761Y-66952380D02*
X190833333Y-66952380D01*
X191119047Y-66952380D02*
X191119047Y-65952380D01*
X191023809Y-66095238D01*
X190928571Y-66190476D01*
X190833333Y-66238095D01*
X192023809Y-65952380D02*
X192119047Y-65952380D01*
X192214285Y-66000000D01*
X192261904Y-66047619D01*
X192309523Y-66142857D01*
X192357142Y-66333333D01*
X192357142Y-66571428D01*
X192309523Y-66761904D01*
X192261904Y-66857142D01*
X192214285Y-66904761D01*
X192119047Y-66952380D01*
X192023809Y-66952380D01*
X191928571Y-66904761D01*
X191880952Y-66857142D01*
X191833333Y-66761904D01*
X191785714Y-66571428D01*
X191785714Y-66333333D01*
X191833333Y-66142857D01*
X191880952Y-66047619D01*
X191928571Y-66000000D01*
X192023809Y-65952380D01*
X192785714Y-66952380D02*
X192785714Y-65952380D01*
X192880952Y-66571428D02*
X193166666Y-66952380D01*
X193166666Y-66285714D02*
X192785714Y-66666666D01*
G04 #@! TO.C,R2*
X185858333Y-72027380D02*
X185525000Y-71551190D01*
X185286904Y-72027380D02*
X185286904Y-71027380D01*
X185667857Y-71027380D01*
X185763095Y-71075000D01*
X185810714Y-71122619D01*
X185858333Y-71217857D01*
X185858333Y-71360714D01*
X185810714Y-71455952D01*
X185763095Y-71503571D01*
X185667857Y-71551190D01*
X185286904Y-71551190D01*
X186239285Y-71122619D02*
X186286904Y-71075000D01*
X186382142Y-71027380D01*
X186620238Y-71027380D01*
X186715476Y-71075000D01*
X186763095Y-71122619D01*
X186810714Y-71217857D01*
X186810714Y-71313095D01*
X186763095Y-71455952D01*
X186191666Y-72027380D01*
X186810714Y-72027380D01*
X185333333Y-66952380D02*
X184761904Y-66952380D01*
X185047619Y-66952380D02*
X185047619Y-65952380D01*
X184952380Y-66095238D01*
X184857142Y-66190476D01*
X184761904Y-66238095D01*
X185952380Y-65952380D02*
X186047619Y-65952380D01*
X186142857Y-66000000D01*
X186190476Y-66047619D01*
X186238095Y-66142857D01*
X186285714Y-66333333D01*
X186285714Y-66571428D01*
X186238095Y-66761904D01*
X186190476Y-66857142D01*
X186142857Y-66904761D01*
X186047619Y-66952380D01*
X185952380Y-66952380D01*
X185857142Y-66904761D01*
X185809523Y-66857142D01*
X185761904Y-66761904D01*
X185714285Y-66571428D01*
X185714285Y-66333333D01*
X185761904Y-66142857D01*
X185809523Y-66047619D01*
X185857142Y-66000000D01*
X185952380Y-65952380D01*
X186904761Y-65952380D02*
X187000000Y-65952380D01*
X187095238Y-66000000D01*
X187142857Y-66047619D01*
X187190476Y-66142857D01*
X187238095Y-66333333D01*
X187238095Y-66571428D01*
X187190476Y-66761904D01*
X187142857Y-66857142D01*
X187095238Y-66904761D01*
X187000000Y-66952380D01*
X186904761Y-66952380D01*
X186809523Y-66904761D01*
X186761904Y-66857142D01*
X186714285Y-66761904D01*
X186666666Y-66571428D01*
X186666666Y-66333333D01*
X186714285Y-66142857D01*
X186761904Y-66047619D01*
X186809523Y-66000000D01*
X186904761Y-65952380D01*
G04 #@! TO.C,U1*
X190338095Y-75652380D02*
X190338095Y-76461904D01*
X190385714Y-76557142D01*
X190433333Y-76604761D01*
X190528571Y-76652380D01*
X190719047Y-76652380D01*
X190814285Y-76604761D01*
X190861904Y-76557142D01*
X190909523Y-76461904D01*
X190909523Y-75652380D01*
X191909523Y-76652380D02*
X191338095Y-76652380D01*
X191623809Y-76652380D02*
X191623809Y-75652380D01*
X191528571Y-75795238D01*
X191433333Y-75890476D01*
X191338095Y-75938095D01*
G04 #@! TO.C,J1*
X176041666Y-52977380D02*
X176041666Y-53691666D01*
X175994047Y-53834523D01*
X175898809Y-53929761D01*
X175755952Y-53977380D01*
X175660714Y-53977380D01*
X177041666Y-53977380D02*
X176470238Y-53977380D01*
X176755952Y-53977380D02*
X176755952Y-52977380D01*
X176660714Y-53120238D01*
X176565476Y-53215476D01*
X176470238Y-53263095D01*
G04 #@! TO.C,J2*
X190691666Y-92452380D02*
X190691666Y-93166666D01*
X190644047Y-93309523D01*
X190548809Y-93404761D01*
X190405952Y-93452380D01*
X190310714Y-93452380D01*
X191120238Y-92547619D02*
X191167857Y-92500000D01*
X191263095Y-92452380D01*
X191501190Y-92452380D01*
X191596428Y-92500000D01*
X191644047Y-92547619D01*
X191691666Y-92642857D01*
X191691666Y-92738095D01*
X191644047Y-92880952D01*
X191072619Y-93452380D01*
X191691666Y-93452380D01*
G04 #@! TO.C,U2*
X209138095Y-70052380D02*
X209138095Y-70861904D01*
X209185714Y-70957142D01*
X209233333Y-71004761D01*
X209328571Y-71052380D01*
X209519047Y-71052380D01*
X209614285Y-71004761D01*
X209661904Y-70957142D01*
X209709523Y-70861904D01*
X209709523Y-70052380D01*
X210138095Y-70147619D02*
X210185714Y-70100000D01*
X210280952Y-70052380D01*
X210519047Y-70052380D01*
X210614285Y-70100000D01*
X210661904Y-70147619D01*
X210709523Y-70242857D01*
X210709523Y-70338095D01*
X210661904Y-70480952D01*
X210090476Y-71052380D01*
X210709523Y-71052380D01*
X208519047Y-73211380D02*
X208519047Y-72211380D01*
X208900000Y-72211380D01*
X208995238Y-72259000D01*
X209042857Y-72306619D01*
X209090476Y-72401857D01*
X209090476Y-72544714D01*
X209042857Y-72639952D01*
X208995238Y-72687571D01*
X208900000Y-72735190D01*
X208519047Y-72735190D01*
X209519047Y-73211380D02*
X209519047Y-72544714D01*
X209519047Y-72211380D02*
X209471428Y-72259000D01*
X209519047Y-72306619D01*
X209566666Y-72259000D01*
X209519047Y-72211380D01*
X209519047Y-72306619D01*
X210423809Y-73163761D02*
X210328571Y-73211380D01*
X210138095Y-73211380D01*
X210042857Y-73163761D01*
X209995238Y-73116142D01*
X209947619Y-73020904D01*
X209947619Y-72735190D01*
X209995238Y-72639952D01*
X210042857Y-72592333D01*
X210138095Y-72544714D01*
X210328571Y-72544714D01*
X210423809Y-72592333D01*
X210995238Y-73211380D02*
X210900000Y-73163761D01*
X210852380Y-73116142D01*
X210804761Y-73020904D01*
X210804761Y-72735190D01*
X210852380Y-72639952D01*
X210900000Y-72592333D01*
X210995238Y-72544714D01*
X211138095Y-72544714D01*
X211233333Y-72592333D01*
X211280952Y-72639952D01*
X211328571Y-72735190D01*
X211328571Y-73020904D01*
X211280952Y-73116142D01*
X211233333Y-73163761D01*
X211138095Y-73211380D01*
X210995238Y-73211380D01*
X221986158Y-51698155D02*
X221905346Y-51725093D01*
X221824534Y-51805905D01*
X221770659Y-51913654D01*
X221770659Y-52021404D01*
X221797597Y-52102216D01*
X221878409Y-52236903D01*
X221959221Y-52317715D01*
X222093908Y-52398528D01*
X222174720Y-52425465D01*
X222282470Y-52425465D01*
X222390219Y-52371590D01*
X222444094Y-52317715D01*
X222497969Y-52209966D01*
X222497969Y-52156091D01*
X222309407Y-51967529D01*
X222201658Y-52075279D01*
X222794280Y-51967529D02*
X222228595Y-51401844D01*
X223117529Y-51644280D01*
X222551844Y-51078595D01*
X223386903Y-51374906D02*
X222821218Y-50809221D01*
X222955905Y-50674534D01*
X223063654Y-50620659D01*
X223171404Y-50620659D01*
X223252216Y-50647597D01*
X223386903Y-50728409D01*
X223467715Y-50809221D01*
X223548528Y-50943908D01*
X223575465Y-51024720D01*
X223575465Y-51132470D01*
X223521590Y-51240219D01*
X223386903Y-51374906D01*
X196313096Y-54211218D02*
X196232284Y-54238155D01*
X196151471Y-54318967D01*
X196097597Y-54426717D01*
X196097597Y-54534467D01*
X196124534Y-54615279D01*
X196205346Y-54749966D01*
X196286158Y-54830778D01*
X196420845Y-54911590D01*
X196501658Y-54938528D01*
X196609407Y-54938528D01*
X196717157Y-54884653D01*
X196771032Y-54830778D01*
X196824906Y-54723028D01*
X196824906Y-54669154D01*
X196636345Y-54480592D01*
X196528595Y-54588341D01*
X197121218Y-54480592D02*
X196555532Y-53914906D01*
X196771032Y-53699407D01*
X196851844Y-53672470D01*
X196905719Y-53672470D01*
X196986531Y-53699407D01*
X197067343Y-53780219D01*
X197094280Y-53861032D01*
X197094280Y-53914906D01*
X197067343Y-53995719D01*
X196851844Y-54211218D01*
X197148155Y-53430033D02*
X197148155Y-53376158D01*
X197175093Y-53295346D01*
X197309780Y-53160659D01*
X197390592Y-53133722D01*
X197444467Y-53133722D01*
X197525279Y-53160659D01*
X197579154Y-53214534D01*
X197633028Y-53322284D01*
X197633028Y-53968781D01*
X197983215Y-53618595D01*
X195743722Y-84960592D02*
X195662910Y-84987529D01*
X195582097Y-85068341D01*
X195528223Y-85176091D01*
X195528223Y-85283841D01*
X195555160Y-85364653D01*
X195635972Y-85499340D01*
X195716784Y-85580152D01*
X195851471Y-85660964D01*
X195932284Y-85687902D01*
X196040033Y-85687902D01*
X196147783Y-85634027D01*
X196201658Y-85580152D01*
X196255532Y-85472402D01*
X196255532Y-85418528D01*
X196066971Y-85229966D01*
X195959221Y-85337715D01*
X196551844Y-85229966D02*
X195986158Y-84664280D01*
X196201658Y-84448781D01*
X196282470Y-84421844D01*
X196336345Y-84421844D01*
X196417157Y-84448781D01*
X196497969Y-84529593D01*
X196524906Y-84610406D01*
X196524906Y-84664280D01*
X196497969Y-84745093D01*
X196282470Y-84960592D01*
X197413841Y-84367969D02*
X197090592Y-84691218D01*
X197252216Y-84529593D02*
X196686531Y-83963908D01*
X196713468Y-84098595D01*
X196713468Y-84206345D01*
X196686531Y-84287157D01*
X197117529Y-83640659D02*
X197117529Y-83586784D01*
X197144467Y-83505972D01*
X197279154Y-83371285D01*
X197359966Y-83344348D01*
X197413841Y-83344348D01*
X197494653Y-83371285D01*
X197548528Y-83425160D01*
X197602402Y-83532910D01*
X197602402Y-84179407D01*
X197952589Y-83829221D01*
X221820473Y-49669966D02*
X222574720Y-50047089D01*
X222197597Y-49292842D01*
X222897969Y-49669966D02*
X223005719Y-49616091D01*
X223140406Y-49481404D01*
X223167343Y-49400592D01*
X223167343Y-49346717D01*
X223140406Y-49265905D01*
X223086531Y-49212030D01*
X223005719Y-49185093D01*
X222951844Y-49185093D01*
X222871032Y-49212030D01*
X222736345Y-49292842D01*
X222655532Y-49319780D01*
X222601658Y-49319780D01*
X222520845Y-49292842D01*
X222466971Y-49238967D01*
X222440033Y-49158155D01*
X222440033Y-49104280D01*
X222466971Y-49023468D01*
X222601658Y-48888781D01*
X222709407Y-48834906D01*
X223328967Y-48754094D02*
X223598341Y-49023468D01*
X222844094Y-48646345D02*
X223328967Y-48754094D01*
X223221218Y-48269221D01*
X223921590Y-48646345D02*
X224029340Y-48592470D01*
X224164027Y-48457783D01*
X224190964Y-48376971D01*
X224190964Y-48323096D01*
X224164027Y-48242284D01*
X224110152Y-48188409D01*
X224029340Y-48161471D01*
X223975465Y-48161471D01*
X223894653Y-48188409D01*
X223759966Y-48269221D01*
X223679154Y-48296158D01*
X223625279Y-48296158D01*
X223544467Y-48269221D01*
X223490592Y-48215346D01*
X223463654Y-48134534D01*
X223463654Y-48080659D01*
X223490592Y-47999847D01*
X223625279Y-47865160D01*
X223733028Y-47811285D01*
X221997722Y-92580592D02*
X221916910Y-92607529D01*
X221836097Y-92688341D01*
X221782223Y-92796091D01*
X221782223Y-92903841D01*
X221809160Y-92984653D01*
X221889972Y-93119340D01*
X221970784Y-93200152D01*
X222105471Y-93280964D01*
X222186284Y-93307902D01*
X222294033Y-93307902D01*
X222401783Y-93254027D01*
X222455658Y-93200152D01*
X222509532Y-93092402D01*
X222509532Y-93038528D01*
X222320971Y-92849966D01*
X222213221Y-92957715D01*
X222805844Y-92849966D02*
X222240158Y-92284280D01*
X222455658Y-92068781D01*
X222536470Y-92041844D01*
X222590345Y-92041844D01*
X222671157Y-92068781D01*
X222751969Y-92149593D01*
X222778906Y-92230406D01*
X222778906Y-92284280D01*
X222751969Y-92365093D01*
X222536470Y-92580592D01*
X223667841Y-91987969D02*
X223344592Y-92311218D01*
X223506216Y-92149593D02*
X222940531Y-91583908D01*
X222967468Y-91718595D01*
X222967468Y-91826345D01*
X222940531Y-91907157D01*
X223290717Y-91233722D02*
X223667841Y-90856598D01*
X223991089Y-91664720D01*
X221853129Y-47127309D02*
X222607377Y-47504433D01*
X222230253Y-46750186D01*
X222876751Y-46642436D02*
X222984500Y-46588561D01*
X223038375Y-46588561D01*
X223119187Y-46615499D01*
X223200000Y-46696311D01*
X223226937Y-46777123D01*
X223226937Y-46830998D01*
X223200000Y-46911810D01*
X222984500Y-47127309D01*
X222418815Y-46561624D01*
X222607377Y-46373062D01*
X222688189Y-46346125D01*
X222742064Y-46346125D01*
X222822876Y-46373062D01*
X222876751Y-46426937D01*
X222903688Y-46507749D01*
X222903688Y-46561624D01*
X222876751Y-46642436D01*
X222688189Y-46830998D01*
X222984500Y-45995938D02*
X223442436Y-46453874D01*
X223523248Y-46480812D01*
X223577123Y-46480812D01*
X223657935Y-46453874D01*
X223765685Y-46346125D01*
X223792622Y-46265312D01*
X223792622Y-46211438D01*
X223765685Y-46130625D01*
X223307749Y-45672690D01*
X224088934Y-45969001D02*
X224196683Y-45915126D01*
X224331370Y-45780439D01*
X224358308Y-45699627D01*
X224358308Y-45645752D01*
X224331370Y-45564940D01*
X224277496Y-45511065D01*
X224196683Y-45484128D01*
X224142809Y-45484128D01*
X224061996Y-45511065D01*
X223927309Y-45591877D01*
X223846497Y-45618815D01*
X223792622Y-45618815D01*
X223711810Y-45591877D01*
X223657935Y-45538003D01*
X223630998Y-45457190D01*
X223630998Y-45403316D01*
X223657935Y-45322503D01*
X223792622Y-45187816D01*
X223900372Y-45133942D01*
X196413096Y-46591218D02*
X196332284Y-46618155D01*
X196251471Y-46698967D01*
X196197597Y-46806717D01*
X196197597Y-46914467D01*
X196224534Y-46995279D01*
X196305346Y-47129966D01*
X196386158Y-47210778D01*
X196520845Y-47291590D01*
X196601658Y-47318528D01*
X196709407Y-47318528D01*
X196817157Y-47264653D01*
X196871032Y-47210778D01*
X196924906Y-47103028D01*
X196924906Y-47049154D01*
X196736345Y-46860592D01*
X196628595Y-46968341D01*
X197221218Y-46860592D02*
X196655532Y-46294906D01*
X196871032Y-46079407D01*
X196951844Y-46052470D01*
X197005719Y-46052470D01*
X197086531Y-46079407D01*
X197167343Y-46160219D01*
X197194280Y-46241032D01*
X197194280Y-46294906D01*
X197167343Y-46375719D01*
X196951844Y-46591218D01*
X197328967Y-45621471D02*
X197382842Y-45567597D01*
X197463654Y-45540659D01*
X197517529Y-45540659D01*
X197598341Y-45567597D01*
X197733028Y-45648409D01*
X197867715Y-45783096D01*
X197948528Y-45917783D01*
X197975465Y-45998595D01*
X197975465Y-46052470D01*
X197948528Y-46133282D01*
X197894653Y-46187157D01*
X197813841Y-46214094D01*
X197759966Y-46214094D01*
X197679154Y-46187157D01*
X197544467Y-46106345D01*
X197409780Y-45971658D01*
X197328967Y-45836971D01*
X197302030Y-45756158D01*
X197302030Y-45702284D01*
X197328967Y-45621471D01*
X221997722Y-69720592D02*
X221916910Y-69747529D01*
X221836097Y-69828341D01*
X221782223Y-69936091D01*
X221782223Y-70043841D01*
X221809160Y-70124653D01*
X221889972Y-70259340D01*
X221970784Y-70340152D01*
X222105471Y-70420964D01*
X222186284Y-70447902D01*
X222294033Y-70447902D01*
X222401783Y-70394027D01*
X222455658Y-70340152D01*
X222509532Y-70232402D01*
X222509532Y-70178528D01*
X222320971Y-69989966D01*
X222213221Y-70097715D01*
X222805844Y-69989966D02*
X222240158Y-69424280D01*
X222455658Y-69208781D01*
X222536470Y-69181844D01*
X222590345Y-69181844D01*
X222671157Y-69208781D01*
X222751969Y-69289593D01*
X222778906Y-69370406D01*
X222778906Y-69424280D01*
X222751969Y-69505093D01*
X222536470Y-69720592D01*
X222832781Y-68939407D02*
X222832781Y-68885532D01*
X222859719Y-68804720D01*
X222994406Y-68670033D01*
X223075218Y-68643096D01*
X223129093Y-68643096D01*
X223209905Y-68670033D01*
X223263780Y-68723908D01*
X223317654Y-68831658D01*
X223317654Y-69478155D01*
X223667841Y-69127969D01*
X223587028Y-68077410D02*
X223479279Y-68185160D01*
X223452341Y-68265972D01*
X223452341Y-68319847D01*
X223479279Y-68454534D01*
X223560091Y-68589221D01*
X223775590Y-68804720D01*
X223856402Y-68831658D01*
X223910277Y-68831658D01*
X223991089Y-68804720D01*
X224098839Y-68696971D01*
X224125776Y-68616158D01*
X224125776Y-68562284D01*
X224098839Y-68481471D01*
X223964152Y-68346784D01*
X223883340Y-68319847D01*
X223829465Y-68319847D01*
X223748653Y-68346784D01*
X223640903Y-68454534D01*
X223613966Y-68535346D01*
X223613966Y-68589221D01*
X223640903Y-68670033D01*
X195889722Y-79880592D02*
X195808910Y-79907529D01*
X195728097Y-79988341D01*
X195674223Y-80096091D01*
X195674223Y-80203841D01*
X195701160Y-80284653D01*
X195781972Y-80419340D01*
X195862784Y-80500152D01*
X195997471Y-80580964D01*
X196078284Y-80607902D01*
X196186033Y-80607902D01*
X196293783Y-80554027D01*
X196347658Y-80500152D01*
X196401532Y-80392402D01*
X196401532Y-80338528D01*
X196212971Y-80149966D01*
X196105221Y-80257715D01*
X196697844Y-80149966D02*
X196132158Y-79584280D01*
X196347658Y-79368781D01*
X196428470Y-79341844D01*
X196482345Y-79341844D01*
X196563157Y-79368781D01*
X196643969Y-79449593D01*
X196670906Y-79530406D01*
X196670906Y-79584280D01*
X196643969Y-79665093D01*
X196428470Y-79880592D01*
X197559841Y-79287969D02*
X197236592Y-79611218D01*
X197398216Y-79449593D02*
X196832531Y-78883908D01*
X196859468Y-79018595D01*
X196859468Y-79126345D01*
X196832531Y-79207157D01*
X197344341Y-78372097D02*
X197398216Y-78318223D01*
X197479028Y-78291285D01*
X197532903Y-78291285D01*
X197613715Y-78318223D01*
X197748402Y-78399035D01*
X197883089Y-78533722D01*
X197963902Y-78668409D01*
X197990839Y-78749221D01*
X197990839Y-78803096D01*
X197963902Y-78883908D01*
X197910027Y-78937783D01*
X197829215Y-78964720D01*
X197775340Y-78964720D01*
X197694528Y-78937783D01*
X197559841Y-78856971D01*
X197425154Y-78722284D01*
X197344341Y-78587597D01*
X197317404Y-78506784D01*
X197317404Y-78452910D01*
X197344341Y-78372097D01*
X196413096Y-71991218D02*
X196332284Y-72018155D01*
X196251471Y-72098967D01*
X196197597Y-72206717D01*
X196197597Y-72314467D01*
X196224534Y-72395279D01*
X196305346Y-72529966D01*
X196386158Y-72610778D01*
X196520845Y-72691590D01*
X196601658Y-72718528D01*
X196709407Y-72718528D01*
X196817157Y-72664653D01*
X196871032Y-72610778D01*
X196924906Y-72503028D01*
X196924906Y-72449154D01*
X196736345Y-72260592D01*
X196628595Y-72368341D01*
X197221218Y-72260592D02*
X196655532Y-71694906D01*
X196871032Y-71479407D01*
X196951844Y-71452470D01*
X197005719Y-71452470D01*
X197086531Y-71479407D01*
X197167343Y-71560219D01*
X197194280Y-71641032D01*
X197194280Y-71694906D01*
X197167343Y-71775719D01*
X196951844Y-71991218D01*
X197544467Y-71290845D02*
X197463654Y-71317783D01*
X197409780Y-71317783D01*
X197328967Y-71290845D01*
X197302030Y-71263908D01*
X197275093Y-71183096D01*
X197275093Y-71129221D01*
X197302030Y-71048409D01*
X197409780Y-70940659D01*
X197490592Y-70913722D01*
X197544467Y-70913722D01*
X197625279Y-70940659D01*
X197652216Y-70967597D01*
X197679154Y-71048409D01*
X197679154Y-71102284D01*
X197652216Y-71183096D01*
X197544467Y-71290845D01*
X197517529Y-71371658D01*
X197517529Y-71425532D01*
X197544467Y-71506345D01*
X197652216Y-71614094D01*
X197733028Y-71641032D01*
X197786903Y-71641032D01*
X197867715Y-71614094D01*
X197975465Y-71506345D01*
X198002402Y-71425532D01*
X198002402Y-71371658D01*
X197975465Y-71290845D01*
X197867715Y-71183096D01*
X197786903Y-71156158D01*
X197733028Y-71156158D01*
X197652216Y-71183096D01*
X195889722Y-87500592D02*
X195808910Y-87527529D01*
X195728097Y-87608341D01*
X195674223Y-87716091D01*
X195674223Y-87823841D01*
X195701160Y-87904653D01*
X195781972Y-88039340D01*
X195862784Y-88120152D01*
X195997471Y-88200964D01*
X196078284Y-88227902D01*
X196186033Y-88227902D01*
X196293783Y-88174027D01*
X196347658Y-88120152D01*
X196401532Y-88012402D01*
X196401532Y-87958528D01*
X196212971Y-87769966D01*
X196105221Y-87877715D01*
X196697844Y-87769966D02*
X196132158Y-87204280D01*
X196347658Y-86988781D01*
X196428470Y-86961844D01*
X196482345Y-86961844D01*
X196563157Y-86988781D01*
X196643969Y-87069593D01*
X196670906Y-87150406D01*
X196670906Y-87204280D01*
X196643969Y-87285093D01*
X196428470Y-87500592D01*
X197559841Y-86907969D02*
X197236592Y-87231218D01*
X197398216Y-87069593D02*
X196832531Y-86503908D01*
X196859468Y-86638595D01*
X196859468Y-86746345D01*
X196832531Y-86827157D01*
X197182717Y-86153722D02*
X197532903Y-85803536D01*
X197559841Y-86207597D01*
X197640653Y-86126784D01*
X197721465Y-86099847D01*
X197775340Y-86099847D01*
X197856152Y-86126784D01*
X197990839Y-86261471D01*
X198017776Y-86342284D01*
X198017776Y-86396158D01*
X197990839Y-86476971D01*
X197829215Y-86638595D01*
X197748402Y-86665532D01*
X197694528Y-86665532D01*
X221986158Y-89798155D02*
X221905346Y-89825093D01*
X221824534Y-89905905D01*
X221770659Y-90013654D01*
X221770659Y-90121404D01*
X221797597Y-90202216D01*
X221878409Y-90336903D01*
X221959221Y-90417715D01*
X222093908Y-90498528D01*
X222174720Y-90525465D01*
X222282470Y-90525465D01*
X222390219Y-90471590D01*
X222444094Y-90417715D01*
X222497969Y-90309966D01*
X222497969Y-90256091D01*
X222309407Y-90067529D01*
X222201658Y-90175279D01*
X222794280Y-90067529D02*
X222228595Y-89501844D01*
X223117529Y-89744280D01*
X222551844Y-89178595D01*
X223386903Y-89474906D02*
X222821218Y-88909221D01*
X222955905Y-88774534D01*
X223063654Y-88720659D01*
X223171404Y-88720659D01*
X223252216Y-88747597D01*
X223386903Y-88828409D01*
X223467715Y-88909221D01*
X223548528Y-89043908D01*
X223575465Y-89124720D01*
X223575465Y-89232470D01*
X223521590Y-89340219D01*
X223386903Y-89474906D01*
X221997722Y-82420592D02*
X221916910Y-82447529D01*
X221836097Y-82528341D01*
X221782223Y-82636091D01*
X221782223Y-82743841D01*
X221809160Y-82824653D01*
X221889972Y-82959340D01*
X221970784Y-83040152D01*
X222105471Y-83120964D01*
X222186284Y-83147902D01*
X222294033Y-83147902D01*
X222401783Y-83094027D01*
X222455658Y-83040152D01*
X222509532Y-82932402D01*
X222509532Y-82878528D01*
X222320971Y-82689966D01*
X222213221Y-82797715D01*
X222805844Y-82689966D02*
X222240158Y-82124280D01*
X222455658Y-81908781D01*
X222536470Y-81881844D01*
X222590345Y-81881844D01*
X222671157Y-81908781D01*
X222751969Y-81989593D01*
X222778906Y-82070406D01*
X222778906Y-82124280D01*
X222751969Y-82205093D01*
X222536470Y-82420592D01*
X222832781Y-81639407D02*
X222832781Y-81585532D01*
X222859719Y-81504720D01*
X222994406Y-81370033D01*
X223075218Y-81343096D01*
X223129093Y-81343096D01*
X223209905Y-81370033D01*
X223263780Y-81423908D01*
X223317654Y-81531658D01*
X223317654Y-82178155D01*
X223667841Y-81827969D01*
X223452341Y-80912097D02*
X223506216Y-80858223D01*
X223587028Y-80831285D01*
X223640903Y-80831285D01*
X223721715Y-80858223D01*
X223856402Y-80939035D01*
X223991089Y-81073722D01*
X224071902Y-81208409D01*
X224098839Y-81289221D01*
X224098839Y-81343096D01*
X224071902Y-81423908D01*
X224018027Y-81477783D01*
X223937215Y-81504720D01*
X223883340Y-81504720D01*
X223802528Y-81477783D01*
X223667841Y-81396971D01*
X223533154Y-81262284D01*
X223452341Y-81127597D01*
X223425404Y-81046784D01*
X223425404Y-80992910D01*
X223452341Y-80912097D01*
X195743722Y-82420592D02*
X195662910Y-82447529D01*
X195582097Y-82528341D01*
X195528223Y-82636091D01*
X195528223Y-82743841D01*
X195555160Y-82824653D01*
X195635972Y-82959340D01*
X195716784Y-83040152D01*
X195851471Y-83120964D01*
X195932284Y-83147902D01*
X196040033Y-83147902D01*
X196147783Y-83094027D01*
X196201658Y-83040152D01*
X196255532Y-82932402D01*
X196255532Y-82878528D01*
X196066971Y-82689966D01*
X195959221Y-82797715D01*
X196551844Y-82689966D02*
X195986158Y-82124280D01*
X196201658Y-81908781D01*
X196282470Y-81881844D01*
X196336345Y-81881844D01*
X196417157Y-81908781D01*
X196497969Y-81989593D01*
X196524906Y-82070406D01*
X196524906Y-82124280D01*
X196497969Y-82205093D01*
X196282470Y-82420592D01*
X197413841Y-81827969D02*
X197090592Y-82151218D01*
X197252216Y-81989593D02*
X196686531Y-81423908D01*
X196713468Y-81558595D01*
X196713468Y-81666345D01*
X196686531Y-81747157D01*
X197952589Y-81289221D02*
X197629340Y-81612470D01*
X197790964Y-81450845D02*
X197225279Y-80885160D01*
X197252216Y-81019847D01*
X197252216Y-81127597D01*
X197225279Y-81208409D01*
X196413096Y-74531218D02*
X196332284Y-74558155D01*
X196251471Y-74638967D01*
X196197597Y-74746717D01*
X196197597Y-74854467D01*
X196224534Y-74935279D01*
X196305346Y-75069966D01*
X196386158Y-75150778D01*
X196520845Y-75231590D01*
X196601658Y-75258528D01*
X196709407Y-75258528D01*
X196817157Y-75204653D01*
X196871032Y-75150778D01*
X196924906Y-75043028D01*
X196924906Y-74989154D01*
X196736345Y-74800592D01*
X196628595Y-74908341D01*
X197221218Y-74800592D02*
X196655532Y-74234906D01*
X196871032Y-74019407D01*
X196951844Y-73992470D01*
X197005719Y-73992470D01*
X197086531Y-74019407D01*
X197167343Y-74100219D01*
X197194280Y-74181032D01*
X197194280Y-74234906D01*
X197167343Y-74315719D01*
X196951844Y-74531218D01*
X197813841Y-74207969D02*
X197921590Y-74100219D01*
X197948528Y-74019407D01*
X197948528Y-73965532D01*
X197921590Y-73830845D01*
X197840778Y-73696158D01*
X197625279Y-73480659D01*
X197544467Y-73453722D01*
X197490592Y-73453722D01*
X197409780Y-73480659D01*
X197302030Y-73588409D01*
X197275093Y-73669221D01*
X197275093Y-73723096D01*
X197302030Y-73803908D01*
X197436717Y-73938595D01*
X197517529Y-73965532D01*
X197571404Y-73965532D01*
X197652216Y-73938595D01*
X197759966Y-73830845D01*
X197786903Y-73750033D01*
X197786903Y-73696158D01*
X197759966Y-73615346D01*
X221997722Y-95120592D02*
X221916910Y-95147529D01*
X221836097Y-95228341D01*
X221782223Y-95336091D01*
X221782223Y-95443841D01*
X221809160Y-95524653D01*
X221889972Y-95659340D01*
X221970784Y-95740152D01*
X222105471Y-95820964D01*
X222186284Y-95847902D01*
X222294033Y-95847902D01*
X222401783Y-95794027D01*
X222455658Y-95740152D01*
X222509532Y-95632402D01*
X222509532Y-95578528D01*
X222320971Y-95389966D01*
X222213221Y-95497715D01*
X222805844Y-95389966D02*
X222240158Y-94824280D01*
X222455658Y-94608781D01*
X222536470Y-94581844D01*
X222590345Y-94581844D01*
X222671157Y-94608781D01*
X222751969Y-94689593D01*
X222778906Y-94770406D01*
X222778906Y-94824280D01*
X222751969Y-94905093D01*
X222536470Y-95120592D01*
X223667841Y-94527969D02*
X223344592Y-94851218D01*
X223506216Y-94689593D02*
X222940531Y-94123908D01*
X222967468Y-94258595D01*
X222967468Y-94366345D01*
X222940531Y-94447157D01*
X223587028Y-93477410D02*
X223479279Y-93585160D01*
X223452341Y-93665972D01*
X223452341Y-93719847D01*
X223479279Y-93854534D01*
X223560091Y-93989221D01*
X223775590Y-94204720D01*
X223856402Y-94231658D01*
X223910277Y-94231658D01*
X223991089Y-94204720D01*
X224098839Y-94096971D01*
X224125776Y-94016158D01*
X224125776Y-93962284D01*
X224098839Y-93881471D01*
X223964152Y-93746784D01*
X223883340Y-93719847D01*
X223829465Y-93719847D01*
X223748653Y-93746784D01*
X223640903Y-93854534D01*
X223613966Y-93935346D01*
X223613966Y-93989221D01*
X223640903Y-94070033D01*
X196386158Y-51698155D02*
X196305346Y-51725093D01*
X196224534Y-51805905D01*
X196170659Y-51913654D01*
X196170659Y-52021404D01*
X196197597Y-52102216D01*
X196278409Y-52236903D01*
X196359221Y-52317715D01*
X196493908Y-52398528D01*
X196574720Y-52425465D01*
X196682470Y-52425465D01*
X196790219Y-52371590D01*
X196844094Y-52317715D01*
X196897969Y-52209966D01*
X196897969Y-52156091D01*
X196709407Y-51967529D01*
X196601658Y-52075279D01*
X197194280Y-51967529D02*
X196628595Y-51401844D01*
X197517529Y-51644280D01*
X196951844Y-51078595D01*
X197786903Y-51374906D02*
X197221218Y-50809221D01*
X197355905Y-50674534D01*
X197463654Y-50620659D01*
X197571404Y-50620659D01*
X197652216Y-50647597D01*
X197786903Y-50728409D01*
X197867715Y-50809221D01*
X197948528Y-50943908D01*
X197975465Y-51024720D01*
X197975465Y-51132470D01*
X197921590Y-51240219D01*
X197786903Y-51374906D01*
X196413096Y-56751218D02*
X196332284Y-56778155D01*
X196251471Y-56858967D01*
X196197597Y-56966717D01*
X196197597Y-57074467D01*
X196224534Y-57155279D01*
X196305346Y-57289966D01*
X196386158Y-57370778D01*
X196520845Y-57451590D01*
X196601658Y-57478528D01*
X196709407Y-57478528D01*
X196817157Y-57424653D01*
X196871032Y-57370778D01*
X196924906Y-57263028D01*
X196924906Y-57209154D01*
X196736345Y-57020592D01*
X196628595Y-57128341D01*
X197221218Y-57020592D02*
X196655532Y-56454906D01*
X196871032Y-56239407D01*
X196951844Y-56212470D01*
X197005719Y-56212470D01*
X197086531Y-56239407D01*
X197167343Y-56320219D01*
X197194280Y-56401032D01*
X197194280Y-56454906D01*
X197167343Y-56535719D01*
X196951844Y-56751218D01*
X197167343Y-55943096D02*
X197517529Y-55592910D01*
X197544467Y-55996971D01*
X197625279Y-55916158D01*
X197706091Y-55889221D01*
X197759966Y-55889221D01*
X197840778Y-55916158D01*
X197975465Y-56050845D01*
X198002402Y-56131658D01*
X198002402Y-56185532D01*
X197975465Y-56266345D01*
X197813841Y-56427969D01*
X197733028Y-56454906D01*
X197679154Y-56454906D01*
X196413096Y-61831218D02*
X196332284Y-61858155D01*
X196251471Y-61938967D01*
X196197597Y-62046717D01*
X196197597Y-62154467D01*
X196224534Y-62235279D01*
X196305346Y-62369966D01*
X196386158Y-62450778D01*
X196520845Y-62531590D01*
X196601658Y-62558528D01*
X196709407Y-62558528D01*
X196817157Y-62504653D01*
X196871032Y-62450778D01*
X196924906Y-62343028D01*
X196924906Y-62289154D01*
X196736345Y-62100592D01*
X196628595Y-62208341D01*
X197221218Y-62100592D02*
X196655532Y-61534906D01*
X196871032Y-61319407D01*
X196951844Y-61292470D01*
X197005719Y-61292470D01*
X197086531Y-61319407D01*
X197167343Y-61400219D01*
X197194280Y-61481032D01*
X197194280Y-61534906D01*
X197167343Y-61615719D01*
X196951844Y-61831218D01*
X197490592Y-60699847D02*
X197221218Y-60969221D01*
X197463654Y-61265532D01*
X197463654Y-61211658D01*
X197490592Y-61130845D01*
X197625279Y-60996158D01*
X197706091Y-60969221D01*
X197759966Y-60969221D01*
X197840778Y-60996158D01*
X197975465Y-61130845D01*
X198002402Y-61211658D01*
X198002402Y-61265532D01*
X197975465Y-61346345D01*
X197840778Y-61481032D01*
X197759966Y-61507969D01*
X197706091Y-61507969D01*
X196413096Y-59291218D02*
X196332284Y-59318155D01*
X196251471Y-59398967D01*
X196197597Y-59506717D01*
X196197597Y-59614467D01*
X196224534Y-59695279D01*
X196305346Y-59829966D01*
X196386158Y-59910778D01*
X196520845Y-59991590D01*
X196601658Y-60018528D01*
X196709407Y-60018528D01*
X196817157Y-59964653D01*
X196871032Y-59910778D01*
X196924906Y-59803028D01*
X196924906Y-59749154D01*
X196736345Y-59560592D01*
X196628595Y-59668341D01*
X197221218Y-59560592D02*
X196655532Y-58994906D01*
X196871032Y-58779407D01*
X196951844Y-58752470D01*
X197005719Y-58752470D01*
X197086531Y-58779407D01*
X197167343Y-58860219D01*
X197194280Y-58941032D01*
X197194280Y-58994906D01*
X197167343Y-59075719D01*
X196951844Y-59291218D01*
X197652216Y-58375346D02*
X198029340Y-58752470D01*
X197302030Y-58294534D02*
X197571404Y-58833282D01*
X197921590Y-58483096D01*
X222051597Y-65340964D02*
X222320971Y-65071590D01*
X222159346Y-65556463D02*
X221782223Y-64802216D01*
X222536470Y-65179340D01*
X222482595Y-64155719D02*
X222401783Y-64182656D01*
X222320971Y-64263468D01*
X222267096Y-64371218D01*
X222267096Y-64478967D01*
X222294033Y-64559780D01*
X222374845Y-64694467D01*
X222455658Y-64775279D01*
X222590345Y-64856091D01*
X222671157Y-64883028D01*
X222778906Y-64883028D01*
X222886656Y-64829154D01*
X222940531Y-64775279D01*
X222994406Y-64667529D01*
X222994406Y-64613654D01*
X222805844Y-64425093D01*
X222698094Y-64532842D01*
X223290717Y-64425093D02*
X222725032Y-63859407D01*
X223613966Y-64101844D01*
X223048280Y-63536158D01*
X223883340Y-63832470D02*
X223317654Y-63266784D01*
X223452341Y-63132097D01*
X223560091Y-63078223D01*
X223667841Y-63078223D01*
X223748653Y-63105160D01*
X223883340Y-63185972D01*
X223964152Y-63266784D01*
X224044964Y-63401471D01*
X224071902Y-63482284D01*
X224071902Y-63590033D01*
X224018027Y-63697783D01*
X223883340Y-63832470D01*
X196386158Y-77098155D02*
X196305346Y-77125093D01*
X196224534Y-77205905D01*
X196170659Y-77313654D01*
X196170659Y-77421404D01*
X196197597Y-77502216D01*
X196278409Y-77636903D01*
X196359221Y-77717715D01*
X196493908Y-77798528D01*
X196574720Y-77825465D01*
X196682470Y-77825465D01*
X196790219Y-77771590D01*
X196844094Y-77717715D01*
X196897969Y-77609966D01*
X196897969Y-77556091D01*
X196709407Y-77367529D01*
X196601658Y-77475279D01*
X197194280Y-77367529D02*
X196628595Y-76801844D01*
X197517529Y-77044280D01*
X196951844Y-76478595D01*
X197786903Y-76774906D02*
X197221218Y-76209221D01*
X197355905Y-76074534D01*
X197463654Y-76020659D01*
X197571404Y-76020659D01*
X197652216Y-76047597D01*
X197786903Y-76128409D01*
X197867715Y-76209221D01*
X197948528Y-76343908D01*
X197975465Y-76424720D01*
X197975465Y-76532470D01*
X197921590Y-76640219D01*
X197786903Y-76774906D01*
X221997722Y-87500592D02*
X221916910Y-87527529D01*
X221836097Y-87608341D01*
X221782223Y-87716091D01*
X221782223Y-87823841D01*
X221809160Y-87904653D01*
X221889972Y-88039340D01*
X221970784Y-88120152D01*
X222105471Y-88200964D01*
X222186284Y-88227902D01*
X222294033Y-88227902D01*
X222401783Y-88174027D01*
X222455658Y-88120152D01*
X222509532Y-88012402D01*
X222509532Y-87958528D01*
X222320971Y-87769966D01*
X222213221Y-87877715D01*
X222805844Y-87769966D02*
X222240158Y-87204280D01*
X222455658Y-86988781D01*
X222536470Y-86961844D01*
X222590345Y-86961844D01*
X222671157Y-86988781D01*
X222751969Y-87069593D01*
X222778906Y-87150406D01*
X222778906Y-87204280D01*
X222751969Y-87285093D01*
X222536470Y-87500592D01*
X223667841Y-86907969D02*
X223344592Y-87231218D01*
X223506216Y-87069593D02*
X222940531Y-86503908D01*
X222967468Y-86638595D01*
X222967468Y-86746345D01*
X222940531Y-86827157D01*
X223667841Y-86261471D02*
X223587028Y-86288409D01*
X223533154Y-86288409D01*
X223452341Y-86261471D01*
X223425404Y-86234534D01*
X223398467Y-86153722D01*
X223398467Y-86099847D01*
X223425404Y-86019035D01*
X223533154Y-85911285D01*
X223613966Y-85884348D01*
X223667841Y-85884348D01*
X223748653Y-85911285D01*
X223775590Y-85938223D01*
X223802528Y-86019035D01*
X223802528Y-86072910D01*
X223775590Y-86153722D01*
X223667841Y-86261471D01*
X223640903Y-86342284D01*
X223640903Y-86396158D01*
X223667841Y-86476971D01*
X223775590Y-86584720D01*
X223856402Y-86611658D01*
X223910277Y-86611658D01*
X223991089Y-86584720D01*
X224098839Y-86476971D01*
X224125776Y-86396158D01*
X224125776Y-86342284D01*
X224098839Y-86261471D01*
X223991089Y-86153722D01*
X223910277Y-86126784D01*
X223856402Y-86126784D01*
X223775590Y-86153722D01*
X196313096Y-49121218D02*
X196232284Y-49148155D01*
X196151471Y-49228967D01*
X196097597Y-49336717D01*
X196097597Y-49444467D01*
X196124534Y-49525279D01*
X196205346Y-49659966D01*
X196286158Y-49740778D01*
X196420845Y-49821590D01*
X196501658Y-49848528D01*
X196609407Y-49848528D01*
X196717157Y-49794653D01*
X196771032Y-49740778D01*
X196824906Y-49633028D01*
X196824906Y-49579154D01*
X196636345Y-49390592D01*
X196528595Y-49498341D01*
X197121218Y-49390592D02*
X196555532Y-48824906D01*
X196771032Y-48609407D01*
X196851844Y-48582470D01*
X196905719Y-48582470D01*
X196986531Y-48609407D01*
X197067343Y-48690219D01*
X197094280Y-48771032D01*
X197094280Y-48824906D01*
X197067343Y-48905719D01*
X196851844Y-49121218D01*
X197983215Y-48528595D02*
X197659966Y-48851844D01*
X197821590Y-48690219D02*
X197255905Y-48124534D01*
X197282842Y-48259221D01*
X197282842Y-48366971D01*
X197255905Y-48447783D01*
X222054788Y-60133773D02*
X222324162Y-59864399D01*
X222162537Y-60349272D02*
X221785414Y-59595025D01*
X222539661Y-59972149D01*
X222728223Y-59783587D02*
X222162537Y-59217902D01*
X222297224Y-59083215D01*
X222404974Y-59029340D01*
X222512723Y-59029340D01*
X222593536Y-59056277D01*
X222728223Y-59137089D01*
X222809035Y-59217902D01*
X222889847Y-59352589D01*
X222916784Y-59433401D01*
X222916784Y-59541150D01*
X222862910Y-59648900D01*
X222728223Y-59783587D01*
X223563282Y-58840778D02*
X223563282Y-58894653D01*
X223509407Y-59002402D01*
X223455532Y-59056277D01*
X223347783Y-59110152D01*
X223240033Y-59110152D01*
X223159221Y-59083215D01*
X223024534Y-59002402D01*
X222943722Y-58921590D01*
X222862910Y-58786903D01*
X222835972Y-58706091D01*
X222835972Y-58598341D01*
X222889847Y-58490592D01*
X222943722Y-58436717D01*
X223051471Y-58382842D01*
X223105346Y-58382842D01*
X223778781Y-58840778D02*
X224209780Y-58409780D01*
X223644094Y-57736345D02*
X224398341Y-58113468D01*
X224021218Y-57359221D01*
X225098714Y-57413096D02*
X224640778Y-57332284D01*
X224775465Y-57736345D02*
X224209780Y-57170659D01*
X224425279Y-56955160D01*
X224506091Y-56928223D01*
X224559966Y-56928223D01*
X224640778Y-56955160D01*
X224721590Y-57035972D01*
X224748528Y-57116784D01*
X224748528Y-57170659D01*
X224721590Y-57251471D01*
X224506091Y-57466971D01*
X225044839Y-56874348D02*
X225233401Y-56685786D01*
X225610524Y-56901285D02*
X225341150Y-57170659D01*
X224775465Y-56604974D01*
X225044839Y-56335600D01*
X225745211Y-56173975D02*
X225556650Y-56362537D01*
X225852961Y-56658849D02*
X225287276Y-56093163D01*
X225556650Y-55823789D01*
X221997722Y-61846592D02*
X221916910Y-61873529D01*
X221836097Y-61954341D01*
X221782223Y-62062091D01*
X221782223Y-62169841D01*
X221809160Y-62250653D01*
X221889972Y-62385340D01*
X221970784Y-62466152D01*
X222105471Y-62546964D01*
X222186284Y-62573902D01*
X222294033Y-62573902D01*
X222401783Y-62520027D01*
X222455658Y-62466152D01*
X222509532Y-62358402D01*
X222509532Y-62304528D01*
X222320971Y-62115966D01*
X222213221Y-62223715D01*
X222805844Y-62115966D02*
X222240158Y-61550280D01*
X222455658Y-61334781D01*
X222536470Y-61307844D01*
X222590345Y-61307844D01*
X222671157Y-61334781D01*
X222751969Y-61415593D01*
X222778906Y-61496406D01*
X222778906Y-61550280D01*
X222751969Y-61631093D01*
X222536470Y-61846592D01*
X222832781Y-61065407D02*
X222832781Y-61011532D01*
X222859719Y-60930720D01*
X222994406Y-60796033D01*
X223075218Y-60769096D01*
X223129093Y-60769096D01*
X223209905Y-60796033D01*
X223263780Y-60849908D01*
X223317654Y-60957658D01*
X223317654Y-61604155D01*
X223667841Y-61253969D01*
X223667841Y-60607471D02*
X223587028Y-60634409D01*
X223533154Y-60634409D01*
X223452341Y-60607471D01*
X223425404Y-60580534D01*
X223398467Y-60499722D01*
X223398467Y-60445847D01*
X223425404Y-60365035D01*
X223533154Y-60257285D01*
X223613966Y-60230348D01*
X223667841Y-60230348D01*
X223748653Y-60257285D01*
X223775590Y-60284223D01*
X223802528Y-60365035D01*
X223802528Y-60418910D01*
X223775590Y-60499722D01*
X223667841Y-60607471D01*
X223640903Y-60688284D01*
X223640903Y-60742158D01*
X223667841Y-60822971D01*
X223775590Y-60930720D01*
X223856402Y-60957658D01*
X223910277Y-60957658D01*
X223991089Y-60930720D01*
X224098839Y-60822971D01*
X224125776Y-60742158D01*
X224125776Y-60688284D01*
X224098839Y-60607471D01*
X223991089Y-60499722D01*
X223910277Y-60472784D01*
X223856402Y-60472784D01*
X223775590Y-60499722D01*
X221997722Y-67190592D02*
X221916910Y-67217529D01*
X221836097Y-67298341D01*
X221782223Y-67406091D01*
X221782223Y-67513841D01*
X221809160Y-67594653D01*
X221889972Y-67729340D01*
X221970784Y-67810152D01*
X222105471Y-67890964D01*
X222186284Y-67917902D01*
X222294033Y-67917902D01*
X222401783Y-67864027D01*
X222455658Y-67810152D01*
X222509532Y-67702402D01*
X222509532Y-67648528D01*
X222320971Y-67459966D01*
X222213221Y-67567715D01*
X222805844Y-67459966D02*
X222240158Y-66894280D01*
X222455658Y-66678781D01*
X222536470Y-66651844D01*
X222590345Y-66651844D01*
X222671157Y-66678781D01*
X222751969Y-66759593D01*
X222778906Y-66840406D01*
X222778906Y-66894280D01*
X222751969Y-66975093D01*
X222536470Y-67190592D01*
X222832781Y-66409407D02*
X222832781Y-66355532D01*
X222859719Y-66274720D01*
X222994406Y-66140033D01*
X223075218Y-66113096D01*
X223129093Y-66113096D01*
X223209905Y-66140033D01*
X223263780Y-66193908D01*
X223317654Y-66301658D01*
X223317654Y-66948155D01*
X223667841Y-66597969D01*
X223290717Y-65843722D02*
X223667841Y-65466598D01*
X223991089Y-66274720D01*
X221986158Y-77098155D02*
X221905346Y-77125093D01*
X221824534Y-77205905D01*
X221770659Y-77313654D01*
X221770659Y-77421404D01*
X221797597Y-77502216D01*
X221878409Y-77636903D01*
X221959221Y-77717715D01*
X222093908Y-77798528D01*
X222174720Y-77825465D01*
X222282470Y-77825465D01*
X222390219Y-77771590D01*
X222444094Y-77717715D01*
X222497969Y-77609966D01*
X222497969Y-77556091D01*
X222309407Y-77367529D01*
X222201658Y-77475279D01*
X222794280Y-77367529D02*
X222228595Y-76801844D01*
X223117529Y-77044280D01*
X222551844Y-76478595D01*
X223386903Y-76774906D02*
X222821218Y-76209221D01*
X222955905Y-76074534D01*
X223063654Y-76020659D01*
X223171404Y-76020659D01*
X223252216Y-76047597D01*
X223386903Y-76128409D01*
X223467715Y-76209221D01*
X223548528Y-76343908D01*
X223575465Y-76424720D01*
X223575465Y-76532470D01*
X223521590Y-76640219D01*
X223386903Y-76774906D01*
X222738375Y-72543435D02*
X222280439Y-72462622D01*
X222415126Y-72866683D02*
X221849441Y-72300998D01*
X222064940Y-72085499D01*
X222145752Y-72058561D01*
X222199627Y-72058561D01*
X222280439Y-72085499D01*
X222361251Y-72166311D01*
X222388189Y-72247123D01*
X222388189Y-72300998D01*
X222361251Y-72381810D01*
X222145752Y-72597309D01*
X222415126Y-71735312D02*
X222873062Y-72193248D01*
X222953874Y-72220186D01*
X223007749Y-72220186D01*
X223088561Y-72193248D01*
X223196311Y-72085499D01*
X223223248Y-72004687D01*
X223223248Y-71950812D01*
X223196311Y-71869999D01*
X222738375Y-71412064D01*
X223573435Y-71708375D02*
X223007749Y-71142690D01*
X223896683Y-71385126D01*
X223330998Y-70819441D01*
X196413096Y-66911218D02*
X196332284Y-66938155D01*
X196251471Y-67018967D01*
X196197597Y-67126717D01*
X196197597Y-67234467D01*
X196224534Y-67315279D01*
X196305346Y-67449966D01*
X196386158Y-67530778D01*
X196520845Y-67611590D01*
X196601658Y-67638528D01*
X196709407Y-67638528D01*
X196817157Y-67584653D01*
X196871032Y-67530778D01*
X196924906Y-67423028D01*
X196924906Y-67369154D01*
X196736345Y-67180592D01*
X196628595Y-67288341D01*
X197221218Y-67180592D02*
X196655532Y-66614906D01*
X196871032Y-66399407D01*
X196951844Y-66372470D01*
X197005719Y-66372470D01*
X197086531Y-66399407D01*
X197167343Y-66480219D01*
X197194280Y-66561032D01*
X197194280Y-66614906D01*
X197167343Y-66695719D01*
X196951844Y-66911218D01*
X197463654Y-65806784D02*
X197355905Y-65914534D01*
X197328967Y-65995346D01*
X197328967Y-66049221D01*
X197355905Y-66183908D01*
X197436717Y-66318595D01*
X197652216Y-66534094D01*
X197733028Y-66561032D01*
X197786903Y-66561032D01*
X197867715Y-66534094D01*
X197975465Y-66426345D01*
X198002402Y-66345532D01*
X198002402Y-66291658D01*
X197975465Y-66210845D01*
X197840778Y-66076158D01*
X197759966Y-66049221D01*
X197706091Y-66049221D01*
X197625279Y-66076158D01*
X197517529Y-66183908D01*
X197490592Y-66264720D01*
X197490592Y-66318595D01*
X197517529Y-66399407D01*
X221997722Y-74800592D02*
X221916910Y-74827529D01*
X221836097Y-74908341D01*
X221782223Y-75016091D01*
X221782223Y-75123841D01*
X221809160Y-75204653D01*
X221889972Y-75339340D01*
X221970784Y-75420152D01*
X222105471Y-75500964D01*
X222186284Y-75527902D01*
X222294033Y-75527902D01*
X222401783Y-75474027D01*
X222455658Y-75420152D01*
X222509532Y-75312402D01*
X222509532Y-75258528D01*
X222320971Y-75069966D01*
X222213221Y-75177715D01*
X222805844Y-75069966D02*
X222240158Y-74504280D01*
X222455658Y-74288781D01*
X222536470Y-74261844D01*
X222590345Y-74261844D01*
X222671157Y-74288781D01*
X222751969Y-74369593D01*
X222778906Y-74450406D01*
X222778906Y-74504280D01*
X222751969Y-74585093D01*
X222536470Y-74800592D01*
X222832781Y-74019407D02*
X222832781Y-73965532D01*
X222859719Y-73884720D01*
X222994406Y-73750033D01*
X223075218Y-73723096D01*
X223129093Y-73723096D01*
X223209905Y-73750033D01*
X223263780Y-73803908D01*
X223317654Y-73911658D01*
X223317654Y-74558155D01*
X223667841Y-74207969D01*
X223371529Y-73480659D02*
X223371529Y-73426784D01*
X223398467Y-73345972D01*
X223533154Y-73211285D01*
X223613966Y-73184348D01*
X223667841Y-73184348D01*
X223748653Y-73211285D01*
X223802528Y-73265160D01*
X223856402Y-73372910D01*
X223856402Y-74019407D01*
X224206589Y-73669221D01*
X195889722Y-95120592D02*
X195808910Y-95147529D01*
X195728097Y-95228341D01*
X195674223Y-95336091D01*
X195674223Y-95443841D01*
X195701160Y-95524653D01*
X195781972Y-95659340D01*
X195862784Y-95740152D01*
X195997471Y-95820964D01*
X196078284Y-95847902D01*
X196186033Y-95847902D01*
X196293783Y-95794027D01*
X196347658Y-95740152D01*
X196401532Y-95632402D01*
X196401532Y-95578528D01*
X196212971Y-95389966D01*
X196105221Y-95497715D01*
X196697844Y-95389966D02*
X196132158Y-94824280D01*
X196347658Y-94608781D01*
X196428470Y-94581844D01*
X196482345Y-94581844D01*
X196563157Y-94608781D01*
X196643969Y-94689593D01*
X196670906Y-94770406D01*
X196670906Y-94824280D01*
X196643969Y-94905093D01*
X196428470Y-95120592D01*
X197559841Y-94527969D02*
X197236592Y-94851218D01*
X197398216Y-94689593D02*
X196832531Y-94123908D01*
X196859468Y-94258595D01*
X196859468Y-94366345D01*
X196832531Y-94447157D01*
X197505966Y-93450473D02*
X197236592Y-93719847D01*
X197479028Y-94016158D01*
X197479028Y-93962284D01*
X197505966Y-93881471D01*
X197640653Y-93746784D01*
X197721465Y-93719847D01*
X197775340Y-93719847D01*
X197856152Y-93746784D01*
X197990839Y-93881471D01*
X198017776Y-93962284D01*
X198017776Y-94016158D01*
X197990839Y-94096971D01*
X197856152Y-94231658D01*
X197775340Y-94258595D01*
X197721465Y-94258595D01*
X221789847Y-57090592D02*
X222140033Y-56740406D01*
X222166971Y-57144467D01*
X222247783Y-57063654D01*
X222328595Y-57036717D01*
X222382470Y-57036717D01*
X222463282Y-57063654D01*
X222597969Y-57198341D01*
X222624906Y-57279154D01*
X222624906Y-57333028D01*
X222597969Y-57413841D01*
X222436345Y-57575465D01*
X222355532Y-57602402D01*
X222301658Y-57602402D01*
X222301658Y-56578781D02*
X223055905Y-56955905D01*
X222678781Y-56201658D01*
X222813468Y-56066971D02*
X223163654Y-55716784D01*
X223190592Y-56120845D01*
X223271404Y-56040033D01*
X223352216Y-56013096D01*
X223406091Y-56013096D01*
X223486903Y-56040033D01*
X223621590Y-56174720D01*
X223648528Y-56255532D01*
X223648528Y-56309407D01*
X223621590Y-56390219D01*
X223459966Y-56551844D01*
X223379154Y-56578781D01*
X223325279Y-56578781D01*
X202390476Y-97123809D02*
X202504761Y-97161904D01*
X202695238Y-97161904D01*
X202771428Y-97123809D01*
X202809523Y-97085714D01*
X202847619Y-97009523D01*
X202847619Y-96933333D01*
X202809523Y-96857142D01*
X202771428Y-96819047D01*
X202695238Y-96780952D01*
X202542857Y-96742857D01*
X202466666Y-96704761D01*
X202428571Y-96666666D01*
X202390476Y-96590476D01*
X202390476Y-96514285D01*
X202428571Y-96438095D01*
X202466666Y-96400000D01*
X202542857Y-96361904D01*
X202733333Y-96361904D01*
X202847619Y-96400000D01*
X203114285Y-96361904D02*
X203304761Y-97161904D01*
X203457142Y-96590476D01*
X203609523Y-97161904D01*
X203800000Y-96361904D01*
X204561904Y-97085714D02*
X204523809Y-97123809D01*
X204409523Y-97161904D01*
X204333333Y-97161904D01*
X204219047Y-97123809D01*
X204142857Y-97047619D01*
X204104761Y-96971428D01*
X204066666Y-96819047D01*
X204066666Y-96704761D01*
X204104761Y-96552380D01*
X204142857Y-96476190D01*
X204219047Y-96400000D01*
X204333333Y-96361904D01*
X204409523Y-96361904D01*
X204523809Y-96400000D01*
X204561904Y-96438095D01*
X205285714Y-97161904D02*
X204904761Y-97161904D01*
X204904761Y-96361904D01*
X205552380Y-97161904D02*
X205552380Y-96361904D01*
X206009523Y-97161904D02*
X205666666Y-96704761D01*
X206009523Y-96361904D02*
X205552380Y-96819047D01*
X221997722Y-79890592D02*
X221916910Y-79917529D01*
X221836097Y-79998341D01*
X221782223Y-80106091D01*
X221782223Y-80213841D01*
X221809160Y-80294653D01*
X221889972Y-80429340D01*
X221970784Y-80510152D01*
X222105471Y-80590964D01*
X222186284Y-80617902D01*
X222294033Y-80617902D01*
X222401783Y-80564027D01*
X222455658Y-80510152D01*
X222509532Y-80402402D01*
X222509532Y-80348528D01*
X222320971Y-80159966D01*
X222213221Y-80267715D01*
X222805844Y-80159966D02*
X222240158Y-79594280D01*
X222455658Y-79378781D01*
X222536470Y-79351844D01*
X222590345Y-79351844D01*
X222671157Y-79378781D01*
X222751969Y-79459593D01*
X222778906Y-79540406D01*
X222778906Y-79594280D01*
X222751969Y-79675093D01*
X222536470Y-79890592D01*
X222832781Y-79109407D02*
X222832781Y-79055532D01*
X222859719Y-78974720D01*
X222994406Y-78840033D01*
X223075218Y-78813096D01*
X223129093Y-78813096D01*
X223209905Y-78840033D01*
X223263780Y-78893908D01*
X223317654Y-79001658D01*
X223317654Y-79648155D01*
X223667841Y-79297969D01*
X224206589Y-78759221D02*
X223883340Y-79082470D01*
X224044964Y-78920845D02*
X223479279Y-78355160D01*
X223506216Y-78489847D01*
X223506216Y-78597597D01*
X223479279Y-78678409D01*
X196386158Y-64398155D02*
X196305346Y-64425093D01*
X196224534Y-64505905D01*
X196170659Y-64613654D01*
X196170659Y-64721404D01*
X196197597Y-64802216D01*
X196278409Y-64936903D01*
X196359221Y-65017715D01*
X196493908Y-65098528D01*
X196574720Y-65125465D01*
X196682470Y-65125465D01*
X196790219Y-65071590D01*
X196844094Y-65017715D01*
X196897969Y-64909966D01*
X196897969Y-64856091D01*
X196709407Y-64667529D01*
X196601658Y-64775279D01*
X197194280Y-64667529D02*
X196628595Y-64101844D01*
X197517529Y-64344280D01*
X196951844Y-63778595D01*
X197786903Y-64074906D02*
X197221218Y-63509221D01*
X197355905Y-63374534D01*
X197463654Y-63320659D01*
X197571404Y-63320659D01*
X197652216Y-63347597D01*
X197786903Y-63428409D01*
X197867715Y-63509221D01*
X197948528Y-63643908D01*
X197975465Y-63724720D01*
X197975465Y-63832470D01*
X197921590Y-63940219D01*
X197786903Y-64074906D01*
X196386158Y-89798155D02*
X196305346Y-89825093D01*
X196224534Y-89905905D01*
X196170659Y-90013654D01*
X196170659Y-90121404D01*
X196197597Y-90202216D01*
X196278409Y-90336903D01*
X196359221Y-90417715D01*
X196493908Y-90498528D01*
X196574720Y-90525465D01*
X196682470Y-90525465D01*
X196790219Y-90471590D01*
X196844094Y-90417715D01*
X196897969Y-90309966D01*
X196897969Y-90256091D01*
X196709407Y-90067529D01*
X196601658Y-90175279D01*
X197194280Y-90067529D02*
X196628595Y-89501844D01*
X197517529Y-89744280D01*
X196951844Y-89178595D01*
X197786903Y-89474906D02*
X197221218Y-88909221D01*
X197355905Y-88774534D01*
X197463654Y-88720659D01*
X197571404Y-88720659D01*
X197652216Y-88747597D01*
X197786903Y-88828409D01*
X197867715Y-88909221D01*
X197948528Y-89043908D01*
X197975465Y-89124720D01*
X197975465Y-89232470D01*
X197921590Y-89340219D01*
X197786903Y-89474906D01*
X213804761Y-97123809D02*
X213919047Y-97161904D01*
X214109523Y-97161904D01*
X214185714Y-97123809D01*
X214223809Y-97085714D01*
X214261904Y-97009523D01*
X214261904Y-96933333D01*
X214223809Y-96857142D01*
X214185714Y-96819047D01*
X214109523Y-96780952D01*
X213957142Y-96742857D01*
X213880952Y-96704761D01*
X213842857Y-96666666D01*
X213804761Y-96590476D01*
X213804761Y-96514285D01*
X213842857Y-96438095D01*
X213880952Y-96400000D01*
X213957142Y-96361904D01*
X214147619Y-96361904D01*
X214261904Y-96400000D01*
X214528571Y-96361904D02*
X214719047Y-97161904D01*
X214871428Y-96590476D01*
X215023809Y-97161904D01*
X215214285Y-96361904D01*
X215519047Y-97161904D02*
X215519047Y-96361904D01*
X215709523Y-96361904D01*
X215823809Y-96400000D01*
X215900000Y-96476190D01*
X215938095Y-96552380D01*
X215976190Y-96704761D01*
X215976190Y-96819047D01*
X215938095Y-96971428D01*
X215900000Y-97047619D01*
X215823809Y-97123809D01*
X215709523Y-97161904D01*
X215519047Y-97161904D01*
X216319047Y-97161904D02*
X216319047Y-96361904D01*
X216852380Y-96361904D02*
X217004761Y-96361904D01*
X217080952Y-96400000D01*
X217157142Y-96476190D01*
X217195238Y-96628571D01*
X217195238Y-96895238D01*
X217157142Y-97047619D01*
X217080952Y-97123809D01*
X217004761Y-97161904D01*
X216852380Y-97161904D01*
X216776190Y-97123809D01*
X216700000Y-97047619D01*
X216661904Y-96895238D01*
X216661904Y-96628571D01*
X216700000Y-96476190D01*
X216776190Y-96400000D01*
X216852380Y-96361904D01*
X195843722Y-92580592D02*
X195762910Y-92607529D01*
X195682097Y-92688341D01*
X195628223Y-92796091D01*
X195628223Y-92903841D01*
X195655160Y-92984653D01*
X195735972Y-93119340D01*
X195816784Y-93200152D01*
X195951471Y-93280964D01*
X196032284Y-93307902D01*
X196140033Y-93307902D01*
X196247783Y-93254027D01*
X196301658Y-93200152D01*
X196355532Y-93092402D01*
X196355532Y-93038528D01*
X196166971Y-92849966D01*
X196059221Y-92957715D01*
X196651844Y-92849966D02*
X196086158Y-92284280D01*
X196301658Y-92068781D01*
X196382470Y-92041844D01*
X196436345Y-92041844D01*
X196517157Y-92068781D01*
X196597969Y-92149593D01*
X196624906Y-92230406D01*
X196624906Y-92284280D01*
X196597969Y-92365093D01*
X196382470Y-92580592D01*
X197513841Y-91987969D02*
X197190592Y-92311218D01*
X197352216Y-92149593D02*
X196786531Y-91583908D01*
X196813468Y-91718595D01*
X196813468Y-91826345D01*
X196786531Y-91907157D01*
X197621590Y-91125972D02*
X197998714Y-91503096D01*
X197271404Y-91045160D02*
X197540778Y-91583908D01*
X197890964Y-91233722D01*
X221997722Y-84960592D02*
X221916910Y-84987529D01*
X221836097Y-85068341D01*
X221782223Y-85176091D01*
X221782223Y-85283841D01*
X221809160Y-85364653D01*
X221889972Y-85499340D01*
X221970784Y-85580152D01*
X222105471Y-85660964D01*
X222186284Y-85687902D01*
X222294033Y-85687902D01*
X222401783Y-85634027D01*
X222455658Y-85580152D01*
X222509532Y-85472402D01*
X222509532Y-85418528D01*
X222320971Y-85229966D01*
X222213221Y-85337715D01*
X222805844Y-85229966D02*
X222240158Y-84664280D01*
X222455658Y-84448781D01*
X222536470Y-84421844D01*
X222590345Y-84421844D01*
X222671157Y-84448781D01*
X222751969Y-84529593D01*
X222778906Y-84610406D01*
X222778906Y-84664280D01*
X222751969Y-84745093D01*
X222536470Y-84960592D01*
X223667841Y-84367969D02*
X223344592Y-84691218D01*
X223506216Y-84529593D02*
X222940531Y-83963908D01*
X222967468Y-84098595D01*
X222967468Y-84206345D01*
X222940531Y-84287157D01*
X223937215Y-84098595D02*
X224044964Y-83990845D01*
X224071902Y-83910033D01*
X224071902Y-83856158D01*
X224044964Y-83721471D01*
X223964152Y-83586784D01*
X223748653Y-83371285D01*
X223667841Y-83344348D01*
X223613966Y-83344348D01*
X223533154Y-83371285D01*
X223425404Y-83479035D01*
X223398467Y-83559847D01*
X223398467Y-83613722D01*
X223425404Y-83694534D01*
X223560091Y-83829221D01*
X223640903Y-83856158D01*
X223694778Y-83856158D01*
X223775590Y-83829221D01*
X223883340Y-83721471D01*
X223910277Y-83640659D01*
X223910277Y-83586784D01*
X223883340Y-83505972D01*
X196513096Y-69421218D02*
X196432284Y-69448155D01*
X196351471Y-69528967D01*
X196297597Y-69636717D01*
X196297597Y-69744467D01*
X196324534Y-69825279D01*
X196405346Y-69959966D01*
X196486158Y-70040778D01*
X196620845Y-70121590D01*
X196701658Y-70148528D01*
X196809407Y-70148528D01*
X196917157Y-70094653D01*
X196971032Y-70040778D01*
X197024906Y-69933028D01*
X197024906Y-69879154D01*
X196836345Y-69690592D01*
X196728595Y-69798341D01*
X197321218Y-69690592D02*
X196755532Y-69124906D01*
X196971032Y-68909407D01*
X197051844Y-68882470D01*
X197105719Y-68882470D01*
X197186531Y-68909407D01*
X197267343Y-68990219D01*
X197294280Y-69071032D01*
X197294280Y-69124906D01*
X197267343Y-69205719D01*
X197051844Y-69421218D01*
X197267343Y-68613096D02*
X197644467Y-68235972D01*
X197967715Y-69044094D01*
X221822131Y-54558308D02*
X222172317Y-54208122D01*
X222199255Y-54612183D01*
X222280067Y-54531370D01*
X222360879Y-54504433D01*
X222414754Y-54504433D01*
X222495566Y-54531370D01*
X222630253Y-54666057D01*
X222657190Y-54746870D01*
X222657190Y-54800744D01*
X222630253Y-54881557D01*
X222468629Y-55043181D01*
X222387816Y-55070118D01*
X222333942Y-55070118D01*
X222333942Y-54046497D02*
X223088189Y-54423621D01*
X222711065Y-53669374D01*
X222845752Y-53534687D02*
X223195938Y-53184500D01*
X223222876Y-53588561D01*
X223303688Y-53507749D01*
X223384500Y-53480812D01*
X223438375Y-53480812D01*
X223519187Y-53507749D01*
X223653874Y-53642436D01*
X223680812Y-53723248D01*
X223680812Y-53777123D01*
X223653874Y-53857935D01*
X223492250Y-54019560D01*
X223411438Y-54046497D01*
X223357563Y-54046497D01*
X223923248Y-53696311D02*
X224354247Y-53265312D01*
X224138748Y-52780439D02*
X224327309Y-52591877D01*
X224704433Y-52807377D02*
X224435059Y-53076751D01*
X223869374Y-52511065D01*
X224138748Y-52241691D01*
X224946870Y-52564940D02*
X224381184Y-51999255D01*
X225270118Y-52241691D01*
X224704433Y-51676006D01*
G04 #@! TO.C,J5*
X171966666Y-72352380D02*
X171966666Y-73066666D01*
X171919047Y-73209523D01*
X171823809Y-73304761D01*
X171680952Y-73352380D01*
X171585714Y-73352380D01*
X172919047Y-72352380D02*
X172442857Y-72352380D01*
X172395238Y-72828571D01*
X172442857Y-72780952D01*
X172538095Y-72733333D01*
X172776190Y-72733333D01*
X172871428Y-72780952D01*
X172919047Y-72828571D01*
X172966666Y-72923809D01*
X172966666Y-73161904D01*
X172919047Y-73257142D01*
X172871428Y-73304761D01*
X172776190Y-73352380D01*
X172538095Y-73352380D01*
X172442857Y-73304761D01*
X172395238Y-73257142D01*
G04 #@! TO.C,J6*
X225041666Y-82052380D02*
X225041666Y-82766666D01*
X224994047Y-82909523D01*
X224898809Y-83004761D01*
X224755952Y-83052380D01*
X224660714Y-83052380D01*
X225946428Y-82052380D02*
X225755952Y-82052380D01*
X225660714Y-82100000D01*
X225613095Y-82147619D01*
X225517857Y-82290476D01*
X225470238Y-82480952D01*
X225470238Y-82861904D01*
X225517857Y-82957142D01*
X225565476Y-83004761D01*
X225660714Y-83052380D01*
X225851190Y-83052380D01*
X225946428Y-83004761D01*
X225994047Y-82957142D01*
X226041666Y-82861904D01*
X226041666Y-82623809D01*
X225994047Y-82528571D01*
X225946428Y-82480952D01*
X225851190Y-82433333D01*
X225660714Y-82433333D01*
X225565476Y-82480952D01*
X225517857Y-82528571D01*
X225470238Y-82623809D01*
X233182142Y-73809523D02*
X233229761Y-73857142D01*
X233277380Y-74000000D01*
X233277380Y-74095238D01*
X233229761Y-74238095D01*
X233134523Y-74333333D01*
X233039285Y-74380952D01*
X232848809Y-74428571D01*
X232705952Y-74428571D01*
X232515476Y-74380952D01*
X232420238Y-74333333D01*
X232325000Y-74238095D01*
X232277380Y-74095238D01*
X232277380Y-74000000D01*
X232325000Y-73857142D01*
X232372619Y-73809523D01*
X233277380Y-73238095D02*
X233229761Y-73333333D01*
X233182142Y-73380952D01*
X233086904Y-73428571D01*
X232801190Y-73428571D01*
X232705952Y-73380952D01*
X232658333Y-73333333D01*
X232610714Y-73238095D01*
X232610714Y-73095238D01*
X232658333Y-73000000D01*
X232705952Y-72952380D01*
X232801190Y-72904761D01*
X233086904Y-72904761D01*
X233182142Y-72952380D01*
X233229761Y-73000000D01*
X233277380Y-73095238D01*
X233277380Y-73238095D01*
X232610714Y-72476190D02*
X233277380Y-72476190D01*
X232705952Y-72476190D02*
X232658333Y-72428571D01*
X232610714Y-72333333D01*
X232610714Y-72190476D01*
X232658333Y-72095238D01*
X232753571Y-72047619D01*
X233277380Y-72047619D01*
X232610714Y-71714285D02*
X232610714Y-71333333D01*
X232277380Y-71571428D02*
X233134523Y-71571428D01*
X233229761Y-71523809D01*
X233277380Y-71428571D01*
X233277380Y-71333333D01*
X233277380Y-71000000D02*
X232610714Y-71000000D01*
X232801190Y-71000000D02*
X232705952Y-70952380D01*
X232658333Y-70904761D01*
X232610714Y-70809523D01*
X232610714Y-70714285D01*
X233277380Y-70238095D02*
X233229761Y-70333333D01*
X233182142Y-70380952D01*
X233086904Y-70428571D01*
X232801190Y-70428571D01*
X232705952Y-70380952D01*
X232658333Y-70333333D01*
X232610714Y-70238095D01*
X232610714Y-70095238D01*
X232658333Y-70000000D01*
X232705952Y-69952380D01*
X232801190Y-69904761D01*
X233086904Y-69904761D01*
X233182142Y-69952380D01*
X233229761Y-70000000D01*
X233277380Y-70095238D01*
X233277380Y-70238095D01*
X233277380Y-69333333D02*
X233229761Y-69428571D01*
X233134523Y-69476190D01*
X232277380Y-69476190D01*
X233229761Y-69000000D02*
X233277380Y-68904761D01*
X233277380Y-68714285D01*
X233229761Y-68619047D01*
X233134523Y-68571428D01*
X233086904Y-68571428D01*
X232991666Y-68619047D01*
X232944047Y-68714285D01*
X232944047Y-68857142D01*
X232896428Y-68952380D01*
X232801190Y-69000000D01*
X232753571Y-69000000D01*
X232658333Y-68952380D01*
X232610714Y-68857142D01*
X232610714Y-68714285D01*
X232658333Y-68619047D01*
G04 #@! TO.C,J3*
X180641666Y-92502380D02*
X180641666Y-93216666D01*
X180594047Y-93359523D01*
X180498809Y-93454761D01*
X180355952Y-93502380D01*
X180260714Y-93502380D01*
X181022619Y-92502380D02*
X181641666Y-92502380D01*
X181308333Y-92883333D01*
X181451190Y-92883333D01*
X181546428Y-92930952D01*
X181594047Y-92978571D01*
X181641666Y-93073809D01*
X181641666Y-93311904D01*
X181594047Y-93407142D01*
X181546428Y-93454761D01*
X181451190Y-93502380D01*
X181165476Y-93502380D01*
X181070238Y-93454761D01*
X181022619Y-93407142D01*
G04 #@! TO.C,Q2*
X185904761Y-82647619D02*
X185809523Y-82600000D01*
X185714285Y-82504761D01*
X185571428Y-82361904D01*
X185476190Y-82314285D01*
X185380952Y-82314285D01*
X185428571Y-82552380D02*
X185333333Y-82504761D01*
X185238095Y-82409523D01*
X185190476Y-82219047D01*
X185190476Y-81885714D01*
X185238095Y-81695238D01*
X185333333Y-81600000D01*
X185428571Y-81552380D01*
X185619047Y-81552380D01*
X185714285Y-81600000D01*
X185809523Y-81695238D01*
X185857142Y-81885714D01*
X185857142Y-82219047D01*
X185809523Y-82409523D01*
X185714285Y-82504761D01*
X185619047Y-82552380D01*
X185428571Y-82552380D01*
X186238095Y-81647619D02*
X186285714Y-81600000D01*
X186380952Y-81552380D01*
X186619047Y-81552380D01*
X186714285Y-81600000D01*
X186761904Y-81647619D01*
X186809523Y-81742857D01*
X186809523Y-81838095D01*
X186761904Y-81980952D01*
X186190476Y-82552380D01*
X186809523Y-82552380D01*
G04 #@! TO.C,J4*
X172166666Y-85852380D02*
X172166666Y-86566666D01*
X172119047Y-86709523D01*
X172023809Y-86804761D01*
X171880952Y-86852380D01*
X171785714Y-86852380D01*
X173071428Y-86185714D02*
X173071428Y-86852380D01*
X172833333Y-85804761D02*
X172595238Y-86519047D01*
X173214285Y-86519047D01*
D13*
G04 #@! TO.C,R1*
X180735000Y-68772936D02*
X180735000Y-69227064D01*
X179265000Y-68772936D02*
X179265000Y-69227064D01*
G04 #@! TO.C,D1*
X185150000Y-90935000D02*
X186550000Y-90935000D01*
X186550000Y-88615000D02*
X184650000Y-88615000D01*
G04 #@! TO.C,R3*
X192735000Y-68772936D02*
X192735000Y-69227064D01*
X191265000Y-68772936D02*
X191265000Y-69227064D01*
G04 #@! TO.C,R2*
X185265000Y-68772936D02*
X185265000Y-69227064D01*
X186735000Y-68772936D02*
X186735000Y-69227064D01*
G04 #@! TO.C,U1*
X186000000Y-72940000D02*
X187950000Y-72940000D01*
X186000000Y-78060000D02*
X184050000Y-78060000D01*
X186000000Y-72940000D02*
X182550000Y-72940000D01*
X186000000Y-78060000D02*
X187950000Y-78060000D01*
G04 #@! TO.C,J1*
X191860000Y-44957500D02*
X191860000Y-53317500D01*
X184950000Y-62397500D02*
X184450000Y-61897500D01*
X179540000Y-53317500D02*
X179540000Y-44957500D01*
X179540000Y-61677500D02*
X191860000Y-61677500D01*
X179540000Y-57417500D02*
X179540000Y-61677500D01*
X184450000Y-61897500D02*
X183950000Y-62397500D01*
X183950000Y-62397500D02*
X184950000Y-62397500D01*
X179540000Y-44957500D02*
X191860000Y-44957500D01*
X191860000Y-61677500D02*
X191860000Y-57417500D01*
G04 #@! TO.C,J2*
X189925000Y-97030000D02*
X188595000Y-97030000D01*
X193795000Y-97030000D02*
X193795000Y-94370000D01*
X191195000Y-94370000D02*
X193795000Y-94370000D01*
X191195000Y-97030000D02*
X193795000Y-97030000D01*
X188595000Y-97030000D02*
X188595000Y-95700000D01*
X191195000Y-97030000D02*
X191195000Y-94370000D01*
G04 #@! TO.C,U2*
X220400000Y-78000000D02*
X220400000Y-78400000D01*
X199400000Y-62800000D02*
X199400000Y-63200000D01*
X199400000Y-60200000D02*
X199400000Y-60600000D01*
X220400000Y-67900000D02*
X220400000Y-68300000D01*
X220400000Y-70400000D02*
X220400000Y-70800000D01*
X220400000Y-80600000D02*
X220400000Y-81000000D01*
X208400000Y-96100000D02*
X208800000Y-96100000D01*
X220400000Y-65300000D02*
X220400000Y-65700000D01*
X199400000Y-78000000D02*
X199400000Y-78400000D01*
X199400000Y-88200000D02*
X199400000Y-88600000D01*
X220400000Y-50100000D02*
X220400000Y-50500000D01*
X202407000Y-47767000D02*
X202407000Y-45100000D01*
X199400000Y-45100000D02*
X199400000Y-45400000D01*
X199400000Y-47500000D02*
X199400000Y-47900000D01*
X206200000Y-96100000D02*
X199400000Y-96100000D01*
X220400000Y-75500000D02*
X220400000Y-75900000D01*
X199400000Y-70400000D02*
X199400000Y-70800000D01*
X220400000Y-55200000D02*
X220400000Y-55600000D01*
X220400000Y-85700000D02*
X220400000Y-86100000D01*
X199400000Y-67900000D02*
X199400000Y-68300000D01*
X220400000Y-93300000D02*
X220400000Y-93700000D01*
X199400000Y-65300000D02*
X199400000Y-65700000D01*
X220400000Y-72900000D02*
X220400000Y-73300000D01*
X199400000Y-72900000D02*
X199400000Y-73300000D01*
X220400000Y-83100000D02*
X220400000Y-83500000D01*
X199400000Y-83100000D02*
X199400000Y-83500000D01*
X199400000Y-57700000D02*
X199400000Y-58100000D01*
X199400000Y-50100000D02*
X199400000Y-50500000D01*
X199400000Y-93300000D02*
X199400000Y-93700000D01*
X220400000Y-52600000D02*
X220400000Y-53000000D01*
X199400000Y-45100000D02*
X220400000Y-45100000D01*
X220400000Y-57700000D02*
X220400000Y-58100000D01*
X220400000Y-47500000D02*
X220400000Y-47900000D01*
X220400000Y-62800000D02*
X220400000Y-63200000D01*
X199400000Y-80600000D02*
X199400000Y-81000000D01*
X199400000Y-47767000D02*
X202407000Y-47767000D01*
X211000000Y-96100000D02*
X211400000Y-96100000D01*
X220400000Y-90700000D02*
X220400000Y-91100000D01*
X220400000Y-96100000D02*
X213600000Y-96100000D01*
X220400000Y-60200000D02*
X220400000Y-60600000D01*
X199400000Y-90700000D02*
X199400000Y-91100000D01*
X199400000Y-52600000D02*
X199400000Y-53000000D01*
X199400000Y-75500000D02*
X199400000Y-75900000D01*
X199400000Y-85700000D02*
X199400000Y-86100000D01*
X199400000Y-55200000D02*
X199400000Y-55600000D01*
X220400000Y-88200000D02*
X220400000Y-88600000D01*
X220400000Y-45100000D02*
X220400000Y-45400000D01*
G04 #@! TO.C,J5*
X171170000Y-67225000D02*
X171170000Y-65895000D01*
X171170000Y-68495000D02*
X173830000Y-68495000D01*
X171170000Y-65895000D02*
X172500000Y-65895000D01*
X173830000Y-68495000D02*
X173830000Y-71095000D01*
X171170000Y-68495000D02*
X171170000Y-71095000D01*
X171170000Y-71095000D02*
X173830000Y-71095000D01*
G04 #@! TO.C,J6*
X226630000Y-61230000D02*
X229230000Y-61230000D01*
X226630000Y-59960000D02*
X226630000Y-58630000D01*
X229230000Y-61230000D02*
X229230000Y-58630000D01*
X229230000Y-58630000D02*
X231830000Y-58630000D01*
X226630000Y-61230000D02*
X226630000Y-84150000D01*
X226630000Y-84150000D02*
X231830000Y-84150000D01*
X231830000Y-58630000D02*
X231830000Y-84150000D01*
X226630000Y-58630000D02*
X227960000Y-58630000D01*
G04 #@! TO.C,J3*
X177045000Y-97030000D02*
X177045000Y-95700000D01*
X179645000Y-94370000D02*
X184785000Y-94370000D01*
X179645000Y-97030000D02*
X184785000Y-97030000D01*
X179645000Y-97030000D02*
X179645000Y-94370000D01*
X184785000Y-97030000D02*
X184785000Y-94370000D01*
X178375000Y-97030000D02*
X177045000Y-97030000D01*
G04 #@! TO.C,Q2*
X186000000Y-82940000D02*
X184325000Y-82940000D01*
X186000000Y-86060000D02*
X186650000Y-86060000D01*
X186000000Y-82940000D02*
X186650000Y-82940000D01*
X186000000Y-86060000D02*
X185350000Y-86060000D01*
G04 #@! TO.C,J4*
X171170000Y-78475000D02*
X171170000Y-77145000D01*
X171170000Y-79745000D02*
X171170000Y-84885000D01*
X171170000Y-77145000D02*
X172500000Y-77145000D01*
X171170000Y-79745000D02*
X173830000Y-79745000D01*
X171170000Y-84885000D02*
X173830000Y-84885000D01*
X173830000Y-79745000D02*
X173830000Y-84885000D01*
G04 #@! TD*
M02*
