M48
; DRILL file {KiCad (6.0.0)} date Mon Sep 19 18:58:27 2022
; FORMAT={-:-/ absolute / metric / decimal}
; #@! TF.CreationDate,2022-09-19T18:58:27+02:00
; #@! TF.GenerationSoftware,Kicad,Pcbnew,(6.0.0)
; #@! TF.FileFunction,Plated,1,2,PTH
FMAT,2
METRIC
; #@! TA.AperFunction,Plated,PTH,ViaDrill
T1C0.400
; #@! TA.AperFunction,Plated,PTH,ComponentDrill
T2C0.920
; #@! TA.AperFunction,Plated,PTH,ComponentDrill
T3C1.000
; #@! TA.AperFunction,Plated,PTH,ComponentDrill
T4C1.020
; #@! TA.AperFunction,Plated,PTH,ComponentDrill
T5C2.330
; #@! TA.AperFunction,Plated,PTH,ComponentDrill
T6C3.500
%
G90
G05
T1
X175.25Y-72.25
X176.5Y-74.75
X178.5Y-77.8
X178.6Y-81.5
X179.5Y-75.25
X182.5Y-67.0
X182.525Y-71.575
X188.0Y-69.25
X190.0Y-71.75
X191.25Y-74.75
X193.6Y-62.8
X194.75Y-69.0
X194.75Y-77.75
X195.9Y-71.5
X213.725Y-77.275
X213.975Y-80.4
X224.0Y-76.5
X227.5Y-55.5
T2
X184.45Y-58.078
X184.45Y-60.078
X186.95Y-58.078
X186.95Y-60.078
T3
X172.5Y-67.225
X172.5Y-69.765
X172.5Y-78.475
X172.5Y-81.015
X172.5Y-83.555
X178.375Y-95.7
X180.915Y-95.7
X183.455Y-95.7
X189.925Y-95.7
X192.465Y-95.7
X227.96Y-59.96
X227.96Y-62.5
X227.96Y-65.04
X227.96Y-67.58
X227.96Y-70.12
X227.96Y-72.66
X227.96Y-75.2
X227.96Y-77.74
X227.96Y-80.28
X227.96Y-82.82
X230.5Y-59.96
X230.5Y-62.5
X230.5Y-65.04
X230.5Y-67.58
X230.5Y-70.12
X230.5Y-72.66
X230.5Y-75.2
X230.5Y-77.74
X230.5Y-80.28
X230.5Y-82.82
T4
X201.01Y-46.47
X201.01Y-49.01
X201.01Y-51.55
X201.01Y-54.09
X201.01Y-56.63
X201.01Y-59.17
X201.01Y-61.71
X201.01Y-64.25
X201.01Y-66.79
X201.01Y-69.33
X201.01Y-71.87
X201.01Y-74.41
X201.01Y-76.95
X201.01Y-79.49
X201.01Y-82.03
X201.01Y-84.57
X201.01Y-87.11
X201.01Y-89.65
X201.01Y-92.19
X201.01Y-94.73
X207.36Y-94.5
X209.9Y-94.5
X212.44Y-94.5
X218.79Y-46.47
X218.79Y-49.01
X218.79Y-51.55
X218.79Y-54.09
X218.79Y-56.63
X218.79Y-59.17
X218.79Y-61.71
X218.79Y-64.25
X218.79Y-66.79
X218.79Y-69.33
X218.79Y-71.87
X218.79Y-74.41
X218.79Y-76.95
X218.79Y-79.49
X218.79Y-82.03
X218.79Y-84.57
X218.79Y-87.11
X218.79Y-89.65
X218.79Y-92.19
X218.79Y-94.73
T5
X179.68Y-55.367
X191.72Y-55.367
T6
X172.0Y-48.5
X172.0Y-93.0
X229.5Y-48.5
X229.5Y-93.0
T0
M30
