G04 #@! TF.GenerationSoftware,KiCad,Pcbnew,(6.0.0)*
G04 #@! TF.CreationDate,2022-09-19T18:58:24+02:00*
G04 #@! TF.ProjectId,td-io,74642d69-6f2e-46b6-9963-61645f706362,rev?*
G04 #@! TF.SameCoordinates,Original*
G04 #@! TF.FileFunction,Legend,Bot*
G04 #@! TF.FilePolarity,Positive*
%FSLAX46Y46*%
G04 Gerber Fmt 4.6, Leading zero omitted, Abs format (unit mm)*
G04 Created by KiCad (PCBNEW (6.0.0)) date 2022-09-19 18:58:24*
%MOMM*%
%LPD*%
G01*
G04 APERTURE LIST*
%ADD10C,0.150000*%
%ADD11C,0.120000*%
G04 APERTURE END LIST*
D10*
X189009523Y-88089333D02*
X188628571Y-88089333D01*
X189085714Y-88317904D02*
X188819047Y-87517904D01*
X188552380Y-88317904D01*
X188171428Y-88317904D02*
X188247619Y-88279809D01*
X188285714Y-88203619D01*
X188285714Y-87517904D01*
X187980952Y-87784571D02*
X187676190Y-87784571D01*
X187866666Y-87517904D02*
X187866666Y-88203619D01*
X187828571Y-88279809D01*
X187752380Y-88317904D01*
X187676190Y-88317904D01*
X187104761Y-88279809D02*
X187180952Y-88317904D01*
X187333333Y-88317904D01*
X187409523Y-88279809D01*
X187447619Y-88203619D01*
X187447619Y-87898857D01*
X187409523Y-87822666D01*
X187333333Y-87784571D01*
X187180952Y-87784571D01*
X187104761Y-87822666D01*
X187066666Y-87898857D01*
X187066666Y-87975047D01*
X187447619Y-88051238D01*
X186723809Y-88317904D02*
X186723809Y-87784571D01*
X186723809Y-87936952D02*
X186685714Y-87860761D01*
X186647619Y-87822666D01*
X186571428Y-87784571D01*
X186495238Y-87784571D01*
X186228571Y-87784571D02*
X186228571Y-88317904D01*
X186228571Y-87860761D02*
X186190476Y-87822666D01*
X186114285Y-87784571D01*
X185999999Y-87784571D01*
X185923809Y-87822666D01*
X185885714Y-87898857D01*
X185885714Y-88317904D01*
X185161904Y-88317904D02*
X185161904Y-87898857D01*
X185199999Y-87822666D01*
X185276190Y-87784571D01*
X185428571Y-87784571D01*
X185504761Y-87822666D01*
X185161904Y-88279809D02*
X185238095Y-88317904D01*
X185428571Y-88317904D01*
X185504761Y-88279809D01*
X185542857Y-88203619D01*
X185542857Y-88127428D01*
X185504761Y-88051238D01*
X185428571Y-88013142D01*
X185238095Y-88013142D01*
X185161904Y-87975047D01*
X184895238Y-87784571D02*
X184590476Y-87784571D01*
X184780952Y-87517904D02*
X184780952Y-88203619D01*
X184742857Y-88279809D01*
X184666666Y-88317904D01*
X184590476Y-88317904D01*
X184323809Y-88317904D02*
X184323809Y-87784571D01*
X184323809Y-87517904D02*
X184361904Y-87556000D01*
X184323809Y-87594095D01*
X184285714Y-87556000D01*
X184323809Y-87517904D01*
X184323809Y-87594095D01*
X184019047Y-87784571D02*
X183828571Y-88317904D01*
X183638095Y-87784571D01*
X183028571Y-88279809D02*
X183104761Y-88317904D01*
X183257142Y-88317904D01*
X183333333Y-88279809D01*
X183371428Y-88203619D01*
X183371428Y-87898857D01*
X183333333Y-87822666D01*
X183257142Y-87784571D01*
X183104761Y-87784571D01*
X183028571Y-87822666D01*
X182990476Y-87898857D01*
X182990476Y-87975047D01*
X183371428Y-88051238D01*
X188495238Y-89072571D02*
X188190476Y-89072571D01*
X188380952Y-89605904D02*
X188380952Y-88920190D01*
X188342857Y-88844000D01*
X188266666Y-88805904D01*
X188190476Y-88805904D01*
X187809523Y-89605904D02*
X187885714Y-89567809D01*
X187923809Y-89529714D01*
X187961904Y-89453523D01*
X187961904Y-89224952D01*
X187923809Y-89148761D01*
X187885714Y-89110666D01*
X187809523Y-89072571D01*
X187695238Y-89072571D01*
X187619047Y-89110666D01*
X187580952Y-89148761D01*
X187542857Y-89224952D01*
X187542857Y-89453523D01*
X187580952Y-89529714D01*
X187619047Y-89567809D01*
X187695238Y-89605904D01*
X187809523Y-89605904D01*
X187085714Y-89605904D02*
X187161904Y-89567809D01*
X187200000Y-89529714D01*
X187238095Y-89453523D01*
X187238095Y-89224952D01*
X187200000Y-89148761D01*
X187161904Y-89110666D01*
X187085714Y-89072571D01*
X186971428Y-89072571D01*
X186895238Y-89110666D01*
X186857142Y-89148761D01*
X186819047Y-89224952D01*
X186819047Y-89453523D01*
X186857142Y-89529714D01*
X186895238Y-89567809D01*
X186971428Y-89605904D01*
X187085714Y-89605904D01*
X186590476Y-89072571D02*
X186285714Y-89072571D01*
X186476190Y-88805904D02*
X186476190Y-89491619D01*
X186438095Y-89567809D01*
X186361904Y-89605904D01*
X186285714Y-89605904D01*
X186019047Y-89072571D02*
X186019047Y-89872571D01*
X186019047Y-89110666D02*
X185942857Y-89072571D01*
X185790476Y-89072571D01*
X185714285Y-89110666D01*
X185676190Y-89148761D01*
X185638095Y-89224952D01*
X185638095Y-89453523D01*
X185676190Y-89529714D01*
X185714285Y-89567809D01*
X185790476Y-89605904D01*
X185942857Y-89605904D01*
X186019047Y-89567809D01*
X185295238Y-89605904D02*
X185295238Y-89072571D01*
X185295238Y-89224952D02*
X185257142Y-89148761D01*
X185219047Y-89110666D01*
X185142857Y-89072571D01*
X185066666Y-89072571D01*
X184800000Y-89605904D02*
X184800000Y-89072571D01*
X184800000Y-88805904D02*
X184838095Y-88844000D01*
X184800000Y-88882095D01*
X184761904Y-88844000D01*
X184800000Y-88805904D01*
X184800000Y-88882095D01*
X184419047Y-89072571D02*
X184419047Y-89605904D01*
X184419047Y-89148761D02*
X184380952Y-89110666D01*
X184304761Y-89072571D01*
X184190476Y-89072571D01*
X184114285Y-89110666D01*
X184076190Y-89186857D01*
X184076190Y-89605904D01*
X183809523Y-89072571D02*
X183504761Y-89072571D01*
X183695238Y-88805904D02*
X183695238Y-89491619D01*
X183657142Y-89567809D01*
X183580952Y-89605904D01*
X183504761Y-89605904D01*
X210252380Y-57347619D02*
X209252380Y-57347619D01*
X210252380Y-57776190D02*
X209728571Y-57776190D01*
X209633333Y-57728571D01*
X209585714Y-57633333D01*
X209585714Y-57490476D01*
X209633333Y-57395238D01*
X209680952Y-57347619D01*
X209585714Y-58109523D02*
X209585714Y-58490476D01*
X209252380Y-58252380D02*
X210109523Y-58252380D01*
X210204761Y-58300000D01*
X210252380Y-58395238D01*
X210252380Y-58490476D01*
X209585714Y-58680952D02*
X209585714Y-59061904D01*
X209252380Y-58823809D02*
X210109523Y-58823809D01*
X210204761Y-58871428D01*
X210252380Y-58966666D01*
X210252380Y-59061904D01*
X209585714Y-59395238D02*
X210585714Y-59395238D01*
X209633333Y-59395238D02*
X209585714Y-59490476D01*
X209585714Y-59680952D01*
X209633333Y-59776190D01*
X209680952Y-59823809D01*
X209776190Y-59871428D01*
X210061904Y-59871428D01*
X210157142Y-59823809D01*
X210204761Y-59776190D01*
X210252380Y-59680952D01*
X210252380Y-59490476D01*
X210204761Y-59395238D01*
X210204761Y-60252380D02*
X210252380Y-60347619D01*
X210252380Y-60538095D01*
X210204761Y-60633333D01*
X210109523Y-60680952D01*
X210061904Y-60680952D01*
X209966666Y-60633333D01*
X209919047Y-60538095D01*
X209919047Y-60395238D01*
X209871428Y-60299999D01*
X209776190Y-60252380D01*
X209728571Y-60252380D01*
X209633333Y-60299999D01*
X209585714Y-60395238D01*
X209585714Y-60538095D01*
X209633333Y-60633333D01*
X210157142Y-61109523D02*
X210204761Y-61157142D01*
X210252380Y-61109523D01*
X210204761Y-61061904D01*
X210157142Y-61109523D01*
X210252380Y-61109523D01*
X209633333Y-61109523D02*
X209680952Y-61157142D01*
X209728571Y-61109523D01*
X209680952Y-61061904D01*
X209633333Y-61109523D01*
X209728571Y-61109523D01*
X209204761Y-62299999D02*
X210490476Y-61442857D01*
X209204761Y-63347619D02*
X210490476Y-62490476D01*
X209585714Y-64109523D02*
X210395238Y-64109523D01*
X210490476Y-64061904D01*
X210538095Y-64014285D01*
X210585714Y-63919047D01*
X210585714Y-63776190D01*
X210538095Y-63680952D01*
X210204761Y-64109523D02*
X210252380Y-64014285D01*
X210252380Y-63823809D01*
X210204761Y-63728571D01*
X210157142Y-63680952D01*
X210061904Y-63633333D01*
X209776190Y-63633333D01*
X209680952Y-63680952D01*
X209633333Y-63728571D01*
X209585714Y-63823809D01*
X209585714Y-64014285D01*
X209633333Y-64109523D01*
X210252380Y-64585714D02*
X209585714Y-64585714D01*
X209252380Y-64585714D02*
X209300000Y-64538095D01*
X209347619Y-64585714D01*
X209300000Y-64633333D01*
X209252380Y-64585714D01*
X209347619Y-64585714D01*
X209585714Y-64919047D02*
X209585714Y-65300000D01*
X209252380Y-65061904D02*
X210109523Y-65061904D01*
X210204761Y-65109523D01*
X210252380Y-65204761D01*
X210252380Y-65300000D01*
X210252380Y-65633333D02*
X209252380Y-65633333D01*
X210252380Y-66061904D02*
X209728571Y-66061904D01*
X209633333Y-66014285D01*
X209585714Y-65919047D01*
X209585714Y-65776190D01*
X209633333Y-65680952D01*
X209680952Y-65633333D01*
X209585714Y-66966666D02*
X210252380Y-66966666D01*
X209585714Y-66538095D02*
X210109523Y-66538095D01*
X210204761Y-66585714D01*
X210252380Y-66680952D01*
X210252380Y-66823809D01*
X210204761Y-66919047D01*
X210157142Y-66966666D01*
X210252380Y-67442857D02*
X209252380Y-67442857D01*
X209633333Y-67442857D02*
X209585714Y-67538095D01*
X209585714Y-67728571D01*
X209633333Y-67823809D01*
X209680952Y-67871428D01*
X209776190Y-67919047D01*
X210061904Y-67919047D01*
X210157142Y-67871428D01*
X210204761Y-67823809D01*
X210252380Y-67728571D01*
X210252380Y-67538095D01*
X210204761Y-67442857D01*
X210157142Y-68347619D02*
X210204761Y-68395238D01*
X210252380Y-68347619D01*
X210204761Y-68299999D01*
X210157142Y-68347619D01*
X210252380Y-68347619D01*
X210204761Y-69252380D02*
X210252380Y-69157142D01*
X210252380Y-68966666D01*
X210204761Y-68871428D01*
X210157142Y-68823809D01*
X210061904Y-68776190D01*
X209776190Y-68776190D01*
X209680952Y-68823809D01*
X209633333Y-68871428D01*
X209585714Y-68966666D01*
X209585714Y-69157142D01*
X209633333Y-69252380D01*
X210252380Y-69823809D02*
X210204761Y-69728571D01*
X210157142Y-69680952D01*
X210061904Y-69633333D01*
X209776190Y-69633333D01*
X209680952Y-69680952D01*
X209633333Y-69728571D01*
X209585714Y-69823809D01*
X209585714Y-69966666D01*
X209633333Y-70061904D01*
X209680952Y-70109523D01*
X209776190Y-70157142D01*
X210061904Y-70157142D01*
X210157142Y-70109523D01*
X210204761Y-70061904D01*
X210252380Y-69966666D01*
X210252380Y-69823809D01*
X210252380Y-70585714D02*
X209585714Y-70585714D01*
X209680952Y-70585714D02*
X209633333Y-70633333D01*
X209585714Y-70728571D01*
X209585714Y-70871428D01*
X209633333Y-70966666D01*
X209728571Y-71014285D01*
X210252380Y-71014285D01*
X209728571Y-71014285D02*
X209633333Y-71061904D01*
X209585714Y-71157142D01*
X209585714Y-71299999D01*
X209633333Y-71395238D01*
X209728571Y-71442857D01*
X210252380Y-71442857D01*
X209204761Y-72633333D02*
X210490476Y-71776190D01*
X210252380Y-72966666D02*
X209252380Y-72966666D01*
X209633333Y-72966666D02*
X209585714Y-73061904D01*
X209585714Y-73252380D01*
X209633333Y-73347619D01*
X209680952Y-73395238D01*
X209776190Y-73442857D01*
X210061904Y-73442857D01*
X210157142Y-73395238D01*
X210204761Y-73347619D01*
X210252380Y-73252380D01*
X210252380Y-73061904D01*
X210204761Y-72966666D01*
X209585714Y-74299999D02*
X210252380Y-74299999D01*
X209585714Y-73871428D02*
X210109523Y-73871428D01*
X210204761Y-73919047D01*
X210252380Y-74014285D01*
X210252380Y-74157142D01*
X210204761Y-74252380D01*
X210157142Y-74299999D01*
X209585714Y-74633333D02*
X209585714Y-75014285D01*
X210252380Y-74776190D02*
X209395238Y-74776190D01*
X209300000Y-74823809D01*
X209252380Y-74919047D01*
X209252380Y-75014285D01*
X209585714Y-75204761D02*
X209585714Y-75585714D01*
X210252380Y-75347619D02*
X209395238Y-75347619D01*
X209300000Y-75395238D01*
X209252380Y-75490476D01*
X209252380Y-75585714D01*
X210252380Y-75919047D02*
X209585714Y-75919047D01*
X209252380Y-75919047D02*
X209300000Y-75871428D01*
X209347619Y-75919047D01*
X209300000Y-75966666D01*
X209252380Y-75919047D01*
X209347619Y-75919047D01*
X210204761Y-76347619D02*
X210252380Y-76442857D01*
X210252380Y-76633333D01*
X210204761Y-76728571D01*
X210109523Y-76776190D01*
X210061904Y-76776190D01*
X209966666Y-76728571D01*
X209919047Y-76633333D01*
X209919047Y-76490476D01*
X209871428Y-76395238D01*
X209776190Y-76347619D01*
X209728571Y-76347619D01*
X209633333Y-76395238D01*
X209585714Y-76490476D01*
X209585714Y-76633333D01*
X209633333Y-76728571D01*
X209204761Y-77919047D02*
X210490476Y-77061904D01*
X210204761Y-78204761D02*
X210252380Y-78299999D01*
X210252380Y-78490476D01*
X210204761Y-78585714D01*
X210109523Y-78633333D01*
X210061904Y-78633333D01*
X209966666Y-78585714D01*
X209919047Y-78490476D01*
X209919047Y-78347619D01*
X209871428Y-78252380D01*
X209776190Y-78204761D01*
X209728571Y-78204761D01*
X209633333Y-78252380D01*
X209585714Y-78347619D01*
X209585714Y-78490476D01*
X209633333Y-78585714D01*
X210252380Y-79061904D02*
X209585714Y-79061904D01*
X209680952Y-79061904D02*
X209633333Y-79109523D01*
X209585714Y-79204761D01*
X209585714Y-79347619D01*
X209633333Y-79442857D01*
X209728571Y-79490476D01*
X210252380Y-79490476D01*
X209728571Y-79490476D02*
X209633333Y-79538095D01*
X209585714Y-79633333D01*
X209585714Y-79776190D01*
X209633333Y-79871428D01*
X209728571Y-79919047D01*
X210252380Y-79919047D01*
X210252380Y-80538095D02*
X210204761Y-80442857D01*
X210157142Y-80395238D01*
X210061904Y-80347619D01*
X209776190Y-80347619D01*
X209680952Y-80395238D01*
X209633333Y-80442857D01*
X209585714Y-80538095D01*
X209585714Y-80680952D01*
X209633333Y-80776190D01*
X209680952Y-80823809D01*
X209776190Y-80871428D01*
X210061904Y-80871428D01*
X210157142Y-80823809D01*
X210204761Y-80776190D01*
X210252380Y-80680952D01*
X210252380Y-80538095D01*
X210252380Y-81442857D02*
X210204761Y-81347619D01*
X210109523Y-81299999D01*
X209252380Y-81299999D01*
X209871428Y-81823809D02*
X209871428Y-82585714D01*
X209585714Y-83061904D02*
X210442857Y-83061904D01*
X210538095Y-83014285D01*
X210585714Y-82919047D01*
X210585714Y-82871428D01*
X209252380Y-83061904D02*
X209300000Y-83014285D01*
X209347619Y-83061904D01*
X209300000Y-83109523D01*
X209252380Y-83061904D01*
X209347619Y-83061904D01*
X209585714Y-83442857D02*
X210252380Y-83680952D01*
X209585714Y-83919047D01*
X210204761Y-84252380D02*
X210252380Y-84347619D01*
X210252380Y-84538095D01*
X210204761Y-84633333D01*
X210109523Y-84680952D01*
X210061904Y-84680952D01*
X209966666Y-84633333D01*
X209919047Y-84538095D01*
X209919047Y-84395238D01*
X209871428Y-84299999D01*
X209776190Y-84252380D01*
X209728571Y-84252380D01*
X209633333Y-84299999D01*
X209585714Y-84395238D01*
X209585714Y-84538095D01*
X209633333Y-84633333D01*
X209871428Y-85109523D02*
X209871428Y-85871428D01*
X210252380Y-86347619D02*
X209585714Y-86347619D01*
X209252380Y-86347619D02*
X209300000Y-86299999D01*
X209347619Y-86347619D01*
X209300000Y-86395238D01*
X209252380Y-86347619D01*
X209347619Y-86347619D01*
X210252380Y-86966666D02*
X210204761Y-86871428D01*
X210157142Y-86823809D01*
X210061904Y-86776190D01*
X209776190Y-86776190D01*
X209680952Y-86823809D01*
X209633333Y-86871428D01*
X209585714Y-86966666D01*
X209585714Y-87109523D01*
X209633333Y-87204761D01*
X209680952Y-87252380D01*
X209776190Y-87299999D01*
X210061904Y-87299999D01*
X210157142Y-87252380D01*
X210204761Y-87204761D01*
X210252380Y-87109523D01*
X210252380Y-86966666D01*
G04 #@! TO.C,Q1*
X186195238Y-81547619D02*
X186290476Y-81500000D01*
X186385714Y-81404761D01*
X186528571Y-81261904D01*
X186623809Y-81214285D01*
X186719047Y-81214285D01*
X186671428Y-81452380D02*
X186766666Y-81404761D01*
X186861904Y-81309523D01*
X186909523Y-81119047D01*
X186909523Y-80785714D01*
X186861904Y-80595238D01*
X186766666Y-80500000D01*
X186671428Y-80452380D01*
X186480952Y-80452380D01*
X186385714Y-80500000D01*
X186290476Y-80595238D01*
X186242857Y-80785714D01*
X186242857Y-81119047D01*
X186290476Y-81309523D01*
X186385714Y-81404761D01*
X186480952Y-81452380D01*
X186671428Y-81452380D01*
X185290476Y-81452380D02*
X185861904Y-81452380D01*
X185576190Y-81452380D02*
X185576190Y-80452380D01*
X185671428Y-80595238D01*
X185766666Y-80690476D01*
X185861904Y-80738095D01*
D11*
X186000000Y-87060000D02*
X187950000Y-87060000D01*
X186000000Y-81940000D02*
X184050000Y-81940000D01*
X186000000Y-81940000D02*
X189450000Y-81940000D01*
X186000000Y-87060000D02*
X184050000Y-87060000D01*
G04 #@! TD*
M02*
